G75*
G70*
%OFA0B0*%
%FSLAX24Y24*%
%IPPOS*%
%LPD*%
%AMOC8*
5,1,8,0,0,1.08239X$1,22.5*
%
%ADD10C,0.0004*%
%ADD11R,0.3220X0.0980*%
%ADD12R,0.3100X0.8700*%
%ADD13OC8,0.0740*%
%ADD14R,0.0316X0.0297*%
%ADD15OC8,0.0600*%
%ADD16R,0.0592X0.0710*%
%ADD17R,0.0513X0.0631*%
%ADD18R,0.0671X0.0474*%
%ADD19R,0.0592X0.0671*%
%ADD20R,0.0552X0.0552*%
%ADD21R,0.0513X0.0474*%
%ADD22R,0.0493X0.0505*%
%ADD23R,0.0395X0.0395*%
%ADD24R,0.0474X0.0513*%
%ADD25R,0.0671X0.0159*%
%ADD26R,0.0159X0.0671*%
%ADD27R,0.0237X0.0552*%
%ADD28R,0.0552X0.0237*%
%ADD29R,0.0552X0.0180*%
%ADD30R,0.0180X0.0552*%
%ADD31R,0.0867X0.0671*%
%ADD32R,0.0946X0.0631*%
%ADD33C,0.0000*%
%ADD34C,0.1340*%
%ADD35C,0.0398*%
%ADD36C,0.3220*%
%ADD37R,0.2055X0.2055*%
%ADD38OC8,0.1740*%
%ADD39OC8,0.1582*%
%ADD40OC8,0.1346*%
%ADD41OC8,0.1261*%
%ADD42OC8,0.1025*%
%ADD43OC8,0.0966*%
%ADD44OC8,0.0907*%
%ADD45OC8,0.0848*%
%ADD46OC8,0.0789*%
%ADD47OC8,0.0730*%
%ADD48OC8,0.0671*%
%ADD49OC8,0.0611*%
%ADD50OC8,0.0555*%
%ADD51OC8,0.0516*%
%ADD52OC8,0.0476*%
%ADD53OC8,0.0437*%
%ADD54OC8,0.0397*%
%ADD55OC8,0.0358*%
D10*
X000302Y002170D02*
X000302Y005713D01*
X000302Y017918D01*
X000304Y018012D01*
X000311Y018105D01*
X000322Y018198D01*
X000338Y018291D01*
X000358Y018382D01*
X000382Y018473D01*
X000410Y018562D01*
X000443Y018650D01*
X000480Y018736D01*
X000521Y018820D01*
X000566Y018903D01*
X000615Y018983D01*
X000667Y019060D01*
X000723Y019135D01*
X000783Y019207D01*
X000846Y019277D01*
X000912Y019343D01*
X000982Y019406D01*
X001054Y019466D01*
X001129Y019522D01*
X001206Y019574D01*
X001286Y019623D01*
X001369Y019668D01*
X001453Y019709D01*
X001539Y019746D01*
X001627Y019779D01*
X001716Y019807D01*
X001807Y019831D01*
X001898Y019851D01*
X001991Y019867D01*
X002084Y019878D01*
X002177Y019885D01*
X002271Y019887D01*
X007389Y019887D01*
X012507Y019887D01*
X012601Y019885D01*
X012694Y019878D01*
X012787Y019867D01*
X012880Y019851D01*
X012971Y019831D01*
X013062Y019807D01*
X013151Y019779D01*
X013239Y019746D01*
X013325Y019709D01*
X013409Y019668D01*
X013491Y019623D01*
X013572Y019574D01*
X013649Y019522D01*
X013724Y019466D01*
X013796Y019406D01*
X013866Y019343D01*
X013932Y019277D01*
X013995Y019207D01*
X014055Y019135D01*
X014111Y019060D01*
X014163Y018983D01*
X014212Y018902D01*
X014257Y018820D01*
X014298Y018736D01*
X014335Y018650D01*
X014368Y018562D01*
X014396Y018473D01*
X014420Y018382D01*
X014440Y018291D01*
X014456Y018198D01*
X014467Y018105D01*
X014474Y018012D01*
X014476Y017918D01*
X014476Y005713D01*
X014476Y002170D01*
X014474Y002076D01*
X014467Y001983D01*
X014456Y001890D01*
X014440Y001797D01*
X014420Y001706D01*
X014396Y001615D01*
X014368Y001526D01*
X014335Y001438D01*
X014298Y001352D01*
X014257Y001268D01*
X014212Y001186D01*
X014163Y001105D01*
X014111Y001028D01*
X014055Y000953D01*
X013995Y000881D01*
X013932Y000811D01*
X013866Y000745D01*
X013796Y000682D01*
X013724Y000622D01*
X013649Y000566D01*
X013572Y000514D01*
X013492Y000465D01*
X013409Y000420D01*
X013325Y000379D01*
X013239Y000342D01*
X013151Y000309D01*
X013062Y000281D01*
X012971Y000257D01*
X012880Y000237D01*
X012787Y000221D01*
X012694Y000210D01*
X012601Y000203D01*
X012507Y000201D01*
X012507Y000202D02*
X007389Y000202D01*
X002271Y000202D01*
X002271Y000201D02*
X002177Y000203D01*
X002084Y000210D01*
X001991Y000221D01*
X001898Y000237D01*
X001807Y000257D01*
X001716Y000281D01*
X001627Y000309D01*
X001539Y000342D01*
X001453Y000379D01*
X001369Y000420D01*
X001286Y000465D01*
X001206Y000514D01*
X001129Y000566D01*
X001054Y000622D01*
X000982Y000682D01*
X000912Y000745D01*
X000846Y000811D01*
X000783Y000881D01*
X000723Y000953D01*
X000667Y001028D01*
X000615Y001105D01*
X000566Y001186D01*
X000521Y001268D01*
X000480Y001352D01*
X000443Y001438D01*
X000410Y001526D01*
X000382Y001615D01*
X000358Y001706D01*
X000338Y001797D01*
X000322Y001890D01*
X000311Y001983D01*
X000304Y002076D01*
X000302Y002170D01*
D11*
X004362Y003632D03*
D12*
X004652Y014952D03*
D13*
X006756Y011270D03*
X008756Y011270D03*
X000980Y010830D03*
X000980Y014830D03*
D14*
X001188Y002818D03*
X000932Y002089D03*
X001444Y002089D03*
D15*
X010060Y011258D03*
X011060Y011258D03*
D16*
X001989Y004798D03*
X001241Y004798D03*
D17*
X002796Y005979D03*
X003583Y005979D03*
X003190Y004798D03*
X003977Y004798D03*
D18*
X004591Y005979D03*
X005331Y005979D03*
D19*
X005493Y004798D03*
X004824Y004798D03*
D20*
X011248Y009947D03*
X012075Y009947D03*
D21*
X005350Y008363D03*
X004680Y008363D03*
D22*
X004670Y007247D03*
X005359Y007247D03*
D23*
X007963Y010063D03*
X008554Y010063D03*
D24*
X001950Y005979D03*
X001280Y005979D03*
D25*
X006560Y005954D03*
X006560Y006111D03*
X006560Y006269D03*
X006560Y006426D03*
X006560Y006583D03*
X006560Y006741D03*
X006560Y006898D03*
X006560Y007056D03*
X006560Y007213D03*
X006560Y007371D03*
X006560Y007528D03*
X006560Y007686D03*
X006560Y007843D03*
X006560Y008001D03*
X006560Y008158D03*
X006560Y008316D03*
X006560Y008473D03*
X006560Y005796D03*
X006560Y005639D03*
X006560Y005481D03*
X006560Y005324D03*
X006560Y005166D03*
X006560Y005009D03*
X006560Y004851D03*
X006560Y004694D03*
X011836Y004694D03*
X011836Y004851D03*
X011836Y005009D03*
X011836Y005166D03*
X011836Y005324D03*
X011836Y005481D03*
X011836Y005639D03*
X011836Y005796D03*
X011836Y005954D03*
X011836Y006111D03*
X011836Y006269D03*
X011836Y006426D03*
X011836Y006583D03*
X011836Y006741D03*
X011836Y006898D03*
X011836Y007056D03*
X011836Y007213D03*
X011836Y007371D03*
X011836Y007528D03*
X011836Y007686D03*
X011836Y007843D03*
X011836Y008001D03*
X011836Y008158D03*
X011836Y008316D03*
X011836Y008473D03*
D26*
X011088Y009221D03*
X010930Y009221D03*
X010773Y009221D03*
X010615Y009221D03*
X010458Y009221D03*
X010300Y009221D03*
X010143Y009221D03*
X009985Y009221D03*
X009828Y009221D03*
X009670Y009221D03*
X009513Y009221D03*
X009355Y009221D03*
X009198Y009221D03*
X009040Y009221D03*
X008883Y009221D03*
X008725Y009221D03*
X008568Y009221D03*
X008410Y009221D03*
X008253Y009221D03*
X008096Y009221D03*
X007938Y009221D03*
X007781Y009221D03*
X007623Y009221D03*
X007466Y009221D03*
X007308Y009221D03*
X007308Y003946D03*
X007466Y003946D03*
X007623Y003946D03*
X007781Y003946D03*
X007938Y003946D03*
X008096Y003946D03*
X008253Y003946D03*
X008410Y003946D03*
X008568Y003946D03*
X008725Y003946D03*
X008883Y003946D03*
X009040Y003946D03*
X009198Y003946D03*
X009355Y003946D03*
X009513Y003946D03*
X009670Y003946D03*
X009828Y003946D03*
X009985Y003946D03*
X010143Y003946D03*
X010300Y003946D03*
X010458Y003946D03*
X010615Y003946D03*
X010773Y003946D03*
X010930Y003946D03*
X011088Y003946D03*
D27*
X010558Y012960D03*
X010243Y012960D03*
X009928Y012960D03*
X009613Y012960D03*
X009298Y012960D03*
X008983Y012960D03*
X008668Y012960D03*
X008353Y012960D03*
X008353Y016346D03*
X008668Y016346D03*
X008983Y016346D03*
X009298Y016346D03*
X009613Y016346D03*
X009928Y016346D03*
X010243Y016346D03*
X010558Y016346D03*
D28*
X011148Y015756D03*
X011148Y015441D03*
X011148Y015126D03*
X011148Y014811D03*
X011148Y014496D03*
X011148Y014181D03*
X011148Y013866D03*
X011148Y013551D03*
X007762Y013551D03*
X007762Y013866D03*
X007762Y014181D03*
X007762Y014496D03*
X007762Y014811D03*
X007762Y015126D03*
X007762Y015441D03*
X007762Y015756D03*
D29*
X006808Y015736D03*
X006808Y015539D03*
X006808Y015342D03*
X006808Y015145D03*
X006808Y014949D03*
X006808Y014752D03*
X006808Y014555D03*
X006808Y014358D03*
X006808Y014161D03*
X006808Y013964D03*
X006808Y013767D03*
X006808Y013571D03*
X006808Y013374D03*
X006808Y013177D03*
X006808Y012980D03*
X006808Y012783D03*
X006808Y015933D03*
X006808Y016130D03*
X006808Y016327D03*
X006808Y016523D03*
X012103Y016523D03*
X012103Y016327D03*
X012103Y016130D03*
X012103Y015933D03*
X012103Y015736D03*
X012103Y015539D03*
X012103Y015342D03*
X012103Y015145D03*
X012103Y014949D03*
X012103Y014752D03*
X012103Y014555D03*
X012103Y014358D03*
X012103Y014161D03*
X012103Y013964D03*
X012103Y013767D03*
X012103Y013571D03*
X012103Y013374D03*
X012103Y013177D03*
X012103Y012980D03*
X012103Y012783D03*
D30*
X011325Y012006D03*
X011129Y012006D03*
X010932Y012006D03*
X010735Y012006D03*
X010538Y012006D03*
X010341Y012006D03*
X010144Y012006D03*
X009947Y012006D03*
X009751Y012006D03*
X009554Y012006D03*
X009357Y012006D03*
X009160Y012006D03*
X008963Y012006D03*
X008766Y012006D03*
X008570Y012006D03*
X008373Y012006D03*
X008176Y012006D03*
X007979Y012006D03*
X007782Y012006D03*
X007585Y012006D03*
X007585Y017301D03*
X007782Y017301D03*
X007979Y017301D03*
X008176Y017301D03*
X008373Y017301D03*
X008570Y017301D03*
X008766Y017301D03*
X008963Y017301D03*
X009160Y017301D03*
X009357Y017301D03*
X009554Y017301D03*
X009751Y017301D03*
X009947Y017301D03*
X010144Y017301D03*
X010341Y017301D03*
X010538Y017301D03*
X010735Y017301D03*
X010932Y017301D03*
X011129Y017301D03*
X011325Y017301D03*
D31*
X011414Y018474D03*
X012437Y018474D03*
D32*
X010254Y018498D03*
X008995Y018498D03*
D33*
X001472Y008902D02*
X001474Y008952D01*
X001480Y009002D01*
X001490Y009051D01*
X001504Y009099D01*
X001521Y009146D01*
X001542Y009191D01*
X001567Y009235D01*
X001595Y009276D01*
X001627Y009315D01*
X001661Y009352D01*
X001698Y009386D01*
X001738Y009416D01*
X001780Y009443D01*
X001824Y009467D01*
X001870Y009488D01*
X001917Y009504D01*
X001965Y009517D01*
X002015Y009526D01*
X002064Y009531D01*
X002115Y009532D01*
X002165Y009529D01*
X002214Y009522D01*
X002263Y009511D01*
X002311Y009496D01*
X002357Y009478D01*
X002402Y009456D01*
X002445Y009430D01*
X002486Y009401D01*
X002525Y009369D01*
X002561Y009334D01*
X002593Y009296D01*
X002623Y009256D01*
X002650Y009213D01*
X002673Y009169D01*
X002692Y009123D01*
X002708Y009075D01*
X002720Y009026D01*
X002728Y008977D01*
X002732Y008927D01*
X002732Y008877D01*
X002728Y008827D01*
X002720Y008778D01*
X002708Y008729D01*
X002692Y008681D01*
X002673Y008635D01*
X002650Y008591D01*
X002623Y008548D01*
X002593Y008508D01*
X002561Y008470D01*
X002525Y008435D01*
X002486Y008403D01*
X002445Y008374D01*
X002402Y008348D01*
X002357Y008326D01*
X002311Y008308D01*
X002263Y008293D01*
X002214Y008282D01*
X002165Y008275D01*
X002115Y008272D01*
X002064Y008273D01*
X002015Y008278D01*
X001965Y008287D01*
X001917Y008300D01*
X001870Y008316D01*
X001824Y008337D01*
X001780Y008361D01*
X001738Y008388D01*
X001698Y008418D01*
X001661Y008452D01*
X001627Y008489D01*
X001595Y008528D01*
X001567Y008569D01*
X001542Y008613D01*
X001521Y008658D01*
X001504Y008705D01*
X001490Y008753D01*
X001480Y008802D01*
X001474Y008852D01*
X001472Y008902D01*
D34*
X002102Y008902D03*
D35*
X002102Y010527D03*
X003352Y007777D03*
D36*
X002102Y008902D03*
D37*
X007389Y018706D03*
D38*
X013137Y001880D03*
D39*
X013137Y003651D03*
D40*
X013137Y005226D03*
D41*
X013158Y006695D03*
D42*
X013158Y008173D03*
D43*
X013158Y009354D03*
D44*
X013158Y010535D03*
D45*
X013158Y011620D03*
D46*
X013151Y012536D03*
D47*
X013176Y013331D03*
D48*
X013176Y014118D03*
D49*
X013176Y014806D03*
D50*
X013176Y015493D03*
D51*
X013176Y016183D03*
D52*
X013176Y016774D03*
D53*
X013176Y017365D03*
D54*
X013176Y017955D03*
D55*
X013176Y018546D03*
M02*
