%
M48
M72
T01C0.0118
T02C0.0157
T03C0.0197
T04C0.0236
T05C0.0276
T06C0.0315
T07C0.0320
T08C0.0354
T09C0.0394
T10C0.0433
T11C0.0472
T12C0.0512
T13C0.0551
T14C0.0591
T15C0.0630
T16C0.0787
T17C0.0866
T18C0.1102
T19C0.1260
T20C0.1575
%
T01
X3050Y7575
X1800Y10325
X12874Y18344
T02
X12874Y17754
T03
X12874Y17163
T04
X12874Y16572
T05
X12874Y15982
T06
X12874Y15291
T07
X8454Y11069
X6454Y11069
X677Y14628
X677Y10628
X10757Y11056
X9757Y11056
T08
X12874Y14604
T09
X12874Y13917
T10
X12874Y13129
T11
X12849Y12335
T12
X12856Y11418
T13
X12856Y10334
T14
X12856Y9153
T15
X12856Y7972
T16
X12856Y6494
T17
X12835Y5024
T18
X12835Y3450
T19
X1800Y8700
X12835Y1678
T20
X7087Y18504
M30
