G75*
G70*
%OFA0B0*%
%FSLAX24Y24*%
%IPPOS*%
%LPD*%
%AMOC8*
5,1,8,0,0,1.08239X$1,22.5*
%
%ADD10C,0.0060*%
%ADD11C,0.0004*%
%ADD12C,0.0040*%
%ADD13C,0.0050*%
%ADD14C,0.0070*%
%ADD15C,0.0030*%
%ADD16R,0.0024X0.0008*%
%ADD17R,0.0040X0.0008*%
%ADD18R,0.0048X0.0008*%
%ADD19R,0.0072X0.0008*%
%ADD20R,0.0088X0.0008*%
%ADD21R,0.0104X0.0008*%
%ADD22R,0.0120X0.0008*%
%ADD23R,0.0136X0.0008*%
%ADD24R,0.0152X0.0008*%
%ADD25R,0.0176X0.0008*%
%ADD26R,0.0184X0.0008*%
%ADD27R,0.0200X0.0008*%
%ADD28R,0.0200X0.0008*%
%ADD29R,0.0192X0.0008*%
%ADD30R,0.0904X0.0008*%
%ADD31R,0.0776X0.0008*%
%ADD32R,0.0888X0.0008*%
%ADD33R,0.0880X0.0008*%
%ADD34R,0.0864X0.0008*%
%ADD35R,0.0776X0.0008*%
%ADD36R,0.0856X0.0008*%
%ADD37R,0.0848X0.0008*%
%ADD38R,0.0832X0.0008*%
%ADD39R,0.0824X0.0008*%
%ADD40R,0.0808X0.0008*%
%ADD41R,0.0800X0.0008*%
%ADD42R,0.0792X0.0008*%
%ADD43R,0.0768X0.0008*%
%ADD44R,0.0752X0.0008*%
%ADD45R,0.0744X0.0008*%
%ADD46R,0.0120X0.0008*%
%ADD47R,0.0128X0.0008*%
%ADD48R,0.0192X0.0008*%
%ADD49R,0.0656X0.0008*%
%ADD50R,0.0536X0.0008*%
%ADD51R,0.0240X0.0008*%
%ADD52R,0.0600X0.0008*%
%ADD53R,0.0288X0.0008*%
%ADD54R,0.0624X0.0008*%
%ADD55R,0.0304X0.0008*%
%ADD56R,0.0640X0.0008*%
%ADD57R,0.0336X0.0008*%
%ADD58R,0.0664X0.0008*%
%ADD59R,0.0656X0.0008*%
%ADD60R,0.0360X0.0008*%
%ADD61R,0.0664X0.0008*%
%ADD62R,0.0664X0.0008*%
%ADD63R,0.0384X0.0008*%
%ADD64R,0.0672X0.0008*%
%ADD65R,0.0400X0.0008*%
%ADD66R,0.0680X0.0008*%
%ADD67R,0.0416X0.0008*%
%ADD68R,0.0552X0.0008*%
%ADD69R,0.0672X0.0008*%
%ADD70R,0.0696X0.0008*%
%ADD71R,0.0552X0.0008*%
%ADD72R,0.0696X0.0008*%
%ADD73R,0.0560X0.0008*%
%ADD74R,0.0704X0.0008*%
%ADD75R,0.0568X0.0008*%
%ADD76R,0.0704X0.0008*%
%ADD77R,0.0568X0.0008*%
%ADD78R,0.1288X0.0008*%
%ADD79R,0.0920X0.0008*%
%ADD80R,0.0320X0.0008*%
%ADD81R,0.0912X0.0008*%
%ADD82R,0.0312X0.0008*%
%ADD83R,0.0432X0.0008*%
%ADD84R,0.0448X0.0008*%
%ADD85R,0.1192X0.0008*%
%ADD86R,0.0416X0.0008*%
%ADD87R,0.0304X0.0008*%
%ADD88R,0.1192X0.0008*%
%ADD89R,0.0408X0.0008*%
%ADD90R,0.0328X0.0008*%
%ADD91R,0.0728X0.0008*%
%ADD92R,0.0328X0.0008*%
%ADD93R,0.0720X0.0008*%
%ADD94R,0.0392X0.0008*%
%ADD95R,0.0720X0.0008*%
%ADD96R,0.0392X0.0008*%
%ADD97R,0.0488X0.0008*%
%ADD98R,0.0224X0.0008*%
%ADD99R,0.0488X0.0008*%
%ADD100R,0.0224X0.0008*%
%ADD101R,0.0480X0.0008*%
%ADD102R,0.0472X0.0008*%
%ADD103R,0.0472X0.0008*%
%ADD104R,0.0312X0.0008*%
%ADD105R,0.0216X0.0008*%
%ADD106R,0.0192X0.0008*%
%ADD107R,0.0336X0.0008*%
%ADD108R,0.0216X0.0008*%
%ADD109R,0.0352X0.0008*%
%ADD110R,0.0192X0.0008*%
%ADD111R,0.0184X0.0008*%
%ADD112R,0.0360X0.0008*%
%ADD113R,0.0208X0.0008*%
%ADD114R,0.0368X0.0008*%
%ADD115R,0.0184X0.0008*%
%ADD116R,0.0408X0.0008*%
%ADD117R,0.0416X0.0008*%
%ADD118R,0.0256X0.0008*%
%ADD119R,0.0440X0.0008*%
%ADD120R,0.0328X0.0008*%
%ADD121R,0.0336X0.0008*%
%ADD122R,0.0344X0.0008*%
%ADD123R,0.0472X0.0008*%
%ADD124R,0.0344X0.0008*%
%ADD125R,0.0464X0.0008*%
%ADD126R,0.0176X0.0008*%
%ADD127R,0.0456X0.0008*%
%ADD128R,0.0352X0.0008*%
%ADD129R,0.0440X0.0008*%
%ADD130R,0.0352X0.0008*%
%ADD131R,0.0424X0.0008*%
%ADD132R,0.0344X0.0008*%
%ADD133R,0.0176X0.0008*%
%ADD134R,0.0184X0.0008*%
%ADD135R,0.0216X0.0008*%
%ADD136R,0.0296X0.0008*%
%ADD137R,0.0280X0.0008*%
%ADD138R,0.0264X0.0008*%
%ADD139R,0.0448X0.0008*%
%ADD140R,0.0424X0.0008*%
%ADD141R,0.0400X0.0008*%
%ADD142R,0.0376X0.0008*%
%ADD143R,0.0368X0.0008*%
%ADD144R,0.0408X0.0008*%
%ADD145R,0.0480X0.0008*%
%ADD146R,0.0584X0.0008*%
%ADD147R,0.0576X0.0008*%
%ADD148R,0.0464X0.0008*%
%ADD149R,0.0328X0.0008*%
%ADD150R,0.0432X0.0008*%
%ADD151R,0.0376X0.0008*%
%ADD152R,0.0392X0.0008*%
%ADD153R,0.0376X0.0008*%
%ADD154R,0.0320X0.0008*%
%ADD155R,0.0272X0.0008*%
%ADD156R,0.0224X0.0008*%
%ADD157R,0.0064X0.0008*%
%ADD158R,0.0704X0.0008*%
%ADD159R,0.0704X0.0008*%
%ADD160R,0.2048X0.0008*%
%ADD161R,0.2048X0.0008*%
%ADD162C,0.0020*%
%ADD163R,0.0256X0.0551*%
%ADD164R,0.0118X0.0059*%
%ADD165R,0.0118X0.0118*%
%ADD166R,0.0098X0.0098*%
%ADD167C,0.0100*%
%ADD168C,0.0010*%
%ADD169C,0.0120*%
%ADD170C,0.0001*%
%ADD171C,0.0000*%
D10*
X000825Y002272D02*
X001552Y002272D01*
X001552Y002635D01*
X000825Y002635D01*
X000825Y002272D01*
X003485Y002062D02*
X003485Y001955D01*
X003912Y001528D01*
X003912Y001422D01*
X003912Y002062D02*
X003485Y002062D01*
X004982Y002182D02*
X007142Y002182D01*
X007142Y002302D02*
X004982Y002302D01*
X004982Y002422D02*
X007142Y002422D01*
X007142Y002542D02*
X004982Y002542D01*
X004982Y002662D02*
X007142Y002662D01*
X007142Y002782D02*
X007142Y000622D01*
X007022Y000622D01*
X007022Y002782D01*
X007142Y002782D01*
X007022Y002782D02*
X006902Y002782D01*
X006902Y000622D01*
X007022Y000622D01*
X006902Y000622D02*
X006782Y000622D01*
X006782Y002782D01*
X006902Y002782D01*
X006782Y002782D02*
X006662Y002782D01*
X006662Y000622D01*
X006782Y000622D01*
X006662Y000622D02*
X005462Y000622D01*
X005462Y002782D01*
X005582Y002782D01*
X005582Y000622D01*
X005462Y000622D02*
X005342Y000622D01*
X005342Y002782D01*
X005462Y002782D01*
X005342Y002782D02*
X005222Y002782D01*
X005222Y000622D01*
X005342Y000622D01*
X005222Y000622D02*
X005102Y000622D01*
X005102Y002782D01*
X005222Y002782D01*
X005102Y002782D02*
X004982Y002782D01*
X004982Y000622D01*
X005102Y000622D01*
X004982Y000742D02*
X007142Y000742D01*
X007142Y000862D02*
X004982Y000862D01*
X004982Y000982D02*
X007142Y000982D01*
X007142Y001102D02*
X004982Y001102D01*
X004982Y001222D02*
X007142Y001222D01*
X006542Y000622D02*
X006542Y002782D01*
X006662Y002782D01*
X006542Y002782D02*
X005582Y002782D01*
X005905Y002072D02*
X006119Y001965D01*
X006332Y001752D01*
X006012Y001752D01*
X005905Y001645D01*
X005905Y001538D01*
X006012Y001432D01*
X006226Y001432D01*
X006332Y001538D01*
X006332Y001752D01*
X008195Y001802D02*
X008195Y001588D01*
X008302Y001482D01*
X008516Y001482D01*
X008622Y001588D01*
X008622Y001802D02*
X008409Y001909D01*
X008302Y001909D01*
X008195Y001802D01*
X008195Y002122D02*
X008622Y002122D01*
X008622Y001802D01*
X010565Y001792D02*
X010992Y001792D01*
X010672Y002112D01*
X010672Y001472D01*
X009848Y007977D02*
X009701Y007977D01*
X009628Y008050D01*
X009628Y008344D01*
X009921Y008050D01*
X009848Y007977D01*
X009921Y008050D02*
X009921Y008344D01*
X009848Y008417D01*
X009701Y008417D01*
X009628Y008344D01*
X009461Y008050D02*
X009461Y007977D01*
X009388Y007977D01*
X009388Y008050D01*
X009461Y008050D01*
X009231Y008197D02*
X008937Y008197D01*
X008771Y008271D02*
X008771Y007977D01*
X008624Y007977D02*
X008624Y008197D01*
X008550Y008271D01*
X008477Y008197D01*
X008477Y007977D01*
X008624Y008197D02*
X008697Y008271D01*
X008771Y008271D01*
X009011Y008417D02*
X009231Y008197D01*
X009011Y007977D02*
X009011Y008417D01*
X008310Y008271D02*
X008310Y007977D01*
X008164Y007977D02*
X008164Y008197D01*
X008090Y008271D01*
X008017Y008197D01*
X008017Y007977D01*
X008164Y008197D02*
X008237Y008271D01*
X008310Y008271D01*
X005273Y009834D02*
X005273Y009964D01*
X005123Y009984D01*
X005063Y010114D01*
X005153Y010244D01*
X005063Y010334D01*
X004933Y010244D01*
X004813Y010294D01*
X004783Y010454D01*
X004653Y010454D01*
X004623Y010294D01*
X004503Y010244D01*
X004363Y010334D01*
X004273Y010244D01*
X004363Y010114D01*
X004313Y009994D01*
X004163Y009964D01*
X004163Y009834D01*
X004303Y009804D01*
X004363Y009674D01*
X004273Y009544D01*
X004363Y009454D01*
X004483Y009534D01*
X004543Y009504D01*
X004633Y009734D01*
X004573Y009704D02*
X004473Y009904D01*
X004573Y010054D01*
X004723Y010104D01*
X004873Y010054D01*
X004923Y009904D01*
X004873Y009754D01*
X004823Y009704D01*
X004923Y009554D01*
X005073Y009504D01*
X005123Y009554D01*
X005023Y009704D01*
X005123Y009854D01*
X005223Y009854D01*
X005223Y009954D01*
X005073Y009954D01*
X005023Y010104D01*
X005123Y010254D01*
X005073Y010304D01*
X004923Y010204D01*
X004773Y010304D01*
X004773Y010404D01*
X004673Y010404D01*
X004623Y010254D01*
X004473Y010204D01*
X004373Y010304D01*
X004323Y010254D01*
X004373Y010104D01*
X004323Y009954D01*
X004173Y009954D01*
X004223Y009854D01*
X004373Y009804D01*
X004373Y009654D01*
X004323Y009554D01*
X004373Y009504D01*
X004473Y009554D01*
X004523Y009554D01*
X004573Y009704D01*
X004567Y009686D02*
X004373Y009686D01*
X004373Y009744D02*
X004553Y009744D01*
X004524Y009803D02*
X004373Y009803D01*
X004494Y009861D02*
X004219Y009861D01*
X004190Y009920D02*
X004483Y009920D01*
X004522Y009978D02*
X004331Y009978D01*
X004351Y010037D02*
X004561Y010037D01*
X004697Y010095D02*
X004370Y010095D01*
X004356Y010154D02*
X005056Y010154D01*
X005026Y010095D02*
X004749Y010095D01*
X004879Y010037D02*
X005045Y010037D01*
X005065Y009978D02*
X004898Y009978D01*
X004918Y009920D02*
X005223Y009920D01*
X005223Y009861D02*
X004909Y009861D01*
X004889Y009803D02*
X005089Y009803D01*
X005123Y009804D02*
X005073Y009674D01*
X005153Y009544D01*
X005063Y009454D01*
X004943Y009534D01*
X004893Y009504D01*
X004793Y009734D01*
X004835Y009686D02*
X005035Y009686D01*
X005050Y009744D02*
X004863Y009744D01*
X004874Y009627D02*
X005074Y009627D01*
X005113Y009569D02*
X004913Y009569D01*
X005055Y009510D02*
X005079Y009510D01*
X005123Y009804D02*
X005273Y009834D01*
X005095Y010212D02*
X004936Y010212D01*
X004910Y010212D02*
X004498Y010212D01*
X004465Y010212D02*
X004337Y010212D01*
X004340Y010271D02*
X004406Y010271D01*
X004629Y010271D02*
X004823Y010271D01*
X004773Y010330D02*
X004648Y010330D01*
X004668Y010388D02*
X004773Y010388D01*
X005023Y010271D02*
X005106Y010271D01*
X004793Y009734D02*
X004815Y009747D01*
X004835Y009763D01*
X004853Y009782D01*
X004868Y009804D01*
X004879Y009827D01*
X004887Y009852D01*
X004891Y009877D01*
X004892Y009903D01*
X004889Y009929D01*
X004882Y009954D01*
X004871Y009977D01*
X004858Y009999D01*
X004841Y010019D01*
X004822Y010036D01*
X004800Y010051D01*
X004776Y010061D01*
X004752Y010069D01*
X004726Y010073D01*
X004700Y010073D01*
X004674Y010069D01*
X004650Y010061D01*
X004626Y010051D01*
X004604Y010036D01*
X004585Y010019D01*
X004568Y009999D01*
X004555Y009977D01*
X004544Y009954D01*
X004537Y009929D01*
X004534Y009903D01*
X004535Y009877D01*
X004539Y009852D01*
X004547Y009827D01*
X004558Y009804D01*
X004573Y009782D01*
X004591Y009763D01*
X004611Y009747D01*
X004633Y009734D01*
X004547Y009627D02*
X004359Y009627D01*
X004330Y009569D02*
X004528Y009569D01*
X004385Y009510D02*
X004367Y009510D01*
X008524Y013778D02*
X008524Y014218D01*
X008671Y014071D01*
X008818Y014218D01*
X008818Y013778D01*
X008985Y013778D02*
X008985Y014218D01*
X009132Y014071D01*
X009278Y014218D01*
X009278Y013778D01*
X009445Y013851D02*
X009445Y013925D01*
X009519Y013998D01*
X009665Y013998D01*
X009739Y014071D01*
X009739Y014145D01*
X009665Y014218D01*
X009519Y014218D01*
X009445Y014145D01*
X009445Y014071D01*
X009519Y013998D01*
X009665Y013998D02*
X009739Y013925D01*
X009739Y013851D01*
X009665Y013778D01*
X009519Y013778D01*
X009445Y013851D01*
X009896Y013851D02*
X009896Y013778D01*
X009969Y013778D01*
X009969Y013851D01*
X009896Y013851D01*
X010136Y013851D02*
X010136Y014145D01*
X010429Y013851D01*
X010356Y013778D01*
X010209Y013778D01*
X010136Y013851D01*
X010429Y013851D02*
X010429Y014145D01*
X010356Y014218D01*
X010209Y014218D01*
X010136Y014145D01*
X010193Y015144D02*
X010340Y015144D01*
X010414Y015217D01*
X010120Y015511D01*
X010120Y015217D01*
X010193Y015144D01*
X009953Y015144D02*
X009880Y015144D01*
X009880Y015217D01*
X009953Y015217D01*
X009953Y015144D01*
X009723Y015217D02*
X009650Y015144D01*
X009503Y015144D01*
X009429Y015217D01*
X009429Y015364D01*
X009503Y015438D01*
X009576Y015438D01*
X009723Y015364D01*
X009723Y015584D01*
X009429Y015584D01*
X009263Y015584D02*
X009116Y015438D01*
X008969Y015584D01*
X008969Y015144D01*
X008802Y015144D02*
X008802Y015584D01*
X008656Y015438D01*
X008509Y015584D01*
X008509Y015144D01*
X009263Y015144D02*
X009263Y015584D01*
X010120Y015511D02*
X010193Y015584D01*
X010340Y015584D01*
X010414Y015511D01*
X010414Y015217D01*
D11*
X000302Y005713D02*
X000302Y002170D01*
X000304Y002076D01*
X000311Y001983D01*
X000322Y001890D01*
X000338Y001797D01*
X000358Y001706D01*
X000382Y001615D01*
X000410Y001526D01*
X000443Y001438D01*
X000480Y001352D01*
X000521Y001268D01*
X000566Y001186D01*
X000615Y001105D01*
X000667Y001028D01*
X000723Y000953D01*
X000783Y000881D01*
X000846Y000811D01*
X000912Y000745D01*
X000982Y000682D01*
X001054Y000622D01*
X001129Y000566D01*
X001206Y000514D01*
X001286Y000465D01*
X001369Y000420D01*
X001453Y000379D01*
X001539Y000342D01*
X001627Y000309D01*
X001716Y000281D01*
X001807Y000257D01*
X001898Y000237D01*
X001991Y000221D01*
X002084Y000210D01*
X002177Y000203D01*
X002271Y000201D01*
X002271Y000202D02*
X007389Y000202D01*
X012507Y000202D01*
X012507Y000201D02*
X012601Y000203D01*
X012694Y000210D01*
X012787Y000221D01*
X012880Y000237D01*
X012971Y000257D01*
X013062Y000281D01*
X013151Y000309D01*
X013239Y000342D01*
X013325Y000379D01*
X013409Y000420D01*
X013492Y000465D01*
X013572Y000514D01*
X013649Y000566D01*
X013724Y000622D01*
X013796Y000682D01*
X013866Y000745D01*
X013932Y000811D01*
X013995Y000881D01*
X014055Y000953D01*
X014111Y001028D01*
X014163Y001105D01*
X014212Y001186D01*
X014257Y001268D01*
X014298Y001352D01*
X014335Y001438D01*
X014368Y001526D01*
X014396Y001615D01*
X014420Y001706D01*
X014440Y001797D01*
X014456Y001890D01*
X014467Y001983D01*
X014474Y002076D01*
X014476Y002170D01*
X014476Y005713D01*
X014476Y017918D01*
X014474Y018012D01*
X014467Y018105D01*
X014456Y018198D01*
X014440Y018291D01*
X014420Y018382D01*
X014396Y018473D01*
X014368Y018562D01*
X014335Y018650D01*
X014298Y018736D01*
X014257Y018820D01*
X014212Y018902D01*
X014163Y018983D01*
X014111Y019060D01*
X014055Y019135D01*
X013995Y019207D01*
X013932Y019277D01*
X013866Y019343D01*
X013796Y019406D01*
X013724Y019466D01*
X013649Y019522D01*
X013572Y019574D01*
X013491Y019623D01*
X013409Y019668D01*
X013325Y019709D01*
X013239Y019746D01*
X013151Y019779D01*
X013062Y019807D01*
X012971Y019831D01*
X012880Y019851D01*
X012787Y019867D01*
X012694Y019878D01*
X012601Y019885D01*
X012507Y019887D01*
X007389Y019887D01*
X002271Y019887D01*
X002177Y019885D01*
X002084Y019878D01*
X001991Y019867D01*
X001898Y019851D01*
X001807Y019831D01*
X001716Y019807D01*
X001627Y019779D01*
X001539Y019746D01*
X001453Y019709D01*
X001369Y019668D01*
X001286Y019623D01*
X001206Y019574D01*
X001129Y019522D01*
X001054Y019466D01*
X000982Y019406D01*
X000912Y019343D01*
X000846Y019277D01*
X000783Y019207D01*
X000723Y019135D01*
X000667Y019060D01*
X000615Y018983D01*
X000566Y018903D01*
X000521Y018820D01*
X000480Y018736D01*
X000443Y018650D01*
X000410Y018562D01*
X000382Y018473D01*
X000358Y018382D01*
X000338Y018291D01*
X000322Y018198D01*
X000311Y018105D01*
X000304Y018012D01*
X000302Y017918D01*
X000302Y005713D01*
D12*
X001443Y010804D02*
X001597Y010804D01*
X001520Y010804D02*
X001520Y011264D01*
X001597Y011264D01*
X001827Y011264D02*
X001827Y011341D01*
X001827Y011111D02*
X001827Y010804D01*
X001904Y010804D02*
X001750Y010804D01*
X002057Y010804D02*
X002057Y011034D01*
X002134Y011111D01*
X002211Y011034D01*
X002211Y010804D01*
X002364Y010804D02*
X002364Y011111D01*
X002287Y011111D01*
X002211Y011034D01*
X002518Y010958D02*
X002594Y011034D01*
X002824Y011034D01*
X002824Y010881D01*
X002748Y010804D01*
X002594Y010804D01*
X002518Y010881D01*
X002518Y010958D01*
X002671Y011188D02*
X002824Y011034D01*
X002671Y011188D02*
X002518Y011264D01*
X002344Y011694D02*
X002344Y012001D01*
X002267Y012001D01*
X002191Y011924D01*
X002114Y012001D01*
X002037Y011924D01*
X002037Y011694D01*
X001884Y011694D02*
X001730Y011694D01*
X001807Y011694D02*
X001807Y012001D01*
X001884Y012001D01*
X001807Y012154D02*
X001807Y012231D01*
X001577Y012154D02*
X001500Y012154D01*
X001500Y011694D01*
X001577Y011694D02*
X001423Y011694D01*
X001827Y011111D02*
X001904Y011111D01*
X002191Y011694D02*
X002191Y011924D01*
X002498Y012078D02*
X002804Y011771D01*
X002804Y011694D01*
X002804Y012154D02*
X002498Y012154D01*
X002498Y012078D01*
X002384Y012814D02*
X002384Y013121D01*
X002307Y013121D01*
X002231Y013044D01*
X002154Y013121D01*
X002077Y013044D01*
X002077Y012814D01*
X001924Y012814D02*
X001770Y012814D01*
X001847Y012814D02*
X001847Y013121D01*
X001924Y013121D01*
X001847Y013274D02*
X001847Y013351D01*
X001617Y013274D02*
X001540Y013274D01*
X001540Y012814D01*
X001617Y012814D02*
X001463Y012814D01*
X002231Y012814D02*
X002231Y013044D01*
X002538Y012968D02*
X002538Y012891D01*
X002614Y012814D01*
X002768Y012814D01*
X002844Y012891D01*
X002844Y012968D01*
X002768Y013044D01*
X002614Y013044D01*
X002538Y012968D01*
X002614Y013044D02*
X002538Y013121D01*
X002538Y013198D01*
X002614Y013274D01*
X002768Y013274D01*
X002844Y013198D01*
X002844Y013121D01*
X002768Y013044D01*
X002758Y014014D02*
X002758Y014474D01*
X002911Y014321D01*
X002911Y014014D02*
X002604Y014014D01*
X002451Y014091D02*
X002144Y014398D01*
X002144Y014091D01*
X002221Y014014D01*
X002374Y014014D01*
X002451Y014091D01*
X002451Y014398D01*
X002374Y014474D01*
X002221Y014474D01*
X002144Y014398D01*
X001990Y014321D02*
X001914Y014321D01*
X001837Y014244D01*
X001760Y014321D01*
X001684Y014244D01*
X001684Y014014D01*
X001837Y014014D02*
X001837Y014244D01*
X001990Y014321D02*
X001990Y014014D01*
X001530Y014014D02*
X001377Y014014D01*
X001453Y014014D02*
X001453Y014321D01*
X001530Y014321D01*
X001453Y014474D02*
X001453Y014551D01*
X001223Y014474D02*
X001146Y014474D01*
X001146Y014014D01*
X001070Y014014D02*
X001223Y014014D01*
X001223Y015214D02*
X001070Y015214D01*
X001146Y015214D02*
X001146Y015674D01*
X001223Y015674D01*
X001453Y015674D02*
X001453Y015751D01*
X001453Y015521D02*
X001453Y015214D01*
X001377Y015214D02*
X001530Y015214D01*
X001684Y015214D02*
X001684Y015444D01*
X001760Y015521D01*
X001837Y015444D01*
X001837Y015214D01*
X001990Y015214D02*
X001990Y015521D01*
X001914Y015521D01*
X001837Y015444D01*
X002144Y015521D02*
X002144Y015598D01*
X002221Y015674D01*
X002374Y015674D01*
X002451Y015598D01*
X002758Y015674D02*
X002758Y015214D01*
X002911Y015214D02*
X002604Y015214D01*
X002451Y015214D02*
X002144Y015521D01*
X002144Y015214D02*
X002451Y015214D01*
X002911Y015521D02*
X002758Y015674D01*
X002758Y016114D02*
X002758Y016574D01*
X002911Y016421D01*
X002911Y016114D02*
X002604Y016114D01*
X002451Y016191D02*
X002451Y016344D01*
X002221Y016344D01*
X002144Y016268D01*
X002144Y016191D01*
X002221Y016114D01*
X002374Y016114D01*
X002451Y016191D01*
X002451Y016344D02*
X002297Y016498D01*
X002144Y016574D01*
X001990Y016421D02*
X001914Y016421D01*
X001837Y016344D01*
X001760Y016421D01*
X001684Y016344D01*
X001684Y016114D01*
X001837Y016114D02*
X001837Y016344D01*
X001990Y016421D02*
X001990Y016114D01*
X001530Y016114D02*
X001377Y016114D01*
X001453Y016114D02*
X001453Y016421D01*
X001530Y016421D01*
X001453Y016574D02*
X001453Y016651D01*
X001223Y016574D02*
X001146Y016574D01*
X001146Y016114D01*
X001070Y016114D02*
X001223Y016114D01*
X001453Y015521D02*
X001530Y015521D01*
X001530Y017014D02*
X001377Y017014D01*
X001453Y017014D02*
X001453Y017321D01*
X001530Y017321D01*
X001453Y017474D02*
X001453Y017551D01*
X001223Y017474D02*
X001146Y017474D01*
X001146Y017014D01*
X001070Y017014D02*
X001223Y017014D01*
X001684Y017014D02*
X001684Y017244D01*
X001760Y017321D01*
X001837Y017244D01*
X001837Y017014D01*
X001990Y017014D02*
X001990Y017321D01*
X001914Y017321D01*
X001837Y017244D01*
X002144Y017244D02*
X002451Y017244D01*
X002221Y017474D01*
X002221Y017014D01*
X002604Y017014D02*
X002911Y017014D01*
X002604Y017321D01*
X002604Y017398D01*
X002681Y017474D01*
X002834Y017474D01*
X002911Y017398D01*
X002834Y017914D02*
X002681Y017914D01*
X002604Y017991D01*
X002604Y018068D01*
X002681Y018144D01*
X002758Y018144D01*
X002681Y018144D02*
X002604Y018221D01*
X002604Y018298D01*
X002681Y018374D01*
X002834Y018374D01*
X002911Y018298D01*
X002911Y017991D02*
X002834Y017914D01*
X002451Y017914D02*
X002144Y018221D01*
X002144Y018298D01*
X002221Y018374D01*
X002374Y018374D01*
X002451Y018298D01*
X002451Y017914D02*
X002144Y017914D01*
X001990Y017914D02*
X001990Y018221D01*
X001914Y018221D01*
X001837Y018144D01*
X001760Y018221D01*
X001684Y018144D01*
X001684Y017914D01*
X001837Y017914D02*
X001837Y018144D01*
X001530Y018221D02*
X001453Y018221D01*
X001453Y017914D01*
X001377Y017914D02*
X001530Y017914D01*
X001223Y017914D02*
X001070Y017914D01*
X001146Y017914D02*
X001146Y018374D01*
X001223Y018374D01*
X001453Y018374D02*
X001453Y018451D01*
X001453Y018814D02*
X001453Y019121D01*
X001530Y019121D01*
X001453Y019274D02*
X001453Y019351D01*
X001223Y019274D02*
X001146Y019274D01*
X001146Y018814D01*
X001070Y018814D02*
X001223Y018814D01*
X001377Y018814D02*
X001530Y018814D01*
X001684Y018814D02*
X001684Y019044D01*
X001760Y019121D01*
X001837Y019044D01*
X001837Y018814D01*
X001990Y018814D02*
X001990Y019121D01*
X001914Y019121D01*
X001837Y019044D01*
X002144Y018891D02*
X002221Y018814D01*
X002374Y018814D01*
X002451Y018891D01*
X002144Y019198D01*
X002144Y018891D01*
X002144Y019198D02*
X002221Y019274D01*
X002374Y019274D01*
X002451Y019198D01*
X002451Y018891D01*
X002604Y018891D02*
X002604Y019044D01*
X002681Y019121D01*
X002758Y019121D01*
X002911Y019044D01*
X002911Y019274D01*
X002604Y019274D01*
X002604Y018891D02*
X002681Y018814D01*
X002834Y018814D01*
X002911Y018891D01*
X008798Y018832D02*
X008798Y019324D01*
X010018Y019324D01*
X010451Y018891D01*
X010451Y018104D02*
X010018Y017671D01*
X008798Y017671D01*
X008798Y018163D01*
X011296Y018100D02*
X011296Y017844D01*
X012240Y017844D01*
X012516Y018120D01*
X012516Y018828D02*
X012240Y019104D01*
X011296Y019104D01*
X011296Y018848D01*
X011462Y002802D02*
X009982Y002802D01*
X009982Y000682D01*
X009902Y000682D01*
X009902Y002802D01*
X009982Y002802D01*
X009902Y002802D02*
X009822Y002802D01*
X009822Y000682D01*
X009742Y000682D01*
X009742Y002802D01*
X009822Y002802D01*
X009742Y002802D02*
X009662Y002802D01*
X009662Y002722D01*
X011782Y002722D01*
X011782Y002642D01*
X009662Y002642D01*
X009662Y002722D01*
X009662Y002642D02*
X009662Y002562D01*
X011782Y002562D01*
X011782Y002482D01*
X009662Y002482D01*
X009662Y002562D01*
X009662Y002482D02*
X009662Y002402D01*
X011782Y002402D01*
X011782Y001082D01*
X009662Y001082D01*
X011782Y001082D01*
X011782Y001002D01*
X009662Y001002D01*
X009662Y001082D01*
X009662Y002402D01*
X010062Y002802D02*
X010062Y000682D01*
X009982Y000682D01*
X009902Y000682D02*
X009822Y000682D01*
X009742Y000682D02*
X009662Y000682D01*
X009662Y000762D01*
X011782Y000762D01*
X011782Y000682D01*
X011702Y000682D01*
X011702Y002802D01*
X011782Y002802D01*
X011782Y002722D01*
X011782Y002642D02*
X011782Y002562D01*
X011782Y002482D02*
X011782Y002402D01*
X011702Y002802D02*
X011622Y002802D01*
X011622Y000682D01*
X011542Y000682D01*
X011542Y002802D01*
X011622Y002802D01*
X011542Y002802D02*
X011462Y002802D01*
X011462Y000682D01*
X010062Y000682D01*
X009662Y000762D02*
X009662Y000842D01*
X011782Y000842D01*
X011782Y000762D01*
X011782Y000842D02*
X011782Y000922D01*
X009662Y000922D01*
X009662Y001002D01*
X009662Y000922D02*
X009662Y000842D01*
X011462Y000682D02*
X011542Y000682D01*
X011622Y000682D02*
X011702Y000682D01*
X011782Y000922D02*
X011782Y001002D01*
D13*
X009502Y001052D02*
X007352Y001052D01*
X007352Y001152D02*
X009502Y001152D01*
X009502Y000952D02*
X007352Y000952D01*
X007352Y000852D02*
X009502Y000852D01*
X007352Y000852D01*
X007352Y000752D02*
X009502Y000752D01*
X009502Y000652D02*
X009502Y002802D01*
X009402Y002802D01*
X009402Y000652D01*
X009302Y000652D01*
X009302Y002802D01*
X009202Y002802D01*
X009202Y000652D01*
X009102Y000652D01*
X009102Y002802D01*
X009002Y002802D01*
X009002Y000652D01*
X009102Y000652D02*
X007752Y000652D01*
X007752Y002802D01*
X007652Y002802D01*
X007652Y000652D01*
X007552Y000652D01*
X007552Y002802D01*
X007452Y002802D01*
X007452Y000652D01*
X007352Y000652D01*
X007352Y002802D01*
X007452Y002802D01*
X007552Y002802D02*
X007652Y002802D01*
X007752Y002802D02*
X007852Y002802D01*
X007852Y000652D01*
X007752Y000652D02*
X007652Y000652D01*
X007552Y000652D02*
X007452Y000652D01*
X007352Y002302D02*
X009502Y002302D01*
X009502Y002402D02*
X007352Y002402D01*
X009502Y002402D01*
X009502Y002502D02*
X007352Y002502D01*
X007352Y002602D02*
X009502Y002602D01*
X009502Y002702D02*
X007352Y002702D01*
X007852Y002802D02*
X009002Y002802D01*
X009102Y002802D02*
X009202Y002802D01*
X009302Y002802D02*
X009402Y002802D01*
X009402Y000652D02*
X009502Y000652D01*
X009302Y000652D02*
X009202Y000652D01*
X005711Y005729D02*
X005711Y006229D01*
X004211Y006229D01*
X004211Y005729D01*
X005711Y005729D01*
X008077Y013275D02*
X010833Y013275D01*
X010833Y016031D01*
X008077Y016031D01*
X008077Y013275D01*
D14*
X004852Y002792D02*
X004712Y002792D01*
X004712Y000622D01*
X004852Y000622D01*
X004852Y002792D01*
X004712Y002792D02*
X004572Y002792D01*
X004572Y000622D01*
X004712Y000622D01*
X004572Y000622D02*
X004432Y000622D01*
X004432Y002792D01*
X004572Y002792D01*
X004432Y002792D02*
X003102Y002792D01*
X003102Y000622D01*
X003242Y000622D01*
X003242Y002792D01*
X003102Y002792D02*
X002962Y002792D01*
X002962Y000622D01*
X003102Y000622D01*
X002962Y000622D02*
X002822Y000622D01*
X002822Y002792D01*
X002962Y002792D01*
X002822Y002792D02*
X002682Y002792D01*
X002682Y000622D01*
X002822Y000622D01*
X002682Y000762D02*
X004852Y000762D01*
X002682Y000762D01*
X002682Y000902D02*
X004852Y000902D01*
X004852Y001042D02*
X002682Y001042D01*
X002682Y001182D02*
X004852Y001182D01*
X004432Y000622D02*
X004292Y000622D01*
X004292Y002792D01*
X004852Y002652D02*
X002682Y002652D01*
X002682Y002512D02*
X004852Y002512D01*
X004852Y002372D02*
X002682Y002372D01*
X004852Y002372D01*
X004852Y002232D02*
X002682Y002232D01*
X004852Y002232D01*
X004292Y000622D02*
X003242Y000622D01*
D15*
X002214Y001160D02*
X002152Y001098D01*
X002090Y001098D01*
X002028Y001160D01*
X002028Y001284D01*
X001967Y001345D01*
X001905Y001345D01*
X001843Y001284D01*
X001843Y001160D01*
X001905Y001098D01*
X002152Y001345D02*
X002214Y001284D01*
X002214Y001160D01*
X002152Y001467D02*
X001905Y001467D01*
X001843Y001528D01*
X001843Y001652D01*
X001905Y001714D01*
X002152Y001714D01*
X002214Y001652D01*
X002214Y001528D01*
X002152Y001467D01*
X002214Y001835D02*
X002214Y002082D01*
X002214Y001958D02*
X001843Y001958D01*
X001905Y002203D02*
X001843Y002265D01*
X001843Y002389D01*
X001905Y002450D01*
X001967Y002450D01*
X002028Y002389D01*
X002028Y002327D01*
X002028Y002389D02*
X002090Y002450D01*
X002152Y002450D01*
X002214Y002389D01*
X002214Y002265D01*
X002152Y002203D01*
X002152Y002572D02*
X002214Y002633D01*
X002214Y002757D01*
X002152Y002819D01*
X002090Y002819D01*
X001843Y002572D01*
X001843Y002819D01*
X001905Y002940D02*
X001843Y003002D01*
X001843Y003125D01*
X001905Y003187D01*
X001967Y003187D01*
X002028Y003125D01*
X002028Y003063D01*
X002028Y003125D02*
X002090Y003187D01*
X002152Y003187D01*
X002214Y003125D01*
X002214Y003002D01*
X002152Y002940D01*
X002214Y003308D02*
X001843Y003308D01*
X001967Y003308D02*
X001967Y003493D01*
X002028Y003555D01*
X002152Y003555D01*
X002214Y003493D01*
X002214Y003308D01*
X001967Y003432D02*
X001843Y003555D01*
X012338Y010217D02*
X012585Y010217D01*
X012462Y010094D02*
X012462Y010341D01*
X012380Y019172D02*
X012380Y019418D01*
X012256Y019542D01*
X012133Y019418D01*
X012133Y019172D01*
X012011Y019172D02*
X012011Y019542D01*
X011765Y019172D01*
X011765Y019542D01*
X011643Y019357D02*
X011396Y019357D01*
X011275Y019357D02*
X011028Y019357D01*
X011028Y019418D02*
X011028Y019172D01*
X011028Y019418D02*
X011151Y019542D01*
X011275Y019418D01*
X011275Y019172D01*
X010486Y019412D02*
X010486Y019782D01*
X010301Y019782D01*
X010240Y019720D01*
X010240Y019597D01*
X010301Y019535D01*
X010486Y019535D01*
X010118Y019597D02*
X009871Y019597D01*
X009871Y019659D02*
X009871Y019412D01*
X009750Y019412D02*
X009750Y019782D01*
X009503Y019412D01*
X009503Y019782D01*
X009381Y019597D02*
X009135Y019597D01*
X009013Y019597D02*
X008828Y019597D01*
X008766Y019535D01*
X008766Y019473D01*
X008828Y019412D01*
X009013Y019412D01*
X009013Y019782D01*
X008828Y019782D01*
X008766Y019720D01*
X008766Y019659D01*
X008828Y019597D01*
X009871Y019659D02*
X009995Y019782D01*
X010118Y019659D01*
X010118Y019412D01*
X012133Y019357D02*
X012380Y019357D01*
X012501Y019357D02*
X012563Y019295D01*
X012748Y019295D01*
X012748Y019172D02*
X012748Y019542D01*
X012563Y019542D01*
X012501Y019480D01*
X012501Y019357D01*
D16*
X009032Y005153D03*
D17*
X009032Y005161D03*
D18*
X009036Y005169D03*
D19*
X009040Y005177D03*
D20*
X009040Y005185D03*
D21*
X009040Y005193D03*
D22*
X009048Y005201D03*
X008256Y005641D03*
X008256Y005649D03*
X008256Y005657D03*
X008256Y005673D03*
X008256Y005681D03*
X008256Y005689D03*
X008256Y005697D03*
X008256Y005713D03*
X008256Y005721D03*
X008256Y005729D03*
X008256Y005737D03*
X008256Y005753D03*
X008256Y005761D03*
X008256Y005769D03*
X008256Y005777D03*
X008256Y005793D03*
X008256Y005801D03*
X008256Y005809D03*
X008256Y005817D03*
X008256Y005833D03*
X008256Y005841D03*
X008256Y005849D03*
X008256Y005857D03*
X008256Y005873D03*
X008256Y005881D03*
X008256Y005889D03*
X008256Y005897D03*
X008256Y005913D03*
X008256Y005921D03*
X008256Y005929D03*
X008256Y005937D03*
X008256Y005953D03*
X008256Y005961D03*
X008256Y005969D03*
X008256Y006297D03*
X008256Y006313D03*
X008256Y006321D03*
X008256Y006329D03*
X008256Y006337D03*
X008256Y006353D03*
X008256Y006361D03*
X008256Y006369D03*
X008256Y006377D03*
X008256Y006393D03*
X008256Y006401D03*
X008256Y006409D03*
X008256Y006417D03*
X008256Y006433D03*
X008256Y006441D03*
X008256Y006449D03*
X008256Y006457D03*
X008256Y006473D03*
X008256Y006481D03*
X008256Y006489D03*
X008256Y006497D03*
X008256Y006657D03*
X008256Y006673D03*
X008256Y006681D03*
X008256Y006689D03*
X008256Y006697D03*
X008256Y006713D03*
X008256Y006721D03*
X008256Y006729D03*
X008256Y006737D03*
X008256Y006753D03*
X008256Y006761D03*
X008256Y006769D03*
X008256Y006777D03*
X008256Y006793D03*
X008256Y006801D03*
X008256Y006809D03*
X008256Y006817D03*
X008256Y006833D03*
X008256Y006841D03*
X008256Y006849D03*
X008256Y006857D03*
X008256Y006873D03*
X008256Y006881D03*
X008256Y006889D03*
X008256Y006897D03*
X008256Y006913D03*
X008256Y006921D03*
X008256Y006929D03*
X008256Y006937D03*
X008256Y006953D03*
X008256Y006961D03*
X008256Y006969D03*
X008256Y006977D03*
X008256Y006993D03*
X008256Y007001D03*
X008256Y007009D03*
X008256Y007017D03*
X008256Y007033D03*
X008256Y007041D03*
X008256Y007049D03*
X008256Y007057D03*
X010184Y007057D03*
X010184Y007049D03*
X010184Y007041D03*
X010184Y007033D03*
X010184Y007017D03*
X010184Y007009D03*
X010184Y007001D03*
X010184Y006993D03*
X010184Y006977D03*
X010184Y006969D03*
X010184Y006961D03*
X010184Y006953D03*
X010184Y006937D03*
X010184Y006929D03*
X010184Y006921D03*
X010184Y006913D03*
X010184Y006897D03*
X010184Y006889D03*
X010184Y006881D03*
X010184Y006873D03*
X010184Y006857D03*
X010184Y006849D03*
X010184Y006841D03*
X010184Y006833D03*
X010184Y006817D03*
X010184Y006809D03*
X010184Y006801D03*
X010184Y006793D03*
X010184Y006777D03*
X010184Y006769D03*
X010184Y006761D03*
X010184Y006753D03*
X010184Y005897D03*
X010184Y005889D03*
X010184Y005881D03*
X010184Y005873D03*
X010184Y005857D03*
X010184Y005849D03*
X010184Y005841D03*
X010184Y005833D03*
X010184Y005817D03*
X010184Y005809D03*
X010184Y005801D03*
X010184Y005793D03*
X010184Y005777D03*
X010184Y005769D03*
X010184Y005761D03*
X010184Y005753D03*
X010184Y005737D03*
X010184Y005729D03*
X010184Y005721D03*
X010184Y005713D03*
X010184Y005697D03*
X010184Y005689D03*
X010184Y005681D03*
X010184Y005673D03*
X010184Y005657D03*
X010184Y005649D03*
X010184Y005641D03*
D23*
X009048Y005209D03*
D24*
X009048Y005217D03*
D25*
X009052Y005225D03*
X009420Y006465D03*
X009428Y006505D03*
D26*
X009424Y006489D03*
X009424Y006481D03*
X009424Y006473D03*
X009416Y006441D03*
X009416Y006433D03*
X009416Y006417D03*
X009624Y006521D03*
X009624Y006529D03*
X009624Y006537D03*
X009056Y005233D03*
D27*
X009064Y005241D03*
X009072Y005249D03*
X009080Y005257D03*
X009104Y005273D03*
X009112Y005281D03*
X009128Y005289D03*
X009136Y005297D03*
X009160Y005313D03*
X009168Y005321D03*
X009184Y005329D03*
X009192Y005337D03*
X009216Y005353D03*
X009224Y005361D03*
X009232Y005369D03*
X009248Y005377D03*
X009264Y005393D03*
X009280Y005401D03*
X009288Y005409D03*
X009304Y005417D03*
X009320Y005433D03*
X009336Y005441D03*
X009344Y005449D03*
X009352Y005457D03*
X009376Y005473D03*
X009384Y005481D03*
X009400Y005489D03*
X009408Y005497D03*
X009432Y005513D03*
X009664Y006217D03*
X009656Y006273D03*
X008888Y006441D03*
X008888Y006449D03*
X008888Y006457D03*
X008680Y006609D03*
D28*
X009368Y005465D03*
X009312Y005425D03*
X009256Y005385D03*
X009200Y005345D03*
X009144Y005305D03*
X009096Y005265D03*
D29*
X009420Y005505D03*
X009660Y006225D03*
X009660Y006265D03*
D30*
X009792Y005521D03*
D31*
X009856Y005609D03*
X008584Y005617D03*
X008584Y005609D03*
X008584Y005601D03*
X008584Y005593D03*
X008584Y005577D03*
X008584Y005569D03*
X008584Y005561D03*
X008584Y005553D03*
X008584Y005537D03*
X008584Y005529D03*
X008584Y005521D03*
X008584Y005633D03*
X008584Y007073D03*
X008584Y007081D03*
X008584Y007089D03*
X008584Y007097D03*
X008584Y007153D03*
X008584Y007161D03*
X008584Y007169D03*
X008584Y007177D03*
D32*
X009800Y005529D03*
D33*
X009804Y005537D03*
D34*
X009812Y005545D03*
D35*
X008584Y005545D03*
X008584Y005585D03*
X008584Y005625D03*
X008584Y007105D03*
X008584Y007185D03*
D36*
X009816Y005553D03*
D37*
X009820Y005561D03*
D38*
X009828Y005569D03*
D39*
X009832Y005577D03*
D40*
X009840Y005585D03*
D41*
X009844Y005593D03*
D42*
X009848Y005601D03*
D43*
X009860Y005617D03*
D44*
X009868Y005625D03*
D45*
X009872Y005633D03*
D46*
X010184Y005665D03*
X010184Y005705D03*
X010184Y005745D03*
X010184Y005785D03*
X010184Y005825D03*
X010184Y005865D03*
X010184Y005905D03*
X010184Y006785D03*
X010184Y006825D03*
X010184Y006865D03*
X010184Y006905D03*
X010184Y006945D03*
X010184Y006985D03*
X010184Y007025D03*
X010184Y007065D03*
X008256Y007065D03*
X008256Y007025D03*
X008256Y006985D03*
X008256Y006945D03*
X008256Y006905D03*
X008256Y006865D03*
X008256Y006825D03*
X008256Y006785D03*
X008256Y006745D03*
X008256Y006705D03*
X008256Y006665D03*
X008256Y006505D03*
X008256Y006465D03*
X008256Y006425D03*
X008256Y006385D03*
X008256Y006345D03*
X008256Y006305D03*
X008256Y005945D03*
X008256Y005905D03*
X008256Y005865D03*
X008256Y005825D03*
X008256Y005785D03*
X008256Y005745D03*
X008256Y005705D03*
X008256Y005665D03*
D47*
X008532Y005897D03*
D48*
X008532Y005905D03*
X009388Y006225D03*
X009652Y006305D03*
X009644Y006345D03*
X009644Y006385D03*
X009636Y006425D03*
X009628Y006505D03*
D49*
X009916Y005937D03*
X009916Y005929D03*
X009916Y005921D03*
X009916Y005913D03*
D50*
X009192Y005913D03*
D51*
X008532Y005913D03*
D52*
X009160Y005921D03*
D53*
X008532Y005921D03*
D54*
X009148Y005929D03*
D55*
X008532Y005929D03*
X008348Y006057D03*
X008348Y006073D03*
X008348Y006081D03*
X008348Y006089D03*
X008348Y006097D03*
X008348Y006113D03*
X008348Y006121D03*
X008348Y006129D03*
X008348Y006137D03*
X008348Y006153D03*
X008348Y006161D03*
X008348Y006169D03*
X008348Y006513D03*
X008348Y006521D03*
X008348Y006529D03*
X008348Y006537D03*
X008348Y006553D03*
X008348Y006561D03*
X008348Y006569D03*
X008348Y006577D03*
X008548Y006737D03*
D56*
X009140Y005937D03*
D57*
X008532Y005937D03*
X008548Y006729D03*
X009532Y006697D03*
X009532Y006689D03*
X009532Y006681D03*
X009532Y006673D03*
D58*
X009912Y005945D03*
D59*
X009140Y005945D03*
D60*
X009528Y006585D03*
X008528Y005945D03*
D61*
X009912Y005953D03*
X009912Y005961D03*
X009912Y005969D03*
X009912Y005977D03*
D62*
X009136Y005953D03*
D63*
X008532Y005953D03*
X008388Y006249D03*
D64*
X009132Y005961D03*
X009908Y005993D03*
X009908Y006001D03*
X009908Y006009D03*
X009908Y006017D03*
D65*
X009076Y006361D03*
X009076Y006369D03*
X008780Y006513D03*
X008780Y006521D03*
X008780Y006529D03*
X008780Y006537D03*
X008788Y006561D03*
X008788Y006569D03*
X008788Y006577D03*
X008788Y006097D03*
X008788Y006089D03*
X008788Y006081D03*
X008532Y005961D03*
D66*
X009128Y005969D03*
X009128Y005977D03*
X009904Y006033D03*
X009904Y006041D03*
X009904Y006049D03*
X009904Y006057D03*
D67*
X008772Y006489D03*
X008788Y006593D03*
X008532Y005969D03*
D68*
X008472Y005977D03*
D69*
X009908Y005985D03*
X009908Y006025D03*
D70*
X009128Y005985D03*
D71*
X008472Y005985D03*
D72*
X009128Y005993D03*
X009128Y006001D03*
D73*
X008476Y006001D03*
X008476Y005993D03*
D74*
X009124Y006009D03*
X009124Y006017D03*
D75*
X008480Y006017D03*
X008480Y006009D03*
D76*
X009124Y006025D03*
D77*
X008480Y006025D03*
D78*
X008840Y006033D03*
D79*
X009024Y006041D03*
D80*
X008356Y006041D03*
X008356Y006201D03*
X008356Y006601D03*
X008356Y006609D03*
X008356Y006617D03*
X009532Y006713D03*
X009532Y006721D03*
X009532Y006729D03*
X009532Y006737D03*
D81*
X009028Y006049D03*
D82*
X008616Y006417D03*
X008608Y006409D03*
X008352Y006593D03*
X008352Y006193D03*
X008352Y006177D03*
X008352Y006049D03*
D83*
X008412Y006281D03*
X008548Y006681D03*
X009268Y006057D03*
D84*
X008796Y006057D03*
X008548Y006657D03*
X009052Y006689D03*
D85*
X009648Y006065D03*
D86*
X008788Y006065D03*
D87*
X008348Y006065D03*
X008348Y006105D03*
X008348Y006145D03*
X008348Y006545D03*
D88*
X009648Y006073D03*
D89*
X009072Y006721D03*
X008776Y006497D03*
X008544Y006697D03*
X008784Y006073D03*
D90*
X008600Y006401D03*
X008360Y006209D03*
X010080Y006217D03*
X010080Y006209D03*
X010080Y006201D03*
X010080Y006193D03*
X010080Y006177D03*
X010080Y006169D03*
X010080Y006161D03*
X010080Y006153D03*
X010080Y006137D03*
X010080Y006129D03*
X010080Y006121D03*
X010080Y006113D03*
X010080Y006097D03*
X010080Y006089D03*
X010080Y006081D03*
X010080Y006233D03*
X010080Y006241D03*
X010080Y006249D03*
X010080Y006257D03*
X010080Y006273D03*
X010080Y006281D03*
X010080Y006289D03*
X010080Y006297D03*
X010080Y006313D03*
X010080Y006321D03*
X010080Y006329D03*
X010080Y006337D03*
X010080Y006353D03*
X010080Y006361D03*
X010080Y006369D03*
X010080Y006377D03*
X010080Y006393D03*
X010080Y006401D03*
X010080Y006409D03*
X010080Y006417D03*
X010080Y006433D03*
X010080Y006441D03*
X010080Y006449D03*
X010080Y006457D03*
X010080Y006473D03*
X010080Y006481D03*
X010080Y006489D03*
X010080Y006497D03*
X010080Y006513D03*
X010080Y006521D03*
X010080Y006529D03*
X010080Y006537D03*
X010080Y006553D03*
X010080Y006561D03*
X010080Y006569D03*
X010080Y006577D03*
X010080Y006593D03*
X010080Y006601D03*
X010080Y006609D03*
X010080Y006617D03*
X010080Y006633D03*
X010080Y006641D03*
X010080Y006649D03*
X010080Y006657D03*
X010080Y006673D03*
X010080Y006681D03*
X010080Y006689D03*
X010080Y006697D03*
X010080Y006713D03*
X010080Y006721D03*
X010080Y006729D03*
X010080Y006737D03*
D91*
X009416Y006097D03*
X009416Y006089D03*
X009416Y006081D03*
D92*
X010080Y006105D03*
X010080Y006145D03*
X010080Y006185D03*
X010080Y006225D03*
X010080Y006265D03*
X010080Y006305D03*
X010080Y006345D03*
X010080Y006385D03*
X010080Y006425D03*
X010080Y006465D03*
X010080Y006505D03*
X010080Y006545D03*
X010080Y006585D03*
X010080Y006625D03*
X010080Y006665D03*
X010080Y006705D03*
X010080Y006745D03*
X008360Y006625D03*
D93*
X009412Y006105D03*
D94*
X008784Y006105D03*
X008784Y006145D03*
X008784Y006185D03*
X008784Y006545D03*
X008544Y006705D03*
D95*
X009412Y006121D03*
X009412Y006113D03*
D96*
X008784Y006113D03*
X008784Y006121D03*
X008784Y006129D03*
X008784Y006137D03*
X008784Y006153D03*
X008784Y006161D03*
X008784Y006169D03*
X008784Y006177D03*
X008784Y006193D03*
X008784Y006201D03*
X008784Y006553D03*
X008392Y006257D03*
D97*
X009032Y006297D03*
X009032Y006609D03*
X009032Y006617D03*
X009528Y006153D03*
X009528Y006137D03*
X009528Y006129D03*
D98*
X009164Y006129D03*
X009164Y006137D03*
X009164Y006153D03*
X009164Y006161D03*
X009164Y006169D03*
X009164Y006177D03*
X009164Y006193D03*
X009164Y006201D03*
X009164Y006209D03*
X009164Y006217D03*
X009164Y006233D03*
X009164Y006241D03*
X009164Y006249D03*
X009164Y006257D03*
X009164Y006273D03*
X009164Y006281D03*
X009164Y006289D03*
X009164Y006433D03*
X009164Y006441D03*
X009164Y006449D03*
X009164Y006457D03*
X009164Y006473D03*
X009164Y006481D03*
X009164Y006489D03*
X009164Y006497D03*
X009164Y006513D03*
X009164Y006521D03*
X009164Y006529D03*
X009164Y006537D03*
X009164Y006553D03*
X009164Y006561D03*
X009164Y006569D03*
X009164Y006577D03*
X009164Y006593D03*
X009164Y006601D03*
D99*
X009032Y006305D03*
X009528Y006145D03*
D100*
X009164Y006145D03*
X009164Y006185D03*
X009164Y006225D03*
X009164Y006265D03*
X009164Y006425D03*
X009164Y006465D03*
X009164Y006505D03*
X009164Y006545D03*
X009164Y006585D03*
D101*
X009036Y006633D03*
X009036Y006641D03*
X009036Y006417D03*
X009036Y006313D03*
X009524Y006169D03*
X009524Y006161D03*
D102*
X009528Y006177D03*
X009528Y006193D03*
X009528Y006201D03*
X009528Y006209D03*
D103*
X009528Y006185D03*
D104*
X008352Y006185D03*
X008352Y006585D03*
D105*
X008880Y006273D03*
X008888Y006281D03*
X008880Y006257D03*
X008880Y006249D03*
X008872Y006233D03*
X008872Y006217D03*
X008872Y006209D03*
D106*
X009388Y006217D03*
X009396Y006273D03*
X009396Y006281D03*
X009652Y006281D03*
X009652Y006289D03*
X009652Y006297D03*
X009652Y006313D03*
X009652Y006321D03*
X009652Y006329D03*
X009652Y006337D03*
X009644Y006353D03*
X009644Y006361D03*
X009644Y006369D03*
X009644Y006377D03*
X009644Y006393D03*
X009636Y006417D03*
X009636Y006433D03*
X009636Y006441D03*
X009636Y006449D03*
X009636Y006457D03*
X009628Y006473D03*
X009628Y006481D03*
X009628Y006489D03*
X009628Y006497D03*
X009628Y006513D03*
D107*
X008364Y006217D03*
D108*
X008672Y006625D03*
X008880Y006265D03*
X008872Y006225D03*
D109*
X008372Y006225D03*
X009532Y006625D03*
D110*
X009660Y006257D03*
X009660Y006249D03*
X009660Y006241D03*
X009660Y006233D03*
D111*
X009640Y006401D03*
X009640Y006409D03*
X009408Y006377D03*
X009408Y006369D03*
X009408Y006361D03*
X009408Y006353D03*
X009400Y006329D03*
X009400Y006321D03*
X009400Y006313D03*
X009400Y006297D03*
X009400Y006289D03*
X009392Y006257D03*
X009392Y006249D03*
X009392Y006241D03*
X009392Y006233D03*
D112*
X009528Y006593D03*
X009528Y006601D03*
X008376Y006233D03*
D113*
X008676Y006617D03*
X008892Y006433D03*
X008876Y006241D03*
D114*
X008380Y006241D03*
D115*
X009392Y006265D03*
X009400Y006305D03*
X009408Y006345D03*
X009408Y006385D03*
X009632Y006465D03*
D116*
X008400Y006265D03*
D117*
X008404Y006273D03*
D118*
X008652Y006457D03*
X008908Y006289D03*
D119*
X008768Y006473D03*
X008544Y006673D03*
X008416Y006289D03*
X009056Y006697D03*
D120*
X008592Y006393D03*
X008488Y006297D03*
D121*
X008492Y006305D03*
X009108Y006745D03*
X009532Y006665D03*
D122*
X008576Y006377D03*
X008504Y006313D03*
D123*
X009040Y006321D03*
X009040Y006409D03*
X009040Y006649D03*
X009040Y006657D03*
D124*
X008568Y006369D03*
X008520Y006329D03*
X008512Y006321D03*
X009528Y006641D03*
X009528Y006649D03*
X009528Y006657D03*
D125*
X009044Y006673D03*
X009044Y006401D03*
X009044Y006329D03*
D126*
X009404Y006337D03*
D127*
X009048Y006337D03*
X009048Y006393D03*
X009048Y006681D03*
D128*
X009532Y006633D03*
X009532Y006617D03*
X009532Y006609D03*
X008548Y006721D03*
X008556Y006361D03*
X008548Y006353D03*
X008532Y006337D03*
D129*
X009056Y006345D03*
X009056Y006385D03*
D130*
X008540Y006345D03*
D131*
X008544Y006689D03*
X009064Y006713D03*
X009064Y006377D03*
X009064Y006353D03*
D132*
X008584Y006385D03*
D133*
X008548Y006761D03*
X009428Y006537D03*
X009428Y006529D03*
X009428Y006521D03*
X009428Y006513D03*
X009428Y006497D03*
X009420Y006457D03*
X009420Y006449D03*
X009412Y006409D03*
X009412Y006401D03*
X009412Y006393D03*
D134*
X009416Y006425D03*
D135*
X008904Y006425D03*
D136*
X008624Y006425D03*
D137*
X008632Y006433D03*
X008640Y006441D03*
D138*
X008648Y006449D03*
D139*
X008764Y006465D03*
X008548Y006665D03*
D140*
X008792Y006601D03*
X008768Y006481D03*
D141*
X008780Y006505D03*
D142*
X009528Y006545D03*
D143*
X009532Y006553D03*
X009532Y006561D03*
X009532Y006569D03*
X009532Y006577D03*
D144*
X008784Y006585D03*
D145*
X009036Y006625D03*
D146*
X008488Y006633D03*
X008488Y006641D03*
D147*
X008484Y006649D03*
D148*
X009044Y006665D03*
D149*
X009528Y006705D03*
D150*
X009060Y006705D03*
D151*
X008544Y006713D03*
D152*
X009080Y006729D03*
D153*
X009088Y006737D03*
D154*
X009532Y006745D03*
D155*
X008548Y006745D03*
D156*
X008548Y006753D03*
D157*
X008548Y006769D03*
D158*
X009892Y007073D03*
X009892Y007081D03*
X009892Y007089D03*
X009892Y007097D03*
X009892Y007153D03*
X009892Y007161D03*
X009892Y007169D03*
X009892Y007177D03*
D159*
X009892Y007185D03*
X009892Y007105D03*
D160*
X009220Y007113D03*
X009220Y007121D03*
X009220Y007129D03*
X009220Y007137D03*
D161*
X009220Y007145D03*
D162*
X008898Y010323D02*
X008805Y010323D01*
X008758Y010370D01*
X008669Y010323D02*
X008669Y010603D01*
X008758Y010556D02*
X008805Y010603D01*
X008898Y010603D01*
X008945Y010556D01*
X008945Y010370D01*
X008898Y010323D01*
X009179Y010357D02*
X009226Y010357D01*
X009226Y010404D01*
X009179Y010404D01*
X009179Y010357D01*
X009315Y010404D02*
X009315Y010497D01*
X009362Y010544D01*
X009409Y010544D01*
X009502Y010497D01*
X009502Y010637D01*
X009315Y010637D01*
X009315Y010404D02*
X009362Y010357D01*
X009455Y010357D01*
X009502Y010404D01*
X009591Y010404D02*
X009638Y010357D01*
X009731Y010357D01*
X009778Y010404D01*
X009591Y010591D01*
X009591Y010404D01*
X009591Y010591D02*
X009638Y010637D01*
X009731Y010637D01*
X009778Y010591D01*
X009778Y010404D01*
X009868Y010404D02*
X009914Y010357D01*
X010008Y010357D01*
X010054Y010404D01*
X010054Y010451D01*
X010008Y010497D01*
X009914Y010497D01*
X009868Y010451D01*
X009868Y010404D01*
X009914Y010497D02*
X009868Y010544D01*
X009868Y010591D01*
X009914Y010637D01*
X010008Y010637D01*
X010054Y010591D01*
X010054Y010544D01*
X010008Y010497D01*
X010144Y010404D02*
X010190Y010357D01*
X010284Y010357D01*
X010331Y010404D01*
X010144Y010591D01*
X010144Y010404D01*
X010331Y010404D02*
X010331Y010591D01*
X010284Y010637D01*
X010190Y010637D01*
X010144Y010591D01*
X010420Y010591D02*
X010420Y010404D01*
X010467Y010357D01*
X010607Y010357D01*
X010607Y010637D01*
X010467Y010637D01*
X010420Y010591D01*
X010696Y010637D02*
X010883Y010637D01*
X010883Y010357D01*
X010696Y010357D01*
X010790Y010497D02*
X010883Y010497D01*
X010972Y010357D02*
X011159Y010357D01*
X011159Y010637D01*
X011249Y010497D02*
X011435Y010497D01*
X011525Y010497D02*
X011572Y010451D01*
X011712Y010451D01*
X011712Y010357D02*
X011712Y010637D01*
X011572Y010637D01*
X011525Y010591D01*
X011525Y010497D01*
X011802Y010357D02*
X011896Y010357D01*
X011849Y010357D02*
X011849Y010637D01*
X011896Y010637D02*
X011802Y010637D01*
X011985Y010637D02*
X011985Y010357D01*
X011985Y010497D02*
X012172Y010497D01*
X012261Y010404D02*
X012308Y010357D01*
X012402Y010357D01*
X012448Y010404D01*
X012448Y010591D01*
X012402Y010637D01*
X012308Y010637D01*
X012261Y010591D01*
X012172Y010637D02*
X012172Y010357D01*
X008669Y010463D02*
X008482Y010463D01*
X008482Y010603D02*
X008482Y010323D01*
X008393Y010323D02*
X008299Y010323D01*
X008346Y010323D02*
X008346Y010603D01*
X008393Y010603D02*
X008299Y010603D01*
X008209Y010603D02*
X008068Y010603D01*
X008022Y010556D01*
X008022Y010463D01*
X008068Y010416D01*
X008209Y010416D01*
X008209Y010323D02*
X008209Y010603D01*
X007932Y010603D02*
X007932Y010323D01*
X007746Y010323D01*
X007656Y010323D02*
X007656Y010603D01*
X007469Y010603D01*
X007380Y010603D02*
X007380Y010323D01*
X007240Y010323D01*
X007193Y010370D01*
X007193Y010556D01*
X007240Y010603D01*
X007380Y010603D01*
X007563Y010463D02*
X007656Y010463D01*
X007656Y010323D02*
X007469Y010323D01*
X007104Y010276D02*
X006917Y010276D01*
X006827Y010370D02*
X006827Y010556D01*
X006781Y010603D01*
X006687Y010603D01*
X006641Y010556D01*
X006827Y010370D01*
X006781Y010323D01*
X006687Y010323D01*
X006641Y010370D01*
X006641Y010556D01*
X006551Y010463D02*
X006551Y010370D01*
X006505Y010323D01*
X006411Y010323D01*
X006364Y010370D01*
X006364Y010416D01*
X006411Y010463D01*
X006551Y010463D01*
X006458Y010556D01*
X006364Y010603D01*
X006275Y010556D02*
X006228Y010603D01*
X006135Y010603D01*
X006088Y010556D01*
X006275Y010370D01*
X006228Y010323D01*
X006135Y010323D01*
X006088Y010370D01*
X006088Y010556D01*
X005999Y010556D02*
X005952Y010603D01*
X005859Y010603D01*
X005812Y010556D01*
X005812Y010510D01*
X005859Y010463D01*
X005812Y010416D01*
X005812Y010370D01*
X005859Y010323D01*
X005952Y010323D01*
X005999Y010370D01*
X005905Y010463D02*
X005859Y010463D01*
X005723Y010370D02*
X005676Y010370D01*
X005676Y010323D01*
X005723Y010323D01*
X005723Y010370D01*
X006275Y010370D02*
X006275Y010556D01*
X005607Y008953D02*
X005513Y008953D01*
X005467Y008906D01*
X005377Y008906D02*
X005377Y008720D01*
X005190Y008906D01*
X005190Y008720D01*
X005237Y008673D01*
X005330Y008673D01*
X005377Y008720D01*
X005467Y008720D02*
X005513Y008673D01*
X005607Y008673D01*
X005653Y008720D01*
X005653Y008906D01*
X005607Y008953D01*
X005377Y008906D02*
X005330Y008953D01*
X005237Y008953D01*
X005190Y008906D01*
X005101Y008813D02*
X004961Y008813D01*
X004914Y008766D01*
X004914Y008720D01*
X004961Y008673D01*
X005054Y008673D01*
X005101Y008720D01*
X005101Y008813D01*
X005008Y008906D01*
X004914Y008953D01*
X004825Y008906D02*
X004778Y008953D01*
X004685Y008953D01*
X004638Y008906D01*
X004825Y008720D01*
X004778Y008673D01*
X004685Y008673D01*
X004638Y008720D01*
X004638Y008906D01*
X004549Y008906D02*
X004502Y008953D01*
X004408Y008953D01*
X004362Y008906D01*
X004362Y008860D01*
X004408Y008813D01*
X004362Y008766D01*
X004362Y008720D01*
X004408Y008673D01*
X004502Y008673D01*
X004549Y008720D01*
X004455Y008813D02*
X004408Y008813D01*
X004825Y008720D02*
X004825Y008906D01*
X004763Y007893D02*
X004669Y007893D01*
X004623Y007847D01*
X004809Y007660D01*
X004763Y007613D01*
X004669Y007613D01*
X004623Y007660D01*
X004623Y007847D01*
X004533Y007847D02*
X004486Y007893D01*
X004393Y007893D01*
X004346Y007847D01*
X004346Y007800D01*
X004393Y007753D01*
X004346Y007706D01*
X004346Y007660D01*
X004393Y007613D01*
X004486Y007613D01*
X004533Y007660D01*
X004440Y007753D02*
X004393Y007753D01*
X004257Y007706D02*
X004070Y007893D01*
X004210Y007753D02*
X004070Y007613D01*
X004257Y007613D02*
X004257Y007893D01*
X004763Y007893D02*
X004809Y007847D01*
X004809Y007660D01*
X004899Y007660D02*
X004945Y007613D01*
X005039Y007613D01*
X005086Y007660D01*
X005086Y007753D01*
X004945Y007753D01*
X004899Y007706D01*
X004899Y007660D01*
X004992Y007847D02*
X004899Y007893D01*
X004992Y007847D02*
X005086Y007753D01*
X005175Y007660D02*
X005222Y007613D01*
X005315Y007613D01*
X005362Y007660D01*
X005175Y007847D01*
X005175Y007660D01*
X005175Y007847D02*
X005222Y007893D01*
X005315Y007893D01*
X005362Y007847D01*
X005362Y007660D01*
X005451Y007660D02*
X005498Y007613D01*
X005591Y007613D01*
X005638Y007660D01*
X005638Y007847D01*
X005591Y007893D01*
X005498Y007893D01*
X005451Y007847D01*
X005377Y006669D02*
X005284Y006669D01*
X005237Y006622D01*
X005424Y006435D01*
X005377Y006389D01*
X005284Y006389D01*
X005237Y006435D01*
X005237Y006622D01*
X005147Y006622D02*
X005147Y006575D01*
X005101Y006529D01*
X005007Y006529D01*
X004961Y006482D01*
X004961Y006435D01*
X005007Y006389D01*
X005101Y006389D01*
X005147Y006435D01*
X005147Y006482D01*
X005101Y006529D01*
X005007Y006529D02*
X004961Y006575D01*
X004961Y006622D01*
X005007Y006669D01*
X005101Y006669D01*
X005147Y006622D01*
X005377Y006669D02*
X005424Y006622D01*
X005424Y006435D01*
X005513Y006389D02*
X005606Y006482D01*
X005560Y006482D02*
X005700Y006482D01*
X005700Y006389D02*
X005700Y006669D01*
X005560Y006669D01*
X005513Y006622D01*
X005513Y006529D01*
X005560Y006482D01*
X004871Y006435D02*
X004824Y006389D01*
X004731Y006389D01*
X004684Y006435D01*
X004684Y006622D01*
X004871Y006435D01*
X004871Y006622D01*
X004824Y006669D01*
X004731Y006669D01*
X004684Y006622D01*
X004595Y006669D02*
X004595Y006529D01*
X004502Y006575D01*
X004455Y006575D01*
X004408Y006529D01*
X004408Y006435D01*
X004455Y006389D01*
X004548Y006389D01*
X004595Y006435D01*
X004595Y006669D02*
X004408Y006669D01*
X004319Y006669D02*
X004319Y006389D01*
X004225Y006482D01*
X004132Y006389D01*
X004132Y006669D01*
X003770Y006663D02*
X003770Y006382D01*
X003770Y006476D02*
X003630Y006476D01*
X003584Y006522D01*
X003584Y006616D01*
X003630Y006663D01*
X003770Y006663D01*
X003677Y006476D02*
X003584Y006382D01*
X003494Y006429D02*
X003494Y006616D01*
X003447Y006663D01*
X003354Y006663D01*
X003307Y006616D01*
X003494Y006429D01*
X003447Y006382D01*
X003354Y006382D01*
X003307Y006429D01*
X003307Y006616D01*
X003218Y006616D02*
X003218Y006569D01*
X003171Y006522D01*
X003078Y006522D01*
X003031Y006476D01*
X003031Y006429D01*
X003078Y006382D01*
X003171Y006382D01*
X003218Y006429D01*
X003218Y006476D01*
X003171Y006522D01*
X003078Y006522D02*
X003031Y006569D01*
X003031Y006616D01*
X003078Y006663D01*
X003171Y006663D01*
X003218Y006616D01*
X002942Y006616D02*
X002942Y006429D01*
X002755Y006616D01*
X002755Y006429D01*
X002802Y006382D01*
X002895Y006382D01*
X002942Y006429D01*
X002942Y006616D02*
X002895Y006663D01*
X002802Y006663D01*
X002755Y006616D01*
X002665Y006663D02*
X002665Y006522D01*
X002572Y006569D01*
X002525Y006569D01*
X002479Y006522D01*
X002479Y006429D01*
X002525Y006382D01*
X002619Y006382D01*
X002665Y006429D01*
X002665Y006663D02*
X002479Y006663D01*
X002097Y006564D02*
X002097Y006284D01*
X002097Y006377D02*
X001957Y006377D01*
X001910Y006424D01*
X001910Y006517D01*
X001957Y006564D01*
X002097Y006564D01*
X002004Y006377D02*
X001910Y006284D01*
X001821Y006331D02*
X001821Y006517D01*
X001774Y006564D01*
X001681Y006564D01*
X001634Y006517D01*
X001821Y006331D01*
X001774Y006284D01*
X001681Y006284D01*
X001634Y006331D01*
X001634Y006517D01*
X001545Y006424D02*
X001405Y006424D01*
X001358Y006377D01*
X001358Y006331D01*
X001405Y006284D01*
X001498Y006284D01*
X001545Y006331D01*
X001545Y006424D01*
X001451Y006517D01*
X001358Y006564D01*
X001268Y006517D02*
X001268Y006331D01*
X001082Y006517D01*
X001082Y006331D01*
X001128Y006284D01*
X001222Y006284D01*
X001268Y006331D01*
X001268Y006517D02*
X001222Y006564D01*
X001128Y006564D01*
X001082Y006517D01*
X000992Y006517D02*
X000946Y006564D01*
X000852Y006564D01*
X000805Y006517D01*
X000805Y006471D01*
X000852Y006424D01*
X000805Y006377D01*
X000805Y006331D01*
X000852Y006284D01*
X000946Y006284D01*
X000992Y006331D01*
X000899Y006424D02*
X000852Y006424D01*
X000913Y005488D02*
X001100Y005488D01*
X001100Y005348D01*
X001007Y005394D01*
X000960Y005394D01*
X000913Y005348D01*
X000913Y005254D01*
X000960Y005208D01*
X001053Y005208D01*
X001100Y005254D01*
X001189Y005254D02*
X001236Y005208D01*
X001330Y005208D01*
X001376Y005254D01*
X001189Y005441D01*
X001189Y005254D01*
X001189Y005441D02*
X001236Y005488D01*
X001330Y005488D01*
X001376Y005441D01*
X001376Y005254D01*
X001466Y005254D02*
X001512Y005208D01*
X001606Y005208D01*
X001653Y005254D01*
X001653Y005301D01*
X001606Y005348D01*
X001512Y005348D01*
X001466Y005301D01*
X001466Y005254D01*
X001512Y005348D02*
X001466Y005394D01*
X001466Y005441D01*
X001512Y005488D01*
X001606Y005488D01*
X001653Y005441D01*
X001653Y005394D01*
X001606Y005348D01*
X001742Y005441D02*
X001742Y005254D01*
X001789Y005208D01*
X001882Y005208D01*
X001929Y005254D01*
X001742Y005441D01*
X001789Y005488D01*
X001882Y005488D01*
X001929Y005441D01*
X001929Y005254D01*
X002018Y005208D02*
X002018Y005488D01*
X002112Y005394D01*
X002205Y005488D01*
X002205Y005208D01*
X002599Y005152D02*
X002739Y005292D01*
X002786Y005245D02*
X002599Y005432D01*
X002786Y005432D02*
X002786Y005152D01*
X002875Y005199D02*
X002922Y005152D01*
X003016Y005152D01*
X003062Y005199D01*
X003152Y005199D02*
X003152Y005386D01*
X003339Y005199D01*
X003292Y005152D01*
X003198Y005152D01*
X003152Y005199D01*
X003062Y005292D02*
X002969Y005339D01*
X002922Y005339D01*
X002875Y005292D01*
X002875Y005199D01*
X003062Y005292D02*
X003062Y005432D01*
X002875Y005432D01*
X003152Y005386D02*
X003198Y005432D01*
X003292Y005432D01*
X003339Y005386D01*
X003339Y005199D01*
X003428Y005199D02*
X003428Y005245D01*
X003475Y005292D01*
X003568Y005292D01*
X003615Y005339D01*
X003615Y005386D01*
X003568Y005432D01*
X003475Y005432D01*
X003428Y005386D01*
X003428Y005339D01*
X003475Y005292D01*
X003568Y005292D02*
X003615Y005245D01*
X003615Y005199D01*
X003568Y005152D01*
X003475Y005152D01*
X003428Y005199D01*
X003704Y005199D02*
X003751Y005152D01*
X003844Y005152D01*
X003891Y005199D01*
X003704Y005386D01*
X003704Y005199D01*
X003704Y005386D02*
X003751Y005432D01*
X003844Y005432D01*
X003891Y005386D01*
X003891Y005199D01*
X003980Y005199D02*
X004027Y005152D01*
X004120Y005152D01*
X004167Y005199D01*
X004167Y005386D01*
X004120Y005432D01*
X004027Y005432D01*
X003980Y005386D01*
X004407Y005348D02*
X004407Y005254D01*
X004453Y005208D01*
X004547Y005208D01*
X004593Y005254D01*
X004683Y005254D02*
X004729Y005208D01*
X004823Y005208D01*
X004870Y005254D01*
X004683Y005441D01*
X004683Y005254D01*
X004593Y005348D02*
X004593Y005488D01*
X004407Y005488D01*
X004453Y005394D02*
X004407Y005348D01*
X004453Y005394D02*
X004500Y005394D01*
X004593Y005348D01*
X004683Y005441D02*
X004729Y005488D01*
X004823Y005488D01*
X004870Y005441D01*
X004870Y005254D01*
X004959Y005254D02*
X005006Y005208D01*
X005099Y005208D01*
X005146Y005254D01*
X005146Y005301D01*
X005099Y005348D01*
X005006Y005348D01*
X004959Y005301D01*
X004959Y005254D01*
X005006Y005348D02*
X004959Y005394D01*
X004959Y005441D01*
X005006Y005488D01*
X005099Y005488D01*
X005146Y005441D01*
X005146Y005394D01*
X005099Y005348D01*
X005235Y005441D02*
X005422Y005254D01*
X005375Y005208D01*
X005282Y005208D01*
X005235Y005254D01*
X005235Y005441D01*
X005282Y005488D01*
X005375Y005488D01*
X005422Y005441D01*
X005422Y005254D01*
X005511Y005254D02*
X005558Y005208D01*
X005652Y005208D01*
X005698Y005254D01*
X005698Y005441D01*
X005652Y005488D01*
X005558Y005488D01*
X005511Y005441D01*
D163*
X003482Y005979D03*
X002902Y005979D03*
D164*
X011602Y009711D03*
X011602Y010183D03*
D165*
X011602Y009947D03*
D166*
X008209Y010063D03*
D167*
X007033Y008749D02*
X007033Y004418D01*
X011363Y004418D01*
X011363Y008749D01*
X007033Y008749D01*
X010576Y008158D02*
X010578Y008185D01*
X010584Y008212D01*
X010593Y008238D01*
X010606Y008262D01*
X010622Y008285D01*
X010641Y008304D01*
X010663Y008321D01*
X010687Y008335D01*
X010712Y008345D01*
X010739Y008352D01*
X010766Y008355D01*
X010794Y008354D01*
X010821Y008349D01*
X010847Y008341D01*
X010871Y008329D01*
X010894Y008313D01*
X010915Y008295D01*
X010932Y008274D01*
X010947Y008250D01*
X010958Y008225D01*
X010966Y008199D01*
X010970Y008172D01*
X010970Y008144D01*
X010966Y008117D01*
X010958Y008091D01*
X010947Y008066D01*
X010932Y008042D01*
X010915Y008021D01*
X010894Y008003D01*
X010872Y007987D01*
X010847Y007975D01*
X010821Y007967D01*
X010794Y007962D01*
X010766Y007961D01*
X010739Y007964D01*
X010712Y007971D01*
X010687Y007981D01*
X010663Y007995D01*
X010641Y008012D01*
X010622Y008031D01*
X010606Y008054D01*
X010593Y008078D01*
X010584Y008104D01*
X010578Y008131D01*
X010576Y008158D01*
X011030Y016425D02*
X011032Y016452D01*
X011038Y016479D01*
X011047Y016505D01*
X011060Y016529D01*
X011076Y016552D01*
X011095Y016571D01*
X011117Y016588D01*
X011141Y016602D01*
X011166Y016612D01*
X011193Y016619D01*
X011220Y016622D01*
X011248Y016621D01*
X011275Y016616D01*
X011301Y016608D01*
X011325Y016596D01*
X011348Y016580D01*
X011369Y016562D01*
X011386Y016541D01*
X011401Y016517D01*
X011412Y016492D01*
X011420Y016466D01*
X011424Y016439D01*
X011424Y016411D01*
X011420Y016384D01*
X011412Y016358D01*
X011401Y016333D01*
X011386Y016309D01*
X011369Y016288D01*
X011348Y016270D01*
X011326Y016254D01*
X011301Y016242D01*
X011275Y016234D01*
X011248Y016229D01*
X011220Y016228D01*
X011193Y016231D01*
X011166Y016238D01*
X011141Y016248D01*
X011117Y016262D01*
X011095Y016279D01*
X011076Y016298D01*
X011060Y016321D01*
X011047Y016345D01*
X011038Y016371D01*
X011032Y016398D01*
X011030Y016425D01*
D168*
X010570Y007551D02*
X010570Y007351D01*
X010545Y007376D02*
X010520Y007401D01*
X010520Y007426D01*
X010545Y007451D01*
X010595Y007451D01*
X010620Y007476D01*
X010620Y007501D01*
X010595Y007526D01*
X010545Y007526D01*
X010520Y007501D01*
X010473Y007451D02*
X010473Y007401D01*
X010448Y007376D01*
X010398Y007376D01*
X010373Y007401D01*
X010373Y007426D01*
X010398Y007451D01*
X010473Y007451D01*
X010423Y007501D01*
X010373Y007526D01*
X010545Y007376D02*
X010595Y007376D01*
X010620Y007401D01*
X010668Y007376D02*
X010768Y007376D01*
X010768Y007526D01*
X010668Y007526D01*
X010718Y007451D02*
X010768Y007451D01*
D169*
X011542Y012291D02*
X007369Y012291D01*
X007093Y012567D01*
X007093Y016740D01*
X007369Y017016D01*
X011542Y017016D01*
X011818Y016740D01*
X011818Y012567D01*
X011542Y012291D01*
D170*
X011479Y018087D02*
X011508Y018113D01*
X011508Y018112D02*
X011539Y018079D01*
X011572Y018049D01*
X011608Y018022D01*
X011646Y017997D01*
X011686Y017976D01*
X011727Y017958D01*
X011770Y017943D01*
X011814Y017932D01*
X011858Y017925D01*
X011903Y017921D01*
X011949Y017921D01*
X011994Y017925D01*
X012038Y017932D01*
X012082Y017943D01*
X012125Y017958D01*
X012166Y017976D01*
X012206Y017997D01*
X012244Y018022D01*
X012280Y018049D01*
X012313Y018079D01*
X012344Y018112D01*
X012373Y018087D01*
X012374Y018087D01*
X012342Y018053D01*
X012308Y018022D01*
X012272Y017993D01*
X012233Y017968D01*
X012193Y017946D01*
X012151Y017926D01*
X012108Y017911D01*
X012063Y017898D01*
X012018Y017889D01*
X011972Y017884D01*
X011926Y017882D01*
X011880Y017884D01*
X011834Y017889D01*
X011789Y017898D01*
X011744Y017911D01*
X011701Y017926D01*
X011659Y017946D01*
X011619Y017968D01*
X011580Y017993D01*
X011544Y018022D01*
X011510Y018053D01*
X011478Y018087D01*
X011479Y018087D01*
X011511Y018054D01*
X011545Y018023D01*
X011581Y017994D01*
X011619Y017969D01*
X011660Y017946D01*
X011701Y017927D01*
X011745Y017912D01*
X011789Y017899D01*
X011834Y017890D01*
X011880Y017885D01*
X011926Y017883D01*
X011972Y017885D01*
X012018Y017890D01*
X012063Y017899D01*
X012107Y017912D01*
X012151Y017927D01*
X012192Y017946D01*
X012233Y017969D01*
X012271Y017994D01*
X012307Y018023D01*
X012341Y018054D01*
X012373Y018087D01*
X012372Y018088D01*
X012341Y018054D01*
X012307Y018023D01*
X012271Y017995D01*
X012232Y017970D01*
X012192Y017947D01*
X012150Y017928D01*
X012107Y017912D01*
X012063Y017900D01*
X012018Y017891D01*
X011972Y017886D01*
X011926Y017884D01*
X011880Y017886D01*
X011834Y017891D01*
X011789Y017900D01*
X011745Y017912D01*
X011702Y017928D01*
X011660Y017947D01*
X011620Y017970D01*
X011581Y017995D01*
X011545Y018023D01*
X011511Y018054D01*
X011480Y018088D01*
X011481Y018089D01*
X011512Y018055D01*
X011546Y018024D01*
X011582Y017996D01*
X011620Y017971D01*
X011660Y017948D01*
X011702Y017929D01*
X011745Y017913D01*
X011789Y017901D01*
X011835Y017892D01*
X011880Y017887D01*
X011926Y017885D01*
X011972Y017887D01*
X012017Y017892D01*
X012063Y017901D01*
X012107Y017913D01*
X012150Y017929D01*
X012192Y017948D01*
X012232Y017971D01*
X012270Y017996D01*
X012306Y018024D01*
X012340Y018055D01*
X012371Y018089D01*
X012339Y018056D01*
X012306Y018025D01*
X012269Y017997D01*
X012231Y017971D01*
X012191Y017949D01*
X012149Y017930D01*
X012106Y017914D01*
X012062Y017902D01*
X012017Y017893D01*
X011972Y017888D01*
X011926Y017886D01*
X011880Y017888D01*
X011835Y017893D01*
X011790Y017902D01*
X011746Y017914D01*
X011703Y017930D01*
X011661Y017949D01*
X011621Y017971D01*
X011583Y017997D01*
X011546Y018025D01*
X011513Y018056D01*
X011481Y018089D01*
X011482Y018090D01*
X011513Y018057D01*
X011547Y018026D01*
X011583Y017998D01*
X011621Y017972D01*
X011661Y017950D01*
X011703Y017931D01*
X011746Y017915D01*
X011790Y017903D01*
X011835Y017894D01*
X011880Y017889D01*
X011926Y017887D01*
X011972Y017889D01*
X012017Y017894D01*
X012062Y017903D01*
X012106Y017915D01*
X012149Y017931D01*
X012191Y017950D01*
X012231Y017972D01*
X012269Y017998D01*
X012305Y018026D01*
X012339Y018057D01*
X012370Y018090D01*
X012369Y018091D01*
X012338Y018057D01*
X012304Y018026D01*
X012268Y017998D01*
X012230Y017973D01*
X012190Y017951D01*
X012149Y017932D01*
X012106Y017916D01*
X012062Y017904D01*
X012017Y017895D01*
X011972Y017890D01*
X011926Y017888D01*
X011880Y017890D01*
X011835Y017895D01*
X011790Y017904D01*
X011746Y017916D01*
X011703Y017932D01*
X011662Y017951D01*
X011622Y017973D01*
X011584Y017998D01*
X011548Y018026D01*
X011514Y018057D01*
X011483Y018091D01*
X011484Y018091D01*
X011515Y018058D01*
X011548Y018027D01*
X011584Y017999D01*
X011622Y017974D01*
X011662Y017952D01*
X011704Y017933D01*
X011747Y017917D01*
X011790Y017905D01*
X011835Y017896D01*
X011880Y017891D01*
X011926Y017889D01*
X011972Y017891D01*
X012017Y017896D01*
X012062Y017905D01*
X012105Y017917D01*
X012148Y017933D01*
X012190Y017952D01*
X012230Y017974D01*
X012268Y017999D01*
X012304Y018027D01*
X012337Y018058D01*
X012368Y018091D01*
X012368Y018092D01*
X012335Y018057D01*
X012300Y018025D01*
X012262Y017996D01*
X012222Y017970D01*
X012180Y017948D01*
X012136Y017929D01*
X012091Y017914D01*
X012044Y017902D01*
X011997Y017894D01*
X011950Y017890D01*
X011902Y017890D01*
X011855Y017894D01*
X011808Y017902D01*
X011761Y017914D01*
X011716Y017929D01*
X011672Y017948D01*
X011630Y017970D01*
X011590Y017996D01*
X011552Y018025D01*
X011517Y018057D01*
X011484Y018092D01*
X011485Y018093D01*
X011518Y018058D01*
X011553Y018026D01*
X011591Y017997D01*
X011631Y017971D01*
X011673Y017949D01*
X011717Y017930D01*
X011762Y017915D01*
X011808Y017903D01*
X011855Y017895D01*
X011902Y017891D01*
X011950Y017891D01*
X011997Y017895D01*
X012044Y017903D01*
X012090Y017915D01*
X012135Y017930D01*
X012179Y017949D01*
X012221Y017971D01*
X012261Y017997D01*
X012299Y018026D01*
X012334Y018058D01*
X012367Y018093D01*
X012366Y018093D01*
X012334Y018059D01*
X012298Y018027D01*
X012261Y017998D01*
X012221Y017972D01*
X012179Y017950D01*
X012135Y017931D01*
X012090Y017916D01*
X012044Y017904D01*
X011997Y017896D01*
X011950Y017892D01*
X011902Y017892D01*
X011855Y017896D01*
X011808Y017904D01*
X011762Y017916D01*
X011717Y017931D01*
X011673Y017950D01*
X011631Y017972D01*
X011591Y017998D01*
X011554Y018027D01*
X011518Y018059D01*
X011486Y018093D01*
X011487Y018094D01*
X011519Y018059D01*
X011554Y018027D01*
X011592Y017999D01*
X011632Y017973D01*
X011674Y017951D01*
X011717Y017932D01*
X011762Y017917D01*
X011808Y017905D01*
X011855Y017897D01*
X011902Y017893D01*
X011950Y017893D01*
X011997Y017897D01*
X012044Y017905D01*
X012090Y017917D01*
X012135Y017932D01*
X012178Y017951D01*
X012220Y017973D01*
X012260Y017999D01*
X012298Y018027D01*
X012333Y018059D01*
X012365Y018094D01*
X012365Y018095D01*
X012332Y018060D01*
X012297Y018028D01*
X012259Y017999D01*
X012220Y017974D01*
X012178Y017952D01*
X012134Y017933D01*
X012090Y017918D01*
X012044Y017906D01*
X011997Y017898D01*
X011950Y017894D01*
X011902Y017894D01*
X011855Y017898D01*
X011808Y017906D01*
X011762Y017918D01*
X011718Y017933D01*
X011674Y017952D01*
X011632Y017974D01*
X011593Y017999D01*
X011555Y018028D01*
X011520Y018060D01*
X011487Y018095D01*
X011488Y018095D01*
X011520Y018061D01*
X011556Y018029D01*
X011593Y018000D01*
X011633Y017975D01*
X011675Y017952D01*
X011718Y017934D01*
X011763Y017918D01*
X011809Y017907D01*
X011855Y017899D01*
X011902Y017895D01*
X011950Y017895D01*
X011997Y017899D01*
X012043Y017907D01*
X012089Y017918D01*
X012134Y017934D01*
X012177Y017952D01*
X012219Y017975D01*
X012259Y018000D01*
X012296Y018029D01*
X012332Y018061D01*
X012364Y018095D01*
X012363Y018096D01*
X012331Y018061D01*
X012296Y018030D01*
X012258Y018001D01*
X012219Y017976D01*
X012177Y017953D01*
X012134Y017935D01*
X012089Y017919D01*
X012043Y017908D01*
X011997Y017900D01*
X011950Y017896D01*
X011902Y017896D01*
X011855Y017900D01*
X011809Y017908D01*
X011763Y017919D01*
X011718Y017935D01*
X011675Y017953D01*
X011633Y017976D01*
X011594Y018001D01*
X011556Y018030D01*
X011521Y018061D01*
X011489Y018096D01*
X011490Y018096D01*
X011522Y018062D01*
X011557Y018031D01*
X011594Y018002D01*
X011634Y017976D01*
X011675Y017954D01*
X011719Y017936D01*
X011763Y017920D01*
X011809Y017909D01*
X011855Y017901D01*
X011902Y017897D01*
X011950Y017897D01*
X011997Y017901D01*
X012043Y017909D01*
X012089Y017920D01*
X012133Y017936D01*
X012177Y017954D01*
X012218Y017976D01*
X012258Y018002D01*
X012295Y018031D01*
X012330Y018062D01*
X012362Y018096D01*
X012362Y018097D01*
X012329Y018063D01*
X012295Y018031D01*
X012257Y018003D01*
X012218Y017977D01*
X012176Y017955D01*
X012133Y017936D01*
X012088Y017921D01*
X012043Y017910D01*
X011996Y017902D01*
X011950Y017898D01*
X011902Y017898D01*
X011856Y017902D01*
X011809Y017910D01*
X011764Y017921D01*
X011719Y017936D01*
X011676Y017955D01*
X011634Y017977D01*
X011595Y018003D01*
X011557Y018031D01*
X011523Y018063D01*
X011490Y018097D01*
X011491Y018098D01*
X011523Y018064D01*
X011558Y018032D01*
X011595Y018004D01*
X011635Y017978D01*
X011676Y017956D01*
X011719Y017937D01*
X011764Y017922D01*
X011809Y017911D01*
X011856Y017903D01*
X011903Y017899D01*
X011949Y017899D01*
X011996Y017903D01*
X012043Y017911D01*
X012088Y017922D01*
X012133Y017937D01*
X012176Y017956D01*
X012217Y017978D01*
X012257Y018004D01*
X012294Y018032D01*
X012329Y018064D01*
X012361Y018098D01*
X012360Y018098D01*
X012328Y018064D01*
X012293Y018033D01*
X012256Y018004D01*
X012217Y017979D01*
X012175Y017957D01*
X012132Y017938D01*
X012088Y017923D01*
X012042Y017912D01*
X011996Y017904D01*
X011949Y017900D01*
X011903Y017900D01*
X011856Y017904D01*
X011810Y017912D01*
X011764Y017923D01*
X011720Y017938D01*
X011677Y017957D01*
X011635Y017979D01*
X011596Y018004D01*
X011559Y018033D01*
X011524Y018064D01*
X011492Y018098D01*
X011493Y018099D01*
X011525Y018065D01*
X011559Y018034D01*
X011597Y018005D01*
X011636Y017980D01*
X011677Y017958D01*
X011720Y017939D01*
X011764Y017924D01*
X011810Y017913D01*
X011856Y017905D01*
X011903Y017901D01*
X011949Y017901D01*
X011996Y017905D01*
X012042Y017913D01*
X012088Y017924D01*
X012132Y017939D01*
X012175Y017958D01*
X012216Y017980D01*
X012255Y018005D01*
X012293Y018034D01*
X012327Y018065D01*
X012359Y018099D01*
X012359Y018100D01*
X012327Y018066D01*
X012292Y018034D01*
X012255Y018006D01*
X012216Y017981D01*
X012174Y017959D01*
X012132Y017940D01*
X012087Y017925D01*
X012042Y017914D01*
X011996Y017906D01*
X011949Y017902D01*
X011903Y017902D01*
X011856Y017906D01*
X011810Y017914D01*
X011765Y017925D01*
X011720Y017940D01*
X011678Y017959D01*
X011636Y017981D01*
X011597Y018006D01*
X011560Y018034D01*
X011525Y018066D01*
X011493Y018100D01*
X011494Y018100D01*
X011526Y018066D01*
X011561Y018035D01*
X011598Y018007D01*
X011637Y017982D01*
X011678Y017960D01*
X011721Y017941D01*
X011765Y017926D01*
X011810Y017915D01*
X011856Y017907D01*
X011903Y017903D01*
X011949Y017903D01*
X011996Y017907D01*
X012042Y017915D01*
X012087Y017926D01*
X012131Y017941D01*
X012174Y017960D01*
X012215Y017982D01*
X012254Y018007D01*
X012291Y018035D01*
X012326Y018066D01*
X012358Y018100D01*
X012357Y018101D01*
X012325Y018067D01*
X012291Y018036D01*
X012254Y018008D01*
X012215Y017982D01*
X012174Y017961D01*
X012131Y017942D01*
X012087Y017927D01*
X012042Y017916D01*
X011996Y017908D01*
X011949Y017904D01*
X011903Y017904D01*
X011856Y017908D01*
X011810Y017916D01*
X011765Y017927D01*
X011721Y017942D01*
X011678Y017961D01*
X011637Y017982D01*
X011598Y018008D01*
X011561Y018036D01*
X011527Y018067D01*
X011495Y018101D01*
X011496Y018102D01*
X011528Y018068D01*
X011562Y018037D01*
X011599Y018008D01*
X011638Y017983D01*
X011679Y017961D01*
X011722Y017943D01*
X011766Y017928D01*
X011811Y017917D01*
X011856Y017909D01*
X011903Y017905D01*
X011949Y017905D01*
X011996Y017909D01*
X012041Y017917D01*
X012086Y017928D01*
X012130Y017943D01*
X012173Y017961D01*
X012214Y017983D01*
X012253Y018008D01*
X012290Y018037D01*
X012324Y018068D01*
X012356Y018102D01*
X012324Y018069D01*
X012289Y018037D01*
X012253Y018009D01*
X012214Y017984D01*
X012173Y017962D01*
X012130Y017944D01*
X012086Y017929D01*
X012041Y017918D01*
X011995Y017910D01*
X011949Y017906D01*
X011903Y017906D01*
X011857Y017910D01*
X011811Y017918D01*
X011766Y017929D01*
X011722Y017944D01*
X011679Y017962D01*
X011638Y017984D01*
X011599Y018009D01*
X011563Y018037D01*
X011528Y018069D01*
X011496Y018102D01*
X011497Y018103D01*
X011529Y018069D01*
X011563Y018038D01*
X011600Y018010D01*
X011639Y017985D01*
X011680Y017963D01*
X011722Y017945D01*
X011766Y017930D01*
X011811Y017919D01*
X011857Y017911D01*
X011903Y017907D01*
X011949Y017907D01*
X011995Y017911D01*
X012041Y017919D01*
X012086Y017930D01*
X012130Y017945D01*
X012172Y017963D01*
X012213Y017985D01*
X012252Y018010D01*
X012289Y018038D01*
X012323Y018069D01*
X012355Y018103D01*
X012354Y018104D01*
X012322Y018070D01*
X012288Y018039D01*
X012251Y018011D01*
X012213Y017986D01*
X012172Y017964D01*
X012129Y017946D01*
X012086Y017931D01*
X012041Y017920D01*
X011995Y017912D01*
X011949Y017908D01*
X011903Y017908D01*
X011857Y017912D01*
X011811Y017920D01*
X011766Y017931D01*
X011723Y017946D01*
X011680Y017964D01*
X011639Y017986D01*
X011601Y018011D01*
X011564Y018039D01*
X011530Y018070D01*
X011498Y018104D01*
X011499Y018104D01*
X011530Y018071D01*
X011565Y018040D01*
X011601Y018012D01*
X011640Y017987D01*
X011681Y017965D01*
X011723Y017947D01*
X011767Y017932D01*
X011811Y017921D01*
X011857Y017913D01*
X011903Y017909D01*
X011949Y017909D01*
X011995Y017913D01*
X012041Y017921D01*
X012085Y017932D01*
X012129Y017947D01*
X012171Y017965D01*
X012212Y017987D01*
X012251Y018012D01*
X012287Y018040D01*
X012322Y018071D01*
X012353Y018104D01*
X012353Y018105D01*
X012321Y018071D01*
X012287Y018041D01*
X012250Y018013D01*
X012212Y017988D01*
X012171Y017966D01*
X012129Y017948D01*
X012085Y017933D01*
X012040Y017922D01*
X011995Y017914D01*
X011949Y017910D01*
X011903Y017910D01*
X011857Y017914D01*
X011812Y017922D01*
X011767Y017933D01*
X011723Y017948D01*
X011681Y017966D01*
X011640Y017988D01*
X011602Y018013D01*
X011565Y018041D01*
X011531Y018071D01*
X011499Y018105D01*
X011500Y018106D01*
X011532Y018072D01*
X011566Y018041D01*
X011602Y018013D01*
X011641Y017988D01*
X011682Y017967D01*
X011724Y017949D01*
X011767Y017934D01*
X011812Y017923D01*
X011857Y017915D01*
X011903Y017911D01*
X011949Y017911D01*
X011995Y017915D01*
X012040Y017923D01*
X012085Y017934D01*
X012128Y017949D01*
X012170Y017967D01*
X012211Y017988D01*
X012250Y018013D01*
X012286Y018041D01*
X012320Y018072D01*
X012352Y018106D01*
X012351Y018106D01*
X012320Y018073D01*
X012286Y018042D01*
X012249Y018014D01*
X012211Y017989D01*
X012170Y017968D01*
X012128Y017950D01*
X012084Y017935D01*
X012040Y017924D01*
X011995Y017916D01*
X011949Y017912D01*
X011903Y017912D01*
X011857Y017916D01*
X011812Y017924D01*
X011768Y017935D01*
X011724Y017950D01*
X011682Y017968D01*
X011641Y017989D01*
X011603Y018014D01*
X011566Y018042D01*
X011532Y018073D01*
X011501Y018106D01*
X011502Y018107D01*
X011533Y018074D01*
X011567Y018043D01*
X011603Y018015D01*
X011642Y017990D01*
X011682Y017969D01*
X011724Y017950D01*
X011768Y017936D01*
X011812Y017925D01*
X011857Y017917D01*
X011903Y017913D01*
X011949Y017913D01*
X011995Y017917D01*
X012040Y017925D01*
X012084Y017936D01*
X012128Y017950D01*
X012170Y017969D01*
X012210Y017990D01*
X012249Y018015D01*
X012285Y018043D01*
X012319Y018074D01*
X012350Y018107D01*
X012349Y018108D01*
X012318Y018074D01*
X012284Y018044D01*
X012248Y018016D01*
X012210Y017991D01*
X012169Y017970D01*
X012127Y017951D01*
X012084Y017937D01*
X012040Y017926D01*
X011994Y017918D01*
X011949Y017914D01*
X011903Y017914D01*
X011858Y017918D01*
X011812Y017926D01*
X011768Y017937D01*
X011725Y017951D01*
X011683Y017970D01*
X011642Y017991D01*
X011604Y018016D01*
X011568Y018044D01*
X011534Y018074D01*
X011503Y018108D01*
X011535Y018075D01*
X011568Y018044D01*
X011605Y018017D01*
X011643Y017992D01*
X011683Y017970D01*
X011725Y017952D01*
X011768Y017938D01*
X011813Y017927D01*
X011858Y017919D01*
X011903Y017915D01*
X011949Y017915D01*
X011994Y017919D01*
X012039Y017927D01*
X012084Y017938D01*
X012127Y017952D01*
X012169Y017970D01*
X012209Y017992D01*
X012247Y018017D01*
X012284Y018044D01*
X012317Y018075D01*
X012349Y018108D01*
X012348Y018109D01*
X012317Y018076D01*
X012283Y018045D01*
X012247Y018017D01*
X012209Y017993D01*
X012168Y017971D01*
X012126Y017953D01*
X012083Y017939D01*
X012039Y017928D01*
X011994Y017920D01*
X011949Y017916D01*
X011903Y017916D01*
X011858Y017920D01*
X011813Y017928D01*
X011769Y017939D01*
X011726Y017953D01*
X011684Y017971D01*
X011643Y017993D01*
X011605Y018017D01*
X011569Y018045D01*
X011535Y018076D01*
X011504Y018109D01*
X011505Y018110D01*
X011536Y018076D01*
X011570Y018046D01*
X011606Y018018D01*
X011644Y017994D01*
X011684Y017972D01*
X011726Y017954D01*
X011769Y017940D01*
X011813Y017929D01*
X011858Y017921D01*
X011903Y017917D01*
X011949Y017917D01*
X011994Y017921D01*
X012039Y017929D01*
X012083Y017940D01*
X012126Y017954D01*
X012168Y017972D01*
X012208Y017994D01*
X012246Y018018D01*
X012282Y018046D01*
X012316Y018076D01*
X012347Y018110D01*
X012346Y018110D01*
X012315Y018077D01*
X012282Y018047D01*
X012246Y018019D01*
X012207Y017995D01*
X012167Y017973D01*
X012126Y017955D01*
X012083Y017941D01*
X012039Y017930D01*
X011994Y017922D01*
X011949Y017918D01*
X011903Y017918D01*
X011858Y017922D01*
X011813Y017930D01*
X011769Y017941D01*
X011726Y017955D01*
X011685Y017973D01*
X011645Y017995D01*
X011606Y018019D01*
X011570Y018047D01*
X011537Y018077D01*
X011506Y018110D01*
X011506Y018111D01*
X011537Y018078D01*
X011571Y018047D01*
X011607Y018020D01*
X011645Y017995D01*
X011685Y017974D01*
X011727Y017956D01*
X011770Y017942D01*
X011813Y017931D01*
X011858Y017923D01*
X011903Y017919D01*
X011949Y017919D01*
X011994Y017923D01*
X012039Y017931D01*
X012082Y017942D01*
X012125Y017956D01*
X012167Y017974D01*
X012207Y017995D01*
X012245Y018020D01*
X012281Y018047D01*
X012315Y018078D01*
X012346Y018111D01*
X012345Y018112D01*
X012314Y018079D01*
X012280Y018048D01*
X012245Y018021D01*
X012206Y017996D01*
X012167Y017975D01*
X012125Y017957D01*
X012082Y017942D01*
X012038Y017932D01*
X011994Y017924D01*
X011949Y017920D01*
X011903Y017920D01*
X011858Y017924D01*
X011814Y017932D01*
X011770Y017942D01*
X011727Y017957D01*
X011685Y017975D01*
X011646Y017996D01*
X011607Y018021D01*
X011572Y018048D01*
X011538Y018079D01*
X011507Y018112D01*
X012393Y018841D02*
X012363Y018817D01*
X012334Y018851D01*
X012303Y018882D01*
X012269Y018911D01*
X012233Y018937D01*
X012195Y018960D01*
X012155Y018980D01*
X012114Y018997D01*
X012071Y019010D01*
X012028Y019020D01*
X011984Y019026D01*
X011939Y019029D01*
X011895Y019028D01*
X011851Y019024D01*
X011807Y019016D01*
X011764Y019004D01*
X011722Y018990D01*
X011681Y018972D01*
X011642Y018950D01*
X011605Y018926D01*
X011570Y018899D01*
X011537Y018869D01*
X011507Y018836D01*
X011478Y018861D01*
X011477Y018862D01*
X011510Y018897D01*
X011545Y018929D01*
X011582Y018958D01*
X011622Y018984D01*
X011664Y019007D01*
X011707Y019026D01*
X011752Y019042D01*
X011798Y019054D01*
X011845Y019062D01*
X011893Y019067D01*
X011940Y019068D01*
X011988Y019065D01*
X012035Y019058D01*
X012081Y019048D01*
X012127Y019033D01*
X012171Y019016D01*
X012213Y018994D01*
X012254Y018970D01*
X012293Y018942D01*
X012329Y018911D01*
X012363Y018878D01*
X012394Y018841D01*
X012393Y018841D01*
X012362Y018877D01*
X012328Y018910D01*
X012292Y018941D01*
X012254Y018969D01*
X012213Y018993D01*
X012170Y019015D01*
X012126Y019032D01*
X012081Y019047D01*
X012035Y019057D01*
X011988Y019064D01*
X011940Y019067D01*
X011893Y019066D01*
X011845Y019061D01*
X011799Y019053D01*
X011753Y019041D01*
X011708Y019025D01*
X011664Y019006D01*
X011623Y018983D01*
X011583Y018957D01*
X011545Y018928D01*
X011510Y018896D01*
X011478Y018861D01*
X011479Y018860D01*
X011511Y018895D01*
X011546Y018927D01*
X011583Y018956D01*
X011623Y018982D01*
X011665Y019005D01*
X011708Y019024D01*
X011753Y019040D01*
X011799Y019052D01*
X011846Y019060D01*
X011893Y019065D01*
X011940Y019066D01*
X011988Y019063D01*
X012034Y019056D01*
X012081Y019046D01*
X012126Y019032D01*
X012170Y019014D01*
X012212Y018993D01*
X012253Y018968D01*
X012292Y018940D01*
X012328Y018910D01*
X012361Y018876D01*
X012392Y018840D01*
X012391Y018839D01*
X012361Y018876D01*
X012327Y018909D01*
X012291Y018940D01*
X012253Y018967D01*
X012212Y018992D01*
X012170Y019013D01*
X012126Y019031D01*
X012080Y019045D01*
X012034Y019055D01*
X011987Y019062D01*
X011940Y019065D01*
X011893Y019064D01*
X011846Y019059D01*
X011799Y019051D01*
X011753Y019039D01*
X011709Y019023D01*
X011665Y019004D01*
X011624Y018981D01*
X011584Y018955D01*
X011547Y018926D01*
X011512Y018894D01*
X011479Y018860D01*
X011480Y018859D01*
X011512Y018894D01*
X011547Y018926D01*
X011585Y018955D01*
X011624Y018980D01*
X011666Y019003D01*
X011709Y019022D01*
X011754Y019038D01*
X011799Y019050D01*
X011846Y019058D01*
X011893Y019063D01*
X011940Y019064D01*
X011987Y019061D01*
X012034Y019054D01*
X012080Y019044D01*
X012125Y019030D01*
X012169Y019012D01*
X012212Y018991D01*
X012252Y018966D01*
X012290Y018939D01*
X012326Y018908D01*
X012360Y018875D01*
X012391Y018839D01*
X012390Y018838D01*
X012359Y018874D01*
X012326Y018907D01*
X012290Y018938D01*
X012251Y018966D01*
X012211Y018990D01*
X012169Y019011D01*
X012125Y019029D01*
X012080Y019043D01*
X012034Y019053D01*
X011987Y019060D01*
X011940Y019063D01*
X011893Y019062D01*
X011846Y019057D01*
X011799Y019049D01*
X011754Y019037D01*
X011709Y019021D01*
X011666Y019002D01*
X011625Y018980D01*
X011585Y018954D01*
X011548Y018925D01*
X011513Y018893D01*
X011481Y018858D01*
X011482Y018858D01*
X011514Y018892D01*
X011549Y018924D01*
X011586Y018953D01*
X011625Y018979D01*
X011667Y019001D01*
X011710Y019020D01*
X011754Y019036D01*
X011800Y019048D01*
X011846Y019056D01*
X011893Y019061D01*
X011940Y019062D01*
X011987Y019059D01*
X012034Y019052D01*
X012080Y019042D01*
X012125Y019028D01*
X012168Y019010D01*
X012211Y018989D01*
X012251Y018965D01*
X012289Y018937D01*
X012325Y018907D01*
X012358Y018873D01*
X012389Y018838D01*
X012388Y018837D01*
X012358Y018873D01*
X012324Y018906D01*
X012289Y018936D01*
X012250Y018964D01*
X012210Y018988D01*
X012168Y019009D01*
X012124Y019027D01*
X012079Y019041D01*
X012034Y019051D01*
X011987Y019058D01*
X011940Y019061D01*
X011893Y019060D01*
X011846Y019055D01*
X011800Y019047D01*
X011754Y019035D01*
X011710Y019019D01*
X011667Y019000D01*
X011626Y018978D01*
X011586Y018952D01*
X011549Y018923D01*
X011514Y018892D01*
X011482Y018857D01*
X011483Y018857D01*
X011515Y018891D01*
X011550Y018922D01*
X011587Y018951D01*
X011626Y018977D01*
X011668Y018999D01*
X011710Y019019D01*
X011755Y019034D01*
X011800Y019046D01*
X011846Y019054D01*
X011893Y019059D01*
X011940Y019060D01*
X011987Y019057D01*
X012033Y019050D01*
X012079Y019040D01*
X012124Y019026D01*
X012168Y019008D01*
X012210Y018987D01*
X012250Y018963D01*
X012288Y018936D01*
X012324Y018905D01*
X012357Y018872D01*
X012387Y018836D01*
X012356Y018871D01*
X012323Y018905D01*
X012287Y018935D01*
X012249Y018962D01*
X012209Y018986D01*
X012167Y019007D01*
X012124Y019025D01*
X012079Y019039D01*
X012033Y019049D01*
X011987Y019056D01*
X011940Y019059D01*
X011893Y019058D01*
X011846Y019053D01*
X011800Y019045D01*
X011755Y019033D01*
X011711Y019018D01*
X011668Y018999D01*
X011627Y018976D01*
X011588Y018950D01*
X011550Y018922D01*
X011516Y018890D01*
X011484Y018856D01*
X011485Y018855D01*
X011517Y018889D01*
X011551Y018921D01*
X011588Y018950D01*
X011627Y018975D01*
X011668Y018998D01*
X011711Y019017D01*
X011755Y019032D01*
X011801Y019044D01*
X011847Y019052D01*
X011893Y019057D01*
X011940Y019058D01*
X011987Y019055D01*
X012033Y019048D01*
X012079Y019038D01*
X012123Y019024D01*
X012167Y019007D01*
X012209Y018986D01*
X012249Y018961D01*
X012287Y018934D01*
X012322Y018904D01*
X012356Y018871D01*
X012386Y018835D01*
X012385Y018835D01*
X012355Y018870D01*
X012322Y018903D01*
X012286Y018933D01*
X012248Y018961D01*
X012208Y018985D01*
X012166Y019006D01*
X012123Y019023D01*
X012078Y019037D01*
X012033Y019047D01*
X011987Y019054D01*
X011940Y019057D01*
X011893Y019056D01*
X011847Y019051D01*
X011801Y019043D01*
X011756Y019031D01*
X011712Y019016D01*
X011669Y018997D01*
X011628Y018974D01*
X011589Y018949D01*
X011552Y018920D01*
X011517Y018889D01*
X011485Y018855D01*
X011486Y018854D01*
X011518Y018888D01*
X011552Y018919D01*
X011589Y018948D01*
X011628Y018974D01*
X011669Y018996D01*
X011712Y019015D01*
X011756Y019030D01*
X011801Y019042D01*
X011847Y019050D01*
X011893Y019055D01*
X011940Y019056D01*
X011986Y019053D01*
X012033Y019046D01*
X012078Y019036D01*
X012123Y019022D01*
X012166Y019005D01*
X012208Y018984D01*
X012248Y018960D01*
X012285Y018933D01*
X012321Y018902D01*
X012354Y018869D01*
X012384Y018834D01*
X012384Y018833D01*
X012353Y018869D01*
X012320Y018902D01*
X012285Y018932D01*
X012247Y018959D01*
X012207Y018983D01*
X012166Y019004D01*
X012122Y019021D01*
X012078Y019035D01*
X012032Y019045D01*
X011986Y019052D01*
X011940Y019055D01*
X011893Y019054D01*
X011847Y019049D01*
X011801Y019041D01*
X011756Y019029D01*
X011712Y019014D01*
X011670Y018995D01*
X011629Y018973D01*
X011590Y018947D01*
X011553Y018919D01*
X011519Y018887D01*
X011487Y018853D01*
X011488Y018853D01*
X011519Y018887D01*
X011554Y018918D01*
X011590Y018946D01*
X011629Y018972D01*
X011670Y018994D01*
X011713Y019013D01*
X011756Y019028D01*
X011801Y019040D01*
X011847Y019048D01*
X011893Y019053D01*
X011940Y019054D01*
X011986Y019051D01*
X012032Y019044D01*
X012078Y019034D01*
X012122Y019020D01*
X012165Y019003D01*
X012207Y018982D01*
X012246Y018958D01*
X012284Y018931D01*
X012320Y018901D01*
X012353Y018868D01*
X012383Y018833D01*
X012382Y018832D01*
X012352Y018867D01*
X012319Y018900D01*
X012284Y018930D01*
X012246Y018957D01*
X012206Y018981D01*
X012165Y019002D01*
X012122Y019019D01*
X012077Y019033D01*
X012032Y019043D01*
X011986Y019050D01*
X011940Y019053D01*
X011893Y019052D01*
X011847Y019047D01*
X011802Y019039D01*
X011757Y019027D01*
X011713Y019012D01*
X011671Y018993D01*
X011630Y018971D01*
X011591Y018946D01*
X011554Y018917D01*
X011520Y018886D01*
X011488Y018852D01*
X011489Y018851D01*
X011521Y018885D01*
X011555Y018916D01*
X011592Y018945D01*
X011630Y018970D01*
X011671Y018992D01*
X011713Y019011D01*
X011757Y019026D01*
X011802Y019038D01*
X011847Y019046D01*
X011894Y019051D01*
X011940Y019052D01*
X011986Y019049D01*
X012032Y019042D01*
X012077Y019032D01*
X012121Y019018D01*
X012164Y019001D01*
X012206Y018980D01*
X012245Y018956D01*
X012283Y018929D01*
X012318Y018899D01*
X012351Y018867D01*
X012381Y018831D01*
X012380Y018831D01*
X012350Y018866D01*
X012318Y018899D01*
X012282Y018929D01*
X012245Y018956D01*
X012205Y018979D01*
X012164Y019000D01*
X012121Y019017D01*
X012077Y019031D01*
X012032Y019041D01*
X011986Y019048D01*
X011940Y019051D01*
X011894Y019050D01*
X011848Y019046D01*
X011802Y019037D01*
X011757Y019025D01*
X011714Y019010D01*
X011671Y018991D01*
X011631Y018969D01*
X011592Y018944D01*
X011556Y018916D01*
X011521Y018884D01*
X011490Y018851D01*
X011491Y018850D01*
X011522Y018884D01*
X011556Y018915D01*
X011593Y018943D01*
X011631Y018968D01*
X011672Y018990D01*
X011714Y019009D01*
X011758Y019025D01*
X011802Y019036D01*
X011848Y019045D01*
X011894Y019049D01*
X011940Y019050D01*
X011986Y019047D01*
X012032Y019040D01*
X012077Y019030D01*
X012121Y019016D01*
X012163Y018999D01*
X012205Y018979D01*
X012244Y018955D01*
X012282Y018928D01*
X012317Y018898D01*
X012350Y018865D01*
X012380Y018830D01*
X012379Y018830D01*
X012349Y018865D01*
X012316Y018897D01*
X012281Y018927D01*
X012244Y018954D01*
X012204Y018978D01*
X012163Y018998D01*
X012120Y019016D01*
X012076Y019029D01*
X012031Y019039D01*
X011986Y019046D01*
X011940Y019049D01*
X011894Y019048D01*
X011848Y019044D01*
X011803Y019035D01*
X011758Y019024D01*
X011714Y019008D01*
X011672Y018990D01*
X011632Y018968D01*
X011593Y018942D01*
X011557Y018914D01*
X011523Y018883D01*
X011491Y018849D01*
X011492Y018849D01*
X011524Y018882D01*
X011558Y018913D01*
X011594Y018941D01*
X011632Y018967D01*
X011673Y018989D01*
X011715Y019007D01*
X011758Y019023D01*
X011803Y019034D01*
X011848Y019043D01*
X011894Y019047D01*
X011940Y019048D01*
X011986Y019045D01*
X012031Y019038D01*
X012076Y019028D01*
X012120Y019015D01*
X012163Y018997D01*
X012204Y018977D01*
X012243Y018953D01*
X012281Y018926D01*
X012316Y018896D01*
X012348Y018864D01*
X012378Y018829D01*
X012377Y018828D01*
X012347Y018863D01*
X012315Y018896D01*
X012280Y018925D01*
X012243Y018952D01*
X012203Y018976D01*
X012162Y018996D01*
X012120Y019014D01*
X012076Y019027D01*
X012031Y019037D01*
X011986Y019044D01*
X011940Y019047D01*
X011894Y019046D01*
X011848Y019042D01*
X011803Y019033D01*
X011759Y019022D01*
X011715Y019006D01*
X011673Y018988D01*
X011633Y018966D01*
X011595Y018941D01*
X011558Y018913D01*
X011524Y018882D01*
X011493Y018848D01*
X011494Y018847D01*
X011525Y018881D01*
X011559Y018912D01*
X011595Y018940D01*
X011633Y018965D01*
X011674Y018987D01*
X011716Y019005D01*
X011759Y019021D01*
X011803Y019032D01*
X011848Y019041D01*
X011894Y019045D01*
X011940Y019046D01*
X011985Y019043D01*
X012031Y019036D01*
X012076Y019026D01*
X012119Y019013D01*
X012162Y018996D01*
X012203Y018975D01*
X012242Y018951D01*
X012279Y018925D01*
X012314Y018895D01*
X012347Y018863D01*
X012376Y018828D01*
X012376Y018827D01*
X012346Y018862D01*
X012314Y018894D01*
X012279Y018924D01*
X012242Y018951D01*
X012202Y018974D01*
X012161Y018995D01*
X012119Y019012D01*
X012075Y019025D01*
X012031Y019036D01*
X011985Y019042D01*
X011940Y019045D01*
X011894Y019044D01*
X011848Y019040D01*
X011803Y019031D01*
X011759Y019020D01*
X011716Y019005D01*
X011674Y018986D01*
X011634Y018964D01*
X011596Y018939D01*
X011559Y018911D01*
X011526Y018880D01*
X011494Y018847D01*
X011495Y018846D01*
X011526Y018879D01*
X011560Y018910D01*
X011596Y018938D01*
X011634Y018963D01*
X011675Y018985D01*
X011716Y019004D01*
X011759Y019019D01*
X011804Y019030D01*
X011849Y019039D01*
X011894Y019043D01*
X011940Y019044D01*
X011985Y019041D01*
X012030Y019035D01*
X012075Y019024D01*
X012119Y019011D01*
X012161Y018994D01*
X012202Y018973D01*
X012241Y018950D01*
X012278Y018923D01*
X012313Y018894D01*
X012345Y018861D01*
X012375Y018827D01*
X012374Y018826D01*
X012345Y018861D01*
X012312Y018893D01*
X012277Y018922D01*
X012240Y018949D01*
X012201Y018972D01*
X012161Y018993D01*
X012118Y019010D01*
X012075Y019023D01*
X012030Y019034D01*
X011985Y019040D01*
X011940Y019043D01*
X011894Y019042D01*
X011849Y019038D01*
X011804Y019030D01*
X011760Y019018D01*
X011717Y019003D01*
X011675Y018984D01*
X011635Y018962D01*
X011597Y018937D01*
X011561Y018909D01*
X011527Y018879D01*
X011496Y018845D01*
X011497Y018845D01*
X011528Y018878D01*
X011561Y018909D01*
X011597Y018937D01*
X011636Y018962D01*
X011675Y018983D01*
X011717Y019002D01*
X011760Y019017D01*
X011804Y019029D01*
X011849Y019037D01*
X011894Y019041D01*
X011940Y019042D01*
X011985Y019039D01*
X012030Y019033D01*
X012075Y019023D01*
X012118Y019009D01*
X012160Y018992D01*
X012201Y018972D01*
X012240Y018948D01*
X012277Y018921D01*
X012312Y018892D01*
X012344Y018860D01*
X012373Y018825D01*
X012343Y018859D01*
X012311Y018891D01*
X012276Y018921D01*
X012239Y018947D01*
X012200Y018971D01*
X012160Y018991D01*
X012118Y019008D01*
X012074Y019022D01*
X012030Y019032D01*
X011985Y019038D01*
X011940Y019041D01*
X011894Y019040D01*
X011849Y019036D01*
X011804Y019028D01*
X011760Y019016D01*
X011717Y019001D01*
X011676Y018982D01*
X011636Y018961D01*
X011598Y018936D01*
X011562Y018908D01*
X011528Y018877D01*
X011497Y018844D01*
X011498Y018843D01*
X011529Y018877D01*
X011563Y018907D01*
X011599Y018935D01*
X011637Y018960D01*
X011676Y018981D01*
X011718Y019000D01*
X011761Y019015D01*
X011804Y019027D01*
X011849Y019035D01*
X011894Y019039D01*
X011940Y019040D01*
X011985Y019037D01*
X012030Y019031D01*
X012074Y019021D01*
X012117Y019007D01*
X012159Y018990D01*
X012200Y018970D01*
X012239Y018946D01*
X012276Y018920D01*
X012310Y018891D01*
X012342Y018859D01*
X012372Y018824D01*
X012371Y018823D01*
X012342Y018858D01*
X012310Y018890D01*
X012275Y018919D01*
X012238Y018946D01*
X012199Y018969D01*
X012159Y018989D01*
X012117Y019006D01*
X012074Y019020D01*
X012030Y019030D01*
X011985Y019036D01*
X011940Y019039D01*
X011894Y019038D01*
X011849Y019034D01*
X011805Y019026D01*
X011761Y019014D01*
X011718Y018999D01*
X011677Y018981D01*
X011637Y018959D01*
X011599Y018934D01*
X011563Y018906D01*
X011530Y018876D01*
X011499Y018843D01*
X011500Y018842D01*
X011531Y018875D01*
X011564Y018906D01*
X011600Y018933D01*
X011638Y018958D01*
X011677Y018980D01*
X011719Y018998D01*
X011761Y019013D01*
X011805Y019025D01*
X011849Y019033D01*
X011894Y019037D01*
X011940Y019038D01*
X011985Y019035D01*
X012029Y019029D01*
X012073Y019019D01*
X012117Y019005D01*
X012159Y018988D01*
X012199Y018968D01*
X012238Y018945D01*
X012274Y018918D01*
X012309Y018889D01*
X012341Y018857D01*
X012370Y018823D01*
X012369Y018822D01*
X012340Y018857D01*
X012308Y018888D01*
X012274Y018918D01*
X012237Y018944D01*
X012198Y018967D01*
X012158Y018987D01*
X012116Y019004D01*
X012073Y019018D01*
X012029Y019028D01*
X011985Y019034D01*
X011940Y019037D01*
X011894Y019036D01*
X011850Y019032D01*
X011805Y019024D01*
X011761Y019012D01*
X011719Y018997D01*
X011678Y018979D01*
X011638Y018957D01*
X011600Y018933D01*
X011565Y018905D01*
X011531Y018874D01*
X011501Y018842D01*
X011501Y018841D01*
X011532Y018874D01*
X011565Y018904D01*
X011601Y018932D01*
X011639Y018956D01*
X011678Y018978D01*
X011719Y018996D01*
X011762Y019011D01*
X011805Y019023D01*
X011850Y019031D01*
X011894Y019035D01*
X011939Y019036D01*
X011984Y019033D01*
X012029Y019027D01*
X012073Y019017D01*
X012116Y019003D01*
X012158Y018986D01*
X012198Y018966D01*
X012237Y018943D01*
X012273Y018917D01*
X012307Y018888D01*
X012339Y018856D01*
X012369Y018822D01*
X012368Y018821D01*
X012339Y018855D01*
X012307Y018887D01*
X012273Y018916D01*
X012236Y018942D01*
X012198Y018965D01*
X012157Y018986D01*
X012116Y019002D01*
X012073Y019016D01*
X012029Y019026D01*
X011984Y019032D01*
X011939Y019035D01*
X011895Y019034D01*
X011850Y019030D01*
X011806Y019022D01*
X011762Y019010D01*
X011720Y018995D01*
X011679Y018977D01*
X011639Y018955D01*
X011601Y018931D01*
X011566Y018903D01*
X011533Y018873D01*
X011502Y018840D01*
X011503Y018840D01*
X011533Y018872D01*
X011567Y018903D01*
X011602Y018930D01*
X011640Y018955D01*
X011679Y018976D01*
X011720Y018994D01*
X011762Y019009D01*
X011806Y019021D01*
X011850Y019029D01*
X011895Y019033D01*
X011939Y019034D01*
X011984Y019031D01*
X012029Y019025D01*
X012072Y019015D01*
X012115Y019001D01*
X012157Y018985D01*
X012197Y018965D01*
X012235Y018941D01*
X012272Y018915D01*
X012306Y018886D01*
X012338Y018854D01*
X012367Y018820D01*
X012366Y018820D01*
X012337Y018854D01*
X012305Y018885D01*
X012271Y018914D01*
X012235Y018941D01*
X012197Y018964D01*
X012156Y018984D01*
X012115Y019000D01*
X012072Y019014D01*
X012028Y019024D01*
X011984Y019030D01*
X011939Y019033D01*
X011895Y019032D01*
X011850Y019028D01*
X011806Y019020D01*
X011763Y019008D01*
X011720Y018993D01*
X011679Y018975D01*
X011640Y018954D01*
X011603Y018929D01*
X011567Y018902D01*
X011534Y018872D01*
X011504Y018839D01*
X011504Y018838D01*
X011535Y018871D01*
X011568Y018901D01*
X011603Y018928D01*
X011641Y018953D01*
X011680Y018974D01*
X011721Y018992D01*
X011763Y019007D01*
X011806Y019019D01*
X011850Y019027D01*
X011895Y019031D01*
X011939Y019032D01*
X011984Y019029D01*
X012028Y019023D01*
X012072Y019013D01*
X012115Y019000D01*
X012156Y018983D01*
X012196Y018963D01*
X012234Y018940D01*
X012271Y018914D01*
X012305Y018885D01*
X012336Y018853D01*
X012365Y018819D01*
X012365Y018818D01*
X012336Y018852D01*
X012304Y018884D01*
X012270Y018913D01*
X012234Y018939D01*
X012196Y018962D01*
X012156Y018982D01*
X012114Y018999D01*
X012072Y019012D01*
X012028Y019022D01*
X011984Y019028D01*
X011939Y019031D01*
X011895Y019030D01*
X011850Y019026D01*
X011806Y019018D01*
X011763Y019006D01*
X011721Y018992D01*
X011680Y018973D01*
X011641Y018952D01*
X011604Y018928D01*
X011569Y018900D01*
X011536Y018870D01*
X011505Y018838D01*
X011506Y018837D01*
X011536Y018870D01*
X011569Y018900D01*
X011604Y018927D01*
X011642Y018951D01*
X011681Y018973D01*
X011722Y018991D01*
X011764Y019005D01*
X011807Y019017D01*
X011850Y019025D01*
X011895Y019029D01*
X011939Y019030D01*
X011984Y019027D01*
X012028Y019021D01*
X012071Y019011D01*
X012114Y018998D01*
X012155Y018981D01*
X012195Y018961D01*
X012233Y018938D01*
X012269Y018912D01*
X012303Y018883D01*
X012335Y018852D01*
X012364Y018818D01*
X010330Y018841D02*
X010295Y018824D01*
X010296Y018825D02*
X010270Y018872D01*
X010242Y018918D01*
X010210Y018961D01*
X010175Y019002D01*
X010137Y019041D01*
X010097Y019076D01*
X010054Y019109D01*
X010009Y019138D01*
X009962Y019164D01*
X009913Y019187D01*
X009862Y019206D01*
X009811Y019221D01*
X009758Y019233D01*
X009705Y019241D01*
X009651Y019245D01*
X009597Y019245D01*
X009543Y019241D01*
X009490Y019233D01*
X009437Y019221D01*
X009386Y019206D01*
X009335Y019187D01*
X009286Y019164D01*
X009239Y019138D01*
X009194Y019109D01*
X009151Y019076D01*
X009111Y019041D01*
X009073Y019002D01*
X009038Y018961D01*
X009006Y018918D01*
X008978Y018872D01*
X008952Y018825D01*
X008918Y018841D01*
X008917Y018842D01*
X008943Y018890D01*
X008972Y018937D01*
X009004Y018981D01*
X009039Y019024D01*
X009078Y019063D01*
X009118Y019100D01*
X009162Y019134D01*
X009207Y019164D01*
X009255Y019192D01*
X009304Y019216D01*
X009355Y019237D01*
X009407Y019253D01*
X009460Y019267D01*
X009515Y019276D01*
X009569Y019282D01*
X009624Y019284D01*
X009679Y019282D01*
X009733Y019276D01*
X009788Y019267D01*
X009841Y019253D01*
X009893Y019237D01*
X009944Y019216D01*
X009993Y019192D01*
X010041Y019164D01*
X010086Y019134D01*
X010130Y019100D01*
X010170Y019063D01*
X010209Y019024D01*
X010244Y018981D01*
X010276Y018937D01*
X010305Y018890D01*
X010331Y018842D01*
X010330Y018841D01*
X010304Y018890D01*
X010275Y018936D01*
X010243Y018981D01*
X010208Y019023D01*
X010170Y019062D01*
X010129Y019099D01*
X010086Y019133D01*
X010040Y019164D01*
X009993Y019191D01*
X009944Y019215D01*
X009893Y019236D01*
X009841Y019253D01*
X009787Y019266D01*
X009733Y019275D01*
X009679Y019281D01*
X009624Y019283D01*
X009569Y019281D01*
X009515Y019275D01*
X009461Y019266D01*
X009407Y019253D01*
X009355Y019236D01*
X009304Y019215D01*
X009255Y019191D01*
X009208Y019164D01*
X009162Y019133D01*
X009119Y019099D01*
X009078Y019062D01*
X009040Y019023D01*
X009005Y018981D01*
X008973Y018936D01*
X008944Y018890D01*
X008918Y018841D01*
X008919Y018841D01*
X008945Y018889D01*
X008974Y018936D01*
X009006Y018980D01*
X009041Y019022D01*
X009079Y019062D01*
X009120Y019098D01*
X009163Y019132D01*
X009208Y019163D01*
X009256Y019190D01*
X009305Y019214D01*
X009356Y019235D01*
X009408Y019252D01*
X009461Y019265D01*
X009515Y019274D01*
X009569Y019280D01*
X009624Y019282D01*
X009679Y019280D01*
X009733Y019274D01*
X009787Y019265D01*
X009840Y019252D01*
X009892Y019235D01*
X009943Y019214D01*
X009992Y019190D01*
X010040Y019163D01*
X010085Y019132D01*
X010128Y019098D01*
X010169Y019062D01*
X010207Y019022D01*
X010242Y018980D01*
X010274Y018936D01*
X010303Y018889D01*
X010329Y018841D01*
X010328Y018841D01*
X010302Y018889D01*
X010274Y018935D01*
X010241Y018980D01*
X010206Y019021D01*
X010168Y019061D01*
X010128Y019098D01*
X010085Y019131D01*
X010039Y019162D01*
X009992Y019189D01*
X009943Y019213D01*
X009892Y019234D01*
X009840Y019251D01*
X009787Y019264D01*
X009733Y019273D01*
X009679Y019279D01*
X009624Y019281D01*
X009569Y019279D01*
X009515Y019273D01*
X009461Y019264D01*
X009408Y019251D01*
X009356Y019234D01*
X009305Y019213D01*
X009256Y019189D01*
X009209Y019162D01*
X009163Y019131D01*
X009120Y019098D01*
X009080Y019061D01*
X009042Y019021D01*
X009007Y018980D01*
X008974Y018935D01*
X008946Y018889D01*
X008920Y018841D01*
X008921Y018840D01*
X008946Y018888D01*
X008975Y018935D01*
X009007Y018979D01*
X009042Y019021D01*
X009080Y019060D01*
X009121Y019097D01*
X009164Y019130D01*
X009209Y019161D01*
X009257Y019188D01*
X009306Y019212D01*
X009356Y019233D01*
X009408Y019250D01*
X009461Y019263D01*
X009515Y019272D01*
X009569Y019278D01*
X009624Y019280D01*
X009679Y019278D01*
X009733Y019272D01*
X009787Y019263D01*
X009840Y019250D01*
X009892Y019233D01*
X009942Y019212D01*
X009991Y019188D01*
X010039Y019161D01*
X010084Y019130D01*
X010127Y019097D01*
X010168Y019060D01*
X010206Y019021D01*
X010241Y018979D01*
X010273Y018935D01*
X010302Y018888D01*
X010327Y018840D01*
X010326Y018840D01*
X010301Y018888D01*
X010272Y018934D01*
X010240Y018978D01*
X010205Y019020D01*
X010167Y019059D01*
X010126Y019096D01*
X010083Y019130D01*
X010038Y019160D01*
X009991Y019187D01*
X009942Y019211D01*
X009891Y019232D01*
X009839Y019249D01*
X009787Y019262D01*
X009733Y019271D01*
X009679Y019277D01*
X009624Y019279D01*
X009569Y019277D01*
X009515Y019271D01*
X009461Y019262D01*
X009409Y019249D01*
X009357Y019232D01*
X009306Y019211D01*
X009257Y019187D01*
X009210Y019160D01*
X009165Y019130D01*
X009122Y019096D01*
X009081Y019059D01*
X009043Y019020D01*
X009008Y018978D01*
X008976Y018934D01*
X008947Y018888D01*
X008922Y018840D01*
X008923Y018839D01*
X008948Y018887D01*
X008977Y018934D01*
X009009Y018978D01*
X009044Y019019D01*
X009082Y019059D01*
X009122Y019095D01*
X009165Y019129D01*
X009210Y019159D01*
X009258Y019187D01*
X009306Y019210D01*
X009357Y019231D01*
X009409Y019248D01*
X009462Y019261D01*
X009515Y019270D01*
X009570Y019276D01*
X009624Y019278D01*
X009678Y019276D01*
X009733Y019270D01*
X009786Y019261D01*
X009839Y019248D01*
X009891Y019231D01*
X009942Y019210D01*
X009990Y019187D01*
X010038Y019159D01*
X010083Y019129D01*
X010126Y019095D01*
X010166Y019059D01*
X010204Y019019D01*
X010239Y018978D01*
X010271Y018934D01*
X010300Y018887D01*
X010325Y018839D01*
X010324Y018839D01*
X010299Y018887D01*
X010270Y018933D01*
X010238Y018977D01*
X010203Y019019D01*
X010166Y019058D01*
X010125Y019094D01*
X010082Y019128D01*
X010037Y019158D01*
X009990Y019186D01*
X009941Y019210D01*
X009891Y019230D01*
X009839Y019247D01*
X009786Y019260D01*
X009733Y019269D01*
X009678Y019275D01*
X009624Y019277D01*
X009570Y019275D01*
X009515Y019269D01*
X009462Y019260D01*
X009409Y019247D01*
X009357Y019230D01*
X009307Y019210D01*
X009258Y019186D01*
X009211Y019158D01*
X009166Y019128D01*
X009123Y019094D01*
X009082Y019058D01*
X009045Y019019D01*
X009010Y018977D01*
X008978Y018933D01*
X008949Y018887D01*
X008924Y018839D01*
X008924Y018838D01*
X008950Y018886D01*
X008979Y018932D01*
X009011Y018976D01*
X009045Y019018D01*
X009083Y019057D01*
X009124Y019094D01*
X009166Y019127D01*
X009211Y019158D01*
X009258Y019185D01*
X009307Y019209D01*
X009358Y019229D01*
X009409Y019246D01*
X009462Y019259D01*
X009516Y019268D01*
X009570Y019274D01*
X009624Y019276D01*
X009678Y019274D01*
X009732Y019268D01*
X009786Y019259D01*
X009839Y019246D01*
X009890Y019229D01*
X009941Y019209D01*
X009990Y019185D01*
X010037Y019158D01*
X010082Y019127D01*
X010124Y019094D01*
X010165Y019057D01*
X010203Y019018D01*
X010237Y018976D01*
X010269Y018932D01*
X010298Y018886D01*
X010324Y018838D01*
X010323Y018838D01*
X010297Y018886D01*
X010269Y018932D01*
X010237Y018976D01*
X010202Y019017D01*
X010164Y019057D01*
X010124Y019093D01*
X010081Y019126D01*
X010036Y019157D01*
X009989Y019184D01*
X009940Y019208D01*
X009890Y019228D01*
X009838Y019245D01*
X009786Y019258D01*
X009732Y019267D01*
X009678Y019273D01*
X009624Y019275D01*
X009570Y019273D01*
X009516Y019267D01*
X009462Y019258D01*
X009410Y019245D01*
X009358Y019228D01*
X009308Y019208D01*
X009259Y019184D01*
X009212Y019157D01*
X009167Y019126D01*
X009124Y019093D01*
X009084Y019057D01*
X009046Y019017D01*
X009011Y018976D01*
X008979Y018932D01*
X008951Y018886D01*
X008925Y018838D01*
X008926Y018837D01*
X008952Y018885D01*
X008980Y018931D01*
X009012Y018975D01*
X009047Y019017D01*
X009085Y019056D01*
X009125Y019092D01*
X009168Y019126D01*
X009212Y019156D01*
X009259Y019183D01*
X009308Y019207D01*
X009358Y019227D01*
X009410Y019244D01*
X009463Y019257D01*
X009516Y019266D01*
X009570Y019272D01*
X009624Y019274D01*
X009678Y019272D01*
X009732Y019266D01*
X009785Y019257D01*
X009838Y019244D01*
X009890Y019227D01*
X009940Y019207D01*
X009989Y019183D01*
X010036Y019156D01*
X010080Y019126D01*
X010123Y019092D01*
X010163Y019056D01*
X010201Y019017D01*
X010236Y018975D01*
X010268Y018931D01*
X010296Y018885D01*
X010322Y018837D01*
X010321Y018837D01*
X010296Y018885D01*
X010267Y018931D01*
X010235Y018975D01*
X010200Y019016D01*
X010163Y019055D01*
X010123Y019091D01*
X010080Y019125D01*
X010035Y019155D01*
X009988Y019182D01*
X009939Y019206D01*
X009889Y019226D01*
X009838Y019243D01*
X009785Y019256D01*
X009732Y019265D01*
X009678Y019271D01*
X009624Y019273D01*
X009570Y019271D01*
X009516Y019265D01*
X009463Y019256D01*
X009410Y019243D01*
X009359Y019226D01*
X009309Y019206D01*
X009260Y019182D01*
X009213Y019155D01*
X009168Y019125D01*
X009125Y019091D01*
X009085Y019055D01*
X009048Y019016D01*
X009013Y018975D01*
X008981Y018931D01*
X008952Y018885D01*
X008927Y018837D01*
X008928Y018837D01*
X008953Y018884D01*
X008982Y018930D01*
X009014Y018974D01*
X009048Y019015D01*
X009086Y019054D01*
X009126Y019091D01*
X009169Y019124D01*
X009214Y019154D01*
X009260Y019181D01*
X009309Y019205D01*
X009359Y019225D01*
X009410Y019242D01*
X009463Y019255D01*
X009516Y019264D01*
X009570Y019270D01*
X009624Y019272D01*
X009678Y019270D01*
X009732Y019264D01*
X009785Y019255D01*
X009838Y019242D01*
X009889Y019225D01*
X009939Y019205D01*
X009988Y019181D01*
X010034Y019154D01*
X010079Y019124D01*
X010122Y019091D01*
X010162Y019054D01*
X010200Y019015D01*
X010234Y018974D01*
X010266Y018930D01*
X010295Y018884D01*
X010320Y018837D01*
X010319Y018836D01*
X010294Y018884D01*
X010265Y018930D01*
X010234Y018973D01*
X010199Y019015D01*
X010161Y019054D01*
X010121Y019090D01*
X010079Y019123D01*
X010034Y019153D01*
X009987Y019180D01*
X009939Y019204D01*
X009889Y019224D01*
X009837Y019241D01*
X009785Y019254D01*
X009732Y019263D01*
X009678Y019269D01*
X009624Y019271D01*
X009570Y019269D01*
X009516Y019263D01*
X009463Y019254D01*
X009411Y019241D01*
X009359Y019224D01*
X009309Y019204D01*
X009261Y019180D01*
X009214Y019153D01*
X009169Y019123D01*
X009127Y019090D01*
X009087Y019054D01*
X009049Y019015D01*
X009014Y018973D01*
X008983Y018930D01*
X008954Y018884D01*
X008929Y018836D01*
X008930Y018836D01*
X008955Y018883D01*
X008984Y018929D01*
X009015Y018973D01*
X009050Y019014D01*
X009087Y019053D01*
X009127Y019089D01*
X009170Y019122D01*
X009215Y019152D01*
X009261Y019179D01*
X009310Y019203D01*
X009360Y019223D01*
X009411Y019240D01*
X009463Y019253D01*
X009516Y019262D01*
X009570Y019268D01*
X009624Y019270D01*
X009678Y019268D01*
X009732Y019262D01*
X009785Y019253D01*
X009837Y019240D01*
X009888Y019223D01*
X009938Y019203D01*
X009987Y019179D01*
X010033Y019152D01*
X010078Y019122D01*
X010121Y019089D01*
X010161Y019053D01*
X010198Y019014D01*
X010233Y018973D01*
X010264Y018929D01*
X010293Y018883D01*
X010318Y018836D01*
X010317Y018835D01*
X010292Y018883D01*
X010264Y018929D01*
X010232Y018972D01*
X010197Y019013D01*
X010160Y019052D01*
X010120Y019088D01*
X010078Y019122D01*
X010033Y019152D01*
X009986Y019179D01*
X009938Y019202D01*
X009888Y019222D01*
X009837Y019239D01*
X009784Y019252D01*
X009731Y019261D01*
X009678Y019267D01*
X009624Y019269D01*
X009570Y019267D01*
X009517Y019261D01*
X009464Y019252D01*
X009411Y019239D01*
X009360Y019222D01*
X009310Y019202D01*
X009262Y019179D01*
X009215Y019152D01*
X009170Y019122D01*
X009128Y019088D01*
X009088Y019052D01*
X009051Y019013D01*
X009016Y018972D01*
X008984Y018929D01*
X008956Y018883D01*
X008931Y018835D01*
X008932Y018835D01*
X008957Y018882D01*
X008985Y018928D01*
X009017Y018972D01*
X009051Y019013D01*
X009089Y019052D01*
X009129Y019088D01*
X009171Y019121D01*
X009216Y019151D01*
X009262Y019178D01*
X009311Y019201D01*
X009360Y019221D01*
X009412Y019238D01*
X009464Y019251D01*
X009517Y019260D01*
X009570Y019266D01*
X009624Y019268D01*
X009678Y019266D01*
X009731Y019260D01*
X009784Y019251D01*
X009836Y019238D01*
X009888Y019221D01*
X009937Y019201D01*
X009986Y019178D01*
X010032Y019151D01*
X010077Y019121D01*
X010119Y019088D01*
X010159Y019052D01*
X010197Y019013D01*
X010231Y018972D01*
X010263Y018928D01*
X010291Y018882D01*
X010316Y018835D01*
X010316Y018834D01*
X010290Y018882D01*
X010262Y018927D01*
X010230Y018971D01*
X010196Y019012D01*
X010159Y019051D01*
X010119Y019087D01*
X010076Y019120D01*
X010032Y019150D01*
X009985Y019177D01*
X009937Y019200D01*
X009887Y019221D01*
X009836Y019237D01*
X009784Y019250D01*
X009731Y019260D01*
X009678Y019265D01*
X009624Y019267D01*
X009570Y019265D01*
X009517Y019260D01*
X009464Y019250D01*
X009412Y019237D01*
X009361Y019221D01*
X009311Y019200D01*
X009263Y019177D01*
X009216Y019150D01*
X009172Y019120D01*
X009129Y019087D01*
X009089Y019051D01*
X009052Y019012D01*
X009018Y018971D01*
X008986Y018927D01*
X008958Y018882D01*
X008932Y018834D01*
X008933Y018834D01*
X008959Y018881D01*
X008987Y018927D01*
X009018Y018970D01*
X009053Y019011D01*
X009090Y019050D01*
X009130Y019086D01*
X009172Y019119D01*
X009217Y019149D01*
X009263Y019176D01*
X009311Y019199D01*
X009361Y019220D01*
X009412Y019236D01*
X009464Y019249D01*
X009517Y019259D01*
X009570Y019264D01*
X009624Y019266D01*
X009678Y019264D01*
X009731Y019259D01*
X009784Y019249D01*
X009836Y019236D01*
X009887Y019220D01*
X009937Y019199D01*
X009985Y019176D01*
X010031Y019149D01*
X010076Y019119D01*
X010118Y019086D01*
X010158Y019050D01*
X010195Y019011D01*
X010230Y018970D01*
X010261Y018927D01*
X010289Y018881D01*
X010315Y018834D01*
X010314Y018834D01*
X010289Y018881D01*
X010260Y018926D01*
X010229Y018970D01*
X010194Y019011D01*
X010157Y019049D01*
X010117Y019085D01*
X010075Y019118D01*
X010031Y019148D01*
X009984Y019175D01*
X009936Y019199D01*
X009887Y019219D01*
X009836Y019235D01*
X009784Y019248D01*
X009731Y019258D01*
X009678Y019263D01*
X009624Y019265D01*
X009570Y019263D01*
X009517Y019258D01*
X009464Y019248D01*
X009412Y019235D01*
X009361Y019219D01*
X009312Y019199D01*
X009264Y019175D01*
X009217Y019148D01*
X009173Y019118D01*
X009131Y019085D01*
X009091Y019049D01*
X009054Y019011D01*
X009019Y018970D01*
X008988Y018926D01*
X008959Y018881D01*
X008934Y018834D01*
X008935Y018833D01*
X008961Y018882D01*
X008991Y018929D01*
X009023Y018973D01*
X009059Y019015D01*
X009098Y019055D01*
X009139Y019091D01*
X009183Y019124D01*
X009230Y019155D01*
X009278Y019181D01*
X009328Y019205D01*
X009380Y019224D01*
X009433Y019240D01*
X009487Y019252D01*
X009541Y019260D01*
X009596Y019264D01*
X009652Y019264D01*
X009707Y019260D01*
X009761Y019252D01*
X009815Y019240D01*
X009868Y019224D01*
X009920Y019205D01*
X009970Y019181D01*
X010018Y019155D01*
X010065Y019124D01*
X010109Y019091D01*
X010150Y019055D01*
X010189Y019015D01*
X010225Y018973D01*
X010257Y018929D01*
X010287Y018882D01*
X010313Y018833D01*
X010312Y018833D01*
X010286Y018881D01*
X010257Y018928D01*
X010224Y018973D01*
X010188Y019015D01*
X010150Y019054D01*
X010108Y019090D01*
X010064Y019124D01*
X010018Y019154D01*
X009970Y019180D01*
X009920Y019204D01*
X009868Y019223D01*
X009815Y019239D01*
X009761Y019251D01*
X009707Y019259D01*
X009652Y019263D01*
X009596Y019263D01*
X009541Y019259D01*
X009487Y019251D01*
X009433Y019239D01*
X009380Y019223D01*
X009328Y019204D01*
X009278Y019180D01*
X009230Y019154D01*
X009184Y019124D01*
X009140Y019090D01*
X009098Y019054D01*
X009060Y019015D01*
X009024Y018973D01*
X008991Y018928D01*
X008962Y018881D01*
X008936Y018833D01*
X008937Y018832D01*
X008963Y018881D01*
X008992Y018928D01*
X009025Y018972D01*
X009060Y019014D01*
X009099Y019053D01*
X009141Y019090D01*
X009184Y019123D01*
X009231Y019153D01*
X009279Y019180D01*
X009329Y019203D01*
X009380Y019222D01*
X009433Y019238D01*
X009487Y019250D01*
X009542Y019258D01*
X009596Y019262D01*
X009652Y019262D01*
X009706Y019258D01*
X009761Y019250D01*
X009815Y019238D01*
X009868Y019222D01*
X009919Y019203D01*
X009969Y019180D01*
X010017Y019153D01*
X010064Y019123D01*
X010107Y019090D01*
X010149Y019053D01*
X010188Y019014D01*
X010223Y018972D01*
X010256Y018928D01*
X010285Y018881D01*
X010311Y018832D01*
X010310Y018832D01*
X010284Y018880D01*
X010255Y018927D01*
X010222Y018971D01*
X010187Y019013D01*
X010148Y019052D01*
X010107Y019089D01*
X010063Y019122D01*
X010017Y019152D01*
X009969Y019179D01*
X009919Y019202D01*
X009867Y019221D01*
X009815Y019237D01*
X009761Y019249D01*
X009706Y019257D01*
X009652Y019261D01*
X009596Y019261D01*
X009542Y019257D01*
X009487Y019249D01*
X009433Y019237D01*
X009381Y019221D01*
X009329Y019202D01*
X009279Y019179D01*
X009231Y019152D01*
X009185Y019122D01*
X009141Y019089D01*
X009100Y019052D01*
X009061Y019013D01*
X009026Y018971D01*
X008993Y018927D01*
X008964Y018880D01*
X008938Y018832D01*
X008939Y018831D01*
X008965Y018880D01*
X008994Y018926D01*
X009026Y018971D01*
X009062Y019013D01*
X009101Y019052D01*
X009142Y019088D01*
X009186Y019121D01*
X009232Y019151D01*
X009280Y019178D01*
X009330Y019201D01*
X009381Y019220D01*
X009434Y019236D01*
X009487Y019248D01*
X009542Y019256D01*
X009597Y019260D01*
X009651Y019260D01*
X009706Y019256D01*
X009761Y019248D01*
X009814Y019236D01*
X009867Y019220D01*
X009918Y019201D01*
X009968Y019178D01*
X010016Y019151D01*
X010062Y019121D01*
X010106Y019088D01*
X010147Y019052D01*
X010186Y019013D01*
X010222Y018971D01*
X010254Y018926D01*
X010283Y018880D01*
X010309Y018831D01*
X010308Y018831D01*
X010283Y018879D01*
X010253Y018926D01*
X010221Y018970D01*
X010185Y019012D01*
X010147Y019051D01*
X010106Y019087D01*
X010062Y019120D01*
X010016Y019150D01*
X009968Y019177D01*
X009918Y019200D01*
X009867Y019219D01*
X009814Y019235D01*
X009760Y019247D01*
X009706Y019255D01*
X009651Y019259D01*
X009597Y019259D01*
X009542Y019255D01*
X009488Y019247D01*
X009434Y019235D01*
X009381Y019219D01*
X009330Y019200D01*
X009280Y019177D01*
X009232Y019150D01*
X009186Y019120D01*
X009142Y019087D01*
X009101Y019051D01*
X009063Y019012D01*
X009027Y018970D01*
X008995Y018926D01*
X008965Y018879D01*
X008940Y018831D01*
X008941Y018830D01*
X008966Y018879D01*
X008995Y018925D01*
X009028Y018969D01*
X009063Y019011D01*
X009102Y019050D01*
X009143Y019086D01*
X009187Y019120D01*
X009233Y019149D01*
X009281Y019176D01*
X009330Y019199D01*
X009382Y019218D01*
X009434Y019234D01*
X009488Y019246D01*
X009542Y019254D01*
X009597Y019258D01*
X009651Y019258D01*
X009706Y019254D01*
X009760Y019246D01*
X009814Y019234D01*
X009866Y019218D01*
X009918Y019199D01*
X009967Y019176D01*
X010015Y019149D01*
X010061Y019120D01*
X010105Y019086D01*
X010146Y019050D01*
X010185Y019011D01*
X010220Y018969D01*
X010253Y018925D01*
X010282Y018879D01*
X010307Y018830D01*
X010281Y018878D01*
X010252Y018925D01*
X010219Y018969D01*
X010184Y019011D01*
X010145Y019050D01*
X010104Y019086D01*
X010061Y019119D01*
X010015Y019149D01*
X009967Y019175D01*
X009917Y019198D01*
X009866Y019217D01*
X009814Y019233D01*
X009760Y019245D01*
X009706Y019253D01*
X009651Y019257D01*
X009597Y019257D01*
X009542Y019253D01*
X009488Y019245D01*
X009434Y019233D01*
X009382Y019217D01*
X009331Y019198D01*
X009281Y019175D01*
X009233Y019149D01*
X009187Y019119D01*
X009144Y019086D01*
X009103Y019050D01*
X009064Y019011D01*
X009029Y018969D01*
X008996Y018925D01*
X008967Y018878D01*
X008941Y018830D01*
X008942Y018830D01*
X008968Y018878D01*
X008997Y018924D01*
X009029Y018968D01*
X009065Y019010D01*
X009103Y019049D01*
X009144Y019085D01*
X009188Y019118D01*
X009234Y019148D01*
X009282Y019174D01*
X009331Y019197D01*
X009382Y019216D01*
X009435Y019232D01*
X009488Y019244D01*
X009542Y019252D01*
X009597Y019256D01*
X009651Y019256D01*
X009706Y019252D01*
X009760Y019244D01*
X009813Y019232D01*
X009866Y019216D01*
X009917Y019197D01*
X009966Y019174D01*
X010014Y019148D01*
X010060Y019118D01*
X010104Y019085D01*
X010145Y019049D01*
X010183Y019010D01*
X010219Y018968D01*
X010251Y018924D01*
X010280Y018878D01*
X010306Y018830D01*
X010305Y018829D01*
X010279Y018877D01*
X010250Y018924D01*
X010218Y018968D01*
X010182Y019009D01*
X010144Y019048D01*
X010103Y019084D01*
X010060Y019117D01*
X010014Y019147D01*
X009966Y019173D01*
X009916Y019196D01*
X009865Y019215D01*
X009813Y019231D01*
X009760Y019243D01*
X009706Y019251D01*
X009651Y019255D01*
X009597Y019255D01*
X009542Y019251D01*
X009488Y019243D01*
X009435Y019231D01*
X009383Y019215D01*
X009332Y019196D01*
X009282Y019173D01*
X009234Y019147D01*
X009188Y019117D01*
X009145Y019084D01*
X009104Y019048D01*
X009066Y019009D01*
X009030Y018968D01*
X008998Y018924D01*
X008969Y018877D01*
X008943Y018829D01*
X008944Y018829D01*
X008970Y018877D01*
X008999Y018923D01*
X009031Y018967D01*
X009066Y019009D01*
X009105Y019047D01*
X009146Y019083D01*
X009189Y019116D01*
X009235Y019146D01*
X009282Y019172D01*
X009332Y019195D01*
X009383Y019215D01*
X009435Y019230D01*
X009488Y019242D01*
X009542Y019250D01*
X009597Y019254D01*
X009651Y019254D01*
X009706Y019250D01*
X009760Y019242D01*
X009813Y019230D01*
X009865Y019215D01*
X009916Y019195D01*
X009966Y019172D01*
X010013Y019146D01*
X010059Y019116D01*
X010102Y019083D01*
X010143Y019047D01*
X010182Y019009D01*
X010217Y018967D01*
X010249Y018923D01*
X010278Y018877D01*
X010304Y018829D01*
X010303Y018828D01*
X010277Y018876D01*
X010248Y018922D01*
X010216Y018966D01*
X010181Y019008D01*
X010143Y019047D01*
X010102Y019083D01*
X010058Y019115D01*
X010013Y019145D01*
X009965Y019172D01*
X009916Y019194D01*
X009865Y019214D01*
X009813Y019229D01*
X009759Y019241D01*
X009706Y019249D01*
X009651Y019253D01*
X009597Y019253D01*
X009542Y019249D01*
X009489Y019241D01*
X009435Y019229D01*
X009383Y019214D01*
X009332Y019194D01*
X009283Y019172D01*
X009235Y019145D01*
X009190Y019115D01*
X009146Y019083D01*
X009105Y019047D01*
X009067Y019008D01*
X009032Y018966D01*
X009000Y018922D01*
X008971Y018876D01*
X008945Y018828D01*
X008946Y018828D01*
X008972Y018876D01*
X009000Y018922D01*
X009033Y018966D01*
X009068Y019007D01*
X009106Y019046D01*
X009147Y019082D01*
X009190Y019115D01*
X009236Y019144D01*
X009283Y019171D01*
X009333Y019193D01*
X009384Y019213D01*
X009436Y019228D01*
X009489Y019240D01*
X009543Y019248D01*
X009597Y019252D01*
X009651Y019252D01*
X009705Y019248D01*
X009759Y019240D01*
X009812Y019228D01*
X009864Y019213D01*
X009915Y019193D01*
X009965Y019171D01*
X010012Y019144D01*
X010058Y019115D01*
X010101Y019082D01*
X010142Y019046D01*
X010180Y019007D01*
X010215Y018966D01*
X010248Y018922D01*
X010276Y018876D01*
X010302Y018828D01*
X010301Y018827D01*
X010276Y018875D01*
X010247Y018921D01*
X010215Y018965D01*
X010179Y019006D01*
X010141Y019045D01*
X010101Y019081D01*
X010057Y019114D01*
X010012Y019143D01*
X009964Y019170D01*
X009915Y019193D01*
X009864Y019212D01*
X009812Y019227D01*
X009759Y019239D01*
X009705Y019247D01*
X009651Y019251D01*
X009597Y019251D01*
X009543Y019247D01*
X009489Y019239D01*
X009436Y019227D01*
X009384Y019212D01*
X009333Y019193D01*
X009284Y019170D01*
X009236Y019143D01*
X009191Y019114D01*
X009147Y019081D01*
X009107Y019045D01*
X009069Y019006D01*
X009033Y018965D01*
X009001Y018921D01*
X008972Y018875D01*
X008947Y018827D01*
X008948Y018827D01*
X008973Y018875D01*
X009002Y018921D01*
X009034Y018965D01*
X009069Y019006D01*
X009107Y019044D01*
X009148Y019080D01*
X009191Y019113D01*
X009237Y019143D01*
X009284Y019169D01*
X009333Y019192D01*
X009384Y019211D01*
X009436Y019226D01*
X009489Y019238D01*
X009543Y019246D01*
X009597Y019250D01*
X009651Y019250D01*
X009705Y019246D01*
X009759Y019238D01*
X009812Y019226D01*
X009864Y019211D01*
X009915Y019192D01*
X009964Y019169D01*
X010011Y019143D01*
X010057Y019113D01*
X010100Y019080D01*
X010141Y019044D01*
X010179Y019006D01*
X010214Y018965D01*
X010246Y018921D01*
X010275Y018875D01*
X010300Y018827D01*
X010299Y018827D01*
X010274Y018874D01*
X010245Y018920D01*
X010213Y018964D01*
X010178Y019005D01*
X010140Y019044D01*
X010099Y019079D01*
X010056Y019112D01*
X010011Y019142D01*
X009963Y019168D01*
X009914Y019191D01*
X009863Y019210D01*
X009812Y019225D01*
X009759Y019237D01*
X009705Y019245D01*
X009651Y019249D01*
X009597Y019249D01*
X009543Y019245D01*
X009489Y019237D01*
X009436Y019225D01*
X009385Y019210D01*
X009334Y019191D01*
X009285Y019168D01*
X009237Y019142D01*
X009192Y019112D01*
X009149Y019079D01*
X009108Y019044D01*
X009070Y019005D01*
X009035Y018964D01*
X009003Y018920D01*
X008974Y018874D01*
X008949Y018827D01*
X008950Y018826D01*
X008975Y018874D01*
X009004Y018920D01*
X009036Y018963D01*
X009071Y019004D01*
X009109Y019043D01*
X009149Y019079D01*
X009192Y019111D01*
X009238Y019141D01*
X009285Y019167D01*
X009334Y019190D01*
X009385Y019209D01*
X009437Y019224D01*
X009489Y019236D01*
X009543Y019244D01*
X009597Y019248D01*
X009651Y019248D01*
X009705Y019244D01*
X009759Y019236D01*
X009811Y019224D01*
X009863Y019209D01*
X009914Y019190D01*
X009963Y019167D01*
X010010Y019141D01*
X010056Y019111D01*
X010099Y019079D01*
X010139Y019043D01*
X010177Y019004D01*
X010212Y018963D01*
X010244Y018920D01*
X010273Y018874D01*
X010298Y018826D01*
X010272Y018873D01*
X010243Y018919D01*
X010211Y018963D01*
X010176Y019004D01*
X010139Y019042D01*
X010098Y019078D01*
X010055Y019111D01*
X010010Y019140D01*
X009962Y019166D01*
X009913Y019189D01*
X009863Y019208D01*
X009811Y019223D01*
X009758Y019235D01*
X009705Y019243D01*
X009651Y019247D01*
X009597Y019247D01*
X009543Y019243D01*
X009490Y019235D01*
X009437Y019223D01*
X009385Y019208D01*
X009335Y019189D01*
X009286Y019166D01*
X009238Y019140D01*
X009193Y019111D01*
X009150Y019078D01*
X009109Y019042D01*
X009072Y019004D01*
X009037Y018963D01*
X009005Y018919D01*
X008976Y018873D01*
X008950Y018826D01*
X008951Y018825D01*
X008977Y018873D01*
X009005Y018919D01*
X009037Y018962D01*
X009072Y019003D01*
X009110Y019042D01*
X009151Y019077D01*
X009194Y019110D01*
X009239Y019139D01*
X009286Y019165D01*
X009335Y019188D01*
X009385Y019207D01*
X009437Y019222D01*
X009490Y019234D01*
X009543Y019242D01*
X009597Y019246D01*
X009651Y019246D01*
X009705Y019242D01*
X009758Y019234D01*
X009811Y019222D01*
X009863Y019207D01*
X009913Y019188D01*
X009962Y019165D01*
X010009Y019139D01*
X010054Y019110D01*
X010097Y019077D01*
X010138Y019042D01*
X010176Y019003D01*
X010211Y018962D01*
X010243Y018919D01*
X010271Y018873D01*
X010297Y018825D01*
X008918Y018155D02*
X008953Y018172D01*
X008952Y018171D02*
X008978Y018124D01*
X009006Y018078D01*
X009038Y018035D01*
X009073Y017994D01*
X009111Y017955D01*
X009151Y017920D01*
X009194Y017887D01*
X009239Y017858D01*
X009286Y017832D01*
X009335Y017809D01*
X009386Y017790D01*
X009437Y017775D01*
X009490Y017763D01*
X009543Y017755D01*
X009597Y017751D01*
X009651Y017751D01*
X009705Y017755D01*
X009758Y017763D01*
X009811Y017775D01*
X009862Y017790D01*
X009913Y017809D01*
X009962Y017832D01*
X010009Y017858D01*
X010054Y017887D01*
X010097Y017920D01*
X010137Y017955D01*
X010175Y017994D01*
X010210Y018035D01*
X010242Y018078D01*
X010270Y018124D01*
X010296Y018171D01*
X010330Y018155D01*
X010331Y018154D01*
X010305Y018106D01*
X010276Y018059D01*
X010244Y018015D01*
X010209Y017972D01*
X010170Y017933D01*
X010130Y017896D01*
X010086Y017862D01*
X010041Y017832D01*
X009993Y017804D01*
X009944Y017780D01*
X009893Y017759D01*
X009841Y017743D01*
X009788Y017729D01*
X009733Y017720D01*
X009679Y017714D01*
X009624Y017712D01*
X009569Y017714D01*
X009515Y017720D01*
X009460Y017729D01*
X009407Y017743D01*
X009355Y017759D01*
X009304Y017780D01*
X009255Y017804D01*
X009207Y017832D01*
X009162Y017862D01*
X009118Y017896D01*
X009078Y017933D01*
X009039Y017972D01*
X009004Y018015D01*
X008972Y018059D01*
X008943Y018106D01*
X008917Y018154D01*
X008918Y018155D01*
X008944Y018106D01*
X008973Y018060D01*
X009005Y018015D01*
X009040Y017973D01*
X009078Y017934D01*
X009119Y017897D01*
X009162Y017863D01*
X009208Y017832D01*
X009255Y017805D01*
X009304Y017781D01*
X009355Y017760D01*
X009407Y017743D01*
X009461Y017730D01*
X009515Y017721D01*
X009569Y017715D01*
X009624Y017713D01*
X009679Y017715D01*
X009733Y017721D01*
X009787Y017730D01*
X009841Y017743D01*
X009893Y017760D01*
X009944Y017781D01*
X009993Y017805D01*
X010040Y017832D01*
X010086Y017863D01*
X010129Y017897D01*
X010170Y017934D01*
X010208Y017973D01*
X010243Y018015D01*
X010275Y018060D01*
X010304Y018106D01*
X010330Y018155D01*
X010329Y018155D01*
X010303Y018107D01*
X010274Y018060D01*
X010242Y018016D01*
X010207Y017974D01*
X010169Y017934D01*
X010128Y017898D01*
X010085Y017864D01*
X010040Y017833D01*
X009992Y017806D01*
X009943Y017782D01*
X009892Y017761D01*
X009840Y017744D01*
X009787Y017731D01*
X009733Y017722D01*
X009679Y017716D01*
X009624Y017714D01*
X009569Y017716D01*
X009515Y017722D01*
X009461Y017731D01*
X009408Y017744D01*
X009356Y017761D01*
X009305Y017782D01*
X009256Y017806D01*
X009208Y017833D01*
X009163Y017864D01*
X009120Y017898D01*
X009079Y017934D01*
X009041Y017974D01*
X009006Y018016D01*
X008974Y018060D01*
X008945Y018107D01*
X008919Y018155D01*
X008920Y018155D01*
X008946Y018107D01*
X008974Y018061D01*
X009007Y018016D01*
X009042Y017975D01*
X009080Y017935D01*
X009120Y017898D01*
X009163Y017865D01*
X009209Y017834D01*
X009256Y017807D01*
X009305Y017783D01*
X009356Y017762D01*
X009408Y017745D01*
X009461Y017732D01*
X009515Y017723D01*
X009569Y017717D01*
X009624Y017715D01*
X009679Y017717D01*
X009733Y017723D01*
X009787Y017732D01*
X009840Y017745D01*
X009892Y017762D01*
X009943Y017783D01*
X009992Y017807D01*
X010039Y017834D01*
X010085Y017865D01*
X010128Y017898D01*
X010168Y017935D01*
X010206Y017975D01*
X010241Y018016D01*
X010274Y018061D01*
X010302Y018107D01*
X010328Y018155D01*
X010327Y018156D01*
X010302Y018108D01*
X010273Y018061D01*
X010241Y018017D01*
X010206Y017975D01*
X010168Y017936D01*
X010127Y017899D01*
X010084Y017866D01*
X010039Y017835D01*
X009991Y017808D01*
X009942Y017784D01*
X009892Y017763D01*
X009840Y017746D01*
X009787Y017733D01*
X009733Y017724D01*
X009679Y017718D01*
X009624Y017716D01*
X009569Y017718D01*
X009515Y017724D01*
X009461Y017733D01*
X009408Y017746D01*
X009356Y017763D01*
X009306Y017784D01*
X009257Y017808D01*
X009209Y017835D01*
X009164Y017866D01*
X009121Y017899D01*
X009080Y017936D01*
X009042Y017975D01*
X009007Y018017D01*
X008975Y018061D01*
X008946Y018108D01*
X008921Y018156D01*
X008922Y018156D01*
X008947Y018108D01*
X008976Y018062D01*
X009008Y018018D01*
X009043Y017976D01*
X009081Y017937D01*
X009122Y017900D01*
X009165Y017866D01*
X009210Y017836D01*
X009257Y017809D01*
X009306Y017785D01*
X009357Y017764D01*
X009409Y017747D01*
X009461Y017734D01*
X009515Y017725D01*
X009569Y017719D01*
X009624Y017717D01*
X009679Y017719D01*
X009733Y017725D01*
X009787Y017734D01*
X009839Y017747D01*
X009891Y017764D01*
X009942Y017785D01*
X009991Y017809D01*
X010038Y017836D01*
X010083Y017866D01*
X010126Y017900D01*
X010167Y017937D01*
X010205Y017976D01*
X010240Y018018D01*
X010272Y018062D01*
X010301Y018108D01*
X010326Y018156D01*
X010325Y018157D01*
X010300Y018109D01*
X010271Y018062D01*
X010239Y018018D01*
X010204Y017977D01*
X010166Y017937D01*
X010126Y017901D01*
X010083Y017867D01*
X010038Y017837D01*
X009990Y017809D01*
X009942Y017786D01*
X009891Y017765D01*
X009839Y017748D01*
X009786Y017735D01*
X009733Y017726D01*
X009678Y017720D01*
X009624Y017718D01*
X009570Y017720D01*
X009515Y017726D01*
X009462Y017735D01*
X009409Y017748D01*
X009357Y017765D01*
X009306Y017786D01*
X009258Y017809D01*
X009210Y017837D01*
X009165Y017867D01*
X009122Y017901D01*
X009082Y017937D01*
X009044Y017977D01*
X009009Y018018D01*
X008977Y018062D01*
X008948Y018109D01*
X008923Y018157D01*
X008924Y018157D01*
X008949Y018109D01*
X008978Y018063D01*
X009010Y018019D01*
X009045Y017977D01*
X009082Y017938D01*
X009123Y017902D01*
X009166Y017868D01*
X009211Y017838D01*
X009258Y017810D01*
X009307Y017786D01*
X009357Y017766D01*
X009409Y017749D01*
X009462Y017736D01*
X009515Y017727D01*
X009570Y017721D01*
X009624Y017719D01*
X009678Y017721D01*
X009733Y017727D01*
X009786Y017736D01*
X009839Y017749D01*
X009891Y017766D01*
X009941Y017786D01*
X009990Y017810D01*
X010037Y017838D01*
X010082Y017868D01*
X010125Y017902D01*
X010166Y017938D01*
X010203Y017977D01*
X010238Y018019D01*
X010270Y018063D01*
X010299Y018109D01*
X010324Y018157D01*
X010324Y018158D01*
X010298Y018110D01*
X010269Y018064D01*
X010237Y018020D01*
X010203Y017978D01*
X010165Y017939D01*
X010124Y017902D01*
X010082Y017869D01*
X010037Y017838D01*
X009990Y017811D01*
X009941Y017787D01*
X009890Y017767D01*
X009839Y017750D01*
X009786Y017737D01*
X009732Y017728D01*
X009678Y017722D01*
X009624Y017720D01*
X009570Y017722D01*
X009516Y017728D01*
X009462Y017737D01*
X009409Y017750D01*
X009358Y017767D01*
X009307Y017787D01*
X009258Y017811D01*
X009211Y017838D01*
X009166Y017869D01*
X009124Y017902D01*
X009083Y017939D01*
X009045Y017978D01*
X009011Y018020D01*
X008979Y018064D01*
X008950Y018110D01*
X008924Y018158D01*
X008925Y018158D01*
X008951Y018110D01*
X008979Y018064D01*
X009011Y018020D01*
X009046Y017979D01*
X009084Y017939D01*
X009124Y017903D01*
X009167Y017870D01*
X009212Y017839D01*
X009259Y017812D01*
X009308Y017788D01*
X009358Y017768D01*
X009410Y017751D01*
X009462Y017738D01*
X009516Y017729D01*
X009570Y017723D01*
X009624Y017721D01*
X009678Y017723D01*
X009732Y017729D01*
X009786Y017738D01*
X009838Y017751D01*
X009890Y017768D01*
X009940Y017788D01*
X009989Y017812D01*
X010036Y017839D01*
X010081Y017870D01*
X010124Y017903D01*
X010164Y017939D01*
X010202Y017979D01*
X010237Y018020D01*
X010269Y018064D01*
X010297Y018110D01*
X010323Y018158D01*
X010322Y018159D01*
X010296Y018111D01*
X010268Y018065D01*
X010236Y018021D01*
X010201Y017979D01*
X010163Y017940D01*
X010123Y017904D01*
X010080Y017870D01*
X010036Y017840D01*
X009989Y017813D01*
X009940Y017789D01*
X009890Y017769D01*
X009838Y017752D01*
X009785Y017739D01*
X009732Y017730D01*
X009678Y017724D01*
X009624Y017722D01*
X009570Y017724D01*
X009516Y017730D01*
X009463Y017739D01*
X009410Y017752D01*
X009358Y017769D01*
X009308Y017789D01*
X009259Y017813D01*
X009212Y017840D01*
X009168Y017870D01*
X009125Y017904D01*
X009085Y017940D01*
X009047Y017979D01*
X009012Y018021D01*
X008980Y018065D01*
X008952Y018111D01*
X008926Y018159D01*
X008927Y018159D01*
X008952Y018111D01*
X008981Y018065D01*
X009013Y018021D01*
X009048Y017980D01*
X009085Y017941D01*
X009125Y017905D01*
X009168Y017871D01*
X009213Y017841D01*
X009260Y017814D01*
X009309Y017790D01*
X009359Y017770D01*
X009410Y017753D01*
X009463Y017740D01*
X009516Y017731D01*
X009570Y017725D01*
X009624Y017723D01*
X009678Y017725D01*
X009732Y017731D01*
X009785Y017740D01*
X009838Y017753D01*
X009889Y017770D01*
X009939Y017790D01*
X009988Y017814D01*
X010035Y017841D01*
X010080Y017871D01*
X010123Y017905D01*
X010163Y017941D01*
X010200Y017980D01*
X010235Y018021D01*
X010267Y018065D01*
X010296Y018111D01*
X010321Y018159D01*
X010320Y018159D01*
X010295Y018112D01*
X010266Y018066D01*
X010234Y018022D01*
X010200Y017981D01*
X010162Y017942D01*
X010122Y017905D01*
X010079Y017872D01*
X010034Y017842D01*
X009988Y017815D01*
X009939Y017791D01*
X009889Y017771D01*
X009838Y017754D01*
X009785Y017741D01*
X009732Y017732D01*
X009678Y017726D01*
X009624Y017724D01*
X009570Y017726D01*
X009516Y017732D01*
X009463Y017741D01*
X009410Y017754D01*
X009359Y017771D01*
X009309Y017791D01*
X009260Y017815D01*
X009214Y017842D01*
X009169Y017872D01*
X009126Y017905D01*
X009086Y017942D01*
X009048Y017981D01*
X009014Y018022D01*
X008982Y018066D01*
X008953Y018112D01*
X008928Y018159D01*
X008929Y018160D01*
X008954Y018112D01*
X008983Y018066D01*
X009014Y018023D01*
X009049Y017981D01*
X009087Y017942D01*
X009127Y017906D01*
X009169Y017873D01*
X009214Y017843D01*
X009261Y017816D01*
X009309Y017792D01*
X009359Y017772D01*
X009411Y017755D01*
X009463Y017742D01*
X009516Y017733D01*
X009570Y017727D01*
X009624Y017725D01*
X009678Y017727D01*
X009732Y017733D01*
X009785Y017742D01*
X009837Y017755D01*
X009889Y017772D01*
X009939Y017792D01*
X009987Y017816D01*
X010034Y017843D01*
X010079Y017873D01*
X010121Y017906D01*
X010161Y017942D01*
X010199Y017981D01*
X010234Y018023D01*
X010265Y018066D01*
X010294Y018112D01*
X010319Y018160D01*
X010318Y018160D01*
X010293Y018113D01*
X010264Y018067D01*
X010233Y018023D01*
X010198Y017982D01*
X010161Y017943D01*
X010121Y017907D01*
X010078Y017874D01*
X010033Y017844D01*
X009987Y017817D01*
X009938Y017793D01*
X009888Y017773D01*
X009837Y017756D01*
X009785Y017743D01*
X009732Y017734D01*
X009678Y017728D01*
X009624Y017726D01*
X009570Y017728D01*
X009516Y017734D01*
X009463Y017743D01*
X009411Y017756D01*
X009360Y017773D01*
X009310Y017793D01*
X009261Y017817D01*
X009215Y017844D01*
X009170Y017874D01*
X009127Y017907D01*
X009087Y017943D01*
X009050Y017982D01*
X009015Y018023D01*
X008984Y018067D01*
X008955Y018113D01*
X008930Y018160D01*
X008931Y018161D01*
X008956Y018113D01*
X008984Y018067D01*
X009016Y018024D01*
X009051Y017983D01*
X009088Y017944D01*
X009128Y017908D01*
X009170Y017874D01*
X009215Y017844D01*
X009262Y017817D01*
X009310Y017794D01*
X009360Y017774D01*
X009411Y017757D01*
X009464Y017744D01*
X009517Y017735D01*
X009570Y017729D01*
X009624Y017727D01*
X009678Y017729D01*
X009731Y017735D01*
X009784Y017744D01*
X009837Y017757D01*
X009888Y017774D01*
X009938Y017794D01*
X009986Y017817D01*
X010033Y017844D01*
X010078Y017874D01*
X010120Y017908D01*
X010160Y017944D01*
X010197Y017983D01*
X010232Y018024D01*
X010264Y018067D01*
X010292Y018113D01*
X010317Y018161D01*
X010316Y018161D01*
X010291Y018114D01*
X010263Y018068D01*
X010231Y018024D01*
X010197Y017983D01*
X010159Y017944D01*
X010119Y017908D01*
X010077Y017875D01*
X010032Y017845D01*
X009986Y017818D01*
X009937Y017795D01*
X009888Y017775D01*
X009836Y017758D01*
X009784Y017745D01*
X009731Y017736D01*
X009678Y017730D01*
X009624Y017728D01*
X009570Y017730D01*
X009517Y017736D01*
X009464Y017745D01*
X009412Y017758D01*
X009360Y017775D01*
X009311Y017795D01*
X009262Y017818D01*
X009216Y017845D01*
X009171Y017875D01*
X009129Y017908D01*
X009089Y017944D01*
X009051Y017983D01*
X009017Y018024D01*
X008985Y018068D01*
X008957Y018114D01*
X008932Y018161D01*
X008932Y018162D01*
X008958Y018114D01*
X008986Y018069D01*
X009018Y018025D01*
X009052Y017984D01*
X009089Y017945D01*
X009129Y017909D01*
X009172Y017876D01*
X009216Y017846D01*
X009263Y017819D01*
X009311Y017796D01*
X009361Y017775D01*
X009412Y017759D01*
X009464Y017746D01*
X009517Y017736D01*
X009570Y017731D01*
X009624Y017729D01*
X009678Y017731D01*
X009731Y017736D01*
X009784Y017746D01*
X009836Y017759D01*
X009887Y017775D01*
X009937Y017796D01*
X009985Y017819D01*
X010032Y017846D01*
X010076Y017876D01*
X010119Y017909D01*
X010159Y017945D01*
X010196Y017984D01*
X010230Y018025D01*
X010262Y018069D01*
X010290Y018114D01*
X010316Y018162D01*
X010315Y018162D01*
X010289Y018115D01*
X010261Y018069D01*
X010230Y018026D01*
X010195Y017985D01*
X010158Y017946D01*
X010118Y017910D01*
X010076Y017877D01*
X010031Y017847D01*
X009985Y017820D01*
X009937Y017797D01*
X009887Y017776D01*
X009836Y017760D01*
X009784Y017747D01*
X009731Y017737D01*
X009678Y017732D01*
X009624Y017730D01*
X009570Y017732D01*
X009517Y017737D01*
X009464Y017747D01*
X009412Y017760D01*
X009361Y017776D01*
X009311Y017797D01*
X009263Y017820D01*
X009217Y017847D01*
X009172Y017877D01*
X009130Y017910D01*
X009090Y017946D01*
X009053Y017985D01*
X009018Y018026D01*
X008987Y018069D01*
X008959Y018115D01*
X008933Y018162D01*
X008934Y018162D01*
X008959Y018115D01*
X008988Y018070D01*
X009019Y018026D01*
X009054Y017985D01*
X009091Y017947D01*
X009131Y017911D01*
X009173Y017878D01*
X009217Y017848D01*
X009264Y017821D01*
X009312Y017797D01*
X009361Y017777D01*
X009412Y017761D01*
X009464Y017748D01*
X009517Y017738D01*
X009570Y017733D01*
X009624Y017731D01*
X009678Y017733D01*
X009731Y017738D01*
X009784Y017748D01*
X009836Y017761D01*
X009887Y017777D01*
X009936Y017797D01*
X009984Y017821D01*
X010031Y017848D01*
X010075Y017878D01*
X010117Y017911D01*
X010157Y017947D01*
X010194Y017985D01*
X010229Y018026D01*
X010260Y018070D01*
X010289Y018115D01*
X010314Y018162D01*
X010313Y018163D01*
X010287Y018114D01*
X010257Y018067D01*
X010225Y018023D01*
X010189Y017981D01*
X010150Y017941D01*
X010109Y017905D01*
X010065Y017872D01*
X010018Y017841D01*
X009970Y017815D01*
X009920Y017791D01*
X009868Y017772D01*
X009815Y017756D01*
X009761Y017744D01*
X009707Y017736D01*
X009652Y017732D01*
X009596Y017732D01*
X009541Y017736D01*
X009487Y017744D01*
X009433Y017756D01*
X009380Y017772D01*
X009328Y017791D01*
X009278Y017815D01*
X009230Y017841D01*
X009183Y017872D01*
X009139Y017905D01*
X009098Y017941D01*
X009059Y017981D01*
X009023Y018023D01*
X008991Y018067D01*
X008961Y018114D01*
X008935Y018163D01*
X008936Y018163D01*
X008962Y018115D01*
X008991Y018068D01*
X009024Y018023D01*
X009060Y017981D01*
X009098Y017942D01*
X009140Y017906D01*
X009184Y017872D01*
X009230Y017842D01*
X009278Y017816D01*
X009328Y017792D01*
X009380Y017773D01*
X009433Y017757D01*
X009487Y017745D01*
X009541Y017737D01*
X009596Y017733D01*
X009652Y017733D01*
X009707Y017737D01*
X009761Y017745D01*
X009815Y017757D01*
X009868Y017773D01*
X009920Y017792D01*
X009970Y017816D01*
X010018Y017842D01*
X010064Y017872D01*
X010108Y017906D01*
X010150Y017942D01*
X010188Y017981D01*
X010224Y018023D01*
X010257Y018068D01*
X010286Y018115D01*
X010312Y018163D01*
X010311Y018164D01*
X010285Y018115D01*
X010256Y018068D01*
X010223Y018024D01*
X010188Y017982D01*
X010149Y017943D01*
X010107Y017906D01*
X010064Y017873D01*
X010017Y017843D01*
X009969Y017816D01*
X009919Y017793D01*
X009868Y017774D01*
X009815Y017758D01*
X009761Y017746D01*
X009706Y017738D01*
X009652Y017734D01*
X009596Y017734D01*
X009542Y017738D01*
X009487Y017746D01*
X009433Y017758D01*
X009380Y017774D01*
X009329Y017793D01*
X009279Y017816D01*
X009231Y017843D01*
X009184Y017873D01*
X009141Y017906D01*
X009099Y017943D01*
X009060Y017982D01*
X009025Y018024D01*
X008992Y018068D01*
X008963Y018115D01*
X008937Y018164D01*
X008938Y018164D01*
X008964Y018116D01*
X008993Y018069D01*
X009026Y018025D01*
X009061Y017983D01*
X009100Y017944D01*
X009141Y017907D01*
X009185Y017874D01*
X009231Y017844D01*
X009279Y017817D01*
X009329Y017794D01*
X009381Y017775D01*
X009433Y017759D01*
X009487Y017747D01*
X009542Y017739D01*
X009596Y017735D01*
X009652Y017735D01*
X009706Y017739D01*
X009761Y017747D01*
X009815Y017759D01*
X009867Y017775D01*
X009919Y017794D01*
X009969Y017817D01*
X010017Y017844D01*
X010063Y017874D01*
X010107Y017907D01*
X010148Y017944D01*
X010187Y017983D01*
X010222Y018025D01*
X010255Y018069D01*
X010284Y018116D01*
X010310Y018164D01*
X010309Y018165D01*
X010283Y018116D01*
X010254Y018070D01*
X010222Y018025D01*
X010186Y017983D01*
X010147Y017944D01*
X010106Y017908D01*
X010062Y017875D01*
X010016Y017845D01*
X009968Y017818D01*
X009918Y017795D01*
X009867Y017776D01*
X009814Y017760D01*
X009761Y017748D01*
X009706Y017740D01*
X009651Y017736D01*
X009597Y017736D01*
X009542Y017740D01*
X009487Y017748D01*
X009434Y017760D01*
X009381Y017776D01*
X009330Y017795D01*
X009280Y017818D01*
X009232Y017845D01*
X009186Y017875D01*
X009142Y017908D01*
X009101Y017944D01*
X009062Y017983D01*
X009026Y018025D01*
X008994Y018070D01*
X008965Y018116D01*
X008939Y018165D01*
X008940Y018165D01*
X008965Y018117D01*
X008995Y018070D01*
X009027Y018026D01*
X009063Y017984D01*
X009101Y017945D01*
X009142Y017909D01*
X009186Y017876D01*
X009232Y017846D01*
X009280Y017819D01*
X009330Y017796D01*
X009381Y017777D01*
X009434Y017761D01*
X009488Y017749D01*
X009542Y017741D01*
X009597Y017737D01*
X009651Y017737D01*
X009706Y017741D01*
X009760Y017749D01*
X009814Y017761D01*
X009867Y017777D01*
X009918Y017796D01*
X009968Y017819D01*
X010016Y017846D01*
X010062Y017876D01*
X010106Y017909D01*
X010147Y017945D01*
X010185Y017984D01*
X010221Y018026D01*
X010253Y018070D01*
X010283Y018117D01*
X010308Y018165D01*
X010307Y018166D01*
X010282Y018117D01*
X010253Y018071D01*
X010220Y018027D01*
X010185Y017985D01*
X010146Y017946D01*
X010105Y017910D01*
X010061Y017876D01*
X010015Y017847D01*
X009967Y017820D01*
X009918Y017797D01*
X009866Y017778D01*
X009814Y017762D01*
X009760Y017750D01*
X009706Y017742D01*
X009651Y017738D01*
X009597Y017738D01*
X009542Y017742D01*
X009488Y017750D01*
X009434Y017762D01*
X009382Y017778D01*
X009330Y017797D01*
X009281Y017820D01*
X009233Y017847D01*
X009187Y017876D01*
X009143Y017910D01*
X009102Y017946D01*
X009063Y017985D01*
X009028Y018027D01*
X008995Y018071D01*
X008966Y018117D01*
X008941Y018166D01*
X008967Y018118D01*
X008996Y018071D01*
X009029Y018027D01*
X009064Y017985D01*
X009103Y017946D01*
X009144Y017910D01*
X009187Y017877D01*
X009233Y017847D01*
X009281Y017821D01*
X009331Y017798D01*
X009382Y017779D01*
X009434Y017763D01*
X009488Y017751D01*
X009542Y017743D01*
X009597Y017739D01*
X009651Y017739D01*
X009706Y017743D01*
X009760Y017751D01*
X009814Y017763D01*
X009866Y017779D01*
X009917Y017798D01*
X009967Y017821D01*
X010015Y017847D01*
X010061Y017877D01*
X010104Y017910D01*
X010145Y017946D01*
X010184Y017985D01*
X010219Y018027D01*
X010252Y018071D01*
X010281Y018118D01*
X010307Y018166D01*
X010306Y018166D01*
X010280Y018118D01*
X010251Y018072D01*
X010219Y018028D01*
X010183Y017986D01*
X010145Y017947D01*
X010104Y017911D01*
X010060Y017878D01*
X010014Y017848D01*
X009966Y017822D01*
X009917Y017799D01*
X009866Y017780D01*
X009813Y017764D01*
X009760Y017752D01*
X009706Y017744D01*
X009651Y017740D01*
X009597Y017740D01*
X009542Y017744D01*
X009488Y017752D01*
X009435Y017764D01*
X009382Y017780D01*
X009331Y017799D01*
X009282Y017822D01*
X009234Y017848D01*
X009188Y017878D01*
X009144Y017911D01*
X009103Y017947D01*
X009065Y017986D01*
X009029Y018028D01*
X008997Y018072D01*
X008968Y018118D01*
X008942Y018166D01*
X008943Y018167D01*
X008969Y018119D01*
X008998Y018072D01*
X009030Y018028D01*
X009066Y017987D01*
X009104Y017948D01*
X009145Y017912D01*
X009188Y017879D01*
X009234Y017849D01*
X009282Y017823D01*
X009332Y017800D01*
X009383Y017781D01*
X009435Y017765D01*
X009488Y017753D01*
X009542Y017745D01*
X009597Y017741D01*
X009651Y017741D01*
X009706Y017745D01*
X009760Y017753D01*
X009813Y017765D01*
X009865Y017781D01*
X009916Y017800D01*
X009966Y017823D01*
X010014Y017849D01*
X010060Y017879D01*
X010103Y017912D01*
X010144Y017948D01*
X010182Y017987D01*
X010218Y018028D01*
X010250Y018072D01*
X010279Y018119D01*
X010305Y018167D01*
X010304Y018167D01*
X010278Y018119D01*
X010249Y018073D01*
X010217Y018029D01*
X010182Y017987D01*
X010143Y017949D01*
X010102Y017913D01*
X010059Y017880D01*
X010013Y017850D01*
X009966Y017824D01*
X009916Y017801D01*
X009865Y017781D01*
X009813Y017766D01*
X009760Y017754D01*
X009706Y017746D01*
X009651Y017742D01*
X009597Y017742D01*
X009542Y017746D01*
X009488Y017754D01*
X009435Y017766D01*
X009383Y017781D01*
X009332Y017801D01*
X009282Y017824D01*
X009235Y017850D01*
X009189Y017880D01*
X009146Y017913D01*
X009105Y017949D01*
X009066Y017987D01*
X009031Y018029D01*
X008999Y018073D01*
X008970Y018119D01*
X008944Y018167D01*
X008945Y018168D01*
X008971Y018120D01*
X009000Y018074D01*
X009032Y018030D01*
X009067Y017988D01*
X009105Y017949D01*
X009146Y017913D01*
X009190Y017881D01*
X009235Y017851D01*
X009283Y017824D01*
X009332Y017802D01*
X009383Y017782D01*
X009435Y017767D01*
X009489Y017755D01*
X009542Y017747D01*
X009597Y017743D01*
X009651Y017743D01*
X009706Y017747D01*
X009759Y017755D01*
X009813Y017767D01*
X009865Y017782D01*
X009916Y017802D01*
X009965Y017824D01*
X010013Y017851D01*
X010058Y017881D01*
X010102Y017913D01*
X010143Y017949D01*
X010181Y017988D01*
X010216Y018030D01*
X010248Y018074D01*
X010277Y018120D01*
X010303Y018168D01*
X010302Y018168D01*
X010276Y018120D01*
X010248Y018074D01*
X010215Y018030D01*
X010180Y017989D01*
X010142Y017950D01*
X010101Y017914D01*
X010058Y017881D01*
X010012Y017852D01*
X009965Y017825D01*
X009915Y017803D01*
X009864Y017783D01*
X009812Y017768D01*
X009759Y017756D01*
X009705Y017748D01*
X009651Y017744D01*
X009597Y017744D01*
X009543Y017748D01*
X009489Y017756D01*
X009436Y017768D01*
X009384Y017783D01*
X009333Y017803D01*
X009283Y017825D01*
X009236Y017852D01*
X009190Y017881D01*
X009147Y017914D01*
X009106Y017950D01*
X009068Y017989D01*
X009033Y018030D01*
X009000Y018074D01*
X008972Y018120D01*
X008946Y018168D01*
X008947Y018169D01*
X008972Y018121D01*
X009001Y018075D01*
X009033Y018031D01*
X009069Y017990D01*
X009107Y017951D01*
X009147Y017915D01*
X009191Y017882D01*
X009236Y017853D01*
X009284Y017826D01*
X009333Y017803D01*
X009384Y017784D01*
X009436Y017769D01*
X009489Y017757D01*
X009543Y017749D01*
X009597Y017745D01*
X009651Y017745D01*
X009705Y017749D01*
X009759Y017757D01*
X009812Y017769D01*
X009864Y017784D01*
X009915Y017803D01*
X009964Y017826D01*
X010012Y017853D01*
X010057Y017882D01*
X010101Y017915D01*
X010141Y017951D01*
X010179Y017990D01*
X010215Y018031D01*
X010247Y018075D01*
X010276Y018121D01*
X010301Y018169D01*
X010300Y018169D01*
X010275Y018121D01*
X010246Y018075D01*
X010214Y018031D01*
X010179Y017990D01*
X010141Y017952D01*
X010100Y017916D01*
X010057Y017883D01*
X010011Y017853D01*
X009964Y017827D01*
X009915Y017804D01*
X009864Y017785D01*
X009812Y017770D01*
X009759Y017758D01*
X009705Y017750D01*
X009651Y017746D01*
X009597Y017746D01*
X009543Y017750D01*
X009489Y017758D01*
X009436Y017770D01*
X009384Y017785D01*
X009333Y017804D01*
X009284Y017827D01*
X009237Y017853D01*
X009191Y017883D01*
X009148Y017916D01*
X009107Y017952D01*
X009069Y017990D01*
X009034Y018031D01*
X009002Y018075D01*
X008973Y018121D01*
X008948Y018169D01*
X008949Y018169D01*
X008974Y018122D01*
X009003Y018076D01*
X009035Y018032D01*
X009070Y017991D01*
X009108Y017952D01*
X009149Y017917D01*
X009192Y017884D01*
X009237Y017854D01*
X009285Y017828D01*
X009334Y017805D01*
X009385Y017786D01*
X009436Y017771D01*
X009489Y017759D01*
X009543Y017751D01*
X009597Y017747D01*
X009651Y017747D01*
X009705Y017751D01*
X009759Y017759D01*
X009812Y017771D01*
X009863Y017786D01*
X009914Y017805D01*
X009963Y017828D01*
X010011Y017854D01*
X010056Y017884D01*
X010099Y017917D01*
X010140Y017952D01*
X010178Y017991D01*
X010213Y018032D01*
X010245Y018076D01*
X010274Y018122D01*
X010299Y018169D01*
X010298Y018170D01*
X010273Y018122D01*
X010244Y018076D01*
X010212Y018033D01*
X010177Y017992D01*
X010139Y017953D01*
X010099Y017917D01*
X010056Y017885D01*
X010010Y017855D01*
X009963Y017829D01*
X009914Y017806D01*
X009863Y017787D01*
X009811Y017772D01*
X009759Y017760D01*
X009705Y017752D01*
X009651Y017748D01*
X009597Y017748D01*
X009543Y017752D01*
X009489Y017760D01*
X009437Y017772D01*
X009385Y017787D01*
X009334Y017806D01*
X009285Y017829D01*
X009238Y017855D01*
X009192Y017885D01*
X009149Y017917D01*
X009109Y017953D01*
X009071Y017992D01*
X009036Y018033D01*
X009004Y018076D01*
X008975Y018122D01*
X008950Y018170D01*
X008976Y018123D01*
X009005Y018077D01*
X009037Y018033D01*
X009072Y017992D01*
X009109Y017954D01*
X009150Y017918D01*
X009193Y017885D01*
X009238Y017856D01*
X009286Y017830D01*
X009335Y017807D01*
X009385Y017788D01*
X009437Y017773D01*
X009490Y017761D01*
X009543Y017753D01*
X009597Y017749D01*
X009651Y017749D01*
X009705Y017753D01*
X009758Y017761D01*
X009811Y017773D01*
X009863Y017788D01*
X009913Y017807D01*
X009962Y017830D01*
X010010Y017856D01*
X010055Y017885D01*
X010098Y017918D01*
X010139Y017954D01*
X010176Y017992D01*
X010211Y018033D01*
X010243Y018077D01*
X010272Y018123D01*
X010298Y018170D01*
X010297Y018171D01*
X010271Y018123D01*
X010243Y018077D01*
X010211Y018034D01*
X010176Y017993D01*
X010138Y017954D01*
X010097Y017919D01*
X010054Y017886D01*
X010009Y017857D01*
X009962Y017831D01*
X009913Y017808D01*
X009863Y017789D01*
X009811Y017774D01*
X009758Y017762D01*
X009705Y017754D01*
X009651Y017750D01*
X009597Y017750D01*
X009543Y017754D01*
X009490Y017762D01*
X009437Y017774D01*
X009385Y017789D01*
X009335Y017808D01*
X009286Y017831D01*
X009239Y017857D01*
X009194Y017886D01*
X009151Y017919D01*
X009110Y017954D01*
X009072Y017993D01*
X009037Y018034D01*
X009005Y018077D01*
X008977Y018123D01*
X008951Y018171D01*
D171*
X001472Y008902D02*
X001474Y008952D01*
X001480Y009002D01*
X001490Y009051D01*
X001504Y009099D01*
X001521Y009146D01*
X001542Y009191D01*
X001567Y009235D01*
X001595Y009276D01*
X001627Y009315D01*
X001661Y009352D01*
X001698Y009386D01*
X001738Y009416D01*
X001780Y009443D01*
X001824Y009467D01*
X001870Y009488D01*
X001917Y009504D01*
X001965Y009517D01*
X002015Y009526D01*
X002064Y009531D01*
X002115Y009532D01*
X002165Y009529D01*
X002214Y009522D01*
X002263Y009511D01*
X002311Y009496D01*
X002357Y009478D01*
X002402Y009456D01*
X002445Y009430D01*
X002486Y009401D01*
X002525Y009369D01*
X002561Y009334D01*
X002593Y009296D01*
X002623Y009256D01*
X002650Y009213D01*
X002673Y009169D01*
X002692Y009123D01*
X002708Y009075D01*
X002720Y009026D01*
X002728Y008977D01*
X002732Y008927D01*
X002732Y008877D01*
X002728Y008827D01*
X002720Y008778D01*
X002708Y008729D01*
X002692Y008681D01*
X002673Y008635D01*
X002650Y008591D01*
X002623Y008548D01*
X002593Y008508D01*
X002561Y008470D01*
X002525Y008435D01*
X002486Y008403D01*
X002445Y008374D01*
X002402Y008348D01*
X002357Y008326D01*
X002311Y008308D01*
X002263Y008293D01*
X002214Y008282D01*
X002165Y008275D01*
X002115Y008272D01*
X002064Y008273D01*
X002015Y008278D01*
X001965Y008287D01*
X001917Y008300D01*
X001870Y008316D01*
X001824Y008337D01*
X001780Y008361D01*
X001738Y008388D01*
X001698Y008418D01*
X001661Y008452D01*
X001627Y008489D01*
X001595Y008528D01*
X001567Y008569D01*
X001542Y008613D01*
X001521Y008658D01*
X001504Y008705D01*
X001490Y008753D01*
X001480Y008802D01*
X001474Y008852D01*
X001472Y008902D01*
M02*
