G75*
G70*
%OFA0B0*%
%FSLAX24Y24*%
%IPPOS*%
%LPD*%
%AMOC8*
5,1,8,0,0,1.08239X$1,22.5*
%
%ADD10C,0.0004*%
%ADD11C,0.0000*%
D10*
X000302Y002170D02*
X000302Y005713D01*
X000302Y017918D01*
X000304Y018012D01*
X000311Y018105D01*
X000322Y018198D01*
X000338Y018291D01*
X000358Y018382D01*
X000382Y018473D01*
X000410Y018562D01*
X000443Y018650D01*
X000480Y018736D01*
X000521Y018820D01*
X000566Y018903D01*
X000615Y018983D01*
X000667Y019060D01*
X000723Y019135D01*
X000783Y019207D01*
X000846Y019277D01*
X000912Y019343D01*
X000982Y019406D01*
X001054Y019466D01*
X001129Y019522D01*
X001206Y019574D01*
X001286Y019623D01*
X001369Y019668D01*
X001453Y019709D01*
X001539Y019746D01*
X001627Y019779D01*
X001716Y019807D01*
X001807Y019831D01*
X001898Y019851D01*
X001991Y019867D01*
X002084Y019878D01*
X002177Y019885D01*
X002271Y019887D01*
X007389Y019887D01*
X012507Y019887D01*
X012601Y019885D01*
X012694Y019878D01*
X012787Y019867D01*
X012880Y019851D01*
X012971Y019831D01*
X013062Y019807D01*
X013151Y019779D01*
X013239Y019746D01*
X013325Y019709D01*
X013409Y019668D01*
X013491Y019623D01*
X013572Y019574D01*
X013649Y019522D01*
X013724Y019466D01*
X013796Y019406D01*
X013866Y019343D01*
X013932Y019277D01*
X013995Y019207D01*
X014055Y019135D01*
X014111Y019060D01*
X014163Y018983D01*
X014212Y018902D01*
X014257Y018820D01*
X014298Y018736D01*
X014335Y018650D01*
X014368Y018562D01*
X014396Y018473D01*
X014420Y018382D01*
X014440Y018291D01*
X014456Y018198D01*
X014467Y018105D01*
X014474Y018012D01*
X014476Y017918D01*
X014476Y005713D01*
X014476Y002170D01*
X014474Y002076D01*
X014467Y001983D01*
X014456Y001890D01*
X014440Y001797D01*
X014420Y001706D01*
X014396Y001615D01*
X014368Y001526D01*
X014335Y001438D01*
X014298Y001352D01*
X014257Y001268D01*
X014212Y001186D01*
X014163Y001105D01*
X014111Y001028D01*
X014055Y000953D01*
X013995Y000881D01*
X013932Y000811D01*
X013866Y000745D01*
X013796Y000682D01*
X013724Y000622D01*
X013649Y000566D01*
X013572Y000514D01*
X013492Y000465D01*
X013409Y000420D01*
X013325Y000379D01*
X013239Y000342D01*
X013151Y000309D01*
X013062Y000281D01*
X012971Y000257D01*
X012880Y000237D01*
X012787Y000221D01*
X012694Y000210D01*
X012601Y000203D01*
X012507Y000201D01*
X012507Y000202D02*
X007389Y000202D01*
X002271Y000202D01*
X002271Y000201D02*
X002177Y000203D01*
X002084Y000210D01*
X001991Y000221D01*
X001898Y000237D01*
X001807Y000257D01*
X001716Y000281D01*
X001627Y000309D01*
X001539Y000342D01*
X001453Y000379D01*
X001369Y000420D01*
X001286Y000465D01*
X001206Y000514D01*
X001129Y000566D01*
X001054Y000622D01*
X000982Y000682D01*
X000912Y000745D01*
X000846Y000811D01*
X000783Y000881D01*
X000723Y000953D01*
X000667Y001028D01*
X000615Y001105D01*
X000566Y001186D01*
X000521Y001268D01*
X000480Y001352D01*
X000443Y001438D01*
X000410Y001526D01*
X000382Y001615D01*
X000358Y001706D01*
X000338Y001797D01*
X000322Y001890D01*
X000311Y001983D01*
X000304Y002076D01*
X000302Y002170D01*
D11*
X001472Y008902D02*
X001474Y008952D01*
X001480Y009002D01*
X001490Y009051D01*
X001504Y009099D01*
X001521Y009146D01*
X001542Y009191D01*
X001567Y009235D01*
X001595Y009276D01*
X001627Y009315D01*
X001661Y009352D01*
X001698Y009386D01*
X001738Y009416D01*
X001780Y009443D01*
X001824Y009467D01*
X001870Y009488D01*
X001917Y009504D01*
X001965Y009517D01*
X002015Y009526D01*
X002064Y009531D01*
X002115Y009532D01*
X002165Y009529D01*
X002214Y009522D01*
X002263Y009511D01*
X002311Y009496D01*
X002357Y009478D01*
X002402Y009456D01*
X002445Y009430D01*
X002486Y009401D01*
X002525Y009369D01*
X002561Y009334D01*
X002593Y009296D01*
X002623Y009256D01*
X002650Y009213D01*
X002673Y009169D01*
X002692Y009123D01*
X002708Y009075D01*
X002720Y009026D01*
X002728Y008977D01*
X002732Y008927D01*
X002732Y008877D01*
X002728Y008827D01*
X002720Y008778D01*
X002708Y008729D01*
X002692Y008681D01*
X002673Y008635D01*
X002650Y008591D01*
X002623Y008548D01*
X002593Y008508D01*
X002561Y008470D01*
X002525Y008435D01*
X002486Y008403D01*
X002445Y008374D01*
X002402Y008348D01*
X002357Y008326D01*
X002311Y008308D01*
X002263Y008293D01*
X002214Y008282D01*
X002165Y008275D01*
X002115Y008272D01*
X002064Y008273D01*
X002015Y008278D01*
X001965Y008287D01*
X001917Y008300D01*
X001870Y008316D01*
X001824Y008337D01*
X001780Y008361D01*
X001738Y008388D01*
X001698Y008418D01*
X001661Y008452D01*
X001627Y008489D01*
X001595Y008528D01*
X001567Y008569D01*
X001542Y008613D01*
X001521Y008658D01*
X001504Y008705D01*
X001490Y008753D01*
X001480Y008802D01*
X001474Y008852D01*
X001472Y008902D01*
M02*
