G75*
G70*
%OFA0B0*%
%FSLAX24Y24*%
%IPPOS*%
%LPD*%
%AMOC8*
5,1,8,0,0,1.08239X$1,22.5*
%
%ADD10C,0.0004*%
%ADD11C,0.0020*%
%ADD12C,0.0010*%
%ADD13C,0.0030*%
%ADD14C,0.0040*%
%ADD15C,0.0060*%
%ADD16C,0.0070*%
%ADD17C,0.0080*%
%ADD18C,0.0000*%
%ADD19R,0.0294X0.0014*%
%ADD20R,0.0504X0.0014*%
%ADD21R,0.0630X0.0014*%
%ADD22R,0.0742X0.0014*%
%ADD23R,0.0826X0.0014*%
%ADD24R,0.0826X0.0014*%
%ADD25R,0.2128X0.0014*%
%ADD26R,0.0826X0.0014*%
%ADD27R,0.0826X0.0014*%
%ADD28R,0.0910X0.0014*%
%ADD29R,0.2128X0.0014*%
%ADD30R,0.0980X0.0014*%
%ADD31R,0.1050X0.0014*%
%ADD32R,0.1106X0.0014*%
%ADD33R,0.2142X0.0014*%
%ADD34R,0.1162X0.0014*%
%ADD35R,0.1218X0.0014*%
%ADD36R,0.2142X0.0014*%
%ADD37R,0.1246X0.0014*%
%ADD38R,0.1302X0.0014*%
%ADD39R,0.2156X0.0014*%
%ADD40R,0.1330X0.0014*%
%ADD41R,0.2156X0.0014*%
%ADD42R,0.1386X0.0014*%
%ADD43R,0.1414X0.0014*%
%ADD44R,0.1442X0.0014*%
%ADD45R,0.2170X0.0014*%
%ADD46R,0.1470X0.0014*%
%ADD47R,0.2170X0.0014*%
%ADD48R,0.1498X0.0014*%
%ADD49R,0.1526X0.0014*%
%ADD50R,0.1554X0.0014*%
%ADD51R,0.2184X0.0014*%
%ADD52R,0.2408X0.0014*%
%ADD53R,0.0840X0.0014*%
%ADD54R,0.2422X0.0014*%
%ADD55R,0.0840X0.0014*%
%ADD56R,0.1330X0.0014*%
%ADD57R,0.2422X0.0014*%
%ADD58R,0.2436X0.0014*%
%ADD59R,0.3276X0.0014*%
%ADD60R,0.3276X0.0014*%
%ADD61R,0.1582X0.0014*%
%ADD62R,0.1596X0.0014*%
%ADD63R,0.1540X0.0014*%
%ADD64R,0.1568X0.0014*%
%ADD65R,0.1526X0.0014*%
%ADD66R,0.1554X0.0014*%
%ADD67R,0.1512X0.0014*%
%ADD68R,0.1512X0.0014*%
%ADD69R,0.1498X0.0014*%
%ADD70R,0.1498X0.0014*%
%ADD71R,0.1498X0.0014*%
%ADD72R,0.0812X0.0014*%
%ADD73R,0.1484X0.0014*%
%ADD74R,0.1484X0.0014*%
%ADD75R,0.0812X0.0014*%
%ADD76R,0.0812X0.0014*%
%ADD77R,0.0812X0.0014*%
%ADD78R,0.0798X0.0014*%
%ADD79R,0.0798X0.0014*%
%ADD80R,0.0798X0.0014*%
%ADD81R,0.1526X0.0014*%
%ADD82R,0.1568X0.0014*%
%ADD83R,0.1596X0.0014*%
%ADD84R,0.1624X0.0014*%
%ADD85R,0.1638X0.0014*%
%ADD86R,0.0784X0.0014*%
%ADD87R,0.1652X0.0014*%
%ADD88R,0.1666X0.0014*%
%ADD89R,0.1694X0.0014*%
%ADD90R,0.0798X0.0014*%
%ADD91R,0.1708X0.0014*%
%ADD92R,0.0784X0.0014*%
%ADD93R,0.1722X0.0014*%
%ADD94R,0.1750X0.0014*%
%ADD95R,0.1764X0.0014*%
%ADD96R,0.0784X0.0014*%
%ADD97R,0.1778X0.0014*%
%ADD98R,0.0784X0.0014*%
%ADD99R,0.1806X0.0014*%
%ADD100R,0.1820X0.0014*%
%ADD101R,0.1848X0.0014*%
%ADD102R,0.1862X0.0014*%
%ADD103R,0.2688X0.0014*%
%ADD104R,0.1904X0.0014*%
%ADD105R,0.2688X0.0014*%
%ADD106R,0.1904X0.0014*%
%ADD107R,0.2716X0.0014*%
%ADD108R,0.2730X0.0014*%
%ADD109R,0.2758X0.0014*%
%ADD110R,0.2772X0.0014*%
%ADD111R,0.2786X0.0014*%
%ADD112R,0.2800X0.0014*%
%ADD113R,0.2828X0.0014*%
%ADD114R,0.1246X0.0014*%
%ADD115R,0.1582X0.0014*%
%ADD116R,0.1568X0.0014*%
%ADD117R,0.1274X0.0014*%
%ADD118R,0.1568X0.0014*%
%ADD119R,0.1274X0.0014*%
%ADD120R,0.1288X0.0014*%
%ADD121R,0.1288X0.0014*%
%ADD122R,0.1288X0.0014*%
%ADD123R,0.1302X0.0014*%
%ADD124R,0.1540X0.0014*%
%ADD125R,0.1302X0.0014*%
%ADD126R,0.1316X0.0014*%
%ADD127R,0.1316X0.0014*%
%ADD128R,0.1316X0.0014*%
%ADD129R,0.3192X0.0014*%
%ADD130R,0.3178X0.0014*%
%ADD131R,0.3164X0.0014*%
%ADD132R,0.3136X0.0014*%
%ADD133R,0.3122X0.0014*%
%ADD134R,0.3094X0.0014*%
%ADD135R,0.3080X0.0014*%
%ADD136R,0.3066X0.0014*%
%ADD137R,0.3038X0.0014*%
%ADD138R,0.3024X0.0014*%
%ADD139R,0.2996X0.0014*%
%ADD140R,0.2982X0.0014*%
%ADD141R,0.2954X0.0014*%
%ADD142R,0.2940X0.0014*%
%ADD143R,0.0742X0.0014*%
%ADD144R,0.2912X0.0014*%
%ADD145R,0.2898X0.0014*%
%ADD146R,0.2870X0.0014*%
%ADD147R,0.2856X0.0014*%
%ADD148R,0.2828X0.0014*%
%ADD149R,0.1708X0.0014*%
%ADD150R,0.1680X0.0014*%
%ADD151R,0.0756X0.0014*%
%ADD152R,0.1652X0.0014*%
%ADD153R,0.1610X0.0014*%
%ADD154R,0.0756X0.0014*%
%ADD155R,0.0742X0.0014*%
%ADD156R,0.0756X0.0014*%
%ADD157R,0.1470X0.0014*%
%ADD158R,0.0756X0.0014*%
%ADD159R,0.1456X0.0014*%
%ADD160R,0.1456X0.0014*%
%ADD161R,0.0770X0.0014*%
%ADD162R,0.1624X0.0014*%
%ADD163R,0.0770X0.0014*%
%ADD164R,0.2436X0.0014*%
%ADD165R,0.2408X0.0014*%
%ADD166R,0.2394X0.0014*%
%ADD167R,0.2380X0.0014*%
%ADD168R,0.1456X0.0014*%
%ADD169R,0.1414X0.0014*%
%ADD170R,0.1386X0.0014*%
%ADD171R,0.1358X0.0014*%
%ADD172R,0.1274X0.0014*%
%ADD173R,0.1232X0.0014*%
%ADD174R,0.1190X0.0014*%
%ADD175R,0.1134X0.0014*%
%ADD176R,0.1078X0.0014*%
%ADD177R,0.1008X0.0014*%
%ADD178R,0.0952X0.0014*%
%ADD179R,0.0868X0.0014*%
%ADD180R,0.0672X0.0014*%
%ADD181R,0.0518X0.0014*%
%ADD182R,0.0322X0.0014*%
%ADD183R,0.0070X0.0014*%
%ADD184R,0.0070X0.0014*%
%ADD185R,0.0056X0.0014*%
%ADD186R,0.0084X0.0014*%
%ADD187R,0.0084X0.0014*%
%ADD188R,0.0098X0.0014*%
%ADD189R,0.0112X0.0014*%
%ADD190R,0.0098X0.0014*%
%ADD191R,0.0056X0.0014*%
%ADD192R,0.0084X0.0014*%
%ADD193R,0.0084X0.0014*%
%ADD194R,0.0056X0.0014*%
%ADD195R,0.0112X0.0014*%
%ADD196R,0.0154X0.0014*%
%ADD197R,0.0182X0.0014*%
%ADD198R,0.0196X0.0014*%
%ADD199R,0.0056X0.0014*%
%ADD200R,0.0154X0.0014*%
%ADD201R,0.0210X0.0014*%
%ADD202R,0.0168X0.0014*%
%ADD203R,0.0196X0.0014*%
%ADD204R,0.0224X0.0014*%
%ADD205R,0.0210X0.0014*%
%ADD206R,0.0224X0.0014*%
%ADD207R,0.0098X0.0014*%
%ADD208R,0.0112X0.0014*%
%ADD209R,0.0028X0.0014*%
%ADD210R,0.0042X0.0014*%
%ADD211R,0.0126X0.0014*%
%ADD212R,0.0042X0.0014*%
%ADD213R,0.0042X0.0014*%
%ADD214R,0.0140X0.0014*%
%ADD215R,0.0154X0.0014*%
%ADD216R,0.0168X0.0014*%
%ADD217R,0.0238X0.0014*%
%ADD218R,0.0042X0.0014*%
%ADD219R,0.0154X0.0014*%
%ADD220R,0.0238X0.0014*%
%ADD221R,0.0182X0.0014*%
%ADD222R,0.0028X0.0014*%
%ADD223R,0.0182X0.0014*%
%ADD224R,0.0014X0.0014*%
%ADD225R,0.0098X0.0014*%
%ADD226R,0.0028X0.0014*%
%ADD227R,0.0392X0.0014*%
%ADD228R,0.0224X0.0014*%
%ADD229R,0.0378X0.0014*%
%ADD230R,0.0196X0.0014*%
%ADD231R,0.0168X0.0014*%
%ADD232R,0.0140X0.0014*%
%ADD233R,0.0126X0.0014*%
%ADD234R,0.0126X0.0014*%
%ADD235R,0.0224X0.0014*%
%ADD236R,0.0112X0.0014*%
%ADD237R,0.0182X0.0014*%
%ADD238R,0.0266X0.0014*%
%ADD239R,0.0266X0.0014*%
%ADD240R,0.0392X0.0014*%
%ADD241R,0.0378X0.0014*%
%ADD242R,0.0126X0.0014*%
%ADD243R,0.0240X0.0340*%
%ADD244C,0.0050*%
%ADD245C,0.0100*%
%ADD246C,0.0200*%
%ADD247C,0.0001*%
D10*
X000302Y002170D02*
X000302Y005713D01*
X000302Y017918D01*
X000304Y018012D01*
X000311Y018105D01*
X000322Y018198D01*
X000338Y018291D01*
X000358Y018382D01*
X000382Y018473D01*
X000410Y018562D01*
X000443Y018650D01*
X000480Y018736D01*
X000521Y018820D01*
X000566Y018903D01*
X000615Y018983D01*
X000667Y019060D01*
X000723Y019135D01*
X000783Y019207D01*
X000846Y019277D01*
X000912Y019343D01*
X000982Y019406D01*
X001054Y019466D01*
X001129Y019522D01*
X001206Y019574D01*
X001286Y019623D01*
X001369Y019668D01*
X001453Y019709D01*
X001539Y019746D01*
X001627Y019779D01*
X001716Y019807D01*
X001807Y019831D01*
X001898Y019851D01*
X001991Y019867D01*
X002084Y019878D01*
X002177Y019885D01*
X002271Y019887D01*
X007389Y019887D01*
X012507Y019887D01*
X012601Y019885D01*
X012694Y019878D01*
X012787Y019867D01*
X012880Y019851D01*
X012971Y019831D01*
X013062Y019807D01*
X013151Y019779D01*
X013239Y019746D01*
X013325Y019709D01*
X013409Y019668D01*
X013491Y019623D01*
X013572Y019574D01*
X013649Y019522D01*
X013724Y019466D01*
X013796Y019406D01*
X013866Y019343D01*
X013932Y019277D01*
X013995Y019207D01*
X014055Y019135D01*
X014111Y019060D01*
X014163Y018983D01*
X014212Y018902D01*
X014257Y018820D01*
X014298Y018736D01*
X014335Y018650D01*
X014368Y018562D01*
X014396Y018473D01*
X014420Y018382D01*
X014440Y018291D01*
X014456Y018198D01*
X014467Y018105D01*
X014474Y018012D01*
X014476Y017918D01*
X014476Y005713D01*
X014476Y002170D01*
X014474Y002076D01*
X014467Y001983D01*
X014456Y001890D01*
X014440Y001797D01*
X014420Y001706D01*
X014396Y001615D01*
X014368Y001526D01*
X014335Y001438D01*
X014298Y001352D01*
X014257Y001268D01*
X014212Y001186D01*
X014163Y001105D01*
X014111Y001028D01*
X014055Y000953D01*
X013995Y000881D01*
X013932Y000811D01*
X013866Y000745D01*
X013796Y000682D01*
X013724Y000622D01*
X013649Y000566D01*
X013572Y000514D01*
X013492Y000465D01*
X013409Y000420D01*
X013325Y000379D01*
X013239Y000342D01*
X013151Y000309D01*
X013062Y000281D01*
X012971Y000257D01*
X012880Y000237D01*
X012787Y000221D01*
X012694Y000210D01*
X012601Y000203D01*
X012507Y000201D01*
X012507Y000202D02*
X007389Y000202D01*
X002271Y000202D01*
X002271Y000201D02*
X002177Y000203D01*
X002084Y000210D01*
X001991Y000221D01*
X001898Y000237D01*
X001807Y000257D01*
X001716Y000281D01*
X001627Y000309D01*
X001539Y000342D01*
X001453Y000379D01*
X001369Y000420D01*
X001286Y000465D01*
X001206Y000514D01*
X001129Y000566D01*
X001054Y000622D01*
X000982Y000682D01*
X000912Y000745D01*
X000846Y000811D01*
X000783Y000881D01*
X000723Y000953D01*
X000667Y001028D01*
X000615Y001105D01*
X000566Y001186D01*
X000521Y001268D01*
X000480Y001352D01*
X000443Y001438D01*
X000410Y001526D01*
X000382Y001615D01*
X000358Y001706D01*
X000338Y001797D01*
X000322Y001890D01*
X000311Y001983D01*
X000304Y002076D01*
X000302Y002170D01*
D11*
X003196Y006280D02*
X003149Y006327D01*
X003196Y006280D02*
X003289Y006280D01*
X003336Y006327D01*
X003336Y006374D01*
X003289Y006421D01*
X003242Y006421D01*
X003289Y006421D02*
X003336Y006467D01*
X003336Y006514D01*
X003289Y006561D01*
X003196Y006561D01*
X003149Y006514D01*
X003149Y006780D02*
X003296Y006927D01*
X003296Y006964D01*
X003259Y007001D01*
X003186Y007001D01*
X003149Y006964D01*
X003149Y006780D02*
X003296Y006780D01*
X003370Y006891D02*
X003517Y006891D01*
X003591Y006927D02*
X003628Y006927D01*
X003664Y006891D01*
X003701Y006927D01*
X003738Y006891D01*
X003738Y006780D01*
X003664Y006780D02*
X003664Y006891D01*
X003591Y006927D02*
X003591Y006780D01*
X003480Y006780D02*
X003480Y007001D01*
X003370Y006891D01*
X003472Y006561D02*
X003565Y006561D01*
X003612Y006514D01*
X003425Y006327D01*
X003472Y006280D01*
X003565Y006280D01*
X003612Y006327D01*
X003612Y006514D01*
X003701Y006467D02*
X003701Y006280D01*
X003795Y006280D02*
X003795Y006421D01*
X003842Y006467D01*
X003888Y006421D01*
X003888Y006280D01*
X003978Y006280D02*
X004071Y006280D01*
X004024Y006280D02*
X004024Y006467D01*
X003978Y006467D01*
X004024Y006561D02*
X004024Y006607D01*
X004162Y006561D02*
X004208Y006561D01*
X004208Y006280D01*
X004162Y006280D02*
X004255Y006280D01*
X004346Y006327D02*
X004346Y006374D01*
X004393Y006421D01*
X004486Y006421D01*
X004533Y006374D01*
X004533Y006327D01*
X004486Y006280D01*
X004393Y006280D01*
X004346Y006327D01*
X004393Y006421D02*
X004346Y006467D01*
X004346Y006514D01*
X004393Y006561D01*
X004486Y006561D01*
X004533Y006514D01*
X004533Y006467D01*
X004486Y006421D01*
X004622Y006514D02*
X004622Y006561D01*
X004669Y006561D01*
X004669Y006514D01*
X004622Y006514D01*
X004622Y006280D02*
X004856Y006561D01*
X004856Y006327D02*
X004809Y006327D01*
X004809Y006280D01*
X004856Y006280D01*
X004856Y006327D01*
X004511Y006780D02*
X004474Y006780D01*
X004474Y006817D01*
X004511Y006817D01*
X004511Y006780D01*
X004328Y006780D02*
X004511Y007001D01*
X004364Y007001D02*
X004364Y006964D01*
X004328Y006964D01*
X004328Y007001D01*
X004364Y007001D01*
X004253Y006964D02*
X004253Y006927D01*
X004217Y006891D01*
X004143Y006891D01*
X004107Y006927D01*
X004107Y006964D01*
X004143Y007001D01*
X004217Y007001D01*
X004253Y006964D01*
X004217Y006891D02*
X004253Y006854D01*
X004253Y006817D01*
X004217Y006780D01*
X004143Y006780D01*
X004107Y006817D01*
X004107Y006854D01*
X004143Y006891D01*
X004033Y006780D02*
X003959Y006780D01*
X003996Y006780D02*
X003996Y007001D01*
X003959Y007001D01*
X003849Y007001D02*
X003849Y007037D01*
X003849Y006927D02*
X003849Y006780D01*
X003885Y006780D02*
X003812Y006780D01*
X003812Y006927D02*
X003849Y006927D01*
X003823Y007280D02*
X003757Y007280D01*
X003790Y007280D02*
X003790Y007414D01*
X003757Y007414D01*
X003790Y007481D02*
X003790Y007514D01*
X003892Y007481D02*
X003925Y007481D01*
X003925Y007280D01*
X003892Y007280D02*
X003958Y007280D01*
X004027Y007314D02*
X004027Y007347D01*
X004060Y007381D01*
X004127Y007381D01*
X004160Y007347D01*
X004160Y007314D01*
X004127Y007280D01*
X004060Y007280D01*
X004027Y007314D01*
X004060Y007381D02*
X004027Y007414D01*
X004027Y007447D01*
X004060Y007481D01*
X004127Y007481D01*
X004160Y007447D01*
X004160Y007414D01*
X004127Y007381D01*
X004229Y007447D02*
X004229Y007481D01*
X004263Y007481D01*
X004263Y007447D01*
X004229Y007447D01*
X004229Y007280D02*
X004396Y007481D01*
X004396Y007314D02*
X004363Y007314D01*
X004363Y007280D01*
X004396Y007280D01*
X004396Y007314D01*
X003688Y007280D02*
X003688Y007381D01*
X003654Y007414D01*
X003621Y007381D01*
X003621Y007280D01*
X003554Y007280D02*
X003554Y007414D01*
X003587Y007414D01*
X003621Y007381D01*
X003485Y007414D02*
X003485Y007447D01*
X003452Y007481D01*
X003385Y007481D01*
X003352Y007447D01*
X003282Y007447D02*
X003249Y007481D01*
X003182Y007481D01*
X003149Y007447D01*
X003282Y007447D02*
X003282Y007414D01*
X003149Y007280D01*
X003282Y007280D01*
X003352Y007280D02*
X003485Y007414D01*
X003485Y007280D02*
X003352Y007280D01*
X003472Y006561D02*
X003425Y006514D01*
X003425Y006327D01*
X003701Y006467D02*
X003748Y006467D01*
X003795Y006421D01*
X008297Y005011D02*
X008297Y004741D01*
X008477Y004831D01*
X008568Y004831D01*
X008658Y004741D01*
X008658Y004561D01*
X008568Y004470D01*
X008387Y004470D01*
X008297Y004561D01*
X008297Y005011D02*
X008658Y005011D01*
X008813Y004741D02*
X009083Y004741D01*
X009173Y004651D01*
X009173Y004561D01*
X009083Y004470D01*
X008903Y004470D01*
X008813Y004561D01*
X008813Y004741D01*
X008993Y004921D01*
X009173Y005011D01*
X009329Y004831D02*
X009419Y004831D01*
X009509Y004741D01*
X009599Y004831D01*
X009689Y004741D01*
X009689Y004470D01*
X009844Y004470D02*
X010024Y004470D01*
X009934Y004470D02*
X009934Y004831D01*
X009844Y004831D01*
X009934Y005011D02*
X009934Y005101D01*
X010188Y005011D02*
X010278Y005011D01*
X010278Y004470D01*
X010188Y004470D02*
X010368Y004470D01*
X010344Y004261D02*
X010424Y004261D01*
X010424Y003780D01*
X010344Y003780D02*
X010505Y003780D01*
X010423Y003574D02*
X010423Y003511D01*
X010423Y003384D02*
X010423Y003130D01*
X010360Y003130D02*
X010487Y003130D01*
X010605Y003130D02*
X010732Y003130D01*
X010669Y003130D02*
X010669Y003511D01*
X010605Y003511D01*
X010423Y003384D02*
X010360Y003384D01*
X010245Y003321D02*
X010245Y003130D01*
X010118Y003130D02*
X010118Y003321D01*
X010182Y003384D01*
X010245Y003321D01*
X010118Y003321D02*
X010055Y003384D01*
X009992Y003384D01*
X009992Y003130D01*
X009877Y003194D02*
X009813Y003130D01*
X009687Y003130D01*
X009623Y003194D01*
X009877Y003447D01*
X009877Y003194D01*
X009877Y003447D02*
X009813Y003511D01*
X009687Y003511D01*
X009623Y003447D01*
X009623Y003194D01*
X009509Y003321D02*
X009255Y003321D01*
X009445Y003511D01*
X009445Y003130D01*
X009357Y003780D02*
X009197Y003780D01*
X009117Y003861D01*
X009437Y004181D01*
X009437Y003861D01*
X009357Y003780D01*
X009577Y003780D02*
X009577Y004101D01*
X009657Y004101D01*
X009737Y004021D01*
X009817Y004101D01*
X009897Y004021D01*
X009897Y003780D01*
X010038Y003780D02*
X010198Y003780D01*
X010118Y003780D02*
X010118Y004101D01*
X010038Y004101D01*
X010118Y004261D02*
X010118Y004341D01*
X009737Y004021D02*
X009737Y003780D01*
X009437Y004181D02*
X009357Y004261D01*
X009197Y004261D01*
X009117Y004181D01*
X009117Y003861D01*
X008977Y003861D02*
X008897Y003780D01*
X008736Y003780D01*
X008656Y003861D01*
X008656Y004021D02*
X008817Y004101D01*
X008897Y004101D01*
X008977Y004021D01*
X008977Y003861D01*
X008656Y004021D02*
X008656Y004261D01*
X008977Y004261D01*
X009329Y004470D02*
X009329Y004831D01*
X009509Y004741D02*
X009509Y004470D01*
X010532Y004741D02*
X010892Y004741D01*
X011047Y004921D02*
X011047Y005011D01*
X011137Y005011D01*
X011137Y004921D01*
X011047Y004921D01*
X010802Y005011D02*
X010532Y004741D01*
X010802Y005011D02*
X010802Y004470D01*
X010891Y004261D02*
X010651Y004021D01*
X010972Y004021D01*
X011112Y004181D02*
X011112Y004261D01*
X011192Y004261D01*
X011192Y004181D01*
X011112Y004181D01*
X010891Y004261D02*
X010891Y003780D01*
X011041Y003511D02*
X010851Y003321D01*
X011104Y003321D01*
X011219Y003447D02*
X011219Y003511D01*
X011283Y003511D01*
X011283Y003447D01*
X011219Y003447D01*
X011041Y003511D02*
X011041Y003130D01*
X011219Y003130D02*
X011536Y003511D01*
X011512Y003780D02*
X011432Y003780D01*
X011432Y003861D01*
X011512Y003861D01*
X011512Y003780D01*
X011112Y003780D02*
X011512Y004261D01*
X011498Y004470D02*
X011408Y004470D01*
X011408Y004561D01*
X011498Y004561D01*
X011498Y004470D01*
X011047Y004470D02*
X011498Y005011D01*
X011921Y004934D02*
X011921Y004807D01*
X011985Y004744D01*
X011921Y004934D02*
X011985Y004997D01*
X012048Y004997D01*
X012302Y004744D01*
X012302Y004997D01*
X012302Y005112D02*
X012238Y005112D01*
X012238Y005176D01*
X012302Y005176D01*
X012302Y005112D01*
X012302Y005296D02*
X012048Y005550D01*
X011985Y005550D01*
X011921Y005486D01*
X011921Y005360D01*
X011985Y005296D01*
X012302Y005296D02*
X012302Y005550D01*
X012388Y006225D02*
X012135Y006479D01*
X012071Y006479D01*
X012008Y006415D01*
X012008Y006288D01*
X012071Y006225D01*
X012388Y006225D02*
X012388Y006479D01*
X012388Y006593D02*
X012388Y006657D01*
X012325Y006657D01*
X012325Y006593D01*
X012388Y006593D01*
X012325Y006777D02*
X012071Y007031D01*
X012325Y007031D01*
X012388Y006968D01*
X012388Y006841D01*
X012325Y006777D01*
X012071Y006777D01*
X012008Y006841D01*
X012008Y006968D01*
X012071Y007031D01*
X012235Y007625D02*
X012108Y007752D01*
X012488Y007752D01*
X012488Y007625D02*
X012488Y007879D01*
X012488Y007993D02*
X012488Y008057D01*
X012425Y008057D01*
X012425Y007993D01*
X012488Y007993D01*
X012425Y008177D02*
X012298Y008177D01*
X012298Y008368D01*
X012362Y008431D01*
X012425Y008431D01*
X012488Y008368D01*
X012488Y008241D01*
X012425Y008177D01*
X012298Y008177D02*
X012171Y008304D01*
X012108Y008431D01*
X012235Y008825D02*
X012108Y008952D01*
X012488Y008952D01*
X012488Y008825D02*
X012488Y009079D01*
X012488Y009193D02*
X012488Y009257D01*
X012425Y009257D01*
X012425Y009193D01*
X012488Y009193D01*
X012425Y009377D02*
X012488Y009441D01*
X012488Y009568D01*
X012425Y009631D01*
X012298Y009631D01*
X012235Y009568D01*
X012235Y009504D01*
X012298Y009377D01*
X012108Y009377D01*
X012108Y009631D01*
X012335Y010025D02*
X012208Y010152D01*
X012588Y010152D01*
X012588Y010025D02*
X012588Y010279D01*
X012588Y010393D02*
X012588Y010457D01*
X012525Y010457D01*
X012525Y010393D01*
X012588Y010393D01*
X012398Y010577D02*
X012398Y010831D01*
X012208Y010768D02*
X012398Y010577D01*
X012588Y010768D02*
X012208Y010768D01*
X012335Y011125D02*
X012208Y011252D01*
X012588Y011252D01*
X012588Y011125D02*
X012588Y011379D01*
X012588Y011493D02*
X012525Y011493D01*
X012525Y011557D01*
X012588Y011557D01*
X012588Y011493D01*
X012525Y011677D02*
X012588Y011741D01*
X012588Y011868D01*
X012525Y011931D01*
X012462Y011931D01*
X012398Y011868D01*
X012398Y011804D01*
X012398Y011868D02*
X012335Y011931D01*
X012271Y011931D01*
X012208Y011868D01*
X012208Y011741D01*
X012271Y011677D01*
X012212Y012357D02*
X012149Y012357D01*
X012149Y012421D01*
X012212Y012421D01*
X012212Y012357D01*
X012333Y012357D02*
X012587Y012611D01*
X012587Y012674D01*
X012523Y012738D01*
X012396Y012738D01*
X012333Y012674D01*
X012333Y013057D02*
X012587Y013057D01*
X012460Y013057D02*
X012460Y013438D01*
X012333Y013311D01*
X012212Y013121D02*
X012212Y013057D01*
X012149Y013057D01*
X012149Y013121D01*
X012212Y013121D01*
X012034Y013057D02*
X011781Y013057D01*
X011907Y013057D02*
X011907Y013438D01*
X011781Y013311D01*
X011881Y013857D02*
X012134Y013857D01*
X012249Y013857D02*
X012312Y013857D01*
X012312Y013921D01*
X012249Y013921D01*
X012249Y013857D01*
X012007Y013857D02*
X012007Y014238D01*
X011881Y014111D01*
X011944Y014557D02*
X011881Y014621D01*
X012134Y014874D01*
X012134Y014621D01*
X012071Y014557D01*
X011944Y014557D01*
X011881Y014621D02*
X011881Y014874D01*
X011944Y014938D01*
X012071Y014938D01*
X012134Y014874D01*
X012249Y014621D02*
X012312Y014621D01*
X012312Y014557D01*
X012249Y014557D01*
X012249Y014621D01*
X012433Y014621D02*
X012496Y014557D01*
X012623Y014557D01*
X012687Y014621D01*
X012687Y014874D01*
X012623Y014938D01*
X012496Y014938D01*
X012433Y014874D01*
X012433Y014811D01*
X012496Y014747D01*
X012687Y014747D01*
X012623Y015257D02*
X012496Y015257D01*
X012433Y015321D01*
X012433Y015384D01*
X012496Y015447D01*
X012623Y015447D01*
X012687Y015384D01*
X012687Y015321D01*
X012623Y015257D01*
X012623Y015447D02*
X012687Y015511D01*
X012687Y015574D01*
X012623Y015638D01*
X012496Y015638D01*
X012433Y015574D01*
X012433Y015511D01*
X012496Y015447D01*
X012312Y015321D02*
X012312Y015257D01*
X012249Y015257D01*
X012249Y015321D01*
X012312Y015321D01*
X012134Y015321D02*
X012134Y015574D01*
X011881Y015321D01*
X011944Y015257D01*
X012071Y015257D01*
X012134Y015321D01*
X012134Y015574D02*
X012071Y015638D01*
X011944Y015638D01*
X011881Y015574D01*
X011881Y015321D01*
X012044Y015957D02*
X011981Y016021D01*
X012234Y016274D01*
X012234Y016021D01*
X012171Y015957D01*
X012044Y015957D01*
X011981Y016021D02*
X011981Y016274D01*
X012044Y016338D01*
X012171Y016338D01*
X012234Y016274D01*
X012349Y016021D02*
X012412Y016021D01*
X012412Y015957D01*
X012349Y015957D01*
X012349Y016021D01*
X012533Y016021D02*
X012533Y015957D01*
X012533Y016021D02*
X012787Y016274D01*
X012787Y016338D01*
X012533Y016338D01*
X012596Y016557D02*
X012533Y016621D01*
X012533Y016747D01*
X012723Y016747D01*
X012787Y016684D01*
X012787Y016621D01*
X012723Y016557D01*
X012596Y016557D01*
X012412Y016557D02*
X012349Y016557D01*
X012349Y016621D01*
X012412Y016621D01*
X012412Y016557D01*
X012533Y016747D02*
X012660Y016874D01*
X012787Y016938D01*
X012723Y017157D02*
X012596Y017157D01*
X012533Y017221D01*
X012412Y017221D02*
X012412Y017157D01*
X012349Y017157D01*
X012349Y017221D01*
X012412Y017221D01*
X012533Y017347D02*
X012660Y017411D01*
X012723Y017411D01*
X012787Y017347D01*
X012787Y017221D01*
X012723Y017157D01*
X012533Y017347D02*
X012533Y017538D01*
X012787Y017538D01*
X012723Y017757D02*
X012723Y018138D01*
X012533Y017947D01*
X012787Y017947D01*
X012412Y017821D02*
X012412Y017757D01*
X012349Y017757D01*
X012349Y017821D01*
X012412Y017821D01*
X012234Y017821D02*
X012171Y017757D01*
X012044Y017757D01*
X011981Y017821D01*
X012234Y018074D01*
X012234Y017821D01*
X012234Y018074D02*
X012171Y018138D01*
X012044Y018138D01*
X011981Y018074D01*
X011981Y017821D01*
X012044Y017538D02*
X012171Y017538D01*
X012234Y017474D01*
X011981Y017221D01*
X012044Y017157D01*
X012171Y017157D01*
X012234Y017221D01*
X012234Y017474D01*
X012044Y017538D02*
X011981Y017474D01*
X011981Y017221D01*
X012044Y016938D02*
X012171Y016938D01*
X012234Y016874D01*
X011981Y016621D01*
X012044Y016557D01*
X012171Y016557D01*
X012234Y016621D01*
X012234Y016874D01*
X012044Y016938D02*
X011981Y016874D01*
X011981Y016621D01*
X012044Y018357D02*
X011981Y018421D01*
X012234Y018674D01*
X012234Y018421D01*
X012171Y018357D01*
X012044Y018357D01*
X011981Y018421D02*
X011981Y018674D01*
X012044Y018738D01*
X012171Y018738D01*
X012234Y018674D01*
X012349Y018421D02*
X012412Y018421D01*
X012412Y018357D01*
X012349Y018357D01*
X012349Y018421D01*
X012533Y018421D02*
X012596Y018357D01*
X012723Y018357D01*
X012787Y018421D01*
X012787Y018484D01*
X012723Y018547D01*
X012660Y018547D01*
X012723Y018547D02*
X012787Y018611D01*
X012787Y018674D01*
X012723Y018738D01*
X012596Y018738D01*
X012533Y018674D01*
X012496Y014238D02*
X012623Y014238D01*
X012687Y014174D01*
X012687Y013921D01*
X012623Y013857D01*
X012496Y013857D01*
X012433Y013921D01*
X012687Y014174D01*
X012496Y014238D02*
X012433Y014174D01*
X012433Y013921D01*
X011907Y012738D02*
X011907Y012357D01*
X011781Y012357D02*
X012034Y012357D01*
X012333Y012357D02*
X012587Y012357D01*
X011907Y012738D02*
X011781Y012611D01*
X011885Y003950D02*
X011948Y003950D01*
X012012Y003886D01*
X012012Y003760D01*
X011948Y003696D01*
X011885Y003696D01*
X011821Y003760D01*
X011821Y003886D01*
X011885Y003950D01*
X012012Y003886D02*
X012075Y003950D01*
X012138Y003950D01*
X012202Y003886D01*
X012202Y003760D01*
X012138Y003696D01*
X012075Y003696D01*
X012012Y003760D01*
X012138Y003576D02*
X012202Y003576D01*
X012202Y003512D01*
X012138Y003512D01*
X012138Y003576D01*
X012202Y003397D02*
X012202Y003144D01*
X011948Y003397D01*
X011885Y003397D01*
X011821Y003334D01*
X011821Y003207D01*
X011885Y003144D01*
X011536Y003130D02*
X011473Y003130D01*
X011473Y003194D01*
X011536Y003194D01*
X011536Y003130D01*
X011785Y002250D02*
X011721Y002186D01*
X011721Y002060D01*
X011785Y001996D01*
X011785Y001697D02*
X011848Y001697D01*
X011912Y001634D01*
X011975Y001697D01*
X012038Y001697D01*
X012102Y001634D01*
X012102Y001507D01*
X012038Y001444D01*
X011912Y001571D02*
X011912Y001634D01*
X011785Y001697D02*
X011721Y001634D01*
X011721Y001507D01*
X011785Y001444D01*
X012038Y001812D02*
X012038Y001876D01*
X012102Y001876D01*
X012102Y001812D01*
X012038Y001812D01*
X012102Y001996D02*
X011848Y002250D01*
X011785Y002250D01*
X012102Y002250D02*
X012102Y001996D01*
D12*
X011578Y002016D02*
X011386Y001785D01*
X011280Y001785D02*
X011280Y002016D01*
X011165Y001901D01*
X011319Y001901D01*
X011386Y001977D02*
X011386Y002016D01*
X011424Y002016D01*
X011424Y001977D01*
X011386Y001977D01*
X011540Y001824D02*
X011540Y001785D01*
X011578Y001785D01*
X011578Y001824D01*
X011540Y001824D01*
X011583Y001516D02*
X011408Y001305D01*
X011310Y001305D02*
X011310Y001516D01*
X011205Y001411D01*
X011345Y001411D01*
X011408Y001481D02*
X011408Y001516D01*
X011443Y001516D01*
X011443Y001481D01*
X011408Y001481D01*
X011548Y001340D02*
X011583Y001340D01*
X011583Y001305D01*
X011548Y001305D01*
X011548Y001340D01*
X011597Y001016D02*
X011472Y000865D01*
X011400Y000865D02*
X011400Y001016D01*
X011325Y000941D01*
X011425Y000941D01*
X011472Y000991D02*
X011472Y001016D01*
X011497Y001016D01*
X011497Y000991D01*
X011472Y000991D01*
X011572Y000890D02*
X011597Y000890D01*
X011597Y000865D01*
X011572Y000865D01*
X011572Y000890D01*
X011277Y000865D02*
X011227Y000865D01*
X011252Y000865D02*
X011252Y001016D01*
X011227Y001016D01*
X011153Y001016D02*
X011153Y001041D01*
X011153Y000966D02*
X011153Y000865D01*
X011128Y000865D02*
X011178Y000865D01*
X011081Y000865D02*
X011081Y000941D01*
X011056Y000966D01*
X011031Y000941D01*
X011031Y000865D01*
X010981Y000865D02*
X010981Y000966D01*
X011006Y000966D01*
X011031Y000941D01*
X011128Y000966D02*
X011153Y000966D01*
X010934Y001016D02*
X010884Y000991D01*
X010834Y000941D01*
X010909Y000941D01*
X010934Y000916D01*
X010934Y000890D01*
X010909Y000865D01*
X010859Y000865D01*
X010834Y000890D01*
X010834Y000941D01*
X010786Y000865D02*
X010686Y000865D01*
X010736Y000865D02*
X010736Y001016D01*
X010686Y000966D01*
X010670Y001305D02*
X010530Y001305D01*
X010670Y001446D01*
X010670Y001481D01*
X010635Y001516D01*
X010565Y001516D01*
X010530Y001481D01*
X010467Y001481D02*
X010432Y001516D01*
X010362Y001516D01*
X010327Y001481D01*
X010467Y001481D02*
X010467Y001446D01*
X010327Y001305D01*
X010467Y001305D01*
X010732Y001305D02*
X010732Y001446D01*
X010767Y001446D01*
X010802Y001411D01*
X010837Y001446D01*
X010873Y001411D01*
X010873Y001305D01*
X010935Y001305D02*
X011005Y001305D01*
X010970Y001305D02*
X010970Y001446D01*
X010935Y001446D01*
X010970Y001516D02*
X010970Y001551D01*
X011070Y001516D02*
X011105Y001516D01*
X011105Y001305D01*
X011070Y001305D02*
X011140Y001305D01*
X010802Y001305D02*
X010802Y001411D01*
X010803Y001785D02*
X010803Y001901D01*
X010765Y001939D01*
X010726Y001901D01*
X010726Y001785D01*
X010650Y001785D02*
X010650Y001939D01*
X010688Y001939D01*
X010726Y001901D01*
X010582Y001901D02*
X010429Y001901D01*
X010544Y002016D01*
X010544Y001785D01*
X010361Y001785D02*
X010208Y001785D01*
X010361Y001939D01*
X010361Y001977D01*
X010323Y002016D01*
X010246Y002016D01*
X010208Y001977D01*
X010173Y002225D02*
X010125Y002274D01*
X010318Y002467D01*
X010318Y002274D01*
X010270Y002225D01*
X010173Y002225D01*
X010125Y002274D02*
X010125Y002467D01*
X010173Y002516D01*
X010270Y002516D01*
X010318Y002467D01*
X010401Y002419D02*
X010401Y002225D01*
X010498Y002225D02*
X010498Y002371D01*
X010546Y002419D01*
X010594Y002371D01*
X010594Y002225D01*
X010677Y002225D02*
X010774Y002225D01*
X010725Y002225D02*
X010725Y002419D01*
X010677Y002419D01*
X010725Y002516D02*
X010725Y002564D01*
X010716Y002705D02*
X010613Y002705D01*
X010664Y002705D02*
X010664Y002912D01*
X010613Y002912D01*
X010525Y002861D02*
X010525Y002705D01*
X010421Y002705D02*
X010421Y002861D01*
X010473Y002912D01*
X010525Y002861D01*
X010421Y002861D02*
X010370Y002912D01*
X010318Y002912D01*
X010318Y002705D01*
X010230Y002705D02*
X010023Y002705D01*
X010230Y002912D01*
X010230Y002964D01*
X010179Y003016D01*
X010075Y003016D01*
X010023Y002964D01*
X009936Y002964D02*
X009936Y002912D01*
X009884Y002861D01*
X009936Y002809D01*
X009936Y002757D01*
X009884Y002705D01*
X009780Y002705D01*
X009729Y002757D01*
X009832Y002861D02*
X009884Y002861D01*
X009936Y002964D02*
X009884Y003016D01*
X009780Y003016D01*
X009729Y002964D01*
X009897Y002516D02*
X009994Y002516D01*
X010042Y002467D01*
X010042Y002419D01*
X009994Y002371D01*
X010042Y002322D01*
X010042Y002274D01*
X009994Y002225D01*
X009897Y002225D01*
X009848Y002274D01*
X009945Y002371D02*
X009994Y002371D01*
X009848Y002467D02*
X009897Y002516D01*
X010401Y002419D02*
X010449Y002419D01*
X010498Y002371D01*
X010861Y002516D02*
X010910Y002516D01*
X010910Y002225D01*
X010958Y002225D02*
X010861Y002225D01*
X010909Y002054D02*
X010909Y002016D01*
X010909Y001939D02*
X010909Y001785D01*
X010871Y001785D02*
X010947Y001785D01*
X011018Y001785D02*
X011095Y001785D01*
X011056Y001785D02*
X011056Y002016D01*
X011018Y002016D01*
X010909Y001939D02*
X010871Y001939D01*
X011191Y002225D02*
X011191Y002516D01*
X011045Y002371D01*
X011239Y002371D01*
X011322Y002467D02*
X011322Y002516D01*
X011370Y002516D01*
X011370Y002467D01*
X011322Y002467D01*
X011300Y002705D02*
X011559Y003016D01*
X011352Y003016D02*
X011352Y002964D01*
X011300Y002964D01*
X011300Y003016D01*
X011352Y003016D01*
X011161Y003016D02*
X011006Y002861D01*
X011212Y002861D01*
X011161Y003016D02*
X011161Y002705D01*
X010912Y002705D02*
X010809Y002705D01*
X010861Y002705D02*
X010861Y003016D01*
X010809Y003016D01*
X010664Y003016D02*
X010664Y003067D01*
X011563Y002516D02*
X011322Y002225D01*
X011515Y002225D02*
X011563Y002225D01*
X011563Y002274D01*
X011515Y002274D01*
X011515Y002225D01*
X011507Y002705D02*
X011559Y002705D01*
X011559Y002757D01*
X011507Y002757D01*
X011507Y002705D01*
X008360Y010896D02*
X008360Y010946D01*
X008361Y010945D02*
X008376Y010948D01*
X008390Y010953D01*
X008403Y010962D01*
X008414Y010973D01*
X008423Y010986D01*
X008428Y011000D01*
X008431Y011015D01*
X008480Y011016D01*
X008481Y011015D01*
X008478Y010994D01*
X008472Y010975D01*
X008463Y010956D01*
X008451Y010939D01*
X008437Y010925D01*
X008420Y010913D01*
X008401Y010904D01*
X008382Y010898D01*
X008361Y010895D01*
X008361Y010904D01*
X008380Y010907D01*
X008398Y010912D01*
X008415Y010920D01*
X008431Y010931D01*
X008445Y010945D01*
X008456Y010961D01*
X008464Y010978D01*
X008469Y010996D01*
X008472Y011015D01*
X008463Y011015D01*
X008460Y010995D01*
X008454Y010977D01*
X008444Y010960D01*
X008432Y010944D01*
X008416Y010932D01*
X008399Y010922D01*
X008381Y010916D01*
X008361Y010913D01*
X008361Y010922D01*
X008379Y010925D01*
X008396Y010930D01*
X008411Y010939D01*
X008425Y010951D01*
X008437Y010965D01*
X008446Y010980D01*
X008451Y010997D01*
X008454Y011015D01*
X008445Y011015D01*
X008442Y010997D01*
X008435Y010979D01*
X008425Y010964D01*
X008412Y010951D01*
X008397Y010941D01*
X008379Y010934D01*
X008361Y010931D01*
X008361Y010940D01*
X008377Y010943D01*
X008393Y010949D01*
X008406Y010958D01*
X008418Y010970D01*
X008427Y010983D01*
X008433Y010999D01*
X008436Y011015D01*
X008480Y011524D02*
X008430Y011524D01*
X008431Y011525D02*
X008428Y011540D01*
X008423Y011554D01*
X008414Y011567D01*
X008403Y011578D01*
X008390Y011587D01*
X008376Y011592D01*
X008361Y011595D01*
X008360Y011644D01*
X008361Y011645D01*
X008382Y011642D01*
X008401Y011636D01*
X008420Y011627D01*
X008437Y011615D01*
X008451Y011601D01*
X008463Y011584D01*
X008472Y011565D01*
X008478Y011546D01*
X008481Y011525D01*
X008472Y011525D01*
X008469Y011544D01*
X008464Y011562D01*
X008456Y011579D01*
X008445Y011595D01*
X008431Y011609D01*
X008415Y011620D01*
X008398Y011628D01*
X008380Y011633D01*
X008361Y011636D01*
X008361Y011627D01*
X008381Y011624D01*
X008399Y011618D01*
X008416Y011608D01*
X008432Y011596D01*
X008444Y011580D01*
X008454Y011563D01*
X008460Y011545D01*
X008463Y011525D01*
X008454Y011525D01*
X008451Y011543D01*
X008446Y011560D01*
X008437Y011575D01*
X008425Y011589D01*
X008411Y011601D01*
X008396Y011610D01*
X008379Y011615D01*
X008361Y011618D01*
X008361Y011609D01*
X008379Y011606D01*
X008397Y011599D01*
X008412Y011589D01*
X008425Y011576D01*
X008435Y011561D01*
X008442Y011543D01*
X008445Y011525D01*
X008436Y011525D01*
X008433Y011541D01*
X008427Y011557D01*
X008418Y011570D01*
X008406Y011582D01*
X008393Y011591D01*
X008377Y011597D01*
X008361Y011600D01*
X007152Y011644D02*
X007152Y011594D01*
X007151Y011595D02*
X007136Y011592D01*
X007122Y011587D01*
X007109Y011578D01*
X007098Y011567D01*
X007089Y011554D01*
X007084Y011540D01*
X007081Y011525D01*
X007032Y011524D01*
X007031Y011525D01*
X007034Y011546D01*
X007040Y011565D01*
X007049Y011584D01*
X007061Y011601D01*
X007075Y011615D01*
X007092Y011627D01*
X007111Y011636D01*
X007130Y011642D01*
X007151Y011645D01*
X007151Y011636D01*
X007132Y011633D01*
X007114Y011628D01*
X007097Y011620D01*
X007081Y011609D01*
X007067Y011595D01*
X007056Y011579D01*
X007048Y011562D01*
X007043Y011544D01*
X007040Y011525D01*
X007049Y011525D01*
X007052Y011545D01*
X007058Y011563D01*
X007068Y011580D01*
X007080Y011596D01*
X007096Y011608D01*
X007113Y011618D01*
X007131Y011624D01*
X007151Y011627D01*
X007151Y011618D01*
X007133Y011615D01*
X007116Y011610D01*
X007101Y011601D01*
X007087Y011589D01*
X007075Y011575D01*
X007066Y011560D01*
X007061Y011543D01*
X007058Y011525D01*
X007067Y011525D01*
X007070Y011543D01*
X007077Y011561D01*
X007087Y011576D01*
X007100Y011589D01*
X007115Y011599D01*
X007133Y011606D01*
X007151Y011609D01*
X007151Y011600D01*
X007135Y011597D01*
X007119Y011591D01*
X007106Y011582D01*
X007094Y011570D01*
X007085Y011557D01*
X007079Y011541D01*
X007076Y011525D01*
X007032Y011016D02*
X007082Y011016D01*
X007081Y011015D02*
X007084Y011000D01*
X007089Y010986D01*
X007098Y010973D01*
X007109Y010962D01*
X007122Y010953D01*
X007136Y010948D01*
X007151Y010945D01*
X007152Y010896D01*
X007151Y010895D01*
X007130Y010898D01*
X007111Y010904D01*
X007092Y010913D01*
X007075Y010925D01*
X007061Y010939D01*
X007049Y010956D01*
X007040Y010975D01*
X007034Y010994D01*
X007031Y011015D01*
X007040Y011015D01*
X007043Y010996D01*
X007048Y010978D01*
X007056Y010961D01*
X007067Y010945D01*
X007081Y010931D01*
X007097Y010920D01*
X007114Y010912D01*
X007132Y010907D01*
X007151Y010904D01*
X007151Y010913D01*
X007131Y010916D01*
X007113Y010922D01*
X007096Y010932D01*
X007080Y010944D01*
X007068Y010960D01*
X007058Y010977D01*
X007052Y010995D01*
X007049Y011015D01*
X007058Y011015D01*
X007061Y010997D01*
X007066Y010980D01*
X007075Y010965D01*
X007087Y010951D01*
X007101Y010939D01*
X007116Y010930D01*
X007133Y010925D01*
X007151Y010922D01*
X007151Y010931D01*
X007133Y010934D01*
X007115Y010941D01*
X007100Y010951D01*
X007087Y010964D01*
X007077Y010979D01*
X007070Y010997D01*
X007067Y011015D01*
X007076Y011015D01*
X007079Y010999D01*
X007085Y010983D01*
X007094Y010970D01*
X007106Y010958D01*
X007119Y010949D01*
X007135Y010943D01*
X007151Y010940D01*
X004055Y008226D02*
X003930Y008075D01*
X003882Y008100D02*
X003857Y008075D01*
X003807Y008075D01*
X003782Y008100D01*
X003782Y008126D01*
X003807Y008151D01*
X003857Y008151D01*
X003882Y008126D01*
X003882Y008100D01*
X003857Y008151D02*
X003882Y008176D01*
X003882Y008201D01*
X003857Y008226D01*
X003807Y008226D01*
X003782Y008201D01*
X003782Y008176D01*
X003807Y008151D01*
X003734Y008075D02*
X003684Y008075D01*
X003709Y008075D02*
X003709Y008226D01*
X003684Y008226D01*
X003611Y008226D02*
X003611Y008251D01*
X003611Y008176D02*
X003611Y008075D01*
X003586Y008075D02*
X003636Y008075D01*
X003539Y008075D02*
X003539Y008151D01*
X003514Y008176D01*
X003489Y008151D01*
X003489Y008075D01*
X003439Y008075D02*
X003439Y008176D01*
X003464Y008176D01*
X003489Y008151D01*
X003586Y008176D02*
X003611Y008176D01*
X003586Y008375D02*
X003549Y008375D01*
X003567Y008375D02*
X003567Y008486D01*
X003549Y008486D01*
X003494Y008486D02*
X003494Y008504D01*
X003494Y008449D02*
X003494Y008375D01*
X003512Y008375D02*
X003475Y008375D01*
X003438Y008375D02*
X003438Y008431D01*
X003420Y008449D01*
X003402Y008431D01*
X003402Y008375D01*
X003365Y008375D02*
X003365Y008449D01*
X003383Y008449D01*
X003402Y008431D01*
X003475Y008449D02*
X003494Y008449D01*
X003623Y008449D02*
X003641Y008431D01*
X003678Y008431D01*
X003696Y008412D01*
X003696Y008394D01*
X003678Y008375D01*
X003641Y008375D01*
X003623Y008394D01*
X003623Y008412D01*
X003641Y008431D01*
X003623Y008449D02*
X003623Y008467D01*
X003641Y008486D01*
X003678Y008486D01*
X003696Y008467D01*
X003696Y008449D01*
X003678Y008431D01*
X003733Y008467D02*
X003733Y008486D01*
X003752Y008486D01*
X003752Y008467D01*
X003733Y008467D01*
X003733Y008375D02*
X003825Y008486D01*
X003825Y008394D02*
X003825Y008375D01*
X003807Y008375D01*
X003807Y008394D01*
X003825Y008394D01*
X003930Y008226D02*
X003930Y008201D01*
X003955Y008201D01*
X003955Y008226D01*
X003930Y008226D01*
X004030Y008100D02*
X004055Y008100D01*
X004055Y008075D01*
X004030Y008075D01*
X004030Y008100D01*
X003391Y008100D02*
X003391Y008126D01*
X003366Y008151D01*
X003291Y008151D01*
X003291Y008100D01*
X003316Y008075D01*
X003366Y008075D01*
X003391Y008100D01*
X003341Y008201D02*
X003291Y008151D01*
X003341Y008201D02*
X003391Y008226D01*
X003328Y008375D02*
X003254Y008375D01*
X003328Y008449D01*
X003328Y008467D01*
X003309Y008486D01*
X003273Y008486D01*
X003254Y008467D01*
X003181Y008486D02*
X003181Y008375D01*
X003217Y008375D02*
X003144Y008375D01*
X003144Y008449D02*
X003181Y008486D01*
X003194Y008226D02*
X003194Y008075D01*
X003144Y008075D02*
X003244Y008075D01*
X003144Y008176D02*
X003194Y008226D01*
D13*
X000877Y001472D02*
X000939Y001410D01*
X001062Y001410D01*
X001124Y001472D01*
X001124Y001533D01*
X001062Y001595D01*
X000939Y001595D01*
X000877Y001657D01*
X000877Y001718D01*
X000939Y001780D01*
X001062Y001780D01*
X001124Y001718D01*
X001245Y001718D02*
X001245Y001472D01*
X001307Y001410D01*
X001430Y001410D01*
X001492Y001472D01*
X001492Y001718D01*
X001430Y001780D01*
X001307Y001780D01*
X001245Y001718D01*
X001613Y001780D02*
X001613Y001410D01*
X001799Y001410D01*
X001860Y001472D01*
X001860Y001718D01*
X001799Y001780D01*
X001613Y001780D01*
X001982Y001780D02*
X001982Y001595D01*
X002105Y001657D01*
X002167Y001657D01*
X002229Y001595D01*
X002229Y001472D01*
X002167Y001410D01*
X002043Y001410D01*
X001982Y001472D01*
X001982Y001780D02*
X002229Y001780D01*
X002350Y001718D02*
X002412Y001780D01*
X002535Y001780D01*
X002597Y001718D01*
X002597Y001657D01*
X002350Y001410D01*
X002597Y001410D01*
X002718Y001472D02*
X002780Y001410D01*
X002904Y001410D01*
X002965Y001472D01*
X002965Y001533D01*
X002904Y001595D01*
X002842Y001595D01*
X002904Y001595D02*
X002965Y001657D01*
X002965Y001718D01*
X002904Y001780D01*
X002780Y001780D01*
X002718Y001718D01*
X002749Y003649D02*
X002749Y004019D01*
X002502Y004019D02*
X002502Y003649D01*
X002625Y003772D01*
X002749Y003649D01*
X002380Y003710D02*
X002319Y003649D01*
X002195Y003649D01*
X002133Y003710D01*
X002012Y003649D02*
X001765Y003649D01*
X002012Y003896D01*
X002012Y003957D01*
X001950Y004019D01*
X001827Y004019D01*
X001765Y003957D01*
X001644Y004019D02*
X001397Y004019D01*
X001520Y004019D02*
X001520Y003649D01*
X001275Y003710D02*
X001275Y003957D01*
X001214Y004019D01*
X001090Y004019D01*
X001029Y003957D01*
X001029Y003710D01*
X001090Y003649D01*
X001214Y003649D01*
X001275Y003710D01*
X000907Y003710D02*
X000845Y003649D01*
X000722Y003649D01*
X000660Y003710D01*
X000722Y003834D02*
X000845Y003834D01*
X000907Y003772D01*
X000907Y003710D01*
X000907Y003957D02*
X000845Y004019D01*
X000722Y004019D01*
X000660Y003957D01*
X000660Y003896D01*
X000722Y003834D01*
X000711Y005698D02*
X000588Y005698D01*
X000526Y005760D01*
X000588Y005884D02*
X000526Y005945D01*
X000526Y006007D01*
X000588Y006069D01*
X000711Y006069D01*
X000773Y006007D01*
X000894Y006007D02*
X000894Y005760D01*
X000956Y005698D01*
X001079Y005698D01*
X001141Y005760D01*
X001141Y006007D01*
X001079Y006069D01*
X000956Y006069D01*
X000894Y006007D01*
X000711Y005884D02*
X000773Y005822D01*
X000773Y005760D01*
X000711Y005698D01*
X000711Y005884D02*
X000588Y005884D01*
X001262Y006069D02*
X001509Y006069D01*
X001386Y006069D02*
X001386Y005698D01*
X001631Y005698D02*
X001878Y005945D01*
X001878Y006007D01*
X001816Y006069D01*
X001692Y006069D01*
X001631Y006007D01*
X001631Y005698D02*
X001878Y005698D01*
X001999Y005760D02*
X002061Y005698D01*
X002184Y005698D01*
X002246Y005760D01*
X002246Y005822D01*
X002184Y005884D01*
X002122Y005884D01*
X002184Y005884D02*
X002246Y005945D01*
X002246Y006007D01*
X002184Y006069D01*
X002061Y006069D01*
X001999Y006007D01*
X002367Y005884D02*
X002614Y005884D01*
X002736Y005884D02*
X002736Y005760D01*
X002797Y005698D01*
X002921Y005698D01*
X002983Y005760D01*
X002983Y005822D01*
X002921Y005884D01*
X002736Y005884D01*
X002859Y006007D01*
X002983Y006069D01*
X003154Y006027D02*
X003202Y006076D01*
X003299Y006076D01*
X003347Y006027D01*
X003347Y005979D01*
X003299Y005931D01*
X003347Y005882D01*
X003347Y005834D01*
X003299Y005785D01*
X003202Y005785D01*
X003154Y005834D01*
X003251Y005931D02*
X003299Y005931D01*
X003449Y006027D02*
X003497Y006076D01*
X003594Y006076D01*
X003642Y006027D01*
X003642Y005979D01*
X003449Y005785D01*
X003642Y005785D01*
X003743Y005785D02*
X003743Y005979D01*
X003792Y005979D01*
X003840Y005931D01*
X003888Y005979D01*
X003937Y005931D01*
X003937Y005785D01*
X003840Y005785D02*
X003840Y005931D01*
X004038Y005979D02*
X004086Y005979D01*
X004086Y005785D01*
X004038Y005785D02*
X004135Y005785D01*
X004234Y005785D02*
X004331Y005785D01*
X004283Y005785D02*
X004283Y006076D01*
X004234Y006076D01*
X004086Y006076D02*
X004086Y006124D01*
X004431Y006027D02*
X004431Y005979D01*
X004479Y005931D01*
X004576Y005931D01*
X004624Y005882D01*
X004624Y005834D01*
X004576Y005785D01*
X004479Y005785D01*
X004431Y005834D01*
X004431Y005882D01*
X004479Y005931D01*
X004576Y005931D02*
X004624Y005979D01*
X004624Y006027D01*
X004576Y006076D01*
X004479Y006076D01*
X004431Y006027D01*
X004321Y005717D02*
X004321Y005656D01*
X004321Y005532D02*
X004321Y005285D01*
X004382Y005285D02*
X004259Y005285D01*
X004137Y005285D02*
X004137Y005471D01*
X004076Y005532D01*
X004014Y005471D01*
X004014Y005285D01*
X003891Y005285D02*
X003891Y005532D01*
X003952Y005532D01*
X004014Y005471D01*
X004259Y005532D02*
X004321Y005532D01*
X004504Y005656D02*
X004566Y005656D01*
X004566Y005285D01*
X004504Y005285D02*
X004628Y005285D01*
X004750Y005347D02*
X004750Y005409D01*
X004812Y005471D01*
X004935Y005471D01*
X004997Y005409D01*
X004997Y005347D01*
X004935Y005285D01*
X004812Y005285D01*
X004750Y005347D01*
X004812Y005471D02*
X004750Y005532D01*
X004750Y005594D01*
X004812Y005656D01*
X004935Y005656D01*
X004997Y005594D01*
X004997Y005532D01*
X004935Y005471D01*
X004919Y005785D02*
X004967Y005785D01*
X004967Y005834D01*
X004919Y005834D01*
X004919Y005785D01*
X004725Y005785D02*
X004967Y006076D01*
X004774Y006076D02*
X004774Y006027D01*
X004725Y006027D01*
X004725Y006076D01*
X004774Y006076D01*
X005118Y005656D02*
X005118Y005594D01*
X005180Y005594D01*
X005180Y005656D01*
X005118Y005656D01*
X005427Y005656D02*
X005118Y005285D01*
X005365Y005285D02*
X005427Y005285D01*
X005427Y005347D01*
X005365Y005347D01*
X005365Y005285D01*
X006507Y006314D02*
X006507Y006452D01*
X006645Y006591D01*
X006922Y006591D01*
X007061Y006452D01*
X007061Y006314D01*
X006922Y006175D01*
X006645Y006175D01*
X006507Y006314D01*
X006645Y006591D02*
X006507Y006729D01*
X006507Y006868D01*
X006645Y007006D01*
X006922Y007006D01*
X007061Y006868D01*
X007061Y006729D01*
X006922Y006591D01*
X007299Y006591D02*
X007299Y006314D01*
X007437Y006175D01*
X007714Y006175D01*
X007852Y006314D01*
X007852Y006452D01*
X007714Y006591D01*
X007299Y006591D01*
X007576Y006868D01*
X007852Y007006D01*
X008091Y006729D02*
X008229Y006729D01*
X008367Y006591D01*
X008506Y006729D01*
X008644Y006591D01*
X008644Y006175D01*
X008882Y006175D02*
X009159Y006175D01*
X009021Y006175D02*
X009021Y006729D01*
X008882Y006729D01*
X009021Y007006D02*
X009021Y007145D01*
X009410Y007006D02*
X009549Y007006D01*
X009549Y006175D01*
X009510Y006118D02*
X009510Y006006D01*
X009410Y006175D02*
X009687Y006175D01*
X009828Y006006D02*
X009939Y006006D01*
X009939Y005335D01*
X009828Y005335D02*
X010051Y005335D01*
X010257Y005671D02*
X010704Y005671D01*
X010902Y005894D02*
X010902Y006006D01*
X011014Y006006D01*
X011014Y005894D01*
X010902Y005894D01*
X010730Y006175D02*
X011422Y007006D01*
X011422Y006314D02*
X011284Y006314D01*
X011284Y006175D01*
X011422Y006175D01*
X011422Y006314D01*
X011461Y006006D02*
X010902Y005335D01*
X010593Y005335D02*
X010593Y006006D01*
X010257Y005671D01*
X010354Y006175D02*
X010354Y007006D01*
X009938Y006591D01*
X010492Y006591D01*
X010730Y006868D02*
X010730Y007006D01*
X010868Y007006D01*
X010868Y006868D01*
X010730Y006868D01*
X011349Y005447D02*
X011461Y005447D01*
X011461Y005335D01*
X011349Y005335D01*
X011349Y005447D01*
X009621Y005335D02*
X009398Y005335D01*
X009510Y005335D02*
X009510Y005783D01*
X009398Y005783D01*
X009201Y005671D02*
X009201Y005335D01*
X008977Y005335D02*
X008977Y005671D01*
X009089Y005783D01*
X009201Y005671D01*
X008977Y005671D02*
X008865Y005783D01*
X008753Y005783D01*
X008753Y005335D01*
X008556Y005447D02*
X008444Y005335D01*
X008221Y005335D01*
X008109Y005447D01*
X008556Y005894D01*
X008556Y005447D01*
X008556Y005894D02*
X008444Y006006D01*
X008221Y006006D01*
X008109Y005894D01*
X008109Y005447D01*
X007911Y005894D02*
X007464Y005447D01*
X007464Y005335D01*
X007464Y006006D02*
X007911Y006006D01*
X007911Y005894D01*
X008091Y006175D02*
X008091Y006729D01*
X008367Y006591D02*
X008367Y006175D01*
X007699Y009559D02*
X007575Y009559D01*
X007514Y009621D01*
X007392Y009621D02*
X007330Y009559D01*
X007207Y009559D01*
X007145Y009621D01*
X007392Y009868D01*
X007392Y009621D01*
X007392Y009868D02*
X007330Y009929D01*
X007207Y009929D01*
X007145Y009868D01*
X007145Y009621D01*
X007024Y009621D02*
X007024Y009682D01*
X006962Y009744D01*
X006777Y009744D01*
X006777Y009621D01*
X006839Y009559D01*
X006962Y009559D01*
X007024Y009621D01*
X006777Y009744D02*
X006900Y009868D01*
X007024Y009929D01*
X007004Y010425D02*
X006942Y010487D01*
X007189Y010734D01*
X007189Y010487D01*
X007127Y010425D01*
X007004Y010425D01*
X006942Y010487D02*
X006942Y010734D01*
X007004Y010796D01*
X007127Y010796D01*
X007189Y010734D01*
X007310Y010734D02*
X007372Y010796D01*
X007496Y010796D01*
X007557Y010734D01*
X007557Y010672D01*
X007310Y010425D01*
X007557Y010425D01*
X007679Y010487D02*
X007926Y010734D01*
X007926Y010487D01*
X007864Y010425D01*
X007740Y010425D01*
X007679Y010487D01*
X007679Y010734D01*
X007740Y010796D01*
X007864Y010796D01*
X007926Y010734D01*
X008047Y010610D02*
X008294Y010610D01*
X008232Y010425D02*
X008232Y010796D01*
X008047Y010610D01*
X008415Y010425D02*
X008662Y010796D01*
X008784Y010796D02*
X008784Y010610D01*
X008907Y010672D01*
X008969Y010672D01*
X009030Y010610D01*
X009030Y010487D01*
X008969Y010425D01*
X008845Y010425D01*
X008784Y010487D01*
X008784Y010796D02*
X009030Y010796D01*
X009573Y010722D02*
X009573Y010475D01*
X009820Y010722D01*
X009820Y010475D01*
X009758Y010413D01*
X009635Y010413D01*
X009573Y010475D01*
X009573Y010722D02*
X009635Y010783D01*
X009758Y010783D01*
X009820Y010722D01*
X009942Y010722D02*
X010003Y010783D01*
X010127Y010783D01*
X010188Y010722D01*
X010188Y010660D01*
X009942Y010413D01*
X010188Y010413D01*
X010310Y010475D02*
X010557Y010722D01*
X010557Y010475D01*
X010495Y010413D01*
X010372Y010413D01*
X010310Y010475D01*
X010310Y010722D01*
X010372Y010783D01*
X010495Y010783D01*
X010557Y010722D01*
X010678Y010598D02*
X010925Y010598D01*
X011046Y010536D02*
X011046Y010783D01*
X010863Y010783D02*
X010678Y010598D01*
X010863Y010413D02*
X010863Y010783D01*
X011046Y010536D02*
X011170Y010413D01*
X011293Y010536D01*
X011293Y010783D01*
X011470Y010081D02*
X011347Y010019D01*
X011224Y009895D01*
X011409Y009895D01*
X011470Y009834D01*
X011470Y009772D01*
X011409Y009710D01*
X011285Y009710D01*
X011224Y009772D01*
X011224Y009895D01*
X011102Y010019D02*
X011102Y009772D01*
X011040Y009710D01*
X010917Y009710D01*
X010855Y009772D01*
X011102Y010019D01*
X011040Y010081D01*
X010917Y010081D01*
X010855Y010019D01*
X010855Y009772D01*
X010734Y009710D02*
X010487Y009710D01*
X010734Y009957D01*
X010734Y010019D01*
X010672Y010081D01*
X010549Y010081D01*
X010487Y010019D01*
X010242Y010081D02*
X010242Y009710D01*
X010119Y009710D02*
X010366Y009710D01*
X010119Y009957D02*
X010242Y010081D01*
X009482Y010023D02*
X009236Y010023D01*
X009236Y009838D01*
X009359Y009900D01*
X009421Y009900D01*
X009482Y009838D01*
X009482Y009715D01*
X009421Y009653D01*
X009297Y009653D01*
X009236Y009715D01*
X009114Y009715D02*
X009114Y009962D01*
X008867Y009715D01*
X008929Y009653D01*
X009052Y009653D01*
X009114Y009715D01*
X009114Y009962D02*
X009052Y010023D01*
X008929Y010023D01*
X008867Y009962D01*
X008867Y009715D01*
X008746Y009715D02*
X008684Y009653D01*
X008561Y009653D01*
X008499Y009715D01*
X008499Y009777D01*
X008561Y009838D01*
X008684Y009838D01*
X008746Y009777D01*
X008746Y009715D01*
X008684Y009838D02*
X008746Y009900D01*
X008746Y009962D01*
X008684Y010023D01*
X008561Y010023D01*
X008499Y009962D01*
X008499Y009900D01*
X008561Y009838D01*
X008378Y009715D02*
X008378Y009962D01*
X008131Y009715D01*
X008192Y009653D01*
X008316Y009653D01*
X008378Y009715D01*
X008378Y009962D02*
X008316Y010023D01*
X008192Y010023D01*
X008131Y009962D01*
X008131Y009715D01*
X007760Y009682D02*
X007760Y009621D01*
X007699Y009559D01*
X007760Y009682D02*
X007699Y009744D01*
X007637Y009744D01*
X007699Y009744D02*
X007760Y009806D01*
X007760Y009868D01*
X007699Y009929D01*
X007575Y009929D01*
X007514Y009868D01*
X006656Y009868D02*
X006656Y009621D01*
X006594Y009559D01*
X006470Y009559D01*
X006409Y009621D01*
X006656Y009868D01*
X006594Y009929D01*
X006470Y009929D01*
X006409Y009868D01*
X006409Y009621D01*
X006071Y009520D02*
X005825Y009520D01*
X006071Y009766D01*
X006071Y009828D01*
X006010Y009890D01*
X005886Y009890D01*
X005825Y009828D01*
X005703Y009828D02*
X005456Y009581D01*
X005518Y009520D01*
X005641Y009520D01*
X005703Y009581D01*
X005703Y009828D01*
X005641Y009890D01*
X005518Y009890D01*
X005456Y009828D01*
X005456Y009581D01*
X005335Y009705D02*
X005088Y009705D01*
X005273Y009890D01*
X005273Y009520D01*
X004966Y009581D02*
X004905Y009520D01*
X004781Y009520D01*
X004720Y009581D01*
X004966Y009828D01*
X004966Y009581D01*
X004966Y009828D02*
X004905Y009890D01*
X004781Y009890D01*
X004720Y009828D01*
X004720Y009581D01*
X005854Y010455D02*
X005854Y010640D01*
X005916Y010702D01*
X006040Y010702D01*
X006101Y010640D01*
X006101Y010455D01*
X006225Y010455D02*
X005854Y010455D01*
X005978Y010824D02*
X005854Y010947D01*
X005978Y011070D01*
X006225Y011070D01*
X006225Y011192D02*
X005854Y011192D01*
X006225Y011439D01*
X005854Y011439D01*
X006040Y011560D02*
X006040Y011807D01*
X006163Y011928D02*
X005916Y011928D01*
X005854Y011990D01*
X005854Y012114D01*
X005916Y012175D01*
X006163Y012175D02*
X006225Y012114D01*
X006225Y011990D01*
X006163Y011928D01*
X006040Y011070D02*
X006040Y010824D01*
X005978Y010824D02*
X006225Y010824D01*
X008749Y012687D02*
X008996Y012687D01*
X009118Y012687D02*
X009241Y012687D01*
X009179Y012687D02*
X009179Y013057D01*
X009118Y013057D02*
X009241Y013057D01*
X009363Y012934D02*
X009363Y012687D01*
X009363Y012872D02*
X009610Y012872D01*
X009610Y012934D02*
X009610Y012687D01*
X009731Y012748D02*
X009793Y012687D01*
X009917Y012687D01*
X009978Y012748D01*
X009978Y012810D01*
X009917Y012872D01*
X009855Y012872D01*
X009917Y012872D02*
X009978Y012934D01*
X009978Y012995D01*
X009917Y013057D01*
X009793Y013057D01*
X009731Y012995D01*
X009610Y012934D02*
X009487Y013057D01*
X009363Y012934D01*
X008996Y013057D02*
X008749Y013057D01*
X008749Y012687D01*
X008749Y012872D02*
X008873Y012872D01*
X010100Y012995D02*
X010161Y013057D01*
X010285Y013057D01*
X010347Y012995D01*
X010347Y012934D01*
X010100Y012687D01*
X010347Y012687D01*
X010468Y012687D02*
X010715Y012687D01*
X010591Y012687D02*
X010591Y013057D01*
X010468Y012934D01*
X010836Y012872D02*
X010836Y012748D01*
X010898Y012687D01*
X011021Y012687D01*
X011083Y012748D01*
X011083Y012810D01*
X011021Y012872D01*
X010836Y012872D01*
X010960Y012995D01*
X011083Y013057D01*
X011205Y013057D02*
X011390Y013057D01*
X011451Y012995D01*
X011451Y012872D01*
X011390Y012810D01*
X011205Y012810D01*
X011328Y012810D02*
X011451Y012687D01*
X011205Y012687D02*
X011205Y013057D01*
X011261Y014271D02*
X011508Y014271D01*
X011569Y014333D01*
X011569Y014456D01*
X011508Y014518D01*
X011569Y014639D02*
X011199Y014639D01*
X011261Y014518D02*
X011199Y014456D01*
X011199Y014333D01*
X011261Y014271D01*
X011384Y014639D02*
X011384Y014886D01*
X011199Y014886D02*
X011569Y014886D01*
X011569Y015007D02*
X011569Y015131D01*
X011569Y015069D02*
X011199Y015069D01*
X011199Y015007D02*
X011199Y015131D01*
X011199Y015253D02*
X011199Y015438D01*
X011261Y015500D01*
X011384Y015500D01*
X011446Y015438D01*
X011446Y015253D01*
X011569Y015253D02*
X011199Y015253D01*
X011199Y015621D02*
X011569Y015621D01*
X011569Y015868D01*
X011569Y015990D02*
X011569Y016236D01*
X011569Y016358D02*
X011569Y016543D01*
X011508Y016605D01*
X011261Y016605D01*
X011199Y016543D01*
X011199Y016358D01*
X011569Y016358D01*
X011384Y016113D02*
X011384Y015990D01*
X011199Y015990D02*
X011569Y015990D01*
X011199Y015990D02*
X011199Y016236D01*
X011631Y016726D02*
X011631Y016973D01*
X011508Y017095D02*
X011261Y017341D01*
X011508Y017341D01*
X011569Y017280D01*
X011569Y017156D01*
X011508Y017095D01*
X011261Y017095D01*
X011199Y017156D01*
X011199Y017280D01*
X011261Y017341D01*
X011384Y017463D02*
X011261Y017586D01*
X011199Y017710D01*
X011261Y017831D02*
X011199Y017893D01*
X011199Y018016D01*
X011261Y018078D01*
X011508Y017831D01*
X011569Y017893D01*
X011569Y018016D01*
X011508Y018078D01*
X011261Y018078D01*
X011261Y018199D02*
X011199Y018261D01*
X011199Y018385D01*
X011261Y018446D01*
X011322Y018446D01*
X011384Y018385D01*
X011446Y018446D01*
X011508Y018446D01*
X011569Y018385D01*
X011569Y018261D01*
X011508Y018199D01*
X011384Y018323D02*
X011384Y018385D01*
X011508Y017831D02*
X011261Y017831D01*
X011384Y017648D02*
X011384Y017463D01*
X011508Y017463D01*
X011569Y017525D01*
X011569Y017648D01*
X011508Y017710D01*
X011446Y017710D01*
X011384Y017648D01*
X006025Y019074D02*
X005964Y019012D01*
X005840Y019012D01*
X005779Y019074D01*
X005657Y019012D02*
X005410Y019012D01*
X005657Y019259D01*
X005657Y019321D01*
X005595Y019382D01*
X005472Y019382D01*
X005410Y019321D01*
X005165Y019382D02*
X005165Y019012D01*
X005042Y019012D02*
X005289Y019012D01*
X005042Y019259D02*
X005165Y019382D01*
X004920Y019321D02*
X004920Y019074D01*
X004859Y019012D01*
X004674Y019012D01*
X004674Y019382D01*
X004859Y019382D01*
X004920Y019321D01*
X004552Y019321D02*
X004552Y019074D01*
X004490Y019012D01*
X004367Y019012D01*
X004305Y019074D01*
X004305Y019321D01*
X004367Y019382D01*
X004490Y019382D01*
X004552Y019321D01*
X004184Y019321D02*
X004122Y019382D01*
X003999Y019382D01*
X003937Y019321D01*
X003937Y019259D01*
X003999Y019197D01*
X004122Y019197D01*
X004184Y019136D01*
X004184Y019074D01*
X004122Y019012D01*
X003999Y019012D01*
X003937Y019074D01*
X003573Y019143D02*
X003573Y018773D01*
X003450Y018896D01*
X003326Y018773D01*
X003326Y019143D01*
X003205Y019082D02*
X003205Y019020D01*
X003143Y018958D01*
X003205Y018896D01*
X003205Y018835D01*
X003143Y018773D01*
X003020Y018773D01*
X002958Y018835D01*
X002837Y018773D02*
X002590Y018773D01*
X002837Y019020D01*
X002837Y019082D01*
X002775Y019143D01*
X002652Y019143D01*
X002590Y019082D01*
X002468Y019082D02*
X002407Y019143D01*
X002283Y019143D01*
X002222Y019082D01*
X002100Y019143D02*
X001853Y019143D01*
X001977Y019143D02*
X001977Y018773D01*
X002222Y018773D02*
X002468Y019020D01*
X002468Y019082D01*
X002468Y018773D02*
X002222Y018773D01*
X001732Y018835D02*
X001732Y019082D01*
X001670Y019143D01*
X001547Y019143D01*
X001485Y019082D01*
X001485Y018835D01*
X001547Y018773D01*
X001670Y018773D01*
X001732Y018835D01*
X001363Y018835D02*
X001302Y018773D01*
X001178Y018773D01*
X001117Y018835D01*
X001178Y018958D02*
X001117Y019020D01*
X001117Y019082D01*
X001178Y019143D01*
X001302Y019143D01*
X001363Y019082D01*
X001302Y018958D02*
X001363Y018896D01*
X001363Y018835D01*
X001302Y018958D02*
X001178Y018958D01*
X002958Y019082D02*
X003020Y019143D01*
X003143Y019143D01*
X003205Y019082D01*
X003143Y018958D02*
X003082Y018958D01*
X005779Y019321D02*
X005840Y019382D01*
X005964Y019382D01*
X006025Y019321D01*
X006025Y019259D01*
X005964Y019197D01*
X006025Y019136D01*
X006025Y019074D01*
X005964Y019197D02*
X005902Y019197D01*
X001903Y014317D02*
X001965Y014255D01*
X001965Y014132D01*
X001903Y014070D01*
X001656Y014317D01*
X001903Y014317D01*
X001656Y014317D02*
X001594Y014255D01*
X001594Y014132D01*
X001656Y014070D01*
X001903Y014070D01*
X001965Y013949D02*
X001965Y013702D01*
X001965Y013825D02*
X001594Y013825D01*
X001718Y013702D01*
X001594Y013580D02*
X001965Y013333D01*
X001656Y013212D02*
X001903Y012965D01*
X001965Y012965D01*
X001903Y012844D02*
X001965Y012782D01*
X001965Y012659D01*
X001903Y012597D01*
X001656Y012844D01*
X001903Y012844D01*
X001903Y012597D02*
X001656Y012597D01*
X001594Y012659D01*
X001594Y012782D01*
X001656Y012844D01*
X001594Y012965D02*
X001594Y013212D01*
X001656Y013212D01*
X001656Y012475D02*
X001594Y012414D01*
X001594Y012290D01*
X001656Y012229D01*
X001656Y012107D02*
X001903Y011860D01*
X001965Y011922D01*
X001965Y012045D01*
X001903Y012107D01*
X001656Y012107D01*
X001594Y012045D01*
X001594Y011922D01*
X001656Y011860D01*
X001903Y011860D01*
X001965Y012229D02*
X001718Y012475D01*
X001656Y012475D01*
X001965Y012475D02*
X001965Y012229D01*
X003339Y005656D02*
X003154Y005471D01*
X003401Y005471D01*
X003522Y005594D02*
X003522Y005347D01*
X003769Y005594D01*
X003769Y005347D01*
X003707Y005285D01*
X003584Y005285D01*
X003522Y005347D01*
X003522Y005594D02*
X003584Y005656D01*
X003707Y005656D01*
X003769Y005594D01*
X003339Y005656D02*
X003339Y005285D01*
X002319Y004019D02*
X002380Y003957D01*
X002380Y003896D01*
X002319Y003834D01*
X002380Y003772D01*
X002380Y003710D01*
X002319Y003834D02*
X002257Y003834D01*
X002133Y003957D02*
X002195Y004019D01*
X002319Y004019D01*
D14*
X003159Y004051D02*
X003332Y004137D01*
X003419Y004137D01*
X003506Y004051D01*
X003506Y003877D01*
X003419Y003790D01*
X003246Y003790D01*
X003159Y003877D01*
X003159Y004051D02*
X003159Y004311D01*
X003506Y004311D01*
X003389Y004540D02*
X003236Y004540D01*
X003159Y004617D01*
X003159Y004771D02*
X003312Y004847D01*
X003389Y004847D01*
X003466Y004771D01*
X003466Y004617D01*
X003389Y004540D01*
X003619Y004617D02*
X003926Y004924D01*
X003926Y004617D01*
X003849Y004540D01*
X003696Y004540D01*
X003619Y004617D01*
X003619Y004924D01*
X003696Y005001D01*
X003849Y005001D01*
X003926Y004924D01*
X004080Y004847D02*
X004156Y004847D01*
X004233Y004771D01*
X004310Y004847D01*
X004387Y004771D01*
X004387Y004540D01*
X004540Y004540D02*
X004693Y004540D01*
X004617Y004540D02*
X004617Y004847D01*
X004540Y004847D01*
X004617Y005001D02*
X004617Y005078D01*
X004847Y005001D02*
X004924Y005001D01*
X004924Y004540D01*
X005000Y004540D02*
X004847Y004540D01*
X004793Y004398D02*
X004793Y004311D01*
X004793Y004137D02*
X004793Y003790D01*
X004879Y003790D02*
X004706Y003790D01*
X004537Y003790D02*
X004537Y004051D01*
X004450Y004137D01*
X004364Y004051D01*
X004364Y003790D01*
X004190Y003790D02*
X004190Y004137D01*
X004277Y004137D01*
X004364Y004051D01*
X004022Y003964D02*
X003935Y004051D01*
X003675Y004051D01*
X003675Y003877D01*
X003761Y003790D01*
X003935Y003790D01*
X004022Y003877D01*
X004022Y003964D01*
X003848Y004224D02*
X003675Y004051D01*
X003848Y004224D02*
X004022Y004311D01*
X004080Y004540D02*
X004080Y004847D01*
X004233Y004771D02*
X004233Y004540D01*
X004706Y004137D02*
X004793Y004137D01*
X005050Y004311D02*
X005136Y004311D01*
X005136Y003790D01*
X005050Y003790D02*
X005223Y003790D01*
X005393Y003877D02*
X005393Y003964D01*
X005480Y004051D01*
X005654Y004051D01*
X005740Y003964D01*
X005740Y003877D01*
X005654Y003790D01*
X005480Y003790D01*
X005393Y003877D01*
X005480Y004051D02*
X005393Y004137D01*
X005393Y004224D01*
X005480Y004311D01*
X005654Y004311D01*
X005740Y004224D01*
X005740Y004137D01*
X005654Y004051D01*
X005909Y004224D02*
X005909Y004311D01*
X005996Y004311D01*
X005996Y004224D01*
X005909Y004224D01*
X005921Y004540D02*
X005998Y004540D01*
X005998Y004617D01*
X005921Y004617D01*
X005921Y004540D01*
X005614Y004540D02*
X005998Y005001D01*
X005691Y005001D02*
X005691Y004924D01*
X005614Y004924D01*
X005614Y005001D01*
X005691Y005001D01*
X005461Y004924D02*
X005461Y004847D01*
X005384Y004771D01*
X005231Y004771D01*
X005154Y004847D01*
X005154Y004924D01*
X005231Y005001D01*
X005384Y005001D01*
X005461Y004924D01*
X005384Y004771D02*
X005461Y004694D01*
X005461Y004617D01*
X005384Y004540D01*
X005231Y004540D01*
X005154Y004617D01*
X005154Y004694D01*
X005231Y004771D01*
X005909Y003790D02*
X006343Y004311D01*
X006343Y003877D02*
X006256Y003877D01*
X006256Y003790D01*
X006343Y003790D01*
X006343Y003877D01*
X006154Y007290D02*
X005834Y007290D01*
X005674Y007451D01*
X006314Y008091D01*
X006314Y007451D01*
X006154Y007290D01*
X006595Y007451D02*
X007235Y008091D01*
X007235Y007451D01*
X007075Y007290D01*
X006755Y007290D01*
X006595Y007451D01*
X006595Y008091D01*
X006755Y008251D01*
X007075Y008251D01*
X007235Y008091D01*
X007515Y007931D02*
X007675Y007931D01*
X007836Y007771D01*
X007996Y007931D01*
X008156Y007771D01*
X008156Y007290D01*
X008436Y007290D02*
X008756Y007290D01*
X008596Y007290D02*
X008596Y007931D01*
X008436Y007931D01*
X008596Y008251D02*
X008596Y008411D01*
X009050Y008251D02*
X009210Y008251D01*
X009210Y007290D01*
X009050Y007290D02*
X009370Y007290D01*
X009664Y007771D02*
X010304Y007771D01*
X010584Y008091D02*
X010584Y008251D01*
X010745Y008251D01*
X010745Y008091D01*
X010584Y008091D01*
X010144Y008251D02*
X009664Y007771D01*
X010144Y008251D02*
X010144Y007290D01*
X010584Y007290D02*
X011385Y008251D01*
X011385Y007451D02*
X011225Y007451D01*
X011225Y007290D01*
X011385Y007290D01*
X011385Y007451D01*
X007836Y007290D02*
X007836Y007771D01*
X007515Y007931D02*
X007515Y007290D01*
X006314Y008091D02*
X006154Y008251D01*
X005834Y008251D01*
X005674Y008091D01*
X005674Y007451D01*
X005394Y007290D02*
X004753Y007290D01*
X005073Y007290D02*
X005073Y008251D01*
X004753Y007931D01*
X004389Y010558D02*
X003740Y010558D01*
X003740Y012074D01*
X004271Y012606D01*
X004389Y012606D01*
X005137Y012606D02*
X005256Y012606D01*
X005787Y012074D01*
X005787Y010558D01*
X005137Y010558D01*
X003466Y005001D02*
X003159Y005001D01*
X003159Y004771D01*
D15*
X003169Y003441D02*
X003596Y003441D01*
X003596Y003334D01*
X003169Y002907D01*
X003169Y002800D01*
X002506Y002595D02*
X002506Y003012D01*
X002003Y002492D02*
X001765Y002492D01*
X001267Y002595D02*
X001267Y003012D01*
X001371Y004641D02*
X001373Y004653D01*
X001378Y004664D01*
X001387Y004673D01*
X001398Y004678D01*
X001410Y004680D01*
X001422Y004678D01*
X001433Y004673D01*
X001442Y004664D01*
X001447Y004653D01*
X001449Y004641D01*
X001447Y004629D01*
X001442Y004618D01*
X001433Y004609D01*
X001422Y004604D01*
X001410Y004602D01*
X001398Y004604D01*
X001387Y004609D01*
X001378Y004618D01*
X001373Y004629D01*
X001371Y004641D01*
X003814Y003334D02*
X003814Y002907D01*
X004241Y003334D01*
X004241Y002907D01*
X004134Y002800D01*
X003920Y002800D01*
X003814Y002907D01*
X003814Y003334D02*
X003920Y003441D01*
X004134Y003441D01*
X004241Y003334D01*
X004458Y003227D02*
X004565Y003227D01*
X004672Y003121D01*
X004778Y003227D01*
X004885Y003121D01*
X004885Y002800D01*
X004672Y002800D02*
X004672Y003121D01*
X004458Y003227D02*
X004458Y002800D01*
X005103Y002800D02*
X005316Y002800D01*
X005209Y002800D02*
X005209Y003227D01*
X005103Y003227D01*
X005209Y003441D02*
X005209Y003548D01*
X005532Y003441D02*
X005639Y003441D01*
X005639Y002800D01*
X005532Y002800D02*
X005746Y002800D01*
X005962Y002907D02*
X005962Y003014D01*
X006069Y003121D01*
X006282Y003121D01*
X006389Y003014D01*
X006389Y002907D01*
X006282Y002800D01*
X006069Y002800D01*
X005962Y002907D01*
X006069Y003121D02*
X005962Y003227D01*
X005962Y003334D01*
X006069Y003441D01*
X006282Y003441D01*
X006389Y003334D01*
X006389Y003227D01*
X006282Y003121D01*
X006606Y003334D02*
X006606Y003441D01*
X006713Y003441D01*
X006713Y003334D01*
X006606Y003334D01*
X006606Y002800D02*
X007140Y003441D01*
X007140Y002907D02*
X007140Y002800D01*
X007033Y002800D01*
X007033Y002907D01*
X007140Y002907D01*
X007861Y003580D02*
X008002Y003412D01*
X008105Y003403D01*
X008218Y003497D01*
X008227Y003600D01*
X008085Y003769D01*
X008198Y003863D02*
X007861Y003580D01*
X007753Y003708D02*
X007612Y003877D01*
X007621Y003980D01*
X007724Y003971D01*
X007866Y003802D01*
X007922Y003850D02*
X007753Y003708D01*
X007922Y003850D02*
X007931Y003953D01*
X007837Y004065D01*
X007752Y004395D02*
X007415Y004112D01*
X007367Y004168D02*
X007462Y004056D01*
X007260Y004296D02*
X007429Y004437D01*
X007438Y004541D01*
X007334Y004550D01*
X007166Y004408D01*
X007071Y004521D02*
X007296Y004709D01*
X007344Y004653D01*
X007334Y004550D01*
X007133Y004790D02*
X007142Y004893D01*
X007048Y005006D01*
X006944Y005015D01*
X006832Y004921D01*
X006823Y004817D01*
X006917Y004705D01*
X007021Y004696D01*
X007133Y004790D01*
X006837Y005143D02*
X006846Y005246D01*
X006752Y005359D01*
X006648Y005368D01*
X006536Y005273D01*
X006527Y005170D01*
X006621Y005057D01*
X006725Y005048D01*
X006837Y005143D01*
X006599Y005540D02*
X006552Y005596D01*
X006346Y005614D01*
X006233Y005520D02*
X006458Y005709D01*
X006420Y005982D02*
X006083Y005699D01*
X006036Y005755D02*
X006130Y005643D01*
X005933Y005878D02*
X005839Y005990D01*
X005886Y005934D02*
X006223Y006217D01*
X006176Y006273D01*
X006373Y006038D02*
X006420Y005982D01*
X005900Y006260D02*
X005731Y006118D01*
X005590Y006287D01*
X005599Y006390D01*
X005702Y006381D01*
X005844Y006212D01*
X005900Y006260D02*
X005909Y006363D01*
X005815Y006475D01*
X005604Y006612D02*
X005613Y006716D01*
X005510Y006725D01*
X005341Y006583D01*
X005247Y006696D02*
X005472Y006884D01*
X005519Y006828D01*
X005510Y006725D01*
X005604Y006612D02*
X005436Y006471D01*
X005196Y006871D02*
X005205Y006974D01*
X005110Y007086D01*
X005120Y007190D01*
X005223Y007181D01*
X005364Y007012D01*
X005196Y006871D02*
X005092Y006880D01*
X004951Y007048D01*
X007705Y004451D02*
X007752Y004395D01*
X008325Y003369D02*
X008429Y003360D01*
X008570Y003191D01*
X008410Y003153D02*
X008316Y003266D01*
X008325Y003369D01*
X008156Y003228D02*
X008298Y003059D01*
X008401Y003050D01*
X008410Y003153D01*
X008509Y002922D02*
X008452Y002875D01*
X008500Y002819D01*
X008556Y002866D01*
X008509Y002922D01*
X008656Y002746D02*
X008647Y002642D01*
X008789Y002474D01*
X008952Y002393D02*
X008943Y002290D01*
X009038Y002177D01*
X009141Y002168D01*
X009254Y002263D01*
X009263Y002366D01*
X009168Y002478D01*
X009065Y002487D01*
X008952Y002393D01*
X009014Y002662D02*
X008872Y002831D01*
X008769Y002840D01*
X008656Y002746D01*
X009192Y001993D02*
X009417Y002182D01*
X009464Y002126D01*
X009455Y002022D01*
X009558Y002013D01*
X009549Y001910D01*
X009381Y001768D01*
X009286Y001881D02*
X009455Y002022D01*
X008356Y010920D02*
X008256Y010920D01*
X008206Y010970D01*
X007306Y010970D01*
X007256Y010920D01*
X007156Y010920D01*
X007306Y011570D02*
X007256Y011620D01*
X007156Y011620D01*
X007306Y011570D02*
X008206Y011570D01*
X008256Y011620D01*
X008356Y011620D01*
X009056Y017771D02*
X008876Y017961D01*
X009036Y018201D01*
X009058Y018174D02*
X009481Y018174D01*
X009459Y018116D02*
X009023Y018116D01*
X008987Y018057D02*
X009437Y018057D01*
X009415Y017999D02*
X008952Y017999D01*
X008936Y017971D02*
X009086Y018221D01*
X008986Y018471D01*
X008686Y018571D01*
X008686Y018521D01*
X008686Y018771D01*
X008986Y018821D01*
X009086Y019121D01*
X008886Y019321D01*
X009036Y019471D01*
X009336Y019321D01*
X009636Y019471D01*
X009586Y019471D01*
X009636Y019721D01*
X009886Y019721D01*
X009886Y019421D01*
X010186Y019321D01*
X010436Y019471D01*
X010586Y019371D01*
X010436Y019071D01*
X010536Y018821D01*
X010836Y018771D01*
X010836Y018521D01*
X010536Y018521D01*
X010436Y018171D01*
X010586Y017971D01*
X010436Y017821D01*
X010236Y017971D01*
X010136Y017921D01*
X009936Y018321D01*
X010136Y018521D01*
X010136Y018771D01*
X009986Y019021D01*
X009736Y019071D01*
X009436Y018971D01*
X009486Y018971D01*
X009336Y018721D01*
X009436Y018421D01*
X009536Y018321D01*
X009386Y017921D01*
X009286Y017971D01*
X009086Y017821D01*
X008936Y017971D01*
X008967Y017940D02*
X009244Y017940D01*
X009296Y017941D02*
X009056Y017771D01*
X009084Y017823D02*
X009088Y017823D01*
X009025Y017882D02*
X009166Y017882D01*
X009296Y017941D02*
X009396Y017881D01*
X009596Y018331D01*
X009525Y018291D02*
X009058Y018291D01*
X009081Y018233D02*
X009503Y018233D01*
X009507Y018350D02*
X009034Y018350D01*
X009011Y018409D02*
X009449Y018409D01*
X009421Y018467D02*
X008988Y018467D01*
X008936Y018471D02*
X008636Y018521D01*
X008636Y018781D01*
X008936Y018841D01*
X008968Y018818D02*
X009394Y018818D01*
X009359Y018760D02*
X008686Y018760D01*
X008686Y018701D02*
X009343Y018701D01*
X009362Y018643D02*
X008686Y018643D01*
X008686Y018584D02*
X009382Y018584D01*
X009401Y018526D02*
X008823Y018526D01*
X009004Y018877D02*
X009429Y018877D01*
X009464Y018935D02*
X009024Y018935D01*
X009043Y018994D02*
X009504Y018994D01*
X009680Y019053D02*
X009063Y019053D01*
X009046Y019091D02*
X008866Y019351D01*
X009056Y019531D01*
X009316Y019351D01*
X009288Y019345D02*
X008910Y019345D01*
X008920Y019287D02*
X010544Y019287D01*
X010573Y019345D02*
X010226Y019345D01*
X010186Y019351D02*
X010446Y019531D01*
X010636Y019351D01*
X010456Y019091D01*
X010456Y019111D02*
X009082Y019111D01*
X009038Y019170D02*
X010485Y019170D01*
X010514Y019228D02*
X008979Y019228D01*
X008968Y019404D02*
X009171Y019404D01*
X009054Y019462D02*
X009027Y019462D01*
X009384Y019345D02*
X010114Y019345D01*
X009938Y019404D02*
X009501Y019404D01*
X009566Y019451D02*
X009616Y019771D01*
X009886Y019771D01*
X009936Y019451D01*
X009886Y019462D02*
X009618Y019462D01*
X009596Y019521D02*
X009886Y019521D01*
X009886Y019579D02*
X009607Y019579D01*
X009619Y019638D02*
X009886Y019638D01*
X009886Y019696D02*
X009631Y019696D01*
X009830Y019053D02*
X010443Y019053D01*
X010467Y018994D02*
X010002Y018994D01*
X010037Y018935D02*
X010490Y018935D01*
X010514Y018877D02*
X010073Y018877D01*
X010108Y018818D02*
X010553Y018818D01*
X010566Y018841D02*
X010866Y018781D01*
X010866Y018521D01*
X010566Y018471D01*
X010520Y018467D02*
X010082Y018467D01*
X010136Y018526D02*
X010836Y018526D01*
X010836Y018584D02*
X010136Y018584D01*
X010136Y018643D02*
X010836Y018643D01*
X010836Y018701D02*
X010136Y018701D01*
X010136Y018760D02*
X010836Y018760D01*
X010504Y018409D02*
X010023Y018409D01*
X009965Y018350D02*
X010487Y018350D01*
X010470Y018291D02*
X009951Y018291D01*
X009916Y018331D02*
X010106Y017881D01*
X010206Y017941D01*
X010446Y017771D01*
X010636Y017961D01*
X010466Y018201D01*
X010454Y018233D02*
X009980Y018233D01*
X010009Y018174D02*
X010437Y018174D01*
X010477Y018116D02*
X010039Y018116D01*
X010068Y018057D02*
X010521Y018057D01*
X010565Y017999D02*
X010097Y017999D01*
X010126Y017940D02*
X010174Y017940D01*
X010277Y017940D02*
X010555Y017940D01*
X010496Y017882D02*
X010355Y017882D01*
X010433Y017823D02*
X010438Y017823D01*
X010466Y018201D02*
X010489Y018242D01*
X010510Y018285D01*
X010528Y018330D01*
X010543Y018375D01*
X010556Y018421D01*
X010566Y018468D01*
X010565Y018842D02*
X010550Y018894D01*
X010531Y018945D01*
X010509Y018995D01*
X010484Y019043D01*
X010455Y019090D01*
X010537Y019404D02*
X010323Y019404D01*
X010421Y019462D02*
X010449Y019462D01*
X009916Y018341D02*
X009949Y018359D01*
X009979Y018380D01*
X010008Y018404D01*
X010034Y018431D01*
X010056Y018460D01*
X010076Y018492D01*
X010093Y018525D01*
X010106Y018560D01*
X010115Y018596D01*
X010121Y018633D01*
X010123Y018670D01*
X010121Y018707D01*
X010116Y018744D01*
X010106Y018780D01*
X010094Y018815D01*
X010077Y018849D01*
X010058Y018880D01*
X010035Y018910D01*
X010009Y018937D01*
X009981Y018961D01*
X009950Y018982D01*
X009918Y019000D01*
X009884Y019015D01*
X009848Y019026D01*
X009812Y019034D01*
X009775Y019038D01*
X009737Y019038D01*
X009700Y019034D01*
X009664Y019026D01*
X009628Y019015D01*
X009594Y019000D01*
X009562Y018982D01*
X009531Y018961D01*
X009503Y018937D01*
X009477Y018910D01*
X009454Y018880D01*
X009435Y018849D01*
X009418Y018815D01*
X009406Y018780D01*
X009396Y018744D01*
X009391Y018707D01*
X009389Y018670D01*
X009391Y018633D01*
X009397Y018596D01*
X009406Y018560D01*
X009419Y018525D01*
X009436Y018492D01*
X009456Y018460D01*
X009478Y018431D01*
X009504Y018404D01*
X009533Y018380D01*
X009563Y018359D01*
X009596Y018341D01*
X009040Y018204D02*
X009012Y018254D01*
X008988Y018306D01*
X008967Y018359D01*
X008950Y018414D01*
X008937Y018470D01*
X009348Y017940D02*
X009393Y017940D01*
X009319Y019354D02*
X009364Y019379D01*
X009411Y019402D01*
X009459Y019421D01*
X009508Y019438D01*
X009558Y019451D01*
X009047Y019086D02*
X009020Y019040D01*
X008996Y018992D01*
X008975Y018943D01*
X008957Y018892D01*
X008943Y018841D01*
X009941Y019454D02*
X009993Y019440D01*
X010044Y019423D01*
X010094Y019403D01*
X010143Y019380D01*
X010190Y019353D01*
X001430Y013980D02*
X001430Y013830D01*
X001380Y013780D01*
X001380Y011880D01*
X001430Y011830D01*
X001430Y011680D01*
X001428Y011663D01*
X001424Y011646D01*
X001417Y011630D01*
X001407Y011616D01*
X001394Y011603D01*
X001380Y011593D01*
X001364Y011586D01*
X001347Y011582D01*
X001330Y011580D01*
X000630Y011580D01*
X000613Y011582D01*
X000596Y011586D01*
X000580Y011593D01*
X000566Y011603D01*
X000553Y011616D01*
X000543Y011630D01*
X000536Y011646D01*
X000532Y011663D01*
X000530Y011680D01*
X000530Y011830D01*
X000580Y011880D01*
X000580Y013780D01*
X000530Y013830D01*
X000530Y013980D01*
X000532Y013997D01*
X000536Y014014D01*
X000543Y014030D01*
X000553Y014044D01*
X000566Y014057D01*
X000580Y014067D01*
X000596Y014074D01*
X000613Y014078D01*
X000630Y014080D01*
X001330Y014080D01*
X001347Y014078D01*
X001364Y014074D01*
X001380Y014067D01*
X001394Y014057D01*
X001407Y014044D01*
X001417Y014030D01*
X001424Y014014D01*
X001428Y013997D01*
X001430Y013980D01*
D16*
X005681Y002728D02*
X005681Y002596D01*
X005681Y002333D02*
X005681Y001805D01*
X005550Y001805D02*
X005813Y001805D01*
X006077Y001805D02*
X006341Y001805D01*
X006209Y001805D02*
X006209Y002596D01*
X006077Y002596D01*
X005681Y002333D02*
X005550Y002333D01*
X005285Y002201D02*
X005285Y001805D01*
X005021Y001805D02*
X005021Y002201D01*
X005153Y002333D01*
X005285Y002201D01*
X005021Y002201D02*
X004889Y002333D01*
X004758Y002333D01*
X004758Y001805D01*
X004493Y001937D02*
X004493Y002069D01*
X004361Y002201D01*
X003966Y002201D01*
X003966Y001937D01*
X004098Y001805D01*
X004361Y001805D01*
X004493Y001937D01*
X004229Y002464D02*
X003966Y002201D01*
X003701Y002333D02*
X003701Y002464D01*
X003569Y002596D01*
X003306Y002596D01*
X003174Y002464D01*
X003174Y002333D01*
X003306Y002201D01*
X003569Y002201D01*
X003701Y002069D01*
X003701Y001937D01*
X003569Y001805D01*
X003306Y001805D01*
X003174Y001937D01*
X003174Y002069D01*
X003306Y002201D01*
X003569Y002201D02*
X003701Y002333D01*
X004229Y002464D02*
X004493Y002596D01*
X006605Y002464D02*
X006605Y002333D01*
X006737Y002201D01*
X007001Y002201D01*
X007132Y002069D01*
X007132Y001937D01*
X007001Y001805D01*
X006737Y001805D01*
X006605Y001937D01*
X006605Y002069D01*
X006737Y002201D01*
X007001Y002201D02*
X007132Y002333D01*
X007132Y002464D01*
X007001Y002596D01*
X006737Y002596D01*
X006605Y002464D01*
X007397Y002464D02*
X007397Y002596D01*
X007529Y002596D01*
X007529Y002464D01*
X007397Y002464D01*
X007397Y001805D02*
X008056Y002596D01*
X008056Y001937D02*
X007924Y001937D01*
X007924Y001805D01*
X008056Y001805D01*
X008056Y001937D01*
D17*
X008243Y001481D02*
X008550Y001481D01*
X008703Y001328D01*
X008703Y001174D01*
X008550Y001021D01*
X008243Y001021D01*
X008090Y001174D01*
X008090Y001328D01*
X008243Y001481D01*
X008243Y001021D02*
X008090Y000867D01*
X008090Y000714D01*
X008243Y000560D01*
X008550Y000560D01*
X008703Y000714D01*
X008703Y000867D01*
X008550Y001021D01*
X009010Y001328D02*
X009010Y001481D01*
X009164Y001481D01*
X009164Y001328D01*
X009010Y001328D01*
X009010Y000560D02*
X009778Y001481D01*
X009778Y000714D02*
X009624Y000714D01*
X009624Y000560D01*
X009778Y000560D01*
X009778Y000714D01*
X007783Y000560D02*
X007476Y000560D01*
X007629Y000560D02*
X007629Y001481D01*
X007476Y001481D01*
X007015Y001481D02*
X007015Y001635D01*
X007015Y001174D02*
X006862Y001174D01*
X007015Y001174D02*
X007015Y000560D01*
X006862Y000560D02*
X007169Y000560D01*
X006555Y000560D02*
X006555Y001021D01*
X006402Y001174D01*
X006248Y001021D01*
X006248Y000560D01*
X005941Y000560D02*
X005941Y001174D01*
X006095Y001174D01*
X006248Y001021D01*
X005634Y001328D02*
X005634Y000714D01*
X005481Y000560D01*
X005174Y000560D01*
X005020Y000714D01*
X005634Y001328D01*
X005481Y001481D01*
X005174Y001481D01*
X005020Y001328D01*
X005020Y000714D01*
X004714Y000714D02*
X004560Y000560D01*
X004253Y000560D01*
X004100Y000714D01*
X004714Y001328D01*
X004714Y000714D01*
X004714Y001328D02*
X004560Y001481D01*
X004253Y001481D01*
X004100Y001328D01*
X004100Y000714D01*
X003793Y000560D02*
X003179Y000560D01*
X003486Y000560D02*
X003486Y001481D01*
X003179Y001174D01*
D18*
X001472Y008902D02*
X001474Y008952D01*
X001480Y009002D01*
X001490Y009051D01*
X001504Y009099D01*
X001521Y009146D01*
X001542Y009191D01*
X001567Y009235D01*
X001595Y009276D01*
X001627Y009315D01*
X001661Y009352D01*
X001698Y009386D01*
X001738Y009416D01*
X001780Y009443D01*
X001824Y009467D01*
X001870Y009488D01*
X001917Y009504D01*
X001965Y009517D01*
X002015Y009526D01*
X002064Y009531D01*
X002115Y009532D01*
X002165Y009529D01*
X002214Y009522D01*
X002263Y009511D01*
X002311Y009496D01*
X002357Y009478D01*
X002402Y009456D01*
X002445Y009430D01*
X002486Y009401D01*
X002525Y009369D01*
X002561Y009334D01*
X002593Y009296D01*
X002623Y009256D01*
X002650Y009213D01*
X002673Y009169D01*
X002692Y009123D01*
X002708Y009075D01*
X002720Y009026D01*
X002728Y008977D01*
X002732Y008927D01*
X002732Y008877D01*
X002728Y008827D01*
X002720Y008778D01*
X002708Y008729D01*
X002692Y008681D01*
X002673Y008635D01*
X002650Y008591D01*
X002623Y008548D01*
X002593Y008508D01*
X002561Y008470D01*
X002525Y008435D01*
X002486Y008403D01*
X002445Y008374D01*
X002402Y008348D01*
X002357Y008326D01*
X002311Y008308D01*
X002263Y008293D01*
X002214Y008282D01*
X002165Y008275D01*
X002115Y008272D01*
X002064Y008273D01*
X002015Y008278D01*
X001965Y008287D01*
X001917Y008300D01*
X001870Y008316D01*
X001824Y008337D01*
X001780Y008361D01*
X001738Y008388D01*
X001698Y008418D01*
X001661Y008452D01*
X001627Y008489D01*
X001595Y008528D01*
X001567Y008569D01*
X001542Y008613D01*
X001521Y008658D01*
X001504Y008705D01*
X001490Y008753D01*
X001480Y008802D01*
X001474Y008852D01*
X001472Y008902D01*
X010921Y000481D02*
X010961Y000521D01*
X010961Y000400D01*
X010921Y000400D02*
X011001Y000400D01*
X011031Y000400D02*
X011111Y000481D01*
X011111Y000501D01*
X011091Y000521D01*
X011051Y000521D01*
X011031Y000501D01*
X011031Y000400D02*
X011111Y000400D01*
X011142Y000400D02*
X011142Y000481D01*
X011162Y000481D01*
X011182Y000461D01*
X011202Y000481D01*
X011222Y000461D01*
X011222Y000400D01*
X011252Y000400D02*
X011292Y000400D01*
X011272Y000400D02*
X011272Y000481D01*
X011252Y000481D01*
X011272Y000521D02*
X011272Y000541D01*
X011326Y000521D02*
X011346Y000521D01*
X011346Y000400D01*
X011326Y000400D02*
X011366Y000400D01*
X011400Y000461D02*
X011480Y000461D01*
X011510Y000501D02*
X011510Y000521D01*
X011530Y000521D01*
X011530Y000501D01*
X011510Y000501D01*
X011460Y000521D02*
X011400Y000461D01*
X011460Y000521D02*
X011460Y000400D01*
X011510Y000400D02*
X011610Y000521D01*
X011610Y000420D02*
X011610Y000400D01*
X011590Y000400D01*
X011590Y000420D01*
X011610Y000420D01*
X011182Y000400D02*
X011182Y000461D01*
D19*
X006812Y013236D03*
D20*
X006805Y013250D03*
D21*
X006812Y013264D03*
D22*
X006812Y013278D03*
X008814Y015280D03*
X008828Y015308D03*
X008828Y015322D03*
X008842Y015350D03*
X008842Y015378D03*
X008856Y015420D03*
X008884Y015490D03*
X008898Y015532D03*
X008912Y015588D03*
X008926Y015630D03*
D23*
X009010Y013978D03*
X009038Y013880D03*
X009038Y013852D03*
X009052Y013838D03*
X009052Y013810D03*
X009080Y013712D03*
X006812Y013292D03*
X004488Y013320D03*
X004488Y013348D03*
X004488Y013362D03*
X004488Y013390D03*
X004488Y013418D03*
X004488Y013432D03*
X004488Y013460D03*
X004488Y013488D03*
X004488Y013502D03*
X004488Y013530D03*
X004488Y013558D03*
X004488Y013572D03*
X004488Y013600D03*
X004488Y013628D03*
X004488Y013642D03*
X004488Y013670D03*
X004488Y013698D03*
X004488Y013712D03*
X004488Y013740D03*
X004488Y013768D03*
X004488Y013782D03*
X004488Y013810D03*
X004488Y013838D03*
X004488Y013852D03*
X004488Y013880D03*
X004488Y013908D03*
X004488Y013922D03*
X004488Y013950D03*
X004488Y013978D03*
X004488Y013992D03*
X004488Y014020D03*
X004488Y014048D03*
X004488Y014062D03*
X004488Y014090D03*
X004488Y014118D03*
X004488Y014132D03*
X004488Y014160D03*
X004488Y014188D03*
X004488Y014202D03*
X004488Y014230D03*
X004488Y014258D03*
X004488Y014272D03*
X004488Y014300D03*
X004488Y014328D03*
X004488Y014342D03*
X004488Y014370D03*
X004488Y014398D03*
X004488Y014412D03*
X004488Y014440D03*
X004488Y014468D03*
X004488Y014482D03*
X004488Y014510D03*
X004488Y014538D03*
X004488Y014552D03*
X004488Y014580D03*
X004488Y014608D03*
X004488Y014622D03*
X004488Y015378D03*
X004488Y015392D03*
X004488Y015420D03*
X004488Y015448D03*
X004488Y015462D03*
X004488Y015490D03*
X004488Y015518D03*
X004488Y015532D03*
X004488Y015560D03*
X004488Y015588D03*
X004488Y015602D03*
X004488Y015630D03*
X004488Y015658D03*
X004488Y015672D03*
X004488Y015700D03*
X004488Y015728D03*
X004488Y015742D03*
X004488Y015770D03*
X004488Y015798D03*
X004488Y015812D03*
X004488Y015840D03*
X004488Y015868D03*
X004488Y015882D03*
X004488Y015910D03*
X004488Y015938D03*
X004488Y015952D03*
X004488Y015980D03*
X004488Y016008D03*
X004488Y016022D03*
X004488Y016050D03*
X004488Y016078D03*
X004488Y016092D03*
X004488Y016120D03*
X004488Y016148D03*
X004488Y016162D03*
X004488Y016190D03*
X004488Y016218D03*
X004488Y016232D03*
X004488Y016260D03*
X004488Y016288D03*
X004488Y016302D03*
X004488Y016330D03*
X004488Y016358D03*
X004488Y016372D03*
X004488Y016400D03*
X004488Y016428D03*
X004488Y016442D03*
X004488Y016470D03*
D24*
X005566Y016470D03*
X005566Y016442D03*
X005566Y016428D03*
X005566Y016400D03*
X005566Y016372D03*
X005566Y016358D03*
X005566Y016330D03*
X005566Y016302D03*
X005566Y016288D03*
X005566Y014622D03*
X005566Y014608D03*
X005566Y014580D03*
X005566Y014552D03*
X005566Y014538D03*
X005566Y014510D03*
X005566Y014482D03*
X005566Y014468D03*
X005566Y014440D03*
X005566Y013572D03*
X005566Y013558D03*
X005566Y013530D03*
X005566Y013502D03*
X005566Y013488D03*
X005566Y013460D03*
X005566Y013432D03*
X005566Y013418D03*
X005566Y013390D03*
X005566Y013362D03*
X005566Y013348D03*
X005566Y013320D03*
X008016Y013320D03*
X008016Y013348D03*
X008016Y013362D03*
X008016Y013390D03*
X008016Y013418D03*
X008016Y013432D03*
X008016Y013460D03*
X008016Y013488D03*
X008016Y013502D03*
X008016Y013292D03*
X009024Y013908D03*
X009024Y013922D03*
X008996Y014020D03*
X009066Y013782D03*
X009066Y013768D03*
X009094Y013670D03*
X009976Y013950D03*
X009976Y013978D03*
X009976Y013992D03*
X009976Y014020D03*
X009976Y014048D03*
X009976Y014062D03*
X009976Y014090D03*
X009976Y014118D03*
X009976Y014132D03*
X009976Y014160D03*
X009976Y014188D03*
X009976Y014202D03*
X009976Y014230D03*
X009976Y014258D03*
X009976Y014272D03*
X009976Y014300D03*
X009976Y014328D03*
X009976Y014342D03*
X009976Y014370D03*
X009976Y014398D03*
X009976Y014412D03*
X009976Y014440D03*
X009976Y014468D03*
X009976Y014482D03*
X009976Y014510D03*
X009976Y014538D03*
X009976Y014552D03*
X009976Y014580D03*
X009976Y014608D03*
X009976Y014622D03*
X009976Y014650D03*
X009976Y014678D03*
X009976Y014692D03*
X009976Y014720D03*
X009976Y014748D03*
X009976Y014762D03*
X009976Y014790D03*
X009976Y014818D03*
X009976Y014832D03*
X009976Y014860D03*
X009976Y014888D03*
X009976Y014902D03*
X009976Y014930D03*
X009976Y014958D03*
X009976Y014972D03*
X009976Y015000D03*
X009976Y015028D03*
X009976Y015042D03*
X009976Y015070D03*
X009976Y015098D03*
X009976Y015112D03*
X009976Y015140D03*
X009976Y015168D03*
X009976Y015182D03*
X009976Y015210D03*
X009976Y015238D03*
X009976Y015252D03*
X009976Y015280D03*
X009976Y015308D03*
X009976Y015322D03*
X009976Y015350D03*
X009976Y015378D03*
X009976Y015392D03*
X009976Y015420D03*
X009976Y015448D03*
X009976Y015462D03*
X009976Y015490D03*
X009976Y015518D03*
X009976Y015532D03*
X009976Y015560D03*
X009976Y015588D03*
X009976Y015602D03*
X009976Y015630D03*
X009976Y015658D03*
X009976Y015672D03*
X009976Y015700D03*
X009976Y015728D03*
X009976Y015742D03*
X009976Y015770D03*
X009976Y015798D03*
X009976Y015812D03*
X009976Y015840D03*
X009976Y015868D03*
X009976Y015882D03*
X009976Y015910D03*
X009976Y015938D03*
X009976Y015952D03*
X009976Y015980D03*
X009976Y016008D03*
X009976Y016022D03*
X009976Y016050D03*
X009976Y016078D03*
X009976Y016092D03*
X009976Y016120D03*
X009976Y016148D03*
X009976Y016162D03*
X009976Y016190D03*
X009976Y016218D03*
X009976Y016232D03*
X009976Y016260D03*
X009976Y016288D03*
X009976Y016302D03*
X009976Y016330D03*
X009976Y016358D03*
X009976Y016372D03*
X008016Y016372D03*
X008016Y016358D03*
X008016Y016330D03*
X008016Y016302D03*
X008016Y016288D03*
X008016Y016260D03*
X008016Y016232D03*
X008016Y016218D03*
X008016Y016190D03*
X008016Y016162D03*
X008016Y016400D03*
X008016Y016428D03*
X008016Y016442D03*
X008016Y016470D03*
X008016Y015518D03*
X008016Y015490D03*
X008016Y015462D03*
X008016Y015448D03*
X008016Y015420D03*
X008016Y015392D03*
X008016Y015378D03*
X008016Y015350D03*
X008016Y015322D03*
X008016Y015308D03*
X008016Y015280D03*
D25*
X009829Y013320D03*
X009829Y013292D03*
D26*
X009108Y013614D03*
X009080Y013726D03*
X009052Y013824D03*
X009038Y013866D03*
X009010Y013964D03*
X008982Y014076D03*
X004488Y014076D03*
X004488Y014104D03*
X004488Y014146D03*
X004488Y014174D03*
X004488Y014216D03*
X004488Y014244D03*
X004488Y014286D03*
X004488Y014314D03*
X004488Y014356D03*
X004488Y014384D03*
X004488Y014426D03*
X004488Y014454D03*
X004488Y014496D03*
X004488Y014524D03*
X004488Y014566D03*
X004488Y014594D03*
X004488Y014636D03*
X004488Y014034D03*
X004488Y014006D03*
X004488Y013964D03*
X004488Y013936D03*
X004488Y013894D03*
X004488Y013866D03*
X004488Y013824D03*
X004488Y013796D03*
X004488Y013754D03*
X004488Y013726D03*
X004488Y013684D03*
X004488Y013656D03*
X004488Y013614D03*
X004488Y013586D03*
X004488Y013544D03*
X004488Y013516D03*
X004488Y013474D03*
X004488Y013446D03*
X004488Y013404D03*
X004488Y013376D03*
X004488Y013334D03*
X004488Y013306D03*
X004488Y015364D03*
X004488Y015406D03*
X004488Y015434D03*
X004488Y015476D03*
X004488Y015504D03*
X004488Y015546D03*
X004488Y015574D03*
X004488Y015616D03*
X004488Y015644D03*
X004488Y015686D03*
X004488Y015714D03*
X004488Y015756D03*
X004488Y015784D03*
X004488Y015826D03*
X004488Y015854D03*
X004488Y015896D03*
X004488Y015924D03*
X004488Y015966D03*
X004488Y015994D03*
X004488Y016036D03*
X004488Y016064D03*
X004488Y016106D03*
X004488Y016134D03*
X004488Y016176D03*
X004488Y016204D03*
X004488Y016246D03*
X004488Y016274D03*
X004488Y016316D03*
X004488Y016344D03*
X004488Y016386D03*
X004488Y016414D03*
X004488Y016456D03*
X004488Y016484D03*
D27*
X005566Y016484D03*
X005566Y016456D03*
X005566Y016414D03*
X005566Y016386D03*
X005566Y016344D03*
X005566Y016316D03*
X005566Y016274D03*
X005566Y014636D03*
X005566Y014594D03*
X005566Y014566D03*
X005566Y014524D03*
X005566Y014496D03*
X005566Y014454D03*
X005566Y013544D03*
X005566Y013516D03*
X005566Y013474D03*
X005566Y013446D03*
X005566Y013404D03*
X005566Y013376D03*
X005566Y013334D03*
X005566Y013306D03*
X008016Y013306D03*
X008016Y013334D03*
X008016Y013376D03*
X008016Y013404D03*
X008016Y013446D03*
X008016Y013474D03*
X008016Y013516D03*
X009024Y013936D03*
X009066Y013754D03*
X009976Y013936D03*
X009976Y013964D03*
X009976Y014006D03*
X009976Y014034D03*
X009976Y014076D03*
X009976Y014104D03*
X009976Y014146D03*
X009976Y014174D03*
X009976Y014216D03*
X009976Y014244D03*
X009976Y014286D03*
X009976Y014314D03*
X009976Y014356D03*
X009976Y014384D03*
X009976Y014426D03*
X009976Y014454D03*
X009976Y014496D03*
X009976Y014524D03*
X009976Y014566D03*
X009976Y014594D03*
X009976Y014636D03*
X009976Y014664D03*
X009976Y014706D03*
X009976Y014734D03*
X009976Y014776D03*
X009976Y014804D03*
X009976Y014846D03*
X009976Y014874D03*
X009976Y014916D03*
X009976Y014944D03*
X009976Y014986D03*
X009976Y015014D03*
X009976Y015056D03*
X009976Y015084D03*
X009976Y015126D03*
X009976Y015154D03*
X009976Y015196D03*
X009976Y015224D03*
X009976Y015266D03*
X009976Y015294D03*
X009976Y015336D03*
X009976Y015364D03*
X009976Y015406D03*
X009976Y015434D03*
X009976Y015476D03*
X009976Y015504D03*
X009976Y015546D03*
X009976Y015574D03*
X009976Y015616D03*
X009976Y015644D03*
X009976Y015686D03*
X009976Y015714D03*
X009976Y015756D03*
X009976Y015784D03*
X009976Y015826D03*
X009976Y015854D03*
X009976Y015896D03*
X009976Y015924D03*
X009976Y015966D03*
X009976Y015994D03*
X009976Y016036D03*
X009976Y016064D03*
X009976Y016106D03*
X009976Y016134D03*
X009976Y016176D03*
X009976Y016204D03*
X009976Y016246D03*
X009976Y016274D03*
X009976Y016316D03*
X009976Y016344D03*
X009976Y016386D03*
X008016Y016386D03*
X008016Y016414D03*
X008016Y016456D03*
X008016Y016344D03*
X008016Y016316D03*
X008016Y016274D03*
X008016Y016246D03*
X008016Y016204D03*
X008016Y016176D03*
X008016Y015504D03*
X008016Y015476D03*
X008016Y015434D03*
X008016Y015406D03*
X008016Y015364D03*
X008016Y015336D03*
X008016Y015294D03*
X008016Y015266D03*
D28*
X006812Y013306D03*
D29*
X009829Y013306D03*
X009829Y013334D03*
D30*
X006805Y013320D03*
D31*
X006812Y013334D03*
D32*
X006812Y013348D03*
D33*
X009822Y013362D03*
X009822Y013348D03*
X009822Y013390D03*
D34*
X006812Y013362D03*
D35*
X006812Y013376D03*
D36*
X009822Y013376D03*
D37*
X006952Y014790D03*
X006812Y013390D03*
D38*
X006812Y013404D03*
X006854Y014874D03*
X006658Y015056D03*
D39*
X009815Y013446D03*
X009815Y013404D03*
D40*
X010228Y013530D03*
X010228Y013558D03*
X010228Y013572D03*
X010228Y013600D03*
X010228Y013628D03*
X010228Y013642D03*
X010228Y013670D03*
X010228Y013698D03*
X010228Y013712D03*
X010228Y013740D03*
X010228Y013768D03*
X010228Y013782D03*
X010228Y013810D03*
X010228Y013838D03*
X010228Y013852D03*
X010228Y013880D03*
X010228Y013908D03*
X010228Y013922D03*
X006812Y013418D03*
X006742Y014972D03*
X006714Y015000D03*
X006756Y016372D03*
D41*
X009815Y013432D03*
X009815Y013418D03*
D42*
X006812Y013432D03*
D43*
X006812Y013446D03*
D44*
X006812Y013460D03*
D45*
X009808Y013460D03*
X009808Y013488D03*
X009808Y013502D03*
D46*
X006812Y013474D03*
X005888Y015616D03*
X005888Y015644D03*
X005888Y015896D03*
D47*
X009808Y013474D03*
D48*
X008352Y015028D03*
X008352Y015042D03*
X006812Y013488D03*
X005902Y013852D03*
X005902Y013880D03*
X005902Y013908D03*
X005902Y015560D03*
X005902Y015938D03*
X005902Y015952D03*
D49*
X006812Y013502D03*
D50*
X006812Y013516D03*
X007652Y014384D03*
X008380Y014846D03*
X008380Y015196D03*
X007652Y015896D03*
X007652Y015924D03*
X005930Y015994D03*
X005930Y015476D03*
D51*
X009801Y013516D03*
D52*
X007225Y013530D03*
D53*
X009073Y013740D03*
X009087Y013698D03*
X009101Y013642D03*
X009101Y013628D03*
X009115Y013600D03*
X009115Y013572D03*
X009129Y013558D03*
X009129Y013530D03*
D54*
X007218Y013544D03*
X006364Y016204D03*
D55*
X009059Y013796D03*
X009087Y013684D03*
X009101Y013656D03*
X009115Y013586D03*
X009129Y013544D03*
D56*
X010228Y013544D03*
X010228Y013586D03*
X010228Y013614D03*
X010228Y013656D03*
X010228Y013684D03*
X010228Y013726D03*
X010228Y013754D03*
X010228Y013796D03*
X010228Y013824D03*
X010228Y013866D03*
X010228Y013894D03*
X006728Y014986D03*
X006700Y015014D03*
D57*
X007218Y013558D03*
D58*
X007211Y013572D03*
X006371Y016162D03*
X006371Y016190D03*
D59*
X006791Y016134D03*
X006791Y016106D03*
X006791Y016064D03*
X006791Y016036D03*
X006791Y013754D03*
X006791Y013726D03*
X006791Y013684D03*
X006791Y013656D03*
X006791Y013614D03*
X006791Y013586D03*
D60*
X006791Y013600D03*
X006791Y013628D03*
X006791Y013642D03*
X006791Y013670D03*
X006791Y013698D03*
X006791Y013712D03*
X006791Y013740D03*
X006791Y013768D03*
X006791Y016008D03*
X006791Y016022D03*
X006791Y016050D03*
X006791Y016078D03*
X006791Y016092D03*
X006791Y016120D03*
X006791Y016148D03*
D61*
X007638Y014412D03*
X005944Y013782D03*
X009598Y016442D03*
X009598Y016470D03*
D62*
X009591Y016428D03*
X009591Y016400D03*
X007631Y015980D03*
X007631Y013782D03*
X005951Y015448D03*
D63*
X006763Y016274D03*
X007659Y015854D03*
X007659Y015826D03*
X007659Y015784D03*
X007659Y015756D03*
X007659Y015714D03*
X007659Y015686D03*
X007659Y015644D03*
X007659Y015616D03*
X007659Y015574D03*
X007659Y015546D03*
X008373Y015154D03*
X008373Y014916D03*
X008373Y014874D03*
X007659Y014356D03*
X007659Y013824D03*
X005923Y013796D03*
D64*
X007645Y013796D03*
D65*
X007666Y013838D03*
X007666Y014328D03*
X007666Y014342D03*
X008366Y014930D03*
X008366Y014958D03*
X008366Y015112D03*
X008366Y015140D03*
X005916Y015518D03*
X005916Y015980D03*
X005916Y013810D03*
D66*
X007652Y013810D03*
X007652Y014370D03*
X008380Y014832D03*
X008380Y014860D03*
X008380Y015210D03*
X007652Y015882D03*
X007652Y015910D03*
X007652Y015938D03*
D67*
X008359Y015084D03*
X008359Y014986D03*
X007673Y014286D03*
X007673Y013866D03*
X005909Y013824D03*
X005909Y015966D03*
D68*
X005909Y015532D03*
X006763Y016288D03*
X007673Y014300D03*
X007673Y014272D03*
X007673Y013852D03*
X008359Y014972D03*
X008359Y015000D03*
X008359Y015070D03*
X008359Y015098D03*
X005909Y013838D03*
D69*
X005902Y013866D03*
X005902Y013894D03*
X005902Y015546D03*
X008352Y015056D03*
X008352Y015014D03*
D70*
X007680Y014258D03*
X007680Y014230D03*
X007680Y014202D03*
X007680Y014188D03*
X007680Y013922D03*
X007680Y013908D03*
X007680Y013880D03*
D71*
X007680Y013894D03*
X007680Y014216D03*
X007680Y014244D03*
D72*
X008933Y014244D03*
X008947Y014216D03*
X008961Y014146D03*
X008989Y014034D03*
X009003Y014006D03*
X009031Y013894D03*
D73*
X007687Y013950D03*
X007687Y013978D03*
X007687Y013992D03*
X007687Y014020D03*
X007687Y014048D03*
X007687Y014062D03*
X007687Y014090D03*
X007687Y014118D03*
X007687Y014132D03*
X007687Y014160D03*
X006763Y016302D03*
X005895Y015910D03*
X005895Y015588D03*
X005895Y014412D03*
X005895Y014398D03*
X005895Y014370D03*
X005895Y014342D03*
X005895Y014328D03*
X005895Y014300D03*
X005895Y014272D03*
X005895Y014258D03*
X005895Y014230D03*
X005895Y014202D03*
X005895Y014188D03*
X005895Y014160D03*
X005895Y014132D03*
X005895Y014118D03*
X005895Y014090D03*
X005895Y014062D03*
X005895Y014048D03*
X005895Y014020D03*
X005895Y013992D03*
X005895Y013978D03*
X005895Y013950D03*
X005895Y013922D03*
D74*
X005895Y013936D03*
X005895Y013964D03*
X005895Y014006D03*
X005895Y014034D03*
X005895Y014076D03*
X005895Y014104D03*
X005895Y014146D03*
X005895Y014174D03*
X005895Y014216D03*
X005895Y014244D03*
X005895Y014286D03*
X005895Y014314D03*
X005895Y014356D03*
X005895Y014384D03*
X005895Y014426D03*
X005895Y015574D03*
X005895Y015924D03*
X007687Y014174D03*
X007687Y014146D03*
X007687Y014104D03*
X007687Y014076D03*
X007687Y014034D03*
X007687Y014006D03*
X007687Y013964D03*
X007687Y013936D03*
D75*
X008919Y014300D03*
X008933Y014258D03*
X008947Y014202D03*
X008947Y014188D03*
X008961Y014160D03*
X008961Y014132D03*
X008989Y014062D03*
X008989Y014048D03*
X009003Y013992D03*
X009017Y013950D03*
D76*
X008975Y014090D03*
X008975Y014118D03*
D77*
X008975Y014104D03*
X008905Y014356D03*
D78*
X008898Y014384D03*
X008884Y014426D03*
X008856Y014524D03*
X008912Y014314D03*
X008926Y014286D03*
X008954Y014174D03*
D79*
X008940Y014230D03*
X008870Y014468D03*
X008870Y014482D03*
D80*
X008884Y014440D03*
X008884Y014412D03*
X008898Y014398D03*
X008898Y014370D03*
X008912Y014342D03*
X008912Y014328D03*
X008926Y014272D03*
X008856Y014538D03*
X008842Y014580D03*
D81*
X008366Y014944D03*
X008366Y015126D03*
X007666Y014314D03*
X005916Y015504D03*
D82*
X007645Y015952D03*
X007645Y014398D03*
D83*
X007631Y014426D03*
X009591Y016414D03*
D84*
X007617Y014440D03*
X005965Y015420D03*
D85*
X007610Y014454D03*
D86*
X008835Y014594D03*
X008877Y014454D03*
D87*
X007603Y014468D03*
D88*
X007596Y014482D03*
X005986Y015392D03*
D89*
X007582Y014496D03*
D90*
X008870Y014496D03*
D91*
X007575Y014510D03*
D92*
X008835Y014608D03*
X008835Y014622D03*
X008863Y014510D03*
D93*
X007568Y014524D03*
D94*
X007554Y014538D03*
D95*
X007547Y014552D03*
D96*
X008849Y014552D03*
X006749Y016498D03*
D97*
X007540Y014566D03*
D98*
X008849Y014566D03*
D99*
X007526Y014580D03*
D100*
X007519Y014594D03*
D101*
X007505Y014608D03*
D102*
X007498Y014622D03*
D103*
X007883Y014636D03*
D104*
X005027Y014650D03*
X005027Y014678D03*
X005027Y014692D03*
X005027Y014720D03*
X005027Y014748D03*
X005027Y014762D03*
X005027Y014790D03*
X005027Y014818D03*
X005027Y014832D03*
X005027Y014860D03*
X005027Y014888D03*
X005027Y014902D03*
X005027Y014930D03*
X005027Y014958D03*
X005027Y014972D03*
X005027Y015000D03*
X005027Y015028D03*
X005027Y015042D03*
X005027Y015070D03*
D105*
X007869Y014650D03*
D106*
X005027Y014664D03*
X005027Y014706D03*
X005027Y014734D03*
X005027Y014776D03*
X005027Y014804D03*
X005027Y014846D03*
X005027Y014874D03*
X005027Y014916D03*
X005027Y014944D03*
X005027Y014986D03*
X005027Y015014D03*
X005027Y015056D03*
D107*
X007855Y014664D03*
D108*
X007848Y014678D03*
X007834Y014692D03*
D109*
X007820Y014706D03*
D110*
X007813Y014720D03*
D111*
X007792Y014734D03*
D112*
X007785Y014748D03*
X005475Y015350D03*
D113*
X007771Y014762D03*
D114*
X006966Y014776D03*
D115*
X007638Y015966D03*
X008394Y014776D03*
X009598Y016456D03*
D116*
X008387Y015252D03*
X008387Y015238D03*
X008387Y014818D03*
X008387Y014790D03*
X005937Y015462D03*
D117*
X006938Y014804D03*
D118*
X008387Y014804D03*
X008387Y015224D03*
D119*
X006924Y014818D03*
D120*
X006903Y014832D03*
X006637Y015070D03*
D121*
X006889Y014846D03*
D122*
X006875Y014860D03*
D123*
X006840Y014888D03*
D124*
X007659Y015532D03*
X007659Y015560D03*
X007659Y015588D03*
X007659Y015602D03*
X007659Y015630D03*
X007659Y015658D03*
X007659Y015672D03*
X007659Y015700D03*
X007659Y015728D03*
X007659Y015742D03*
X007659Y015770D03*
X007659Y015798D03*
X007659Y015812D03*
X007659Y015840D03*
X007659Y015868D03*
X008373Y015182D03*
X008373Y015168D03*
X008373Y014902D03*
X008373Y014888D03*
X005923Y015490D03*
D125*
X006672Y015042D03*
X006686Y015028D03*
X006826Y014902D03*
D126*
X006805Y014916D03*
X006777Y014944D03*
D127*
X006791Y014930D03*
D128*
X006763Y014958D03*
D129*
X005671Y015084D03*
D130*
X005664Y015098D03*
D131*
X005657Y015112D03*
D132*
X005643Y015126D03*
D133*
X005636Y015140D03*
D134*
X005622Y015154D03*
D135*
X005615Y015168D03*
D136*
X005608Y015182D03*
D137*
X005594Y015196D03*
D138*
X005587Y015210D03*
D139*
X005573Y015224D03*
D140*
X005566Y015238D03*
D141*
X005552Y015252D03*
D142*
X005545Y015266D03*
D143*
X008814Y015266D03*
X008814Y015294D03*
X008828Y015336D03*
X008842Y015364D03*
X008856Y015406D03*
X008884Y015504D03*
X008898Y015546D03*
X008954Y015714D03*
X008968Y015756D03*
D144*
X005531Y015280D03*
D145*
X005524Y015294D03*
D146*
X005510Y015308D03*
D147*
X005503Y015322D03*
D148*
X005489Y015336D03*
D149*
X006007Y015364D03*
D150*
X005993Y015378D03*
D151*
X008849Y015392D03*
X008891Y015518D03*
X008919Y015602D03*
X008961Y015728D03*
X008961Y015742D03*
X008989Y015812D03*
X008989Y015840D03*
X009031Y015938D03*
X009031Y015952D03*
X009059Y016050D03*
X009101Y016162D03*
X009129Y016260D03*
D152*
X005979Y015406D03*
D153*
X005958Y015434D03*
D154*
X008863Y015434D03*
X008877Y015476D03*
X008905Y015574D03*
X008933Y015644D03*
X008947Y015686D03*
X008975Y015784D03*
X009003Y015854D03*
X009017Y015896D03*
X009017Y015924D03*
X009045Y015994D03*
X009087Y016134D03*
X009157Y016344D03*
D155*
X008940Y015672D03*
X008870Y015462D03*
X008870Y015448D03*
D156*
X008905Y015560D03*
X008933Y015658D03*
X008947Y015700D03*
X008975Y015770D03*
X008975Y015798D03*
X009003Y015868D03*
X009003Y015882D03*
X009017Y015910D03*
X009045Y016008D03*
X009073Y016078D03*
X009073Y016092D03*
X009087Y016120D03*
X009115Y016218D03*
X009143Y016302D03*
D157*
X005888Y015882D03*
X005888Y015868D03*
X005888Y015658D03*
X005888Y015630D03*
X005888Y015602D03*
D158*
X008919Y015616D03*
X008989Y015826D03*
X009031Y015966D03*
X009059Y016036D03*
X009101Y016176D03*
D159*
X005881Y015840D03*
X005881Y015812D03*
X005881Y015798D03*
X005881Y015770D03*
X005881Y015742D03*
X005881Y015728D03*
X005881Y015700D03*
X005881Y015672D03*
D160*
X005881Y015686D03*
X005881Y015714D03*
X005881Y015756D03*
X005881Y015784D03*
X005881Y015826D03*
X005881Y015854D03*
D161*
X009038Y015980D03*
X009052Y016022D03*
X009094Y016148D03*
X009108Y016190D03*
X009122Y016232D03*
X009136Y016288D03*
X009150Y016330D03*
X009164Y016358D03*
X009164Y016372D03*
D162*
X007617Y015994D03*
D163*
X009066Y016064D03*
X009080Y016106D03*
X009108Y016204D03*
X009122Y016246D03*
X009136Y016274D03*
X009150Y016316D03*
X009164Y016386D03*
D164*
X006371Y016176D03*
D165*
X006357Y016218D03*
X006357Y016232D03*
D166*
X006350Y016246D03*
D167*
X006343Y016260D03*
D168*
X006763Y016316D03*
D169*
X006756Y016330D03*
D170*
X006756Y016344D03*
D171*
X006756Y016358D03*
D172*
X006756Y016386D03*
D173*
X006749Y016400D03*
D174*
X006756Y016414D03*
D175*
X006756Y016428D03*
D176*
X006756Y016442D03*
D177*
X006749Y016456D03*
D178*
X006749Y016470D03*
D179*
X006749Y016484D03*
D180*
X006749Y016512D03*
D181*
X006742Y016526D03*
D182*
X006742Y016540D03*
D183*
X006756Y016792D03*
X006742Y016820D03*
X006742Y016848D03*
X006742Y016862D03*
X006756Y016890D03*
X007022Y016890D03*
X007022Y016918D03*
X007022Y016932D03*
X007022Y016960D03*
X007022Y016988D03*
X007022Y017002D03*
X007022Y017030D03*
X007022Y017058D03*
X007162Y016932D03*
X007148Y016918D03*
X007106Y016862D03*
X007120Y016820D03*
X007148Y016792D03*
X007148Y016778D03*
X007176Y016750D03*
X007190Y016722D03*
X007302Y016792D03*
X007470Y016890D03*
X007610Y016890D03*
X007610Y016862D03*
X007610Y016848D03*
X007610Y016820D03*
X007610Y016792D03*
X007610Y016778D03*
X007610Y016750D03*
X007610Y016722D03*
X007610Y016960D03*
X007820Y016890D03*
X007974Y017240D03*
X007974Y017338D03*
X007974Y017352D03*
X007974Y017380D03*
X007974Y017408D03*
X007974Y017422D03*
X007974Y017450D03*
X007974Y017478D03*
X007806Y017478D03*
X007806Y017450D03*
X007806Y017422D03*
X007806Y017408D03*
X007806Y017380D03*
X007806Y017352D03*
X007806Y017338D03*
X007610Y017492D03*
X007582Y017450D03*
X007554Y017422D03*
X007470Y017352D03*
X007162Y017408D03*
X007008Y017422D03*
X006994Y017310D03*
X006742Y017310D03*
X006728Y017338D03*
X006728Y017352D03*
X006728Y017380D03*
X006742Y017408D03*
X006588Y017422D03*
X006434Y017338D03*
X006476Y017240D03*
X006308Y017310D03*
X006308Y017338D03*
X006308Y017352D03*
X006308Y017380D03*
X006308Y017408D03*
X006294Y017422D03*
X006252Y017478D03*
X006140Y017478D03*
X006140Y017422D03*
X006140Y017408D03*
X006140Y017380D03*
X006140Y017352D03*
X006140Y017338D03*
X006140Y017310D03*
X006140Y017240D03*
X006140Y017212D03*
X006140Y017198D03*
X006140Y017170D03*
X006140Y017058D03*
X006140Y017030D03*
X006140Y017002D03*
X006140Y016988D03*
X006140Y016960D03*
X006140Y016862D03*
X006140Y016848D03*
X006140Y016820D03*
X006140Y016792D03*
X006140Y016778D03*
X006140Y016750D03*
X006140Y016722D03*
X006308Y016722D03*
X006308Y016750D03*
X006308Y016778D03*
X006308Y016792D03*
X006308Y016820D03*
X006308Y016848D03*
X006308Y016862D03*
X006266Y016960D03*
X006238Y017240D03*
X005860Y017408D03*
X005860Y017422D03*
X005650Y017408D03*
X005650Y017380D03*
X005650Y017352D03*
X005650Y017338D03*
X005650Y017310D03*
X005650Y017282D03*
X005650Y017268D03*
X005650Y017240D03*
X005510Y017408D03*
X005356Y017422D03*
X005342Y017310D03*
X005230Y017240D03*
X005216Y017268D03*
X005202Y017282D03*
X005188Y017310D03*
X005160Y017338D03*
X005146Y017380D03*
X005174Y017422D03*
X005202Y017450D03*
X005062Y017450D03*
X005062Y017478D03*
X005062Y017492D03*
X005062Y017520D03*
X005062Y017548D03*
X005062Y017562D03*
X005062Y017422D03*
X005062Y017408D03*
X005062Y017380D03*
X005062Y017310D03*
X005062Y017282D03*
X005062Y017268D03*
X005062Y017240D03*
X005076Y016960D03*
X005090Y016932D03*
X005090Y016918D03*
X005104Y016862D03*
X004964Y016918D03*
X004978Y016960D03*
X004908Y016722D03*
X004810Y016932D03*
X004656Y016932D03*
X004656Y016918D03*
X004642Y016960D03*
X004670Y016862D03*
X004530Y017240D03*
X004488Y017338D03*
X004642Y017422D03*
X004782Y017380D03*
X004782Y017352D03*
X004782Y017338D03*
X004796Y017310D03*
X004796Y017408D03*
X005244Y016932D03*
X005342Y016722D03*
X005398Y016918D03*
X005412Y016960D03*
X005510Y016960D03*
X005524Y016932D03*
X005524Y016918D03*
X005538Y016862D03*
X005678Y016932D03*
X005832Y016918D03*
X005846Y016960D03*
X005776Y016722D03*
X005650Y017478D03*
X006448Y016820D03*
X006448Y016778D03*
X006490Y016722D03*
X007022Y016722D03*
X007022Y016750D03*
X007022Y016778D03*
X007022Y016792D03*
X007022Y016862D03*
X008100Y016862D03*
X008100Y016848D03*
X008100Y016820D03*
X008100Y016792D03*
X008100Y016778D03*
X008100Y016722D03*
X008100Y016708D03*
X008100Y016680D03*
X008100Y016652D03*
X008100Y016638D03*
X008198Y016722D03*
X008268Y016792D03*
X008268Y016820D03*
X008268Y016848D03*
X008268Y016862D03*
X008268Y016890D03*
X008212Y016960D03*
X008100Y016960D03*
X008100Y016890D03*
X008156Y017240D03*
X008114Y017338D03*
X008268Y017422D03*
X008422Y017422D03*
X008422Y017408D03*
X008422Y017380D03*
X008422Y017352D03*
X008422Y017338D03*
X008422Y017310D03*
X008422Y017282D03*
X008422Y017268D03*
X008422Y017240D03*
X008562Y017338D03*
X008604Y017240D03*
X008716Y017422D03*
X008422Y017450D03*
X008422Y017478D03*
X008422Y017492D03*
X008422Y017520D03*
X008422Y017548D03*
X008422Y017562D03*
X008702Y016890D03*
X008688Y016862D03*
X008688Y016848D03*
X008688Y016820D03*
X008702Y016792D03*
X008954Y016792D03*
X009122Y016890D03*
X009430Y016862D03*
X009430Y016848D03*
X009430Y016820D03*
X009430Y016792D03*
X009430Y016778D03*
X009430Y016750D03*
X009430Y016722D03*
X009430Y016960D03*
X009472Y017240D03*
X009472Y017338D03*
X009472Y017352D03*
X009472Y017380D03*
X009472Y017408D03*
X009472Y017422D03*
X009472Y017450D03*
X009472Y017478D03*
X009304Y017478D03*
X009304Y017450D03*
X009304Y017422D03*
X009304Y017408D03*
X009304Y017380D03*
X009304Y017352D03*
X009304Y017338D03*
X009024Y017338D03*
X009024Y017352D03*
X009024Y017380D03*
X009024Y017408D03*
X009024Y017422D03*
X009024Y017450D03*
X009024Y017478D03*
X009024Y017492D03*
X009024Y017520D03*
X009024Y017548D03*
X009024Y017562D03*
X009024Y017310D03*
X008394Y016820D03*
X008394Y016778D03*
X008436Y016722D03*
X009626Y017240D03*
X009626Y017268D03*
X009626Y017282D03*
X009626Y017310D03*
X009626Y017338D03*
X009626Y017352D03*
X009626Y017380D03*
X009626Y017478D03*
X009948Y017408D03*
X009948Y017380D03*
X009948Y017352D03*
X009948Y017338D03*
X009948Y017310D03*
X009948Y017282D03*
X009948Y017268D03*
X009948Y017240D03*
X010102Y017240D03*
X010102Y017212D03*
X010102Y017198D03*
X010102Y017170D03*
X010200Y017240D03*
X010270Y017310D03*
X010270Y017338D03*
X010270Y017352D03*
X010270Y017380D03*
X010270Y017408D03*
X010256Y017422D03*
X010214Y017478D03*
X010102Y017478D03*
X010102Y017422D03*
X010102Y017408D03*
X010102Y017380D03*
X010102Y017352D03*
X010102Y017338D03*
X010102Y017310D03*
X010410Y017338D03*
X010410Y017352D03*
X010410Y017380D03*
X010410Y017408D03*
X010410Y017422D03*
X010410Y017450D03*
X010410Y017478D03*
X010578Y017478D03*
X010578Y017450D03*
X010578Y017422D03*
X010578Y017408D03*
X010578Y017380D03*
X010578Y017352D03*
X010578Y017338D03*
X010578Y017240D03*
X010732Y017240D03*
X010732Y017268D03*
X010732Y017282D03*
X010732Y017310D03*
X010732Y017338D03*
X010732Y017352D03*
X010732Y017380D03*
X010732Y017408D03*
X010732Y017478D03*
X010074Y016960D03*
X010060Y016932D03*
X010060Y016918D03*
X010046Y016890D03*
X009920Y016862D03*
X009920Y016848D03*
X009934Y016820D03*
X009906Y016890D03*
X009892Y016918D03*
X009892Y016932D03*
X009878Y016960D03*
X009752Y016890D03*
X009752Y016862D03*
X009752Y016848D03*
X009752Y016820D03*
X009752Y016792D03*
X009752Y016778D03*
X009752Y016750D03*
X009752Y016722D03*
X009934Y016638D03*
X009948Y016652D03*
X009962Y016680D03*
X009976Y016722D03*
D184*
X009962Y016694D03*
X009948Y016666D03*
X009752Y016736D03*
X009752Y016764D03*
X009752Y016806D03*
X009752Y016834D03*
X009752Y016876D03*
X009906Y016904D03*
X009948Y017254D03*
X009948Y017296D03*
X009948Y017324D03*
X009948Y017366D03*
X009948Y017394D03*
X010102Y017394D03*
X010102Y017366D03*
X010102Y017324D03*
X010102Y017296D03*
X010102Y017226D03*
X010102Y017184D03*
X010102Y017156D03*
X010270Y017324D03*
X010270Y017366D03*
X010270Y017394D03*
X010410Y017394D03*
X010410Y017366D03*
X010410Y017324D03*
X010410Y017436D03*
X010410Y017464D03*
X010578Y017464D03*
X010578Y017436D03*
X010578Y017394D03*
X010578Y017366D03*
X010578Y017324D03*
X010578Y017254D03*
X010732Y017254D03*
X010732Y017296D03*
X010732Y017324D03*
X010732Y017366D03*
X010732Y017394D03*
X010732Y017464D03*
X010830Y017464D03*
X010102Y017464D03*
X009626Y017464D03*
X009626Y017394D03*
X009626Y017366D03*
X009626Y017324D03*
X009626Y017296D03*
X009626Y017254D03*
X009472Y017254D03*
X009472Y017324D03*
X009472Y017366D03*
X009472Y017394D03*
X009472Y017436D03*
X009472Y017464D03*
X009304Y017464D03*
X009304Y017436D03*
X009304Y017394D03*
X009304Y017366D03*
X009304Y017324D03*
X009024Y017324D03*
X009024Y017296D03*
X009024Y017366D03*
X009024Y017394D03*
X009024Y017436D03*
X009024Y017464D03*
X009024Y017506D03*
X009024Y017534D03*
X008562Y017296D03*
X008422Y017296D03*
X008422Y017324D03*
X008422Y017366D03*
X008422Y017394D03*
X008422Y017436D03*
X008422Y017464D03*
X008422Y017506D03*
X008422Y017534D03*
X008422Y017576D03*
X008422Y017254D03*
X008548Y016904D03*
X008688Y016876D03*
X008688Y016834D03*
X008688Y016806D03*
X008954Y016806D03*
X008968Y016904D03*
X009430Y016876D03*
X009430Y016834D03*
X009430Y016806D03*
X009430Y016764D03*
X009430Y016736D03*
X009430Y016946D03*
X008268Y016876D03*
X008254Y016904D03*
X008268Y016834D03*
X008268Y016806D03*
X008100Y016806D03*
X008100Y016834D03*
X008100Y016876D03*
X008100Y016904D03*
X008100Y016946D03*
X008100Y016694D03*
X008100Y016666D03*
X007820Y016904D03*
X007708Y016946D03*
X007610Y016946D03*
X007610Y016876D03*
X007610Y016834D03*
X007610Y016806D03*
X007610Y016764D03*
X007610Y016736D03*
X007302Y016806D03*
X007316Y016904D03*
X007162Y016764D03*
X007176Y016736D03*
X007134Y016806D03*
X007120Y016876D03*
X007134Y016904D03*
X007022Y016904D03*
X007022Y016876D03*
X007022Y016946D03*
X007022Y016974D03*
X007022Y017016D03*
X007022Y017044D03*
X007022Y016806D03*
X007022Y016764D03*
X007022Y016736D03*
X006742Y016806D03*
X006742Y016834D03*
X006742Y016876D03*
X006602Y016904D03*
X006308Y016876D03*
X006308Y016834D03*
X006308Y016806D03*
X006308Y016764D03*
X006308Y016736D03*
X006140Y016736D03*
X006140Y016764D03*
X006140Y016806D03*
X006140Y016834D03*
X006140Y016876D03*
X006140Y016946D03*
X006140Y016974D03*
X006140Y017016D03*
X006140Y017044D03*
X006140Y017156D03*
X006140Y017184D03*
X006140Y017226D03*
X006140Y017296D03*
X006140Y017324D03*
X006140Y017366D03*
X006140Y017394D03*
X006140Y017464D03*
X006308Y017394D03*
X006308Y017366D03*
X006308Y017324D03*
X006434Y017296D03*
X006728Y017324D03*
X006728Y017366D03*
X006728Y017394D03*
X006994Y017324D03*
X007568Y017436D03*
X007624Y017506D03*
X007806Y017464D03*
X007806Y017436D03*
X007806Y017394D03*
X007806Y017366D03*
X007806Y017324D03*
X007974Y017324D03*
X007974Y017366D03*
X007974Y017394D03*
X007974Y017436D03*
X007974Y017464D03*
X007974Y017254D03*
X008114Y017296D03*
X005748Y017464D03*
X005650Y017464D03*
X005650Y017394D03*
X005650Y017366D03*
X005650Y017324D03*
X005650Y017296D03*
X005650Y017254D03*
X005678Y016946D03*
X005538Y016876D03*
X005244Y016946D03*
X005104Y016876D03*
X005062Y017254D03*
X005062Y017296D03*
X005062Y017324D03*
X005062Y017394D03*
X005062Y017436D03*
X005062Y017464D03*
X005062Y017506D03*
X005062Y017534D03*
X005062Y017576D03*
X005188Y017436D03*
X005160Y017394D03*
X005174Y017324D03*
X005188Y017296D03*
X005216Y017254D03*
X005342Y017324D03*
X004782Y017324D03*
X004782Y017366D03*
X004782Y017394D03*
X004488Y017296D03*
X004810Y016946D03*
X004670Y016876D03*
D185*
X004859Y016820D03*
X004971Y016932D03*
X005111Y016848D03*
X005111Y016820D03*
X005251Y016960D03*
X005391Y016890D03*
X005391Y016862D03*
X005531Y016890D03*
X005811Y016848D03*
X005811Y016820D03*
X005839Y016932D03*
X005979Y016792D03*
X005979Y016778D03*
X005979Y016750D03*
X005979Y016722D03*
X006441Y016792D03*
X006609Y016792D03*
X006609Y016820D03*
X006609Y016890D03*
X006609Y016722D03*
X007001Y017408D03*
X007309Y016890D03*
X008961Y016890D03*
X009269Y016792D03*
X009269Y016778D03*
X009269Y016750D03*
X009269Y016722D03*
X009591Y016722D03*
X009591Y016750D03*
X009591Y016778D03*
X009591Y016792D03*
X009591Y016820D03*
X009591Y016848D03*
X009591Y016862D03*
X009549Y016960D03*
X009969Y016708D03*
X010039Y016862D03*
X010459Y017240D03*
X005349Y017408D03*
X004649Y017408D03*
X004649Y017352D03*
X004649Y017338D03*
X004649Y017310D03*
X004649Y017240D03*
X004481Y017310D03*
X004341Y017310D03*
X004341Y017338D03*
X004341Y017352D03*
X004341Y017380D03*
X004341Y017450D03*
X004341Y017478D03*
X004341Y017492D03*
X004341Y017520D03*
X004341Y017548D03*
X004341Y017562D03*
X004131Y017562D03*
X004131Y017548D03*
X004131Y017520D03*
X004131Y017492D03*
X004131Y017478D03*
X004131Y017450D03*
X004131Y017380D03*
X004131Y017352D03*
X004131Y017338D03*
X004131Y017310D03*
X004131Y017282D03*
X004131Y017268D03*
X004131Y017240D03*
X004341Y017240D03*
X004341Y017268D03*
X004341Y017282D03*
D186*
X004509Y017352D03*
X004719Y016750D03*
X004719Y016722D03*
X004901Y016750D03*
X005251Y016918D03*
X005069Y017338D03*
X005769Y016750D03*
X006301Y016890D03*
X006749Y017422D03*
X007029Y016820D03*
X007589Y017352D03*
X007631Y017520D03*
X007659Y017548D03*
X008541Y016778D03*
X008709Y016778D03*
X009311Y017310D03*
X009591Y016890D03*
X010571Y017310D03*
D187*
X010417Y017310D03*
X009787Y017408D03*
X009633Y017408D03*
X009465Y017310D03*
X009437Y016890D03*
X009045Y016960D03*
X008975Y016778D03*
X008583Y017352D03*
X008135Y017352D03*
X007967Y017310D03*
X007813Y017310D03*
X007673Y017240D03*
X007645Y017282D03*
X007617Y017310D03*
X007603Y017338D03*
X007603Y017478D03*
X007673Y017562D03*
X007155Y017422D03*
X007085Y017478D03*
X007183Y016960D03*
X007393Y016960D03*
X007323Y016778D03*
X006763Y016778D03*
X006595Y016778D03*
X006147Y016890D03*
X006455Y017352D03*
X005685Y016918D03*
X005587Y016750D03*
X005587Y016722D03*
X005335Y016750D03*
X005153Y016750D03*
X005153Y016722D03*
X004817Y016918D03*
X004803Y017422D03*
X005223Y017478D03*
X005433Y017478D03*
X005503Y017422D03*
X008247Y016778D03*
D188*
X006840Y016722D03*
X006840Y016960D03*
X004880Y017240D03*
X004880Y017478D03*
X004810Y016890D03*
D189*
X004719Y016792D03*
X004719Y016778D03*
X004901Y016778D03*
X004901Y016792D03*
X005153Y016792D03*
X005153Y016778D03*
X005447Y017240D03*
X005587Y016792D03*
X005587Y016778D03*
X005769Y016778D03*
X005769Y016792D03*
X007099Y017240D03*
X007407Y016722D03*
X009059Y016722D03*
X009969Y016778D03*
D190*
X009976Y016750D03*
X008786Y016722D03*
X008786Y016960D03*
X007904Y016960D03*
X007876Y016722D03*
X007652Y017268D03*
X006826Y017240D03*
X006826Y017478D03*
X005944Y017478D03*
X005916Y017240D03*
X005678Y016890D03*
X005244Y016890D03*
D191*
X005293Y016820D03*
X005377Y016820D03*
X005377Y016848D03*
X005405Y016932D03*
X005545Y016848D03*
X005545Y016820D03*
X005727Y016820D03*
X005825Y016862D03*
X005825Y016890D03*
X005685Y016960D03*
X005335Y017338D03*
X005167Y017408D03*
X005097Y016890D03*
X004957Y016890D03*
X004957Y016862D03*
X004943Y016848D03*
X004943Y016820D03*
X004817Y016960D03*
X004677Y016848D03*
X004677Y016820D03*
X004663Y016890D03*
X006007Y017310D03*
X006427Y017310D03*
X006595Y017310D03*
X006595Y017338D03*
X006595Y017352D03*
X006595Y017408D03*
X006595Y017240D03*
X006987Y017338D03*
X007127Y016890D03*
X007295Y016820D03*
X007463Y017240D03*
X007463Y017268D03*
X007463Y017282D03*
X007463Y017310D03*
X007463Y017338D03*
X007463Y017422D03*
X007463Y017450D03*
X007463Y017478D03*
X007463Y017492D03*
X007463Y017520D03*
X007463Y017548D03*
X007463Y017562D03*
X007855Y017240D03*
X008107Y017310D03*
X008275Y017310D03*
X008275Y017338D03*
X008275Y017352D03*
X008275Y017408D03*
X008275Y017240D03*
X008555Y017310D03*
X008723Y017310D03*
X008723Y017338D03*
X008723Y017352D03*
X008723Y017408D03*
X008723Y017240D03*
X008555Y016890D03*
X008555Y016820D03*
X008555Y016792D03*
X008555Y016722D03*
X008387Y016792D03*
X007967Y016792D03*
X007967Y016778D03*
X008947Y016820D03*
X009353Y017240D03*
X009745Y017478D03*
X009787Y017380D03*
X009787Y017352D03*
X009787Y017338D03*
X009787Y017310D03*
X009787Y017282D03*
X009787Y017268D03*
X009787Y017240D03*
X009913Y017478D03*
X009717Y016960D03*
X010025Y016848D03*
X010025Y016820D03*
D192*
X009969Y016736D03*
X010249Y017296D03*
X008709Y017296D03*
X008709Y016904D03*
X008261Y017296D03*
X007659Y017254D03*
X007631Y017296D03*
X007589Y017464D03*
X007169Y016946D03*
X006749Y017296D03*
X006581Y017296D03*
X006469Y016834D03*
X005769Y016764D03*
X005769Y016736D03*
X005209Y017464D03*
X004901Y016764D03*
X004901Y016736D03*
X004719Y016736D03*
X004719Y016764D03*
D193*
X005153Y016764D03*
X005153Y016736D03*
X005335Y016736D03*
X005335Y016764D03*
X005587Y016764D03*
X005587Y016736D03*
X005363Y017296D03*
X004803Y017296D03*
X004635Y017296D03*
X005993Y017324D03*
X006287Y017296D03*
X006763Y016904D03*
X007015Y017296D03*
X007463Y016904D03*
X007953Y016806D03*
X008415Y016834D03*
X009115Y016904D03*
X007645Y017534D03*
D194*
X007169Y017394D03*
X006609Y016834D03*
X006609Y016806D03*
X006609Y016736D03*
X006441Y016806D03*
X005979Y016764D03*
X005979Y016736D03*
X005839Y016946D03*
X005811Y016834D03*
X005559Y016806D03*
X005531Y016904D03*
X005391Y016904D03*
X005391Y016876D03*
X005111Y016834D03*
X004971Y016946D03*
X004691Y016806D03*
X004649Y016946D03*
X004649Y017254D03*
X004649Y017324D03*
X004481Y017324D03*
X004341Y017324D03*
X004341Y017296D03*
X004341Y017254D03*
X004341Y017366D03*
X004341Y017464D03*
X004341Y017506D03*
X004341Y017534D03*
X004131Y017534D03*
X004131Y017506D03*
X004131Y017464D03*
X004131Y017366D03*
X004131Y017324D03*
X004131Y017296D03*
X004131Y017254D03*
X009129Y016876D03*
X009269Y016764D03*
X009269Y016736D03*
X009591Y016736D03*
X009591Y016764D03*
X009591Y016806D03*
X009591Y016834D03*
X009591Y016876D03*
X010039Y016876D03*
D195*
X010459Y017254D03*
X009353Y017254D03*
X008611Y017254D03*
X008443Y016736D03*
X008163Y017254D03*
X006483Y017254D03*
X006259Y016946D03*
X006497Y016736D03*
X004537Y017254D03*
D196*
X004880Y017254D03*
X004880Y017464D03*
X006840Y016946D03*
X006840Y016736D03*
D197*
X006826Y016764D03*
X006518Y016946D03*
X006504Y017464D03*
X006812Y017436D03*
X007106Y017254D03*
X007414Y016736D03*
X007526Y017366D03*
X007904Y016834D03*
X007876Y016736D03*
X008184Y017464D03*
X008464Y016946D03*
X008772Y016764D03*
X009066Y016736D03*
X008632Y017464D03*
X005916Y017254D03*
X005454Y017254D03*
X004866Y017436D03*
X004558Y017464D03*
D198*
X005433Y017436D03*
X005937Y017436D03*
X006203Y017254D03*
X007085Y017436D03*
X008163Y016736D03*
X010165Y017254D03*
D199*
X010067Y016946D03*
X010053Y016904D03*
X010025Y016834D03*
X009927Y016834D03*
X009913Y016876D03*
X009885Y016946D03*
X009787Y017254D03*
X009787Y017296D03*
X009787Y017324D03*
X009787Y017366D03*
X009787Y017394D03*
X008947Y016876D03*
X008723Y017254D03*
X008723Y017324D03*
X008555Y017324D03*
X008275Y017324D03*
X008275Y017254D03*
X008107Y017324D03*
X008387Y016806D03*
X008555Y016806D03*
X008555Y016834D03*
X008555Y016736D03*
X007477Y016876D03*
X007295Y016876D03*
X007463Y017254D03*
X007463Y017296D03*
X007463Y017324D03*
X007463Y017436D03*
X007463Y017464D03*
X007463Y017506D03*
X007463Y017534D03*
X006987Y017394D03*
X006595Y017324D03*
X006595Y017254D03*
X006427Y017324D03*
X006007Y017296D03*
X005825Y016904D03*
X005825Y016876D03*
X005545Y016834D03*
X005517Y016946D03*
X005405Y016946D03*
X005377Y016834D03*
X005125Y016806D03*
X005097Y016904D03*
X005083Y016946D03*
X004957Y016904D03*
X004957Y016876D03*
X004943Y016834D03*
X004677Y016834D03*
X004663Y016904D03*
X005335Y017394D03*
X005517Y017394D03*
D200*
X005104Y017366D03*
X006826Y017464D03*
X006826Y017254D03*
X008786Y016946D03*
X008786Y016736D03*
D201*
X009052Y016750D03*
X009500Y016932D03*
X009696Y017450D03*
X010172Y017450D03*
X010172Y017268D03*
X008646Y017268D03*
X008478Y016918D03*
X008478Y016848D03*
X008478Y016750D03*
X008170Y016750D03*
X008170Y016932D03*
X008198Y017268D03*
X007400Y016750D03*
X007092Y017268D03*
X007092Y017282D03*
X006518Y017268D03*
X006532Y016918D03*
X006532Y016848D03*
X006532Y016750D03*
X006210Y017268D03*
X006210Y017450D03*
X005930Y017282D03*
X005440Y017282D03*
X005440Y017268D03*
X004572Y017268D03*
D202*
X004873Y017268D03*
X004873Y017450D03*
X005111Y017352D03*
X005433Y017450D03*
X005699Y017450D03*
X005699Y017422D03*
X005909Y017380D03*
X006819Y017450D03*
X006819Y017268D03*
X006833Y016932D03*
X006833Y016750D03*
X007393Y016932D03*
X007659Y016932D03*
X007659Y016918D03*
X007869Y016862D03*
X008779Y016932D03*
X008779Y016750D03*
X010781Y017422D03*
X010781Y017450D03*
D203*
X009045Y016918D03*
X007897Y016918D03*
X007897Y016932D03*
X007883Y016750D03*
X007393Y016918D03*
X006525Y016932D03*
X005923Y017268D03*
X005937Y017450D03*
X004565Y017450D03*
D204*
X006217Y017436D03*
X006525Y016764D03*
X007897Y017296D03*
X008177Y016764D03*
X009395Y017296D03*
D205*
X009052Y016764D03*
X008646Y017366D03*
X008646Y017436D03*
X008198Y017436D03*
X008198Y017366D03*
X007890Y016764D03*
X007400Y016764D03*
X006518Y017366D03*
X006518Y017436D03*
X004572Y017436D03*
X004572Y017366D03*
D206*
X008471Y016764D03*
X009101Y017254D03*
X010179Y017436D03*
X010501Y017296D03*
D207*
X009976Y016764D03*
X009542Y016946D03*
X009738Y017464D03*
X009906Y017464D03*
X007834Y016876D03*
X005874Y017394D03*
X005678Y016904D03*
X005244Y016904D03*
D208*
X005335Y016792D03*
X005335Y016778D03*
D209*
X005209Y016862D03*
X005643Y016862D03*
X004943Y017422D03*
X004481Y017422D03*
X006427Y017422D03*
X006889Y017422D03*
X006903Y016778D03*
X008107Y017422D03*
X008849Y016778D03*
D210*
X009136Y016778D03*
X007806Y016778D03*
X007722Y016960D03*
X007484Y016778D03*
X006014Y017422D03*
X005762Y017478D03*
X005636Y016848D03*
X005636Y016820D03*
X005286Y016848D03*
X005286Y016862D03*
X005202Y016848D03*
X005202Y016820D03*
X004852Y016848D03*
X004852Y016862D03*
X004768Y016848D03*
X004768Y016820D03*
X010844Y017478D03*
D211*
X009976Y016792D03*
X008464Y016960D03*
X008184Y017478D03*
X006504Y017478D03*
D212*
X005846Y017296D03*
X005524Y017296D03*
X005706Y016876D03*
X005734Y016806D03*
X005804Y016806D03*
X005636Y016834D03*
X005622Y016806D03*
X005286Y016834D03*
X005272Y016876D03*
X005216Y016876D03*
X005202Y016834D03*
X005188Y016806D03*
X004936Y016806D03*
X004866Y016806D03*
X004852Y016834D03*
X004838Y016876D03*
X004782Y016876D03*
X004768Y016834D03*
X004754Y016806D03*
X007176Y017296D03*
X007974Y016904D03*
D213*
X005720Y016834D03*
X005650Y016876D03*
X005370Y016806D03*
X005300Y016806D03*
D214*
X005433Y017464D03*
X004607Y017394D03*
X006553Y017394D03*
X006567Y016876D03*
X007085Y017464D03*
X007393Y016946D03*
X008233Y017394D03*
X008681Y017394D03*
X008513Y016876D03*
X009045Y016946D03*
X009969Y016806D03*
D215*
X007918Y016820D03*
X007512Y017408D03*
X005958Y017338D03*
D216*
X005951Y017464D03*
X005699Y017436D03*
X007071Y016834D03*
X007519Y017394D03*
X007659Y016904D03*
X007911Y016946D03*
X010781Y017436D03*
D217*
X009038Y016834D03*
X007386Y016834D03*
X007078Y017366D03*
X006224Y016904D03*
X005426Y017366D03*
D218*
X005720Y016862D03*
X005720Y016848D03*
D219*
X007064Y016848D03*
D220*
X007386Y016848D03*
X007386Y016862D03*
X007078Y017352D03*
X007078Y017380D03*
X005426Y017380D03*
X005426Y017352D03*
X009038Y016862D03*
X009038Y016848D03*
D221*
X008660Y017380D03*
X007890Y016848D03*
D222*
X008555Y017422D03*
X004775Y016862D03*
D223*
X004866Y017282D03*
X004586Y017380D03*
X005944Y017352D03*
X006532Y017380D03*
X006812Y017282D03*
X006826Y016918D03*
X006546Y016862D03*
X007526Y017380D03*
X008212Y017380D03*
X008492Y016862D03*
X008772Y016918D03*
D224*
X007988Y016890D03*
X006028Y017408D03*
D225*
X004810Y016904D03*
X007610Y017324D03*
X009710Y016946D03*
D226*
X008849Y016904D03*
X008387Y016904D03*
X006903Y016904D03*
X006889Y017296D03*
X006441Y016904D03*
X004943Y017296D03*
D227*
X009591Y016904D03*
D228*
X009395Y017268D03*
X009395Y017282D03*
X008177Y016918D03*
X007897Y017268D03*
X007897Y017282D03*
X006217Y017282D03*
X006217Y016932D03*
X006217Y016918D03*
X004565Y017282D03*
D229*
X009584Y016918D03*
D230*
X008639Y017450D03*
X008471Y016932D03*
X008191Y017450D03*
X006511Y017450D03*
D231*
X007085Y017450D03*
X009045Y016932D03*
D232*
X009703Y016932D03*
X009899Y017450D03*
D233*
X008212Y016946D03*
X006252Y017464D03*
D234*
X006518Y016960D03*
X004558Y017478D03*
X008632Y017478D03*
D235*
X008639Y017282D03*
X008191Y017282D03*
X009101Y017282D03*
X009101Y017268D03*
X009101Y017240D03*
X010179Y017282D03*
X010501Y017282D03*
X010501Y017268D03*
X006511Y017282D03*
D236*
X007855Y017254D03*
D237*
X005930Y017366D03*
D238*
X004236Y017394D03*
X004236Y017436D03*
D239*
X004236Y017422D03*
X004236Y017408D03*
D240*
X009787Y017422D03*
D241*
X009780Y017436D03*
D242*
X010214Y017464D03*
D243*
X000980Y014250D03*
X000980Y011410D03*
D244*
X005128Y009331D02*
X005128Y008831D01*
X006128Y008831D01*
X006128Y009331D01*
X005128Y009331D01*
X006540Y009408D02*
X006540Y008856D01*
X007800Y008856D01*
X007800Y009408D01*
X006540Y009408D01*
X008085Y009494D02*
X008085Y008785D01*
X009502Y008785D01*
X009502Y009494D01*
X008085Y009494D01*
X009484Y011784D02*
X011494Y011784D01*
X011494Y012524D01*
X011494Y012532D02*
X011494Y012572D01*
X009484Y012572D01*
X009484Y012549D01*
X009484Y011784D01*
X009484Y012507D02*
X009484Y012549D01*
X010414Y012353D02*
X010414Y012003D01*
X010564Y012178D01*
X010414Y012353D01*
X010564Y012353D02*
X010564Y012003D01*
X010614Y014234D02*
X011114Y014234D01*
X011114Y015234D01*
X010614Y015234D01*
X010614Y014234D01*
X010707Y014655D02*
X011022Y014655D01*
X010864Y014813D01*
X010707Y014655D01*
X010707Y014813D02*
X010864Y014813D01*
X011022Y014813D01*
X011726Y009541D02*
X009836Y009541D01*
X009836Y008753D01*
X011726Y008753D01*
X011726Y009541D01*
X005589Y018204D02*
X005392Y018204D01*
X005589Y018204D02*
X005589Y018283D01*
X005589Y018755D02*
X005589Y018834D01*
X005392Y018834D01*
X004684Y018834D02*
X004487Y018834D01*
X004487Y018755D01*
X004487Y018283D02*
X004487Y018204D01*
X004684Y018204D01*
X002355Y005133D02*
X002316Y005133D01*
X002355Y005133D02*
X002355Y004503D01*
X002316Y004503D01*
X002040Y004503D02*
X001962Y004503D01*
X001647Y004503D02*
X001568Y004503D01*
X001292Y004503D02*
X001253Y004503D01*
X001253Y005133D01*
X001292Y005133D01*
X001568Y005133D02*
X001647Y005133D01*
X001962Y005133D02*
X002040Y005133D01*
X002507Y001216D02*
X001326Y001216D01*
X001326Y000626D01*
X002507Y000626D01*
X002507Y001216D01*
X001992Y001096D02*
X001992Y000746D01*
X001842Y000746D02*
X001992Y000921D01*
X001842Y001096D01*
X001842Y000746D01*
D245*
X002590Y016368D02*
X001015Y016368D01*
X000986Y016368D02*
X000986Y017785D01*
X003077Y017785D01*
X003034Y017785D01*
X003077Y017785D02*
X003624Y017785D01*
X003624Y016368D01*
X003596Y016368D02*
X002620Y016368D01*
X004841Y018225D02*
X004841Y018519D01*
X005235Y018225D01*
X005235Y018813D01*
X004841Y018519D01*
X004841Y018813D01*
D246*
X010510Y011258D02*
X010610Y011258D01*
D247*
X005104Y010659D02*
X005091Y010695D01*
X005147Y010718D01*
X005202Y010744D01*
X005255Y010774D01*
X005305Y010807D01*
X005354Y010843D01*
X005400Y010883D01*
X005443Y010925D01*
X005484Y010970D01*
X005522Y011017D01*
X005556Y011067D01*
X005588Y011118D01*
X005616Y011172D01*
X005640Y011228D01*
X005661Y011284D01*
X005678Y011342D01*
X005692Y011401D01*
X005701Y011461D01*
X005707Y011521D01*
X005709Y011582D01*
X005707Y011643D01*
X005701Y011703D01*
X005692Y011763D01*
X005678Y011822D01*
X005661Y011880D01*
X005640Y011936D01*
X005616Y011992D01*
X005588Y012046D01*
X005556Y012097D01*
X005522Y012147D01*
X005484Y012194D01*
X005443Y012239D01*
X005400Y012281D01*
X005354Y012321D01*
X005305Y012357D01*
X005255Y012390D01*
X005202Y012420D01*
X005147Y012446D01*
X005091Y012469D01*
X005104Y012505D01*
X005105Y012506D01*
X005162Y012483D01*
X005217Y012456D01*
X005271Y012426D01*
X005322Y012393D01*
X005372Y012356D01*
X005419Y012317D01*
X005463Y012275D01*
X005505Y012229D01*
X005544Y012182D01*
X005580Y012132D01*
X005613Y012080D01*
X005642Y012026D01*
X005668Y011970D01*
X005691Y011913D01*
X005709Y011855D01*
X005725Y011795D01*
X005736Y011735D01*
X005744Y011674D01*
X005748Y011613D01*
X005748Y011551D01*
X005744Y011490D01*
X005736Y011429D01*
X005725Y011369D01*
X005709Y011309D01*
X005691Y011251D01*
X005668Y011194D01*
X005642Y011138D01*
X005613Y011084D01*
X005580Y011032D01*
X005544Y010982D01*
X005505Y010935D01*
X005463Y010889D01*
X005419Y010847D01*
X005372Y010808D01*
X005322Y010771D01*
X005271Y010738D01*
X005217Y010708D01*
X005162Y010681D01*
X005105Y010658D01*
X005105Y010659D01*
X005161Y010682D01*
X005217Y010709D01*
X005270Y010739D01*
X005322Y010772D01*
X005371Y010809D01*
X005418Y010848D01*
X005463Y010890D01*
X005505Y010935D01*
X005543Y010983D01*
X005579Y011032D01*
X005612Y011084D01*
X005641Y011138D01*
X005667Y011194D01*
X005690Y011251D01*
X005708Y011309D01*
X005724Y011369D01*
X005735Y011429D01*
X005743Y011490D01*
X005747Y011551D01*
X005747Y011613D01*
X005743Y011674D01*
X005735Y011735D01*
X005724Y011795D01*
X005708Y011855D01*
X005690Y011913D01*
X005667Y011970D01*
X005641Y012026D01*
X005612Y012080D01*
X005579Y012132D01*
X005543Y012181D01*
X005505Y012229D01*
X005463Y012274D01*
X005418Y012316D01*
X005371Y012355D01*
X005322Y012392D01*
X005270Y012425D01*
X005217Y012455D01*
X005161Y012482D01*
X005105Y012505D01*
X005104Y012504D01*
X005161Y012481D01*
X005216Y012454D01*
X005270Y012424D01*
X005321Y012391D01*
X005371Y012355D01*
X005418Y012315D01*
X005462Y012273D01*
X005504Y012228D01*
X005543Y012181D01*
X005578Y012131D01*
X005611Y012079D01*
X005640Y012025D01*
X005666Y011970D01*
X005689Y011913D01*
X005708Y011854D01*
X005723Y011795D01*
X005734Y011735D01*
X005742Y011674D01*
X005746Y011613D01*
X005746Y011551D01*
X005742Y011490D01*
X005734Y011429D01*
X005723Y011369D01*
X005708Y011310D01*
X005689Y011251D01*
X005666Y011194D01*
X005640Y011139D01*
X005611Y011085D01*
X005578Y011033D01*
X005543Y010983D01*
X005504Y010936D01*
X005462Y010891D01*
X005418Y010849D01*
X005371Y010809D01*
X005321Y010773D01*
X005270Y010740D01*
X005216Y010710D01*
X005161Y010683D01*
X005104Y010660D01*
X005104Y010661D01*
X005161Y010684D01*
X005216Y010711D01*
X005269Y010741D01*
X005321Y010774D01*
X005370Y010810D01*
X005417Y010849D01*
X005461Y010892D01*
X005503Y010936D01*
X005542Y010984D01*
X005578Y011034D01*
X005610Y011085D01*
X005639Y011139D01*
X005665Y011195D01*
X005688Y011252D01*
X005707Y011310D01*
X005722Y011369D01*
X005733Y011429D01*
X005741Y011490D01*
X005745Y011551D01*
X005745Y011613D01*
X005741Y011674D01*
X005733Y011735D01*
X005722Y011795D01*
X005707Y011854D01*
X005688Y011912D01*
X005665Y011969D01*
X005639Y012025D01*
X005610Y012079D01*
X005578Y012130D01*
X005542Y012180D01*
X005503Y012228D01*
X005461Y012272D01*
X005417Y012315D01*
X005370Y012354D01*
X005321Y012390D01*
X005269Y012423D01*
X005216Y012453D01*
X005161Y012480D01*
X005104Y012503D01*
X005104Y012502D01*
X005160Y012479D01*
X005215Y012452D01*
X005269Y012423D01*
X005320Y012389D01*
X005369Y012353D01*
X005416Y012314D01*
X005461Y012272D01*
X005502Y012227D01*
X005541Y012180D01*
X005577Y012130D01*
X005609Y012078D01*
X005639Y012024D01*
X005664Y011969D01*
X005687Y011912D01*
X005706Y011854D01*
X005721Y011794D01*
X005732Y011734D01*
X005740Y011674D01*
X005744Y011613D01*
X005744Y011551D01*
X005740Y011490D01*
X005732Y011430D01*
X005721Y011370D01*
X005706Y011310D01*
X005687Y011252D01*
X005664Y011195D01*
X005639Y011140D01*
X005609Y011086D01*
X005577Y011034D01*
X005541Y010984D01*
X005502Y010937D01*
X005461Y010892D01*
X005416Y010850D01*
X005369Y010811D01*
X005320Y010775D01*
X005269Y010741D01*
X005215Y010712D01*
X005160Y010685D01*
X005104Y010662D01*
X005103Y010663D01*
X005160Y010686D01*
X005215Y010712D01*
X005268Y010742D01*
X005320Y010775D01*
X005369Y010812D01*
X005416Y010851D01*
X005460Y010893D01*
X005502Y010938D01*
X005540Y010985D01*
X005576Y011035D01*
X005608Y011086D01*
X005638Y011140D01*
X005664Y011195D01*
X005686Y011252D01*
X005705Y011311D01*
X005720Y011370D01*
X005731Y011430D01*
X005739Y011490D01*
X005743Y011551D01*
X005743Y011613D01*
X005739Y011674D01*
X005731Y011734D01*
X005720Y011794D01*
X005705Y011853D01*
X005686Y011912D01*
X005664Y011969D01*
X005638Y012024D01*
X005608Y012078D01*
X005576Y012129D01*
X005540Y012179D01*
X005502Y012226D01*
X005460Y012271D01*
X005416Y012313D01*
X005369Y012352D01*
X005320Y012389D01*
X005268Y012422D01*
X005215Y012452D01*
X005160Y012478D01*
X005103Y012501D01*
X005103Y012500D01*
X005159Y012477D01*
X005214Y012451D01*
X005268Y012421D01*
X005319Y012388D01*
X005368Y012352D01*
X005415Y012312D01*
X005459Y012270D01*
X005501Y012226D01*
X005539Y012178D01*
X005575Y012129D01*
X005608Y012077D01*
X005637Y012023D01*
X005663Y011968D01*
X005685Y011911D01*
X005704Y011853D01*
X005719Y011794D01*
X005730Y011734D01*
X005738Y011673D01*
X005742Y011613D01*
X005742Y011551D01*
X005738Y011491D01*
X005730Y011430D01*
X005719Y011370D01*
X005704Y011311D01*
X005685Y011253D01*
X005663Y011196D01*
X005637Y011141D01*
X005608Y011087D01*
X005575Y011035D01*
X005539Y010986D01*
X005501Y010938D01*
X005459Y010894D01*
X005415Y010852D01*
X005368Y010812D01*
X005319Y010776D01*
X005268Y010743D01*
X005214Y010713D01*
X005159Y010687D01*
X005103Y010664D01*
X005102Y010665D01*
X005159Y010688D01*
X005214Y010714D01*
X005267Y010744D01*
X005318Y010777D01*
X005368Y010813D01*
X005414Y010852D01*
X005458Y010894D01*
X005500Y010939D01*
X005539Y010986D01*
X005574Y011036D01*
X005607Y011087D01*
X005636Y011141D01*
X005662Y011196D01*
X005684Y011253D01*
X005703Y011311D01*
X005718Y011370D01*
X005729Y011430D01*
X005737Y011491D01*
X005741Y011552D01*
X005741Y011612D01*
X005737Y011673D01*
X005729Y011734D01*
X005718Y011794D01*
X005703Y011853D01*
X005684Y011911D01*
X005662Y011968D01*
X005636Y012023D01*
X005607Y012077D01*
X005574Y012128D01*
X005539Y012178D01*
X005500Y012225D01*
X005458Y012270D01*
X005414Y012312D01*
X005368Y012351D01*
X005318Y012387D01*
X005267Y012420D01*
X005214Y012450D01*
X005159Y012476D01*
X005102Y012499D01*
X005102Y012498D01*
X005159Y012475D01*
X005214Y012449D01*
X005267Y012419D01*
X005318Y012386D01*
X005367Y012350D01*
X005414Y012311D01*
X005458Y012269D01*
X005499Y012224D01*
X005538Y012177D01*
X005573Y012128D01*
X005606Y012076D01*
X005635Y012023D01*
X005661Y011967D01*
X005683Y011911D01*
X005702Y011853D01*
X005717Y011794D01*
X005728Y011734D01*
X005736Y011673D01*
X005740Y011612D01*
X005740Y011552D01*
X005736Y011491D01*
X005728Y011430D01*
X005717Y011370D01*
X005702Y011311D01*
X005683Y011253D01*
X005661Y011197D01*
X005635Y011141D01*
X005606Y011088D01*
X005573Y011036D01*
X005538Y010987D01*
X005499Y010940D01*
X005458Y010895D01*
X005414Y010853D01*
X005367Y010814D01*
X005318Y010778D01*
X005267Y010745D01*
X005214Y010715D01*
X005159Y010689D01*
X005102Y010666D01*
X005102Y010667D01*
X005158Y010690D01*
X005213Y010716D01*
X005266Y010746D01*
X005317Y010779D01*
X005366Y010815D01*
X005413Y010854D01*
X005457Y010896D01*
X005498Y010940D01*
X005537Y010988D01*
X005573Y011037D01*
X005605Y011088D01*
X005634Y011142D01*
X005660Y011197D01*
X005682Y011254D01*
X005701Y011312D01*
X005716Y011371D01*
X005727Y011430D01*
X005735Y011491D01*
X005739Y011552D01*
X005739Y011612D01*
X005735Y011673D01*
X005727Y011734D01*
X005716Y011793D01*
X005701Y011852D01*
X005682Y011910D01*
X005660Y011967D01*
X005634Y012022D01*
X005605Y012076D01*
X005573Y012127D01*
X005537Y012176D01*
X005498Y012224D01*
X005457Y012268D01*
X005413Y012310D01*
X005366Y012349D01*
X005317Y012385D01*
X005266Y012418D01*
X005213Y012448D01*
X005158Y012474D01*
X005102Y012497D01*
X005101Y012496D01*
X005158Y012473D01*
X005213Y012447D01*
X005266Y012417D01*
X005317Y012384D01*
X005366Y012348D01*
X005412Y012309D01*
X005456Y012267D01*
X005498Y012223D01*
X005536Y012176D01*
X005572Y012127D01*
X005604Y012075D01*
X005633Y012022D01*
X005659Y011967D01*
X005681Y011910D01*
X005700Y011852D01*
X005715Y011793D01*
X005726Y011733D01*
X005734Y011673D01*
X005738Y011612D01*
X005738Y011552D01*
X005734Y011491D01*
X005726Y011431D01*
X005715Y011371D01*
X005700Y011312D01*
X005681Y011254D01*
X005659Y011197D01*
X005633Y011142D01*
X005604Y011089D01*
X005572Y011037D01*
X005536Y010988D01*
X005498Y010941D01*
X005456Y010897D01*
X005412Y010855D01*
X005366Y010816D01*
X005317Y010780D01*
X005266Y010747D01*
X005213Y010717D01*
X005158Y010691D01*
X005101Y010668D01*
X005101Y010669D01*
X005157Y010691D01*
X005212Y010718D01*
X005265Y010747D01*
X005316Y010780D01*
X005365Y010816D01*
X005412Y010855D01*
X005456Y010897D01*
X005497Y010942D01*
X005535Y010989D01*
X005571Y011038D01*
X005603Y011089D01*
X005632Y011143D01*
X005658Y011198D01*
X005680Y011254D01*
X005699Y011312D01*
X005714Y011371D01*
X005725Y011431D01*
X005733Y011491D01*
X005737Y011552D01*
X005737Y011612D01*
X005733Y011673D01*
X005725Y011733D01*
X005714Y011793D01*
X005699Y011852D01*
X005680Y011910D01*
X005658Y011966D01*
X005632Y012021D01*
X005603Y012075D01*
X005571Y012126D01*
X005535Y012175D01*
X005497Y012222D01*
X005456Y012267D01*
X005412Y012309D01*
X005365Y012348D01*
X005316Y012384D01*
X005265Y012417D01*
X005212Y012446D01*
X005157Y012473D01*
X005101Y012495D01*
X005101Y012494D01*
X005157Y012472D01*
X005212Y012445D01*
X005265Y012416D01*
X005316Y012383D01*
X005364Y012347D01*
X005411Y012308D01*
X005455Y012266D01*
X005496Y012222D01*
X005535Y012175D01*
X005570Y012125D01*
X005602Y012074D01*
X005631Y012021D01*
X005657Y011966D01*
X005679Y011909D01*
X005698Y011852D01*
X005713Y011793D01*
X005724Y011733D01*
X005732Y011673D01*
X005736Y011612D01*
X005736Y011552D01*
X005732Y011491D01*
X005724Y011431D01*
X005713Y011371D01*
X005698Y011312D01*
X005679Y011255D01*
X005657Y011198D01*
X005631Y011143D01*
X005602Y011090D01*
X005570Y011039D01*
X005535Y010989D01*
X005496Y010942D01*
X005455Y010898D01*
X005411Y010856D01*
X005364Y010817D01*
X005316Y010781D01*
X005265Y010748D01*
X005212Y010719D01*
X005157Y010692D01*
X005101Y010670D01*
X005100Y010670D01*
X005158Y010694D01*
X005214Y010721D01*
X005268Y010752D01*
X005320Y010786D01*
X005370Y010823D01*
X005417Y010863D01*
X005462Y010907D01*
X005504Y010953D01*
X005543Y011001D01*
X005578Y011052D01*
X005610Y011106D01*
X005639Y011161D01*
X005664Y011218D01*
X005686Y011276D01*
X005703Y011336D01*
X005717Y011396D01*
X005727Y011458D01*
X005733Y011520D01*
X005735Y011582D01*
X005733Y011644D01*
X005727Y011706D01*
X005717Y011768D01*
X005703Y011828D01*
X005686Y011888D01*
X005664Y011946D01*
X005639Y012003D01*
X005610Y012058D01*
X005578Y012112D01*
X005543Y012163D01*
X005504Y012211D01*
X005462Y012257D01*
X005417Y012301D01*
X005370Y012341D01*
X005320Y012378D01*
X005268Y012412D01*
X005214Y012443D01*
X005158Y012470D01*
X005100Y012494D01*
X005100Y012493D01*
X005158Y012469D01*
X005214Y012442D01*
X005268Y012412D01*
X005320Y012378D01*
X005369Y012340D01*
X005417Y012300D01*
X005461Y012257D01*
X005503Y012211D01*
X005542Y012162D01*
X005577Y012111D01*
X005609Y012058D01*
X005638Y012003D01*
X005663Y011946D01*
X005685Y011888D01*
X005702Y011828D01*
X005716Y011767D01*
X005726Y011706D01*
X005732Y011644D01*
X005734Y011582D01*
X005732Y011520D01*
X005726Y011458D01*
X005716Y011397D01*
X005702Y011336D01*
X005685Y011276D01*
X005663Y011218D01*
X005638Y011161D01*
X005609Y011106D01*
X005577Y011053D01*
X005542Y011002D01*
X005503Y010953D01*
X005461Y010907D01*
X005417Y010864D01*
X005369Y010824D01*
X005320Y010786D01*
X005268Y010752D01*
X005214Y010722D01*
X005158Y010695D01*
X005100Y010671D01*
X005100Y010672D01*
X005157Y010696D01*
X005213Y010723D01*
X005267Y010753D01*
X005319Y010787D01*
X005369Y010824D01*
X005416Y010865D01*
X005461Y010908D01*
X005502Y010954D01*
X005541Y011003D01*
X005576Y011054D01*
X005609Y011107D01*
X005637Y011162D01*
X005662Y011219D01*
X005684Y011277D01*
X005701Y011336D01*
X005715Y011397D01*
X005725Y011458D01*
X005731Y011520D01*
X005733Y011582D01*
X005731Y011644D01*
X005725Y011706D01*
X005715Y011767D01*
X005701Y011828D01*
X005684Y011887D01*
X005662Y011945D01*
X005637Y012002D01*
X005609Y012057D01*
X005576Y012110D01*
X005541Y012161D01*
X005502Y012210D01*
X005461Y012256D01*
X005416Y012299D01*
X005369Y012340D01*
X005319Y012377D01*
X005267Y012411D01*
X005213Y012441D01*
X005157Y012468D01*
X005100Y012492D01*
X005099Y012491D01*
X005157Y012467D01*
X005213Y012440D01*
X005267Y012410D01*
X005319Y012376D01*
X005368Y012339D01*
X005415Y012298D01*
X005460Y012255D01*
X005502Y012209D01*
X005540Y012161D01*
X005576Y012110D01*
X005608Y012057D01*
X005636Y012002D01*
X005661Y011945D01*
X005683Y011887D01*
X005700Y011827D01*
X005714Y011767D01*
X005724Y011706D01*
X005730Y011644D01*
X005732Y011582D01*
X005730Y011520D01*
X005724Y011458D01*
X005714Y011397D01*
X005700Y011337D01*
X005683Y011277D01*
X005661Y011219D01*
X005636Y011162D01*
X005608Y011107D01*
X005576Y011054D01*
X005540Y011003D01*
X005502Y010955D01*
X005460Y010909D01*
X005415Y010866D01*
X005368Y010825D01*
X005319Y010788D01*
X005267Y010754D01*
X005213Y010724D01*
X005157Y010697D01*
X005099Y010673D01*
X005099Y010674D01*
X005156Y010698D01*
X005212Y010725D01*
X005266Y010755D01*
X005318Y010789D01*
X005368Y010826D01*
X005415Y010866D01*
X005459Y010909D01*
X005501Y010955D01*
X005539Y011004D01*
X005575Y011055D01*
X005607Y011108D01*
X005635Y011163D01*
X005660Y011219D01*
X005682Y011277D01*
X005699Y011337D01*
X005713Y011397D01*
X005723Y011458D01*
X005729Y011520D01*
X005731Y011582D01*
X005729Y011644D01*
X005723Y011706D01*
X005713Y011767D01*
X005699Y011827D01*
X005682Y011887D01*
X005660Y011945D01*
X005635Y012001D01*
X005607Y012056D01*
X005575Y012109D01*
X005539Y012160D01*
X005501Y012209D01*
X005459Y012255D01*
X005415Y012298D01*
X005368Y012338D01*
X005318Y012375D01*
X005266Y012409D01*
X005212Y012439D01*
X005156Y012466D01*
X005099Y012490D01*
X005099Y012489D01*
X005156Y012466D01*
X005212Y012439D01*
X005266Y012408D01*
X005317Y012374D01*
X005367Y012337D01*
X005414Y012297D01*
X005458Y012254D01*
X005500Y012208D01*
X005539Y012160D01*
X005574Y012109D01*
X005606Y012056D01*
X005635Y012001D01*
X005660Y011944D01*
X005681Y011886D01*
X005698Y011827D01*
X005712Y011767D01*
X005722Y011705D01*
X005728Y011644D01*
X005730Y011582D01*
X005728Y011520D01*
X005722Y011459D01*
X005712Y011397D01*
X005698Y011337D01*
X005681Y011278D01*
X005660Y011220D01*
X005635Y011163D01*
X005606Y011108D01*
X005574Y011055D01*
X005539Y011004D01*
X005500Y010956D01*
X005458Y010910D01*
X005414Y010867D01*
X005367Y010827D01*
X005317Y010790D01*
X005266Y010756D01*
X005212Y010725D01*
X005156Y010698D01*
X005099Y010675D01*
X005098Y010676D01*
X005156Y010699D01*
X005211Y010726D01*
X005265Y010757D01*
X005317Y010791D01*
X005366Y010828D01*
X005413Y010868D01*
X005458Y010911D01*
X005499Y010957D01*
X005538Y011005D01*
X005573Y011056D01*
X005605Y011109D01*
X005634Y011163D01*
X005659Y011220D01*
X005680Y011278D01*
X005698Y011337D01*
X005711Y011398D01*
X005721Y011459D01*
X005727Y011520D01*
X005729Y011582D01*
X005727Y011644D01*
X005721Y011705D01*
X005711Y011766D01*
X005698Y011827D01*
X005680Y011886D01*
X005659Y011944D01*
X005634Y012001D01*
X005605Y012055D01*
X005573Y012108D01*
X005538Y012159D01*
X005499Y012207D01*
X005458Y012253D01*
X005413Y012296D01*
X005366Y012336D01*
X005317Y012373D01*
X005265Y012407D01*
X005211Y012438D01*
X005156Y012465D01*
X005098Y012488D01*
X005098Y012487D01*
X005155Y012464D01*
X005211Y012437D01*
X005265Y012406D01*
X005316Y012373D01*
X005366Y012336D01*
X005413Y012296D01*
X005457Y012253D01*
X005498Y012207D01*
X005537Y012158D01*
X005572Y012108D01*
X005604Y012055D01*
X005633Y012000D01*
X005658Y011944D01*
X005679Y011886D01*
X005697Y011826D01*
X005710Y011766D01*
X005720Y011705D01*
X005726Y011644D01*
X005728Y011582D01*
X005726Y011520D01*
X005720Y011459D01*
X005710Y011398D01*
X005697Y011338D01*
X005679Y011278D01*
X005658Y011220D01*
X005633Y011164D01*
X005604Y011109D01*
X005572Y011056D01*
X005537Y011006D01*
X005498Y010957D01*
X005457Y010911D01*
X005413Y010868D01*
X005366Y010828D01*
X005316Y010791D01*
X005265Y010758D01*
X005211Y010727D01*
X005155Y010700D01*
X005098Y010677D01*
X005098Y010678D01*
X005155Y010701D01*
X005210Y010728D01*
X005264Y010758D01*
X005316Y010792D01*
X005365Y010829D01*
X005412Y010869D01*
X005456Y010912D01*
X005498Y010958D01*
X005536Y011006D01*
X005571Y011057D01*
X005603Y011110D01*
X005632Y011164D01*
X005657Y011221D01*
X005678Y011279D01*
X005696Y011338D01*
X005709Y011398D01*
X005719Y011459D01*
X005725Y011520D01*
X005727Y011582D01*
X005725Y011644D01*
X005719Y011705D01*
X005709Y011766D01*
X005696Y011826D01*
X005678Y011885D01*
X005657Y011943D01*
X005632Y012000D01*
X005603Y012054D01*
X005571Y012107D01*
X005536Y012158D01*
X005498Y012206D01*
X005456Y012252D01*
X005412Y012295D01*
X005365Y012335D01*
X005316Y012372D01*
X005264Y012406D01*
X005210Y012436D01*
X005155Y012463D01*
X005098Y012486D01*
X005097Y012485D01*
X005154Y012462D01*
X005210Y012435D01*
X005264Y012405D01*
X005315Y012371D01*
X005364Y012334D01*
X005411Y012294D01*
X005456Y012251D01*
X005497Y012205D01*
X005535Y012157D01*
X005571Y012107D01*
X005602Y012054D01*
X005631Y011999D01*
X005656Y011943D01*
X005677Y011885D01*
X005695Y011826D01*
X005708Y011766D01*
X005718Y011705D01*
X005724Y011644D01*
X005726Y011582D01*
X005724Y011520D01*
X005718Y011459D01*
X005708Y011398D01*
X005695Y011338D01*
X005677Y011279D01*
X005656Y011221D01*
X005631Y011165D01*
X005602Y011110D01*
X005571Y011057D01*
X005535Y011007D01*
X005497Y010959D01*
X005456Y010913D01*
X005411Y010870D01*
X005364Y010830D01*
X005315Y010793D01*
X005264Y010759D01*
X005210Y010729D01*
X005154Y010702D01*
X005097Y010679D01*
X005097Y010680D01*
X005154Y010703D01*
X005209Y010730D01*
X005263Y010760D01*
X005315Y010794D01*
X005364Y010831D01*
X005411Y010871D01*
X005455Y010914D01*
X005496Y010959D01*
X005535Y011007D01*
X005570Y011058D01*
X005602Y011111D01*
X005630Y011165D01*
X005655Y011222D01*
X005676Y011279D01*
X005694Y011338D01*
X005707Y011398D01*
X005717Y011459D01*
X005723Y011520D01*
X005725Y011582D01*
X005723Y011644D01*
X005717Y011705D01*
X005707Y011766D01*
X005694Y011826D01*
X005676Y011885D01*
X005655Y011942D01*
X005630Y011999D01*
X005602Y012053D01*
X005570Y012106D01*
X005535Y012157D01*
X005496Y012205D01*
X005455Y012250D01*
X005411Y012293D01*
X005364Y012333D01*
X005315Y012370D01*
X005263Y012404D01*
X005209Y012434D01*
X005154Y012461D01*
X005097Y012484D01*
X005097Y012483D01*
X005154Y012460D01*
X005209Y012433D01*
X005262Y012403D01*
X005314Y012369D01*
X005363Y012333D01*
X005410Y012293D01*
X005454Y012250D01*
X005495Y012204D01*
X005534Y012156D01*
X005569Y012106D01*
X005601Y012053D01*
X005629Y011998D01*
X005654Y011942D01*
X005675Y011884D01*
X005693Y011825D01*
X005706Y011765D01*
X005716Y011705D01*
X005722Y011643D01*
X005724Y011582D01*
X005722Y011521D01*
X005716Y011459D01*
X005706Y011399D01*
X005693Y011339D01*
X005675Y011280D01*
X005654Y011222D01*
X005629Y011166D01*
X005601Y011111D01*
X005569Y011058D01*
X005534Y011008D01*
X005495Y010960D01*
X005454Y010914D01*
X005410Y010871D01*
X005363Y010831D01*
X005314Y010795D01*
X005262Y010761D01*
X005209Y010731D01*
X005154Y010704D01*
X005097Y010681D01*
X005096Y010682D01*
X005153Y010705D01*
X005208Y010732D01*
X005262Y010762D01*
X005313Y010795D01*
X005363Y010832D01*
X005409Y010872D01*
X005453Y010915D01*
X005495Y010961D01*
X005533Y011009D01*
X005568Y011059D01*
X005600Y011112D01*
X005628Y011166D01*
X005653Y011222D01*
X005674Y011280D01*
X005692Y011339D01*
X005705Y011399D01*
X005715Y011459D01*
X005721Y011521D01*
X005723Y011582D01*
X005721Y011643D01*
X005715Y011705D01*
X005705Y011765D01*
X005692Y011825D01*
X005674Y011884D01*
X005653Y011942D01*
X005628Y011998D01*
X005600Y012052D01*
X005568Y012105D01*
X005533Y012155D01*
X005495Y012203D01*
X005453Y012249D01*
X005409Y012292D01*
X005363Y012332D01*
X005313Y012369D01*
X005262Y012402D01*
X005208Y012432D01*
X005153Y012459D01*
X005096Y012482D01*
X005096Y012481D01*
X005153Y012458D01*
X005208Y012431D01*
X005261Y012401D01*
X005313Y012368D01*
X005362Y012331D01*
X005409Y012291D01*
X005453Y012248D01*
X005494Y012203D01*
X005532Y012155D01*
X005567Y012104D01*
X005599Y012052D01*
X005627Y011997D01*
X005652Y011941D01*
X005673Y011884D01*
X005691Y011825D01*
X005704Y011765D01*
X005714Y011704D01*
X005720Y011643D01*
X005722Y011582D01*
X005720Y011521D01*
X005714Y011460D01*
X005704Y011399D01*
X005691Y011339D01*
X005673Y011280D01*
X005652Y011223D01*
X005627Y011167D01*
X005599Y011112D01*
X005567Y011060D01*
X005532Y011009D01*
X005494Y010961D01*
X005453Y010916D01*
X005409Y010873D01*
X005362Y010833D01*
X005313Y010796D01*
X005261Y010763D01*
X005208Y010733D01*
X005153Y010706D01*
X005096Y010683D01*
X005096Y010684D01*
X005152Y010707D01*
X005208Y010733D01*
X005261Y010764D01*
X005312Y010797D01*
X005361Y010834D01*
X005408Y010874D01*
X005452Y010916D01*
X005493Y010962D01*
X005531Y011010D01*
X005566Y011060D01*
X005598Y011113D01*
X005626Y011167D01*
X005651Y011223D01*
X005672Y011281D01*
X005690Y011339D01*
X005703Y011399D01*
X005713Y011460D01*
X005719Y011521D01*
X005721Y011582D01*
X005719Y011643D01*
X005713Y011704D01*
X005703Y011765D01*
X005690Y011825D01*
X005672Y011883D01*
X005651Y011941D01*
X005626Y011997D01*
X005598Y012051D01*
X005566Y012104D01*
X005531Y012154D01*
X005493Y012202D01*
X005452Y012248D01*
X005408Y012290D01*
X005361Y012330D01*
X005312Y012367D01*
X005261Y012400D01*
X005208Y012431D01*
X005152Y012457D01*
X005096Y012480D01*
X005095Y012479D01*
X005152Y012456D01*
X005207Y012430D01*
X005260Y012400D01*
X005312Y012366D01*
X005361Y012329D01*
X005407Y012290D01*
X005451Y012247D01*
X005492Y012202D01*
X005531Y012154D01*
X005566Y012103D01*
X005597Y012051D01*
X005626Y011997D01*
X005650Y011941D01*
X005671Y011883D01*
X005689Y011824D01*
X005702Y011765D01*
X005712Y011704D01*
X005718Y011643D01*
X005720Y011582D01*
X005718Y011521D01*
X005712Y011460D01*
X005702Y011399D01*
X005689Y011340D01*
X005671Y011281D01*
X005650Y011223D01*
X005626Y011167D01*
X005597Y011113D01*
X005566Y011061D01*
X005531Y011010D01*
X005492Y010962D01*
X005451Y010917D01*
X005407Y010874D01*
X005361Y010835D01*
X005312Y010798D01*
X005260Y010764D01*
X005207Y010734D01*
X005152Y010708D01*
X005095Y010685D01*
X005152Y010709D01*
X005207Y010735D01*
X005260Y010765D01*
X005311Y010799D01*
X005360Y010835D01*
X005407Y010875D01*
X005451Y010918D01*
X005492Y010963D01*
X005530Y011011D01*
X005565Y011061D01*
X005596Y011114D01*
X005625Y011168D01*
X005649Y011224D01*
X005670Y011281D01*
X005688Y011340D01*
X005701Y011400D01*
X005711Y011460D01*
X005717Y011521D01*
X005719Y011582D01*
X005717Y011643D01*
X005711Y011704D01*
X005701Y011764D01*
X005688Y011824D01*
X005670Y011883D01*
X005649Y011940D01*
X005625Y011996D01*
X005596Y012050D01*
X005565Y012103D01*
X005530Y012153D01*
X005492Y012201D01*
X005451Y012246D01*
X005407Y012289D01*
X005360Y012329D01*
X005311Y012365D01*
X005260Y012399D01*
X005207Y012429D01*
X005152Y012455D01*
X005095Y012479D01*
X005095Y012478D01*
X005151Y012455D01*
X005206Y012428D01*
X005259Y012398D01*
X005311Y012364D01*
X005359Y012328D01*
X005406Y012288D01*
X005450Y012246D01*
X005491Y012200D01*
X005529Y012152D01*
X005564Y012102D01*
X005595Y012050D01*
X005624Y011996D01*
X005648Y011940D01*
X005669Y011882D01*
X005687Y011824D01*
X005700Y011764D01*
X005710Y011704D01*
X005716Y011643D01*
X005718Y011582D01*
X005716Y011521D01*
X005710Y011460D01*
X005700Y011400D01*
X005687Y011340D01*
X005669Y011282D01*
X005648Y011224D01*
X005624Y011168D01*
X005595Y011114D01*
X005564Y011062D01*
X005529Y011012D01*
X005491Y010964D01*
X005450Y010918D01*
X005406Y010876D01*
X005359Y010836D01*
X005311Y010800D01*
X005259Y010766D01*
X005206Y010736D01*
X005151Y010709D01*
X005095Y010686D01*
X005094Y010687D01*
X005151Y010710D01*
X005206Y010737D01*
X005259Y010767D01*
X005310Y010800D01*
X005359Y010837D01*
X005405Y010877D01*
X005449Y010919D01*
X005490Y010964D01*
X005528Y011012D01*
X005563Y011062D01*
X005595Y011115D01*
X005623Y011169D01*
X005647Y011225D01*
X005669Y011282D01*
X005686Y011340D01*
X005699Y011400D01*
X005709Y011460D01*
X005715Y011521D01*
X005717Y011582D01*
X005715Y011643D01*
X005709Y011704D01*
X005699Y011764D01*
X005686Y011824D01*
X005669Y011882D01*
X005647Y011939D01*
X005623Y011995D01*
X005595Y012049D01*
X005563Y012102D01*
X005528Y012152D01*
X005490Y012200D01*
X005449Y012245D01*
X005405Y012287D01*
X005359Y012327D01*
X005310Y012364D01*
X005259Y012397D01*
X005206Y012427D01*
X005151Y012454D01*
X005094Y012477D01*
X005094Y012476D01*
X005150Y012453D01*
X005205Y012426D01*
X005258Y012396D01*
X005309Y012363D01*
X005358Y012326D01*
X005405Y012287D01*
X005448Y012244D01*
X005489Y012199D01*
X005527Y012151D01*
X005562Y012101D01*
X005594Y012049D01*
X005622Y011995D01*
X005647Y011939D01*
X005668Y011882D01*
X005685Y011823D01*
X005698Y011764D01*
X005708Y011704D01*
X005714Y011643D01*
X005716Y011582D01*
X005714Y011521D01*
X005708Y011460D01*
X005698Y011400D01*
X005685Y011341D01*
X005668Y011282D01*
X005647Y011225D01*
X005622Y011169D01*
X005594Y011115D01*
X005562Y011063D01*
X005527Y011013D01*
X005489Y010965D01*
X005448Y010920D01*
X005405Y010877D01*
X005358Y010838D01*
X005309Y010801D01*
X005258Y010768D01*
X005205Y010738D01*
X005150Y010711D01*
X005094Y010688D01*
X005093Y010689D01*
X005150Y010712D01*
X005205Y010739D01*
X005258Y010769D01*
X005309Y010802D01*
X005358Y010839D01*
X005404Y010878D01*
X005448Y010921D01*
X005489Y010966D01*
X005527Y011013D01*
X005561Y011063D01*
X005593Y011115D01*
X005621Y011170D01*
X005646Y011225D01*
X005667Y011282D01*
X005684Y011341D01*
X005697Y011400D01*
X005707Y011460D01*
X005713Y011521D01*
X005715Y011582D01*
X005713Y011643D01*
X005707Y011704D01*
X005697Y011764D01*
X005684Y011823D01*
X005667Y011882D01*
X005646Y011939D01*
X005621Y011994D01*
X005593Y012049D01*
X005561Y012101D01*
X005527Y012151D01*
X005489Y012198D01*
X005448Y012243D01*
X005404Y012286D01*
X005358Y012325D01*
X005309Y012362D01*
X005258Y012395D01*
X005205Y012425D01*
X005150Y012452D01*
X005093Y012475D01*
X005093Y012474D01*
X005150Y012451D01*
X005204Y012424D01*
X005257Y012394D01*
X005308Y012361D01*
X005357Y012325D01*
X005403Y012285D01*
X005447Y012243D01*
X005488Y012198D01*
X005526Y012150D01*
X005560Y012100D01*
X005592Y012048D01*
X005620Y011994D01*
X005645Y011938D01*
X005666Y011881D01*
X005683Y011823D01*
X005697Y011764D01*
X005706Y011703D01*
X005712Y011643D01*
X005714Y011582D01*
X005712Y011521D01*
X005706Y011461D01*
X005697Y011400D01*
X005683Y011341D01*
X005666Y011283D01*
X005645Y011226D01*
X005620Y011170D01*
X005592Y011116D01*
X005560Y011064D01*
X005526Y011014D01*
X005488Y010966D01*
X005447Y010921D01*
X005403Y010879D01*
X005357Y010839D01*
X005308Y010803D01*
X005257Y010770D01*
X005204Y010740D01*
X005150Y010713D01*
X005093Y010690D01*
X005093Y010691D01*
X005149Y010714D01*
X005204Y010740D01*
X005257Y010770D01*
X005308Y010804D01*
X005356Y010840D01*
X005403Y010880D01*
X005446Y010922D01*
X005487Y010967D01*
X005525Y011015D01*
X005560Y011064D01*
X005591Y011116D01*
X005619Y011170D01*
X005644Y011226D01*
X005665Y011283D01*
X005682Y011341D01*
X005696Y011401D01*
X005705Y011461D01*
X005711Y011521D01*
X005713Y011582D01*
X005711Y011643D01*
X005705Y011703D01*
X005696Y011763D01*
X005682Y011823D01*
X005665Y011881D01*
X005644Y011938D01*
X005619Y011994D01*
X005591Y012048D01*
X005560Y012100D01*
X005525Y012149D01*
X005487Y012197D01*
X005446Y012242D01*
X005403Y012284D01*
X005356Y012324D01*
X005308Y012360D01*
X005257Y012394D01*
X005204Y012424D01*
X005149Y012450D01*
X005093Y012473D01*
X005092Y012472D01*
X005149Y012449D01*
X005203Y012423D01*
X005256Y012393D01*
X005307Y012360D01*
X005356Y012323D01*
X005402Y012284D01*
X005446Y012241D01*
X005486Y012196D01*
X005524Y012149D01*
X005559Y012099D01*
X005590Y012047D01*
X005618Y011993D01*
X005643Y011938D01*
X005664Y011881D01*
X005681Y011822D01*
X005695Y011763D01*
X005704Y011703D01*
X005710Y011643D01*
X005712Y011582D01*
X005710Y011521D01*
X005704Y011461D01*
X005695Y011401D01*
X005681Y011342D01*
X005664Y011283D01*
X005643Y011226D01*
X005618Y011171D01*
X005590Y011117D01*
X005559Y011065D01*
X005524Y011015D01*
X005486Y010968D01*
X005446Y010923D01*
X005402Y010880D01*
X005356Y010841D01*
X005307Y010804D01*
X005256Y010771D01*
X005203Y010741D01*
X005149Y010715D01*
X005092Y010692D01*
X005092Y010693D01*
X005148Y010716D01*
X005203Y010742D01*
X005256Y010772D01*
X005307Y010805D01*
X005355Y010842D01*
X005401Y010881D01*
X005445Y010923D01*
X005486Y010968D01*
X005523Y011016D01*
X005558Y011066D01*
X005589Y011117D01*
X005617Y011171D01*
X005642Y011227D01*
X005663Y011284D01*
X005680Y011342D01*
X005694Y011401D01*
X005703Y011461D01*
X005709Y011521D01*
X005711Y011582D01*
X005709Y011643D01*
X005703Y011703D01*
X005694Y011763D01*
X005680Y011822D01*
X005663Y011880D01*
X005642Y011937D01*
X005617Y011993D01*
X005589Y012047D01*
X005558Y012098D01*
X005523Y012148D01*
X005486Y012196D01*
X005445Y012241D01*
X005401Y012283D01*
X005355Y012322D01*
X005307Y012359D01*
X005256Y012392D01*
X005203Y012422D01*
X005148Y012448D01*
X005092Y012471D01*
X005092Y012470D01*
X005148Y012447D01*
X005202Y012421D01*
X005255Y012391D01*
X005306Y012358D01*
X005354Y012322D01*
X005401Y012282D01*
X005444Y012240D01*
X005485Y012195D01*
X005523Y012148D01*
X005557Y012098D01*
X005589Y012046D01*
X005617Y011992D01*
X005641Y011937D01*
X005662Y011880D01*
X005679Y011822D01*
X005693Y011763D01*
X005702Y011703D01*
X005708Y011643D01*
X005710Y011582D01*
X005708Y011521D01*
X005702Y011461D01*
X005693Y011401D01*
X005679Y011342D01*
X005662Y011284D01*
X005641Y011227D01*
X005617Y011172D01*
X005589Y011118D01*
X005557Y011066D01*
X005523Y011016D01*
X005485Y010969D01*
X005444Y010924D01*
X005401Y010882D01*
X005354Y010842D01*
X005306Y010806D01*
X005255Y010773D01*
X005202Y010743D01*
X005148Y010717D01*
X005092Y010694D01*
X004422Y012505D02*
X004435Y012469D01*
X004379Y012446D01*
X004324Y012420D01*
X004271Y012390D01*
X004221Y012357D01*
X004172Y012321D01*
X004126Y012281D01*
X004083Y012239D01*
X004042Y012194D01*
X004004Y012147D01*
X003970Y012097D01*
X003938Y012046D01*
X003910Y011992D01*
X003886Y011936D01*
X003865Y011880D01*
X003848Y011822D01*
X003834Y011763D01*
X003825Y011703D01*
X003819Y011643D01*
X003817Y011582D01*
X003819Y011521D01*
X003825Y011461D01*
X003834Y011401D01*
X003848Y011342D01*
X003865Y011284D01*
X003886Y011228D01*
X003910Y011172D01*
X003938Y011118D01*
X003970Y011067D01*
X004004Y011017D01*
X004042Y010970D01*
X004083Y010925D01*
X004126Y010883D01*
X004172Y010843D01*
X004221Y010807D01*
X004271Y010774D01*
X004324Y010744D01*
X004379Y010718D01*
X004435Y010695D01*
X004422Y010659D01*
X004421Y010658D01*
X004364Y010681D01*
X004309Y010708D01*
X004255Y010738D01*
X004204Y010771D01*
X004154Y010808D01*
X004107Y010847D01*
X004063Y010889D01*
X004021Y010935D01*
X003982Y010982D01*
X003946Y011032D01*
X003913Y011084D01*
X003884Y011138D01*
X003858Y011194D01*
X003835Y011251D01*
X003817Y011309D01*
X003801Y011369D01*
X003790Y011429D01*
X003782Y011490D01*
X003778Y011551D01*
X003778Y011613D01*
X003782Y011674D01*
X003790Y011735D01*
X003801Y011795D01*
X003817Y011855D01*
X003835Y011913D01*
X003858Y011970D01*
X003884Y012026D01*
X003913Y012080D01*
X003946Y012132D01*
X003982Y012182D01*
X004021Y012229D01*
X004063Y012275D01*
X004107Y012317D01*
X004154Y012356D01*
X004204Y012393D01*
X004255Y012426D01*
X004309Y012456D01*
X004364Y012483D01*
X004421Y012506D01*
X004421Y012505D01*
X004365Y012482D01*
X004309Y012455D01*
X004256Y012425D01*
X004204Y012392D01*
X004155Y012355D01*
X004108Y012316D01*
X004063Y012274D01*
X004021Y012229D01*
X003983Y012181D01*
X003947Y012132D01*
X003914Y012080D01*
X003885Y012026D01*
X003859Y011970D01*
X003836Y011913D01*
X003818Y011855D01*
X003802Y011795D01*
X003791Y011735D01*
X003783Y011674D01*
X003779Y011613D01*
X003779Y011551D01*
X003783Y011490D01*
X003791Y011429D01*
X003802Y011369D01*
X003818Y011309D01*
X003836Y011251D01*
X003859Y011194D01*
X003885Y011138D01*
X003914Y011084D01*
X003947Y011032D01*
X003983Y010983D01*
X004021Y010935D01*
X004063Y010890D01*
X004108Y010848D01*
X004155Y010809D01*
X004204Y010772D01*
X004256Y010739D01*
X004309Y010709D01*
X004365Y010682D01*
X004421Y010659D01*
X004422Y010660D01*
X004365Y010683D01*
X004310Y010710D01*
X004256Y010740D01*
X004205Y010773D01*
X004155Y010809D01*
X004108Y010849D01*
X004064Y010891D01*
X004022Y010936D01*
X003983Y010983D01*
X003948Y011033D01*
X003915Y011085D01*
X003886Y011139D01*
X003860Y011194D01*
X003837Y011251D01*
X003818Y011310D01*
X003803Y011369D01*
X003792Y011429D01*
X003784Y011490D01*
X003780Y011551D01*
X003780Y011613D01*
X003784Y011674D01*
X003792Y011735D01*
X003803Y011795D01*
X003818Y011854D01*
X003837Y011913D01*
X003860Y011970D01*
X003886Y012025D01*
X003915Y012079D01*
X003948Y012131D01*
X003983Y012181D01*
X004022Y012228D01*
X004064Y012273D01*
X004108Y012315D01*
X004155Y012355D01*
X004205Y012391D01*
X004256Y012424D01*
X004310Y012454D01*
X004365Y012481D01*
X004422Y012504D01*
X004422Y012503D01*
X004365Y012480D01*
X004310Y012453D01*
X004257Y012423D01*
X004205Y012390D01*
X004156Y012354D01*
X004109Y012315D01*
X004065Y012272D01*
X004023Y012228D01*
X003984Y012180D01*
X003948Y012130D01*
X003916Y012079D01*
X003887Y012025D01*
X003861Y011969D01*
X003838Y011912D01*
X003819Y011854D01*
X003804Y011795D01*
X003793Y011735D01*
X003785Y011674D01*
X003781Y011613D01*
X003781Y011551D01*
X003785Y011490D01*
X003793Y011429D01*
X003804Y011369D01*
X003819Y011310D01*
X003838Y011252D01*
X003861Y011195D01*
X003887Y011139D01*
X003916Y011085D01*
X003948Y011034D01*
X003984Y010984D01*
X004023Y010936D01*
X004065Y010892D01*
X004109Y010849D01*
X004156Y010810D01*
X004205Y010774D01*
X004257Y010741D01*
X004310Y010711D01*
X004365Y010684D01*
X004422Y010661D01*
X004422Y010662D01*
X004366Y010685D01*
X004311Y010712D01*
X004257Y010741D01*
X004206Y010775D01*
X004157Y010811D01*
X004110Y010850D01*
X004065Y010892D01*
X004024Y010937D01*
X003985Y010984D01*
X003949Y011034D01*
X003917Y011086D01*
X003887Y011140D01*
X003862Y011195D01*
X003839Y011252D01*
X003820Y011310D01*
X003805Y011370D01*
X003794Y011430D01*
X003786Y011490D01*
X003782Y011551D01*
X003782Y011613D01*
X003786Y011674D01*
X003794Y011734D01*
X003805Y011794D01*
X003820Y011854D01*
X003839Y011912D01*
X003862Y011969D01*
X003887Y012024D01*
X003917Y012078D01*
X003949Y012130D01*
X003985Y012180D01*
X004024Y012227D01*
X004065Y012272D01*
X004110Y012314D01*
X004157Y012353D01*
X004206Y012389D01*
X004257Y012423D01*
X004311Y012452D01*
X004366Y012479D01*
X004422Y012502D01*
X004423Y012501D01*
X004366Y012478D01*
X004311Y012452D01*
X004258Y012422D01*
X004206Y012389D01*
X004157Y012352D01*
X004110Y012313D01*
X004066Y012271D01*
X004024Y012226D01*
X003986Y012179D01*
X003950Y012129D01*
X003918Y012078D01*
X003888Y012024D01*
X003862Y011969D01*
X003840Y011912D01*
X003821Y011853D01*
X003806Y011794D01*
X003795Y011734D01*
X003787Y011674D01*
X003783Y011613D01*
X003783Y011551D01*
X003787Y011490D01*
X003795Y011430D01*
X003806Y011370D01*
X003821Y011311D01*
X003840Y011252D01*
X003862Y011195D01*
X003888Y011140D01*
X003918Y011086D01*
X003950Y011035D01*
X003986Y010985D01*
X004024Y010938D01*
X004066Y010893D01*
X004110Y010851D01*
X004157Y010812D01*
X004206Y010775D01*
X004258Y010742D01*
X004311Y010712D01*
X004366Y010686D01*
X004423Y010663D01*
X004423Y010664D01*
X004367Y010687D01*
X004312Y010713D01*
X004258Y010743D01*
X004207Y010776D01*
X004158Y010812D01*
X004111Y010852D01*
X004067Y010894D01*
X004025Y010938D01*
X003987Y010986D01*
X003951Y011035D01*
X003918Y011087D01*
X003889Y011141D01*
X003863Y011196D01*
X003841Y011253D01*
X003822Y011311D01*
X003807Y011370D01*
X003796Y011430D01*
X003788Y011491D01*
X003784Y011551D01*
X003784Y011613D01*
X003788Y011673D01*
X003796Y011734D01*
X003807Y011794D01*
X003822Y011853D01*
X003841Y011911D01*
X003863Y011968D01*
X003889Y012023D01*
X003918Y012077D01*
X003951Y012129D01*
X003987Y012178D01*
X004025Y012226D01*
X004067Y012270D01*
X004111Y012312D01*
X004158Y012352D01*
X004207Y012388D01*
X004258Y012421D01*
X004312Y012451D01*
X004367Y012477D01*
X004423Y012500D01*
X004424Y012499D01*
X004367Y012476D01*
X004312Y012450D01*
X004259Y012420D01*
X004208Y012387D01*
X004158Y012351D01*
X004112Y012312D01*
X004068Y012270D01*
X004026Y012225D01*
X003987Y012178D01*
X003952Y012128D01*
X003919Y012077D01*
X003890Y012023D01*
X003864Y011968D01*
X003842Y011911D01*
X003823Y011853D01*
X003808Y011794D01*
X003797Y011734D01*
X003789Y011673D01*
X003785Y011612D01*
X003785Y011552D01*
X003789Y011491D01*
X003797Y011430D01*
X003808Y011370D01*
X003823Y011311D01*
X003842Y011253D01*
X003864Y011196D01*
X003890Y011141D01*
X003919Y011087D01*
X003952Y011036D01*
X003987Y010986D01*
X004026Y010939D01*
X004068Y010894D01*
X004112Y010852D01*
X004158Y010813D01*
X004208Y010777D01*
X004259Y010744D01*
X004312Y010714D01*
X004367Y010688D01*
X004424Y010665D01*
X004424Y010666D01*
X004367Y010689D01*
X004312Y010715D01*
X004259Y010745D01*
X004208Y010778D01*
X004159Y010814D01*
X004112Y010853D01*
X004068Y010895D01*
X004027Y010940D01*
X003988Y010987D01*
X003953Y011036D01*
X003920Y011088D01*
X003891Y011141D01*
X003865Y011197D01*
X003843Y011253D01*
X003824Y011311D01*
X003809Y011370D01*
X003798Y011430D01*
X003790Y011491D01*
X003786Y011552D01*
X003786Y011612D01*
X003790Y011673D01*
X003798Y011734D01*
X003809Y011794D01*
X003824Y011853D01*
X003843Y011911D01*
X003865Y011967D01*
X003891Y012023D01*
X003920Y012076D01*
X003953Y012128D01*
X003988Y012177D01*
X004027Y012224D01*
X004068Y012269D01*
X004112Y012311D01*
X004159Y012350D01*
X004208Y012386D01*
X004259Y012419D01*
X004312Y012449D01*
X004367Y012475D01*
X004424Y012498D01*
X004424Y012497D01*
X004368Y012474D01*
X004313Y012448D01*
X004260Y012418D01*
X004209Y012385D01*
X004160Y012349D01*
X004113Y012310D01*
X004069Y012268D01*
X004028Y012224D01*
X003989Y012176D01*
X003953Y012127D01*
X003921Y012076D01*
X003892Y012022D01*
X003866Y011967D01*
X003844Y011910D01*
X003825Y011852D01*
X003810Y011793D01*
X003799Y011734D01*
X003791Y011673D01*
X003787Y011612D01*
X003787Y011552D01*
X003791Y011491D01*
X003799Y011430D01*
X003810Y011371D01*
X003825Y011312D01*
X003844Y011254D01*
X003866Y011197D01*
X003892Y011142D01*
X003921Y011088D01*
X003953Y011037D01*
X003989Y010988D01*
X004028Y010940D01*
X004069Y010896D01*
X004113Y010854D01*
X004160Y010815D01*
X004209Y010779D01*
X004260Y010746D01*
X004313Y010716D01*
X004368Y010690D01*
X004424Y010667D01*
X004425Y010668D01*
X004368Y010691D01*
X004313Y010717D01*
X004260Y010747D01*
X004209Y010780D01*
X004160Y010816D01*
X004114Y010855D01*
X004070Y010897D01*
X004028Y010941D01*
X003990Y010988D01*
X003954Y011037D01*
X003922Y011089D01*
X003893Y011142D01*
X003867Y011197D01*
X003845Y011254D01*
X003826Y011312D01*
X003811Y011371D01*
X003800Y011431D01*
X003792Y011491D01*
X003788Y011552D01*
X003788Y011612D01*
X003792Y011673D01*
X003800Y011733D01*
X003811Y011793D01*
X003826Y011852D01*
X003845Y011910D01*
X003867Y011967D01*
X003893Y012022D01*
X003922Y012075D01*
X003954Y012127D01*
X003990Y012176D01*
X004028Y012223D01*
X004070Y012267D01*
X004114Y012309D01*
X004160Y012348D01*
X004209Y012384D01*
X004260Y012417D01*
X004313Y012447D01*
X004368Y012473D01*
X004425Y012496D01*
X004425Y012495D01*
X004369Y012473D01*
X004314Y012446D01*
X004261Y012417D01*
X004210Y012384D01*
X004161Y012348D01*
X004114Y012309D01*
X004070Y012267D01*
X004029Y012222D01*
X003991Y012175D01*
X003955Y012126D01*
X003923Y012075D01*
X003894Y012021D01*
X003868Y011966D01*
X003846Y011910D01*
X003827Y011852D01*
X003812Y011793D01*
X003801Y011733D01*
X003793Y011673D01*
X003789Y011612D01*
X003789Y011552D01*
X003793Y011491D01*
X003801Y011431D01*
X003812Y011371D01*
X003827Y011312D01*
X003846Y011254D01*
X003868Y011198D01*
X003894Y011143D01*
X003923Y011089D01*
X003955Y011038D01*
X003991Y010989D01*
X004029Y010942D01*
X004070Y010897D01*
X004114Y010855D01*
X004161Y010816D01*
X004210Y010780D01*
X004261Y010747D01*
X004314Y010718D01*
X004369Y010691D01*
X004425Y010669D01*
X004425Y010670D01*
X004369Y010692D01*
X004314Y010719D01*
X004261Y010748D01*
X004210Y010781D01*
X004162Y010817D01*
X004115Y010856D01*
X004071Y010898D01*
X004030Y010942D01*
X003991Y010989D01*
X003956Y011039D01*
X003924Y011090D01*
X003895Y011143D01*
X003869Y011198D01*
X003847Y011255D01*
X003828Y011312D01*
X003813Y011371D01*
X003802Y011431D01*
X003794Y011491D01*
X003790Y011552D01*
X003790Y011612D01*
X003794Y011673D01*
X003802Y011733D01*
X003813Y011793D01*
X003828Y011852D01*
X003847Y011909D01*
X003869Y011966D01*
X003895Y012021D01*
X003924Y012074D01*
X003956Y012125D01*
X003991Y012175D01*
X004030Y012222D01*
X004071Y012266D01*
X004115Y012308D01*
X004162Y012347D01*
X004210Y012383D01*
X004261Y012416D01*
X004314Y012445D01*
X004369Y012472D01*
X004425Y012494D01*
X004426Y012494D01*
X004368Y012470D01*
X004312Y012443D01*
X004258Y012412D01*
X004206Y012378D01*
X004156Y012341D01*
X004109Y012301D01*
X004064Y012257D01*
X004022Y012211D01*
X003983Y012163D01*
X003948Y012112D01*
X003916Y012058D01*
X003887Y012003D01*
X003862Y011946D01*
X003840Y011888D01*
X003823Y011828D01*
X003809Y011768D01*
X003799Y011706D01*
X003793Y011644D01*
X003791Y011582D01*
X003793Y011520D01*
X003799Y011458D01*
X003809Y011396D01*
X003823Y011336D01*
X003840Y011276D01*
X003862Y011218D01*
X003887Y011161D01*
X003916Y011106D01*
X003948Y011052D01*
X003983Y011001D01*
X004022Y010953D01*
X004064Y010907D01*
X004109Y010863D01*
X004156Y010823D01*
X004206Y010786D01*
X004258Y010752D01*
X004312Y010721D01*
X004368Y010694D01*
X004426Y010670D01*
X004426Y010671D01*
X004368Y010695D01*
X004312Y010722D01*
X004258Y010752D01*
X004206Y010786D01*
X004157Y010824D01*
X004109Y010864D01*
X004065Y010907D01*
X004023Y010953D01*
X003984Y011002D01*
X003949Y011053D01*
X003917Y011106D01*
X003888Y011161D01*
X003863Y011218D01*
X003841Y011276D01*
X003824Y011336D01*
X003810Y011397D01*
X003800Y011458D01*
X003794Y011520D01*
X003792Y011582D01*
X003794Y011644D01*
X003800Y011706D01*
X003810Y011767D01*
X003824Y011828D01*
X003841Y011888D01*
X003863Y011946D01*
X003888Y012003D01*
X003917Y012058D01*
X003949Y012111D01*
X003984Y012162D01*
X004023Y012211D01*
X004065Y012257D01*
X004109Y012300D01*
X004157Y012340D01*
X004206Y012378D01*
X004258Y012412D01*
X004312Y012442D01*
X004368Y012469D01*
X004426Y012493D01*
X004426Y012492D01*
X004369Y012468D01*
X004313Y012441D01*
X004259Y012411D01*
X004207Y012377D01*
X004157Y012340D01*
X004110Y012299D01*
X004065Y012256D01*
X004024Y012210D01*
X003985Y012161D01*
X003950Y012110D01*
X003917Y012057D01*
X003889Y012002D01*
X003864Y011945D01*
X003842Y011887D01*
X003825Y011828D01*
X003811Y011767D01*
X003801Y011706D01*
X003795Y011644D01*
X003793Y011582D01*
X003795Y011520D01*
X003801Y011458D01*
X003811Y011397D01*
X003825Y011336D01*
X003842Y011277D01*
X003864Y011219D01*
X003889Y011162D01*
X003917Y011107D01*
X003950Y011054D01*
X003985Y011003D01*
X004024Y010954D01*
X004065Y010908D01*
X004110Y010865D01*
X004157Y010824D01*
X004207Y010787D01*
X004259Y010753D01*
X004313Y010723D01*
X004369Y010696D01*
X004426Y010672D01*
X004427Y010673D01*
X004369Y010697D01*
X004313Y010724D01*
X004259Y010754D01*
X004207Y010788D01*
X004158Y010825D01*
X004111Y010866D01*
X004066Y010909D01*
X004024Y010955D01*
X003986Y011003D01*
X003950Y011054D01*
X003918Y011107D01*
X003890Y011162D01*
X003865Y011219D01*
X003843Y011277D01*
X003826Y011337D01*
X003812Y011397D01*
X003802Y011458D01*
X003796Y011520D01*
X003794Y011582D01*
X003796Y011644D01*
X003802Y011706D01*
X003812Y011767D01*
X003826Y011827D01*
X003843Y011887D01*
X003865Y011945D01*
X003890Y012002D01*
X003918Y012057D01*
X003950Y012110D01*
X003986Y012161D01*
X004024Y012209D01*
X004066Y012255D01*
X004111Y012298D01*
X004158Y012339D01*
X004207Y012376D01*
X004259Y012410D01*
X004313Y012440D01*
X004369Y012467D01*
X004427Y012491D01*
X004427Y012490D01*
X004370Y012466D01*
X004314Y012439D01*
X004260Y012409D01*
X004208Y012375D01*
X004158Y012338D01*
X004111Y012298D01*
X004067Y012255D01*
X004025Y012209D01*
X003987Y012160D01*
X003951Y012109D01*
X003919Y012056D01*
X003891Y012001D01*
X003866Y011945D01*
X003844Y011887D01*
X003827Y011827D01*
X003813Y011767D01*
X003803Y011706D01*
X003797Y011644D01*
X003795Y011582D01*
X003797Y011520D01*
X003803Y011458D01*
X003813Y011397D01*
X003827Y011337D01*
X003844Y011277D01*
X003866Y011219D01*
X003891Y011163D01*
X003919Y011108D01*
X003951Y011055D01*
X003987Y011004D01*
X004025Y010955D01*
X004067Y010909D01*
X004111Y010866D01*
X004158Y010826D01*
X004208Y010789D01*
X004260Y010755D01*
X004314Y010725D01*
X004370Y010698D01*
X004427Y010674D01*
X004427Y010675D01*
X004370Y010698D01*
X004314Y010725D01*
X004260Y010756D01*
X004209Y010790D01*
X004159Y010827D01*
X004112Y010867D01*
X004068Y010910D01*
X004026Y010956D01*
X003987Y011004D01*
X003952Y011055D01*
X003920Y011108D01*
X003891Y011163D01*
X003866Y011220D01*
X003845Y011278D01*
X003828Y011337D01*
X003814Y011397D01*
X003804Y011459D01*
X003798Y011520D01*
X003796Y011582D01*
X003798Y011644D01*
X003804Y011705D01*
X003814Y011767D01*
X003828Y011827D01*
X003845Y011886D01*
X003866Y011944D01*
X003891Y012001D01*
X003920Y012056D01*
X003952Y012109D01*
X003987Y012160D01*
X004026Y012208D01*
X004068Y012254D01*
X004112Y012297D01*
X004159Y012337D01*
X004209Y012374D01*
X004260Y012408D01*
X004314Y012439D01*
X004370Y012466D01*
X004427Y012489D01*
X004428Y012488D01*
X004370Y012465D01*
X004315Y012438D01*
X004261Y012407D01*
X004209Y012373D01*
X004160Y012336D01*
X004113Y012296D01*
X004068Y012253D01*
X004027Y012207D01*
X003988Y012159D01*
X003953Y012108D01*
X003921Y012055D01*
X003892Y012001D01*
X003867Y011944D01*
X003846Y011886D01*
X003828Y011827D01*
X003815Y011766D01*
X003805Y011705D01*
X003799Y011644D01*
X003797Y011582D01*
X003799Y011520D01*
X003805Y011459D01*
X003815Y011398D01*
X003828Y011337D01*
X003846Y011278D01*
X003867Y011220D01*
X003892Y011163D01*
X003921Y011109D01*
X003953Y011056D01*
X003988Y011005D01*
X004027Y010957D01*
X004068Y010911D01*
X004113Y010868D01*
X004160Y010828D01*
X004209Y010791D01*
X004261Y010757D01*
X004315Y010726D01*
X004370Y010699D01*
X004428Y010676D01*
X004428Y010677D01*
X004371Y010700D01*
X004315Y010727D01*
X004261Y010758D01*
X004210Y010791D01*
X004160Y010828D01*
X004113Y010868D01*
X004069Y010911D01*
X004028Y010957D01*
X003989Y011006D01*
X003954Y011056D01*
X003922Y011109D01*
X003893Y011164D01*
X003868Y011220D01*
X003847Y011278D01*
X003829Y011338D01*
X003816Y011398D01*
X003806Y011459D01*
X003800Y011520D01*
X003798Y011582D01*
X003800Y011644D01*
X003806Y011705D01*
X003816Y011766D01*
X003829Y011826D01*
X003847Y011886D01*
X003868Y011944D01*
X003893Y012000D01*
X003922Y012055D01*
X003954Y012108D01*
X003989Y012158D01*
X004028Y012207D01*
X004069Y012253D01*
X004113Y012296D01*
X004160Y012336D01*
X004210Y012373D01*
X004261Y012406D01*
X004315Y012437D01*
X004371Y012464D01*
X004428Y012487D01*
X004428Y012486D01*
X004371Y012463D01*
X004316Y012436D01*
X004262Y012406D01*
X004210Y012372D01*
X004161Y012335D01*
X004114Y012295D01*
X004070Y012252D01*
X004028Y012206D01*
X003990Y012158D01*
X003955Y012107D01*
X003923Y012054D01*
X003894Y012000D01*
X003869Y011943D01*
X003848Y011885D01*
X003830Y011826D01*
X003817Y011766D01*
X003807Y011705D01*
X003801Y011644D01*
X003799Y011582D01*
X003801Y011520D01*
X003807Y011459D01*
X003817Y011398D01*
X003830Y011338D01*
X003848Y011279D01*
X003869Y011221D01*
X003894Y011164D01*
X003923Y011110D01*
X003955Y011057D01*
X003990Y011006D01*
X004028Y010958D01*
X004070Y010912D01*
X004114Y010869D01*
X004161Y010829D01*
X004210Y010792D01*
X004262Y010758D01*
X004316Y010728D01*
X004371Y010701D01*
X004428Y010678D01*
X004429Y010679D01*
X004372Y010702D01*
X004316Y010729D01*
X004262Y010759D01*
X004211Y010793D01*
X004162Y010830D01*
X004115Y010870D01*
X004070Y010913D01*
X004029Y010959D01*
X003991Y011007D01*
X003955Y011057D01*
X003924Y011110D01*
X003895Y011165D01*
X003870Y011221D01*
X003849Y011279D01*
X003831Y011338D01*
X003818Y011398D01*
X003808Y011459D01*
X003802Y011520D01*
X003800Y011582D01*
X003802Y011644D01*
X003808Y011705D01*
X003818Y011766D01*
X003831Y011826D01*
X003849Y011885D01*
X003870Y011943D01*
X003895Y011999D01*
X003924Y012054D01*
X003955Y012107D01*
X003991Y012157D01*
X004029Y012205D01*
X004070Y012251D01*
X004115Y012294D01*
X004162Y012334D01*
X004211Y012371D01*
X004262Y012405D01*
X004316Y012435D01*
X004372Y012462D01*
X004429Y012485D01*
X004429Y012484D01*
X004372Y012461D01*
X004317Y012434D01*
X004263Y012404D01*
X004211Y012370D01*
X004162Y012333D01*
X004115Y012293D01*
X004071Y012250D01*
X004030Y012205D01*
X003991Y012157D01*
X003956Y012106D01*
X003924Y012053D01*
X003896Y011999D01*
X003871Y011942D01*
X003850Y011885D01*
X003832Y011826D01*
X003819Y011766D01*
X003809Y011705D01*
X003803Y011644D01*
X003801Y011582D01*
X003803Y011520D01*
X003809Y011459D01*
X003819Y011398D01*
X003832Y011338D01*
X003850Y011279D01*
X003871Y011222D01*
X003896Y011165D01*
X003924Y011111D01*
X003956Y011058D01*
X003991Y011007D01*
X004030Y010959D01*
X004071Y010914D01*
X004115Y010871D01*
X004162Y010831D01*
X004211Y010794D01*
X004263Y010760D01*
X004317Y010730D01*
X004372Y010703D01*
X004429Y010680D01*
X004429Y010681D01*
X004372Y010704D01*
X004317Y010731D01*
X004264Y010761D01*
X004212Y010795D01*
X004163Y010831D01*
X004116Y010871D01*
X004072Y010914D01*
X004031Y010960D01*
X003992Y011008D01*
X003957Y011058D01*
X003925Y011111D01*
X003897Y011166D01*
X003872Y011222D01*
X003851Y011280D01*
X003833Y011339D01*
X003820Y011399D01*
X003810Y011459D01*
X003804Y011521D01*
X003802Y011582D01*
X003804Y011643D01*
X003810Y011705D01*
X003820Y011765D01*
X003833Y011825D01*
X003851Y011884D01*
X003872Y011942D01*
X003897Y011998D01*
X003925Y012053D01*
X003957Y012106D01*
X003992Y012156D01*
X004031Y012204D01*
X004072Y012250D01*
X004116Y012293D01*
X004163Y012333D01*
X004212Y012369D01*
X004264Y012403D01*
X004317Y012433D01*
X004372Y012460D01*
X004429Y012483D01*
X004430Y012482D01*
X004373Y012459D01*
X004318Y012432D01*
X004264Y012402D01*
X004213Y012369D01*
X004163Y012332D01*
X004117Y012292D01*
X004073Y012249D01*
X004031Y012203D01*
X003993Y012155D01*
X003958Y012105D01*
X003926Y012052D01*
X003898Y011998D01*
X003873Y011942D01*
X003852Y011884D01*
X003834Y011825D01*
X003821Y011765D01*
X003811Y011705D01*
X003805Y011643D01*
X003803Y011582D01*
X003805Y011521D01*
X003811Y011459D01*
X003821Y011399D01*
X003834Y011339D01*
X003852Y011280D01*
X003873Y011222D01*
X003898Y011166D01*
X003926Y011112D01*
X003958Y011059D01*
X003993Y011009D01*
X004031Y010961D01*
X004073Y010915D01*
X004117Y010872D01*
X004163Y010832D01*
X004213Y010795D01*
X004264Y010762D01*
X004318Y010732D01*
X004373Y010705D01*
X004430Y010682D01*
X004430Y010683D01*
X004373Y010706D01*
X004318Y010733D01*
X004265Y010763D01*
X004213Y010796D01*
X004164Y010833D01*
X004117Y010873D01*
X004073Y010916D01*
X004032Y010961D01*
X003994Y011009D01*
X003959Y011060D01*
X003927Y011112D01*
X003899Y011167D01*
X003874Y011223D01*
X003853Y011280D01*
X003835Y011339D01*
X003822Y011399D01*
X003812Y011460D01*
X003806Y011521D01*
X003804Y011582D01*
X003806Y011643D01*
X003812Y011704D01*
X003822Y011765D01*
X003835Y011825D01*
X003853Y011884D01*
X003874Y011941D01*
X003899Y011997D01*
X003927Y012052D01*
X003959Y012104D01*
X003994Y012155D01*
X004032Y012203D01*
X004073Y012248D01*
X004117Y012291D01*
X004164Y012331D01*
X004213Y012368D01*
X004265Y012401D01*
X004318Y012431D01*
X004373Y012458D01*
X004430Y012481D01*
X004430Y012480D01*
X004374Y012457D01*
X004318Y012431D01*
X004265Y012400D01*
X004214Y012367D01*
X004165Y012330D01*
X004118Y012290D01*
X004074Y012248D01*
X004033Y012202D01*
X003995Y012154D01*
X003960Y012104D01*
X003928Y012051D01*
X003900Y011997D01*
X003875Y011941D01*
X003854Y011883D01*
X003836Y011825D01*
X003823Y011765D01*
X003813Y011704D01*
X003807Y011643D01*
X003805Y011582D01*
X003807Y011521D01*
X003813Y011460D01*
X003823Y011399D01*
X003836Y011339D01*
X003854Y011281D01*
X003875Y011223D01*
X003900Y011167D01*
X003928Y011113D01*
X003960Y011060D01*
X003995Y011010D01*
X004033Y010962D01*
X004074Y010916D01*
X004118Y010874D01*
X004165Y010834D01*
X004214Y010797D01*
X004265Y010764D01*
X004318Y010733D01*
X004374Y010707D01*
X004430Y010684D01*
X004431Y010685D01*
X004374Y010708D01*
X004319Y010734D01*
X004266Y010764D01*
X004214Y010798D01*
X004165Y010835D01*
X004119Y010874D01*
X004075Y010917D01*
X004034Y010962D01*
X003995Y011010D01*
X003960Y011061D01*
X003929Y011113D01*
X003900Y011167D01*
X003876Y011223D01*
X003855Y011281D01*
X003837Y011340D01*
X003824Y011399D01*
X003814Y011460D01*
X003808Y011521D01*
X003806Y011582D01*
X003808Y011643D01*
X003814Y011704D01*
X003824Y011765D01*
X003837Y011824D01*
X003855Y011883D01*
X003876Y011941D01*
X003900Y011997D01*
X003929Y012051D01*
X003960Y012103D01*
X003995Y012154D01*
X004034Y012202D01*
X004075Y012247D01*
X004119Y012290D01*
X004165Y012329D01*
X004214Y012366D01*
X004266Y012400D01*
X004319Y012430D01*
X004374Y012456D01*
X004431Y012479D01*
X004374Y012455D01*
X004319Y012429D01*
X004266Y012399D01*
X004215Y012365D01*
X004166Y012329D01*
X004119Y012289D01*
X004075Y012246D01*
X004034Y012201D01*
X003996Y012153D01*
X003961Y012103D01*
X003930Y012050D01*
X003901Y011996D01*
X003877Y011940D01*
X003856Y011883D01*
X003838Y011824D01*
X003825Y011764D01*
X003815Y011704D01*
X003809Y011643D01*
X003807Y011582D01*
X003809Y011521D01*
X003815Y011460D01*
X003825Y011400D01*
X003838Y011340D01*
X003856Y011281D01*
X003877Y011224D01*
X003901Y011168D01*
X003930Y011114D01*
X003961Y011061D01*
X003996Y011011D01*
X004034Y010963D01*
X004075Y010918D01*
X004119Y010875D01*
X004166Y010835D01*
X004215Y010799D01*
X004266Y010765D01*
X004319Y010735D01*
X004374Y010709D01*
X004431Y010685D01*
X004431Y010686D01*
X004375Y010709D01*
X004320Y010736D01*
X004267Y010766D01*
X004215Y010800D01*
X004167Y010836D01*
X004120Y010876D01*
X004076Y010918D01*
X004035Y010964D01*
X003997Y011012D01*
X003962Y011062D01*
X003931Y011114D01*
X003902Y011168D01*
X003878Y011224D01*
X003857Y011282D01*
X003839Y011340D01*
X003826Y011400D01*
X003816Y011460D01*
X003810Y011521D01*
X003808Y011582D01*
X003810Y011643D01*
X003816Y011704D01*
X003826Y011764D01*
X003839Y011824D01*
X003857Y011882D01*
X003878Y011940D01*
X003902Y011996D01*
X003931Y012050D01*
X003962Y012102D01*
X003997Y012152D01*
X004035Y012200D01*
X004076Y012246D01*
X004120Y012288D01*
X004167Y012328D01*
X004215Y012364D01*
X004267Y012398D01*
X004320Y012428D01*
X004375Y012455D01*
X004431Y012478D01*
X004432Y012477D01*
X004375Y012454D01*
X004320Y012427D01*
X004267Y012397D01*
X004216Y012364D01*
X004167Y012327D01*
X004121Y012287D01*
X004077Y012245D01*
X004036Y012200D01*
X003998Y012152D01*
X003963Y012102D01*
X003931Y012049D01*
X003903Y011995D01*
X003879Y011939D01*
X003857Y011882D01*
X003840Y011824D01*
X003827Y011764D01*
X003817Y011704D01*
X003811Y011643D01*
X003809Y011582D01*
X003811Y011521D01*
X003817Y011460D01*
X003827Y011400D01*
X003840Y011340D01*
X003857Y011282D01*
X003879Y011225D01*
X003903Y011169D01*
X003931Y011115D01*
X003963Y011062D01*
X003998Y011012D01*
X004036Y010964D01*
X004077Y010919D01*
X004121Y010877D01*
X004167Y010837D01*
X004216Y010800D01*
X004267Y010767D01*
X004320Y010737D01*
X004375Y010710D01*
X004432Y010687D01*
X004432Y010688D01*
X004376Y010711D01*
X004321Y010738D01*
X004268Y010768D01*
X004217Y010801D01*
X004168Y010838D01*
X004121Y010877D01*
X004078Y010920D01*
X004037Y010965D01*
X003999Y011013D01*
X003964Y011063D01*
X003932Y011115D01*
X003904Y011169D01*
X003879Y011225D01*
X003858Y011282D01*
X003841Y011341D01*
X003828Y011400D01*
X003818Y011460D01*
X003812Y011521D01*
X003810Y011582D01*
X003812Y011643D01*
X003818Y011704D01*
X003828Y011764D01*
X003841Y011823D01*
X003858Y011882D01*
X003879Y011939D01*
X003904Y011995D01*
X003932Y012049D01*
X003964Y012101D01*
X003999Y012151D01*
X004037Y012199D01*
X004078Y012244D01*
X004121Y012287D01*
X004168Y012326D01*
X004217Y012363D01*
X004268Y012396D01*
X004321Y012426D01*
X004376Y012453D01*
X004432Y012476D01*
X004433Y012475D01*
X004376Y012452D01*
X004321Y012425D01*
X004268Y012395D01*
X004217Y012362D01*
X004168Y012325D01*
X004122Y012286D01*
X004078Y012243D01*
X004037Y012198D01*
X003999Y012151D01*
X003965Y012101D01*
X003933Y012049D01*
X003905Y011994D01*
X003880Y011939D01*
X003859Y011882D01*
X003842Y011823D01*
X003829Y011764D01*
X003819Y011704D01*
X003813Y011643D01*
X003811Y011582D01*
X003813Y011521D01*
X003819Y011460D01*
X003829Y011400D01*
X003842Y011341D01*
X003859Y011282D01*
X003880Y011225D01*
X003905Y011170D01*
X003933Y011115D01*
X003965Y011063D01*
X003999Y011013D01*
X004037Y010966D01*
X004078Y010921D01*
X004122Y010878D01*
X004168Y010839D01*
X004217Y010802D01*
X004268Y010769D01*
X004321Y010739D01*
X004376Y010712D01*
X004433Y010689D01*
X004433Y010690D01*
X004376Y010713D01*
X004322Y010740D01*
X004269Y010770D01*
X004218Y010803D01*
X004169Y010839D01*
X004123Y010879D01*
X004079Y010921D01*
X004038Y010966D01*
X004000Y011014D01*
X003966Y011064D01*
X003934Y011116D01*
X003906Y011170D01*
X003881Y011226D01*
X003860Y011283D01*
X003843Y011341D01*
X003829Y011400D01*
X003820Y011461D01*
X003814Y011521D01*
X003812Y011582D01*
X003814Y011643D01*
X003820Y011703D01*
X003829Y011764D01*
X003843Y011823D01*
X003860Y011881D01*
X003881Y011938D01*
X003906Y011994D01*
X003934Y012048D01*
X003966Y012100D01*
X004000Y012150D01*
X004038Y012198D01*
X004079Y012243D01*
X004123Y012285D01*
X004169Y012325D01*
X004218Y012361D01*
X004269Y012394D01*
X004322Y012424D01*
X004376Y012451D01*
X004433Y012474D01*
X004433Y012473D01*
X004377Y012450D01*
X004322Y012424D01*
X004269Y012394D01*
X004218Y012360D01*
X004170Y012324D01*
X004123Y012284D01*
X004080Y012242D01*
X004039Y012197D01*
X004001Y012149D01*
X003966Y012100D01*
X003935Y012048D01*
X003907Y011994D01*
X003882Y011938D01*
X003861Y011881D01*
X003844Y011823D01*
X003830Y011763D01*
X003821Y011703D01*
X003815Y011643D01*
X003813Y011582D01*
X003815Y011521D01*
X003821Y011461D01*
X003830Y011401D01*
X003844Y011341D01*
X003861Y011283D01*
X003882Y011226D01*
X003907Y011170D01*
X003935Y011116D01*
X003966Y011064D01*
X004001Y011015D01*
X004039Y010967D01*
X004080Y010922D01*
X004123Y010880D01*
X004170Y010840D01*
X004218Y010804D01*
X004269Y010770D01*
X004322Y010740D01*
X004377Y010714D01*
X004433Y010691D01*
X004434Y010692D01*
X004377Y010715D01*
X004323Y010741D01*
X004270Y010771D01*
X004219Y010804D01*
X004170Y010841D01*
X004124Y010880D01*
X004080Y010923D01*
X004040Y010968D01*
X004002Y011015D01*
X003967Y011065D01*
X003936Y011117D01*
X003908Y011171D01*
X003883Y011226D01*
X003862Y011283D01*
X003845Y011342D01*
X003831Y011401D01*
X003822Y011461D01*
X003816Y011521D01*
X003814Y011582D01*
X003816Y011643D01*
X003822Y011703D01*
X003831Y011763D01*
X003845Y011822D01*
X003862Y011881D01*
X003883Y011938D01*
X003908Y011993D01*
X003936Y012047D01*
X003967Y012099D01*
X004002Y012149D01*
X004040Y012196D01*
X004080Y012241D01*
X004124Y012284D01*
X004170Y012323D01*
X004219Y012360D01*
X004270Y012393D01*
X004323Y012423D01*
X004377Y012449D01*
X004434Y012472D01*
X004434Y012471D01*
X004378Y012448D01*
X004323Y012422D01*
X004270Y012392D01*
X004219Y012359D01*
X004171Y012322D01*
X004125Y012283D01*
X004081Y012241D01*
X004040Y012196D01*
X004003Y012148D01*
X003968Y012098D01*
X003937Y012047D01*
X003909Y011993D01*
X003884Y011937D01*
X003863Y011880D01*
X003846Y011822D01*
X003832Y011763D01*
X003823Y011703D01*
X003817Y011643D01*
X003815Y011582D01*
X003817Y011521D01*
X003823Y011461D01*
X003832Y011401D01*
X003846Y011342D01*
X003863Y011284D01*
X003884Y011227D01*
X003909Y011171D01*
X003937Y011117D01*
X003968Y011066D01*
X004003Y011016D01*
X004040Y010968D01*
X004081Y010923D01*
X004125Y010881D01*
X004171Y010842D01*
X004219Y010805D01*
X004270Y010772D01*
X004323Y010742D01*
X004378Y010716D01*
X004434Y010693D01*
X004434Y010694D01*
X004378Y010717D01*
X004324Y010743D01*
X004271Y010773D01*
X004220Y010806D01*
X004172Y010842D01*
X004125Y010882D01*
X004082Y010924D01*
X004041Y010969D01*
X004003Y011016D01*
X003969Y011066D01*
X003937Y011118D01*
X003909Y011172D01*
X003885Y011227D01*
X003864Y011284D01*
X003847Y011342D01*
X003833Y011401D01*
X003824Y011461D01*
X003818Y011521D01*
X003816Y011582D01*
X003818Y011643D01*
X003824Y011703D01*
X003833Y011763D01*
X003847Y011822D01*
X003864Y011880D01*
X003885Y011937D01*
X003909Y011992D01*
X003937Y012046D01*
X003969Y012098D01*
X004003Y012148D01*
X004041Y012195D01*
X004082Y012240D01*
X004125Y012282D01*
X004172Y012322D01*
X004220Y012358D01*
X004271Y012391D01*
X004324Y012421D01*
X004378Y012447D01*
X004434Y012470D01*
M02*
